<?xml version="1.0" encoding="UTF-8" standalone="no"?>
<!DOCTYPE svg PUBLIC "-//W3C//DTD SVG 1.1//EN" "http://www.w3.org/Graphics/SVG/1.1/DTD/svg11.dtd">
<svg xmlns:xlink="http://www.w3.org/1999/xlink" height="400px" version="1.1" viewBox="0 0 600 400" width="600px" x="0px" y="0px" xmlns="http://www.w3.org/2000/svg">
  <defs>
    <clipPath id="clip807176704">
      <rect height="341.40625" width="472.84375" x="45.78125" y="10"/>
    </clipPath>
  </defs>
  <rect height="400" style="fill:rgb(210,210,210);stroke:none;" width="600" x="0" y="0"/>
  <g transform="translate(18 184)">
    <path d="M-0,-3.125 L-3.609375,-3.125 L-8.59375,0.015625 L-8.59375,-2.015625 L-5.1875,-4.03125 L-8.59375,-6.015625 L-8.59375,-8.015625 L-3.609375,-4.859375 L-0.0,-4.859375 L-0.0,-3.125 Z" style="fill:rgb(0,0,0);stroke:none;"/>
  </g>
  <g transform="translate(28 118.39732142857142)">
    <path d="M0.53125,-2.203125 L2.171875,-2.375 Q2.25,-1.828125 2.59375,-1.5 Q2.9375,-1.171875 3.390625,-1.171875 Q3.90625,-1.171875 4.265625,-1.59375 Q4.625,-2.015625 4.625,-2.859375 Q4.625,-3.640625 4.265625,-4.03125 Q3.90625,-4.4375 3.34375,-4.4375 Q2.625,-4.4375 2.0625,-3.8125 L0.734375,-4 L1.578125,-8.46875 L5.9375,-8.46875 L5.9375,-6.9375 L2.828125,-6.9375 L2.5625,-5.46875 Q3.125,-5.75 3.6875,-5.75 Q4.78125,-5.75 5.546875,-4.953125 Q6.3125,-4.15625 6.3125,-2.890625 Q6.3125,-1.828125 5.703125,-0.984375 Q4.859375,0.140625 3.375,0.140625 Q2.1875,0.140625 1.4375,-0.484375 Q0.6875,-1.125 0.53125,-2.203125 Z" style="fill:rgb(0,0,0);stroke:none;"/>
  </g>
  <g transform="translate(28 28.15625)">
    <path d="M0.515625,-6.9375 L0.515625,-8.46875 L6.140625,-8.46875 L6.140625,-7.28125 Q5.4375,-6.59375 4.71875,-5.3125 Q4,-4.03125 3.625,-2.578125 Q3.25,-1.140625 3.25,-0 L1.671875,-0 Q1.703125,-1.78125 2.390625,-3.625 Q3.09375,-5.484375 4.25,-6.9375 L0.515625,-6.9375 Z" style="fill:rgb(0,0,0);stroke:none;"/>
  </g>
  <g transform="translate(28 252.50892857142856)">
    <path d="M6.078125,-1.53125 L6.078125,-0 L0.296875,-0 Q0.390625,-0.875 0.859375,-1.640625 Q1.328125,-2.421875 2.71875,-3.703125 Q3.828125,-4.734375 4.078125,-5.109375 Q4.421875,-5.625 4.421875,-6.125 Q4.421875,-6.671875 4.125,-6.96875 Q3.828125,-7.265625 3.3125,-7.265625 Q2.796875,-7.265625 2.484375,-6.953125 Q2.1875,-6.640625 2.140625,-5.921875 L0.5,-6.078125 Q0.640625,-7.4375 1.40625,-8.03125 Q2.1875,-8.625 3.34375,-8.625 Q4.625,-8.625 5.34375,-7.9375 Q6.078125,-7.25 6.078125,-6.234375 Q6.078125,-5.65625 5.859375,-5.125 Q5.65625,-4.609375 5.203125,-4.03125 Q4.90625,-3.65625 4.125,-2.9375 Q3.34375,-2.21875 3.140625,-1.984375 Q2.9375,-1.75 2.796875,-1.53125 L6.078125,-1.53125 Z" style="fill:rgb(0,0,0);stroke:none;"/>
  </g>
  <g transform="translate(28 162.76785714285714)">
    <path d="M3.734375,-0 L3.734375,-1.734375 L0.21875,-1.734375 L0.21875,-3.171875 L3.953125,-8.625 L5.328125,-8.625 L5.328125,-3.171875 L6.40625,-3.171875 L6.40625,-1.734375 L5.328125,-1.734375 L5.328125,-0 L3.734375,-0 Z M3.734375,-3.171875 L3.734375,-6.109375 L1.765625,-3.171875 L3.734375,-3.171875 Z" style="fill:rgb(0,0,0);stroke:none;"/>
  </g>
  <g transform="translate(28 342.75)">
    <path d="M3.296875,-8.625 Q4.546875,-8.625 5.25,-7.734375 Q6.078125,-6.6875 6.078125,-4.234375 Q6.078125,-1.796875 5.234375,-0.734375 Q4.546875,0.140625 3.296875,0.140625 Q2.046875,0.140625 1.265625,-0.8125 Q0.5,-1.78125 0.5,-4.25 Q0.5,-6.6875 1.34375,-7.75 Q2.046875,-8.625 3.296875,-8.625 Z M3.296875,-7.265625 Q3,-7.265625 2.765625,-7.0625 Q2.53125,-6.875 2.390625,-6.390625 Q2.234375,-5.75 2.234375,-4.234375 Q2.234375,-2.71875 2.375,-2.15625 Q2.53125,-1.59375 2.765625,-1.40625 Q3,-1.21875 3.296875,-1.21875 Q3.59375,-1.21875 3.828125,-1.40625 Q4.0625,-1.59375 4.1875,-2.09375 Q4.359375,-2.71875 4.359375,-4.234375 Q4.359375,-5.75 4.203125,-6.3125 Q4.0625,-6.875 3.828125,-7.0625 Q3.59375,-7.265625 3.296875,-7.265625 Z" style="fill:rgb(0,0,0);stroke:none;"/>
  </g>
  <g transform="translate(28 297.3794642857143)">
    <path d="M4.71875,-0 L3.078125,-0 L3.078125,-6.203125 Q2.171875,-5.359375 0.953125,-4.953125 L0.953125,-6.453125 Q1.59375,-6.65625 2.34375,-7.25 Q3.109375,-7.84375 3.390625,-8.625 L4.71875,-8.625 L4.71875,-0 Z" style="fill:rgb(0,0,0);stroke:none;"/>
  </g>
  <g transform="translate(28 208.13839285714286)">
    <path d="M0.453125,-2.28125 L2.046875,-2.46875 Q2.125,-1.859375 2.453125,-1.53125 Q2.796875,-1.21875 3.265625,-1.21875 Q3.78125,-1.21875 4.125,-1.609375 Q4.46875,-2 4.46875,-2.65625 Q4.46875,-3.265625 4.125,-3.625 Q3.796875,-4 3.328125,-4 Q3,-4 2.5625,-3.875 L2.75,-5.21875 Q3.421875,-5.203125 3.765625,-5.5 Q4.125,-5.8125 4.125,-6.328125 Q4.125,-6.75 3.859375,-7 Q3.609375,-7.265625 3.171875,-7.265625 Q2.75,-7.265625 2.453125,-6.96875 Q2.15625,-6.6875 2.09375,-6.125 L0.578125,-6.375 Q0.734375,-7.15625 1.046875,-7.625 Q1.375,-8.09375 1.9375,-8.359375 Q2.515625,-8.625 3.21875,-8.625 Q4.4375,-8.625 5.171875,-7.859375 Q5.765625,-7.21875 5.765625,-6.421875 Q5.765625,-5.296875 4.53125,-4.625 Q5.28125,-4.453125 5.71875,-3.90625 Q6.15625,-3.359375 6.15625,-2.578125 Q6.15625,-1.453125 5.328125,-0.65625 Q4.5,0.140625 3.28125,0.140625 Q2.109375,0.140625 1.34375,-0.53125 Q0.578125,-1.203125 0.453125,-2.28125 Z" style="fill:rgb(0,0,0);stroke:none;"/>
  </g>
  <g transform="translate(28 73.52678571428572)">
    <path d="M6.09375,-6.484375 L4.5,-6.3125 Q4.4375,-6.796875 4.1875,-7.03125 Q3.9375,-7.265625 3.546875,-7.265625 Q3.03125,-7.265625 2.671875,-6.796875 Q2.3125,-6.328125 2.21875,-4.859375 Q2.828125,-5.578125 3.75,-5.578125 Q4.78125,-5.578125 5.515625,-4.796875 Q6.25,-4.015625 6.25,-2.765625 Q6.25,-1.453125 5.46875,-0.65625 Q4.703125,0.140625 3.484375,0.140625 Q2.1875,0.140625 1.34375,-0.859375 Q0.515625,-1.875 0.515625,-4.171875 Q0.515625,-6.546875 1.375,-7.578125 Q2.25,-8.625 3.65625,-8.625 Q4.625,-8.625 5.265625,-8.078125 Q5.90625,-7.53125 6.09375,-6.484375 Z M2.359375,-2.890625 Q2.359375,-2.09375 2.71875,-1.65625 Q3.09375,-1.21875 3.5625,-1.21875 Q4.03125,-1.21875 4.328125,-1.578125 Q4.640625,-1.9375 4.640625,-2.75 Q4.640625,-3.59375 4.3125,-3.96875 Q3.984375,-4.359375 3.484375,-4.359375 Q3.015625,-4.359375 2.6875,-3.984375 Q2.359375,-3.625 2.359375,-2.890625 Z" style="fill:rgb(0,0,0);stroke:none;"/>
  </g>
  <g>
    <line style="fill:none;stroke:rgb(130,130,130);stroke-miterlimit:10;stroke-linecap:square;" x1="38.1875" x2="41.1875" y1="337.75" y2="337.75"/>
    <line style="fill:none;stroke:rgb(130,130,130);stroke-miterlimit:10;stroke-linecap:square;" x1="38.1875" x2="41.1875" y1="292.8794642857143" y2="292.8794642857143"/>
    <line style="fill:none;stroke:rgb(130,130,130);stroke-miterlimit:10;stroke-linecap:square;" x1="38.1875" x2="41.1875" y1="248.00892857142856" y2="248.00892857142856"/>
    <line style="fill:none;stroke:rgb(130,130,130);stroke-miterlimit:10;stroke-linecap:square;" x1="38.1875" x2="41.1875" y1="203.13839285714286" y2="203.13839285714286"/>
    <line style="fill:none;stroke:rgb(130,130,130);stroke-miterlimit:10;stroke-linecap:square;" x1="38.1875" x2="41.1875" y1="158.26785714285714" y2="158.26785714285714"/>
    <line style="fill:none;stroke:rgb(130,130,130);stroke-miterlimit:10;stroke-linecap:square;" x1="38.1875" x2="41.1875" y1="113.39732142857142" y2="113.39732142857142"/>
    <line style="fill:none;stroke:rgb(130,130,130);stroke-miterlimit:10;stroke-linecap:square;" x1="38.1875" x2="41.1875" y1="68.52678571428572" y2="68.52678571428572"/>
    <line style="fill:none;stroke:rgb(130,130,130);stroke-miterlimit:10;stroke-linecap:square;" x1="38.1875" x2="41.1875" y1="23.65625" y2="23.65625"/>
    <line style="fill:none;stroke:rgb(130,130,130);stroke-miterlimit:10;stroke-linecap:square;" x1="41.1875" x2="41.1875" y1="10" y2="351.40625"/>
  </g>
  <g transform="translate(278.2109375 390)">
    <path d="M0,-0 L2.9375,-4.484375 L0.28125,-8.59375 L2.296875,-8.59375 L4.03125,-5.828125 L5.71875,-8.59375 L7.71875,-8.59375 L5.046875,-4.421875 L7.984375,-0 L5.890625,-0 L3.984375,-2.96875 L2.078125,-0 L0.0,-0 Z" style="fill:rgb(0,0,0);stroke:none;"/>
  </g>
  <g transform="translate(135.3148958333333 371.40625)">
    <path d="M4.71875,-0 L3.078125,-0 L3.078125,-6.203125 Q2.171875,-5.359375 0.953125,-4.953125 L0.953125,-6.453125 Q1.59375,-6.65625 2.34375,-7.25 Q3.109375,-7.84375 3.390625,-8.625 L4.71875,-8.625 L4.71875,-0 Z" style="fill:rgb(0,0,0);stroke:none;"/>
  </g>
  <g transform="translate(279.3125 371.40625)">
    <path d="M6.078125,-1.53125 L6.078125,-0 L0.296875,-0 Q0.390625,-0.875 0.859375,-1.640625 Q1.328125,-2.421875 2.71875,-3.703125 Q3.828125,-4.734375 4.078125,-5.109375 Q4.421875,-5.625 4.421875,-6.125 Q4.421875,-6.671875 4.125,-6.96875 Q3.828125,-7.265625 3.3125,-7.265625 Q2.796875,-7.265625 2.484375,-6.953125 Q2.1875,-6.640625 2.140625,-5.921875 L0.5,-6.078125 Q0.640625,-7.4375 1.40625,-8.03125 Q2.1875,-8.625 3.34375,-8.625 Q4.625,-8.625 5.34375,-7.9375 Q6.078125,-7.25 6.078125,-6.234375 Q6.078125,-5.65625 5.859375,-5.125 Q5.65625,-4.609375 5.203125,-4.03125 Q4.90625,-3.65625 4.125,-2.9375 Q3.34375,-2.21875 3.140625,-1.984375 Q2.9375,-1.75 2.796875,-1.53125 L6.078125,-1.53125 Z" style="fill:rgb(0,0,0);stroke:none;"/>
  </g>
  <g transform="translate(424.35697916666663 371.265625)">
    <path d="M0.453125,-2.28125 L2.046875,-2.46875 Q2.125,-1.859375 2.453125,-1.53125 Q2.796875,-1.21875 3.265625,-1.21875 Q3.78125,-1.21875 4.125,-1.609375 Q4.46875,-2 4.46875,-2.65625 Q4.46875,-3.265625 4.125,-3.625 Q3.796875,-4 3.328125,-4 Q3,-4 2.5625,-3.875 L2.75,-5.21875 Q3.421875,-5.203125 3.765625,-5.5 Q4.125,-5.8125 4.125,-6.328125 Q4.125,-6.75 3.859375,-7 Q3.609375,-7.265625 3.171875,-7.265625 Q2.75,-7.265625 2.453125,-6.96875 Q2.15625,-6.6875 2.09375,-6.125 L0.578125,-6.375 Q0.734375,-7.15625 1.046875,-7.625 Q1.375,-8.09375 1.9375,-8.359375 Q2.515625,-8.625 3.21875,-8.625 Q4.4375,-8.625 5.171875,-7.859375 Q5.765625,-7.21875 5.765625,-6.421875 Q5.765625,-5.296875 4.53125,-4.625 Q5.28125,-4.453125 5.71875,-3.90625 Q6.15625,-3.359375 6.15625,-2.578125 Q6.15625,-1.453125 5.328125,-0.65625 Q4.5,0.140625 3.28125,0.140625 Q2.109375,0.140625 1.34375,-0.53125 Q0.578125,-1.203125 0.453125,-2.28125 Z" style="fill:rgb(0,0,0);stroke:none;"/>
  </g>
  <g>
    <line style="fill:none;stroke:rgb(130,130,130);stroke-miterlimit:10;stroke-linecap:square;" x1="137.1977083333333" x2="137.1977083333333" y1="358.640625" y2="355.640625"/>
    <line style="fill:none;stroke:rgb(130,130,130);stroke-miterlimit:10;stroke-linecap:square;" x1="282.203125" x2="282.203125" y1="358.640625" y2="355.640625"/>
    <line style="fill:none;stroke:rgb(130,130,130);stroke-miterlimit:10;stroke-linecap:square;" x1="427.20854166666663" x2="427.20854166666663" y1="358.640625" y2="355.640625"/>
    <line style="fill:none;stroke:rgb(130,130,130);stroke-miterlimit:10;stroke-linecap:square;" x1="45" x2="518" y1="355" y2="355"/>
    <rect height="341.40625" style="fill:rgb(255,255,255);stroke:none;" width="472.84375" x="45.78125" y="10"/>
    <path d="M53.78125,337.25 L53.78125,337.25 L56.78125,337.25 L56.78125,338.25 L53.78125,338.25 Z M61.78125,337.25 L61.78125,337.25 L64.78125,337.25 L64.78125,338.25 L61.78125,338.25 Z M69.78125,337.25 L69.78125,337.25 L72.78125,337.25 L72.78125,338.25 L69.78125,338.25 Z M77.78125,337.25 L77.78125,337.25 L80.78125,337.25 L80.78125,338.25 L77.78125,338.25 Z M85.78125,337.25 L85.78125,337.25 L88.78125,337.25 L88.78125,338.25 L85.78125,338.25 Z M93.78125,337.25 L93.78125,337.25 L96.78125,337.25 L96.78125,338.25 L93.78125,338.25 Z M101.78125,337.25 L101.78125,337.25 L104.78125,337.25 L104.78125,338.25 L101.78125,338.25 Z M109.78125,337.25 L109.78125,337.25 L112.78125,337.25 L112.78125,338.25 L109.78125,338.25 Z M117.78125,337.25 L117.78125,337.25 L120.78125,337.25 L120.78125,338.25 L117.78125,338.25 Z M125.78125,337.25 L125.78125,337.25 L128.78125,337.25 L128.78125,338.25 L125.78125,338.25 Z M133.78125,337.25 L133.78125,337.25 L136.78125,337.25 L136.78125,338.25 L133.78125,338.25 Z M141.78125,337.25 L141.78125,337.25 L144.78125,337.25 L144.78125,338.25 L141.78125,338.25 Z M149.78125,337.25 L149.78125,337.25 L152.78125,337.25 L152.78125,338.25 L149.78125,338.25 Z M157.78125,337.25 L157.78125,337.25 L160.78125,337.25 L160.78125,338.25 L157.78125,338.25 Z M165.78125,337.25 L165.78125,337.25 L168.78125,337.25 L168.78125,338.25 L165.78125,338.25 Z M173.78125,337.25 L173.78125,337.25 L176.78125,337.25 L176.78125,338.25 L173.78125,338.25 Z M181.78125,337.25 L181.78125,337.25 L184.78125,337.25 L184.78125,338.25 L181.78125,338.25 Z M189.78125,337.25 L189.78125,337.25 L192.78125,337.25 L192.78125,338.25 L189.78125,338.25 Z M197.78125,337.25 L197.78125,337.25 L200.78125,337.25 L200.78125,338.25 L197.78125,338.25 Z M205.78125,337.25 L205.78125,337.25 L208.78125,337.25 L208.78125,338.25 L205.78125,338.25 Z M213.78125,337.25 L213.78125,337.25 L216.78125,337.25 L216.78125,338.25 L213.78125,338.25 Z M221.78125,337.25 L221.78125,337.25 L224.78125,337.25 L224.78125,338.25 L221.78125,338.25 Z M229.78125,337.25 L229.78125,337.25 L232.78125,337.25 L232.78125,338.25 L229.78125,338.25 Z M237.78125,337.25 L237.78125,337.25 L240.78125,337.25 L240.78125,338.25 L237.78125,338.25 Z M245.78125,337.25 L245.78125,337.25 L248.78125,337.25 L248.78125,338.25 L245.78125,338.25 Z M253.78125,337.25 L253.78125,337.25 L256.78125,337.25 L256.78125,338.25 L253.78125,338.25 Z M261.78125,337.25 L261.78125,337.25 L264.78125,337.25 L264.78125,338.25 L261.78125,338.25 Z M269.78125,337.25 L269.78125,337.25 L272.78125,337.25 L272.78125,338.25 L269.78125,338.25 Z M277.78125,337.25 L277.78125,337.25 L280.78125,337.25 L280.78125,338.25 L277.78125,338.25 Z M285.78125,337.25 L285.78125,337.25 L288.78125,337.25 L288.78125,338.25 L285.78125,338.25 Z M293.78125,337.25 L293.78125,337.25 L296.78125,337.25 L296.78125,338.25 L293.78125,338.25 Z M301.78125,337.25 L301.78125,337.25 L304.78125,337.25 L304.78125,338.25 L301.78125,338.25 Z M309.78125,337.25 L309.78125,337.25 L312.78125,337.25 L312.78125,338.25 L309.78125,338.25 Z M317.78125,337.25 L317.78125,337.25 L320.78125,337.25 L320.78125,338.25 L317.78125,338.25 Z M325.78125,337.25 L325.78125,337.25 L328.78125,337.25 L328.78125,338.25 L325.78125,338.25 Z M333.78125,337.25 L333.78125,337.25 L336.78125,337.25 L336.78125,338.25 L333.78125,338.25 Z M341.78125,337.25 L341.78125,337.25 L344.78125,337.25 L344.78125,338.25 L341.78125,338.25 Z M349.78125,337.25 L349.78125,337.25 L352.78125,337.25 L352.78125,338.25 L349.78125,338.25 Z M357.78125,337.25 L357.78125,337.25 L360.78125,337.25 L360.78125,338.25 L357.78125,338.25 Z M365.78125,337.25 L365.78125,337.25 L368.78125,337.25 L368.78125,338.25 L365.78125,338.25 Z M373.78125,337.25 L373.78125,337.25 L376.78125,337.25 L376.78125,338.25 L373.78125,338.25 Z M381.78125,337.25 L381.78125,337.25 L384.78125,337.25 L384.78125,338.25 L381.78125,338.25 Z M389.78125,337.25 L389.78125,337.25 L392.78125,337.25 L392.78125,338.25 L389.78125,338.25 Z M397.78125,337.25 L397.78125,337.25 L400.78125,337.25 L400.78125,338.25 L397.78125,338.25 Z M405.78125,337.25 L405.78125,337.25 L408.78125,337.25 L408.78125,338.25 L405.78125,338.25 Z M413.78125,337.25 L413.78125,337.25 L416.78125,337.25 L416.78125,338.25 L413.78125,338.25 Z M421.78125,337.25 L421.78125,337.25 L424.78125,337.25 L424.78125,338.25 L421.78125,338.25 Z M429.78125,337.25 L429.78125,337.25 L432.78125,337.25 L432.78125,338.25 L429.78125,338.25 Z M437.78125,337.25 L437.78125,337.25 L440.78125,337.25 L440.78125,338.25 L437.78125,338.25 Z M445.78125,337.25 L445.78125,337.25 L448.78125,337.25 L448.78125,338.25 L445.78125,338.25 Z M453.78125,337.25 L453.78125,337.25 L456.78125,337.25 L456.78125,338.25 L453.78125,338.25 Z M461.78125,337.25 L461.78125,337.25 L464.78125,337.25 L464.78125,338.25 L461.78125,338.25 Z M469.78125,337.25 L469.78125,337.25 L472.78125,337.25 L472.78125,338.25 L469.78125,338.25 Z M477.78125,337.25 L477.78125,337.25 L480.78125,337.25 L480.78125,338.25 L477.78125,338.25 Z M485.78125,337.25 L485.78125,337.25 L488.78125,337.25 L488.78125,338.25 L485.78125,338.25 Z M493.78125,337.25 L493.78125,337.25 L496.78125,337.25 L496.78125,338.25 L493.78125,338.25 Z M501.78125,337.25 L501.78125,337.25 L504.78125,337.25 L504.78125,338.25 L501.78125,338.25 Z M509.78125,337.25 L509.78125,337.25 L512.78125,337.25 L512.78125,338.25 L509.78125,338.25 Z M517.78125,337.25 L517.78125,337.25 L518.625,337.25 L518.625,338.25 L517.78125,338.25 Z M45.78125,337.25 L45.78125,337.25 L48.78125,337.25 L48.78125,338.25 L45.78125,338.25 Z" style="fill:none;stroke:rgb(210,210,210);stroke-miterlimit:10;stroke-linejoin:bevel;stroke-dasharray:3,5;"/>
    <path d="M53.78125,292.3794642857143 L53.78125,292.3794642857143 L56.78125,292.3794642857143 L56.78125,293.3794642857143 L53.78125,293.3794642857143 Z M61.78125,292.3794642857143 L61.78125,292.3794642857143 L64.78125,292.3794642857143 L64.78125,293.3794642857143 L61.78125,293.3794642857143 Z M69.78125,292.3794642857143 L69.78125,292.3794642857143 L72.78125,292.3794642857143 L72.78125,293.3794642857143 L69.78125,293.3794642857143 Z M77.78125,292.3794642857143 L77.78125,292.3794642857143 L80.78125,292.3794642857143 L80.78125,293.3794642857143 L77.78125,293.3794642857143 Z M85.78125,292.3794642857143 L85.78125,292.3794642857143 L88.78125,292.3794642857143 L88.78125,293.3794642857143 L85.78125,293.3794642857143 Z M93.78125,292.3794642857143 L93.78125,292.3794642857143 L96.78125,292.3794642857143 L96.78125,293.3794642857143 L93.78125,293.3794642857143 Z M101.78125,292.3794642857143 L101.78125,292.3794642857143 L104.78125,292.3794642857143 L104.78125,293.3794642857143 L101.78125,293.3794642857143 Z M109.78125,292.3794642857143 L109.78125,292.3794642857143 L112.78125,292.3794642857143 L112.78125,293.3794642857143 L109.78125,293.3794642857143 Z M117.78125,292.3794642857143 L117.78125,292.3794642857143 L120.78125,292.3794642857143 L120.78125,293.3794642857143 L117.78125,293.3794642857143 Z M125.78125,292.3794642857143 L125.78125,292.3794642857143 L128.78125,292.3794642857143 L128.78125,293.3794642857143 L125.78125,293.3794642857143 Z M133.78125,292.3794642857143 L133.78125,292.3794642857143 L136.78125,292.3794642857143 L136.78125,293.3794642857143 L133.78125,293.3794642857143 Z M141.78125,292.3794642857143 L141.78125,292.3794642857143 L144.78125,292.3794642857143 L144.78125,293.3794642857143 L141.78125,293.3794642857143 Z M149.78125,292.3794642857143 L149.78125,292.3794642857143 L152.78125,292.3794642857143 L152.78125,293.3794642857143 L149.78125,293.3794642857143 Z M157.78125,292.3794642857143 L157.78125,292.3794642857143 L160.78125,292.3794642857143 L160.78125,293.3794642857143 L157.78125,293.3794642857143 Z M165.78125,292.3794642857143 L165.78125,292.3794642857143 L168.78125,292.3794642857143 L168.78125,293.3794642857143 L165.78125,293.3794642857143 Z M173.78125,292.3794642857143 L173.78125,292.3794642857143 L176.78125,292.3794642857143 L176.78125,293.3794642857143 L173.78125,293.3794642857143 Z M181.78125,292.3794642857143 L181.78125,292.3794642857143 L184.78125,292.3794642857143 L184.78125,293.3794642857143 L181.78125,293.3794642857143 Z M189.78125,292.3794642857143 L189.78125,292.3794642857143 L192.78125,292.3794642857143 L192.78125,293.3794642857143 L189.78125,293.3794642857143 Z M197.78125,292.3794642857143 L197.78125,292.3794642857143 L200.78125,292.3794642857143 L200.78125,293.3794642857143 L197.78125,293.3794642857143 Z M205.78125,292.3794642857143 L205.78125,292.3794642857143 L208.78125,292.3794642857143 L208.78125,293.3794642857143 L205.78125,293.3794642857143 Z M213.78125,292.3794642857143 L213.78125,292.3794642857143 L216.78125,292.3794642857143 L216.78125,293.3794642857143 L213.78125,293.3794642857143 Z M221.78125,292.3794642857143 L221.78125,292.3794642857143 L224.78125,292.3794642857143 L224.78125,293.3794642857143 L221.78125,293.3794642857143 Z M229.78125,292.3794642857143 L229.78125,292.3794642857143 L232.78125,292.3794642857143 L232.78125,293.3794642857143 L229.78125,293.3794642857143 Z M237.78125,292.3794642857143 L237.78125,292.3794642857143 L240.78125,292.3794642857143 L240.78125,293.3794642857143 L237.78125,293.3794642857143 Z M245.78125,292.3794642857143 L245.78125,292.3794642857143 L248.78125,292.3794642857143 L248.78125,293.3794642857143 L245.78125,293.3794642857143 Z M253.78125,292.3794642857143 L253.78125,292.3794642857143 L256.78125,292.3794642857143 L256.78125,293.3794642857143 L253.78125,293.3794642857143 Z M261.78125,292.3794642857143 L261.78125,292.3794642857143 L264.78125,292.3794642857143 L264.78125,293.3794642857143 L261.78125,293.3794642857143 Z M269.78125,292.3794642857143 L269.78125,292.3794642857143 L272.78125,292.3794642857143 L272.78125,293.3794642857143 L269.78125,293.3794642857143 Z M277.78125,292.3794642857143 L277.78125,292.3794642857143 L280.78125,292.3794642857143 L280.78125,293.3794642857143 L277.78125,293.3794642857143 Z M285.78125,292.3794642857143 L285.78125,292.3794642857143 L288.78125,292.3794642857143 L288.78125,293.3794642857143 L285.78125,293.3794642857143 Z M293.78125,292.3794642857143 L293.78125,292.3794642857143 L296.78125,292.3794642857143 L296.78125,293.3794642857143 L293.78125,293.3794642857143 Z M301.78125,292.3794642857143 L301.78125,292.3794642857143 L304.78125,292.3794642857143 L304.78125,293.3794642857143 L301.78125,293.3794642857143 Z M309.78125,292.3794642857143 L309.78125,292.3794642857143 L312.78125,292.3794642857143 L312.78125,293.3794642857143 L309.78125,293.3794642857143 Z M317.78125,292.3794642857143 L317.78125,292.3794642857143 L320.78125,292.3794642857143 L320.78125,293.3794642857143 L317.78125,293.3794642857143 Z M325.78125,292.3794642857143 L325.78125,292.3794642857143 L328.78125,292.3794642857143 L328.78125,293.3794642857143 L325.78125,293.3794642857143 Z M333.78125,292.3794642857143 L333.78125,292.3794642857143 L336.78125,292.3794642857143 L336.78125,293.3794642857143 L333.78125,293.3794642857143 Z M341.78125,292.3794642857143 L341.78125,292.3794642857143 L344.78125,292.3794642857143 L344.78125,293.3794642857143 L341.78125,293.3794642857143 Z M349.78125,292.3794642857143 L349.78125,292.3794642857143 L352.78125,292.3794642857143 L352.78125,293.3794642857143 L349.78125,293.3794642857143 Z M357.78125,292.3794642857143 L357.78125,292.3794642857143 L360.78125,292.3794642857143 L360.78125,293.3794642857143 L357.78125,293.3794642857143 Z M365.78125,292.3794642857143 L365.78125,292.3794642857143 L368.78125,292.3794642857143 L368.78125,293.3794642857143 L365.78125,293.3794642857143 Z M373.78125,292.3794642857143 L373.78125,292.3794642857143 L376.78125,292.3794642857143 L376.78125,293.3794642857143 L373.78125,293.3794642857143 Z M381.78125,292.3794642857143 L381.78125,292.3794642857143 L384.78125,292.3794642857143 L384.78125,293.3794642857143 L381.78125,293.3794642857143 Z M389.78125,292.3794642857143 L389.78125,292.3794642857143 L392.78125,292.3794642857143 L392.78125,293.3794642857143 L389.78125,293.3794642857143 Z M397.78125,292.3794642857143 L397.78125,292.3794642857143 L400.78125,292.3794642857143 L400.78125,293.3794642857143 L397.78125,293.3794642857143 Z M405.78125,292.3794642857143 L405.78125,292.3794642857143 L408.78125,292.3794642857143 L408.78125,293.3794642857143 L405.78125,293.3794642857143 Z M413.78125,292.3794642857143 L413.78125,292.3794642857143 L416.78125,292.3794642857143 L416.78125,293.3794642857143 L413.78125,293.3794642857143 Z M421.78125,292.3794642857143 L421.78125,292.3794642857143 L424.78125,292.3794642857143 L424.78125,293.3794642857143 L421.78125,293.3794642857143 Z M429.78125,292.3794642857143 L429.78125,292.3794642857143 L432.78125,292.3794642857143 L432.78125,293.3794642857143 L429.78125,293.3794642857143 Z M437.78125,292.3794642857143 L437.78125,292.3794642857143 L440.78125,292.3794642857143 L440.78125,293.3794642857143 L437.78125,293.3794642857143 Z M445.78125,292.3794642857143 L445.78125,292.3794642857143 L448.78125,292.3794642857143 L448.78125,293.3794642857143 L445.78125,293.3794642857143 Z M453.78125,292.3794642857143 L453.78125,292.3794642857143 L456.78125,292.3794642857143 L456.78125,293.3794642857143 L453.78125,293.3794642857143 Z M461.78125,292.3794642857143 L461.78125,292.3794642857143 L464.78125,292.3794642857143 L464.78125,293.3794642857143 L461.78125,293.3794642857143 Z M469.78125,292.3794642857143 L469.78125,292.3794642857143 L472.78125,292.3794642857143 L472.78125,293.3794642857143 L469.78125,293.3794642857143 Z M477.78125,292.3794642857143 L477.78125,292.3794642857143 L480.78125,292.3794642857143 L480.78125,293.3794642857143 L477.78125,293.3794642857143 Z M485.78125,292.3794642857143 L485.78125,292.3794642857143 L488.78125,292.3794642857143 L488.78125,293.3794642857143 L485.78125,293.3794642857143 Z M493.78125,292.3794642857143 L493.78125,292.3794642857143 L496.78125,292.3794642857143 L496.78125,293.3794642857143 L493.78125,293.3794642857143 Z M501.78125,292.3794642857143 L501.78125,292.3794642857143 L504.78125,292.3794642857143 L504.78125,293.3794642857143 L501.78125,293.3794642857143 Z M509.78125,292.3794642857143 L509.78125,292.3794642857143 L512.78125,292.3794642857143 L512.78125,293.3794642857143 L509.78125,293.3794642857143 Z M517.78125,292.3794642857143 L517.78125,292.3794642857143 L518.625,292.3794642857143 L518.625,293.3794642857143 L517.78125,293.3794642857143 Z M45.78125,292.3794642857143 L45.78125,292.3794642857143 L48.78125,292.3794642857143 L48.78125,293.3794642857143 L45.78125,293.3794642857143 Z" style="fill:none;stroke:rgb(210,210,210);stroke-miterlimit:10;stroke-linejoin:bevel;stroke-dasharray:3,5;"/>
    <path d="M53.78125,247.50892857142856 L53.78125,247.50892857142856 L56.78125,247.50892857142856 L56.78125,248.50892857142856 L53.78125,248.50892857142856 Z M61.78125,247.50892857142856 L61.78125,247.50892857142856 L64.78125,247.50892857142856 L64.78125,248.50892857142856 L61.78125,248.50892857142856 Z M69.78125,247.50892857142856 L69.78125,247.50892857142856 L72.78125,247.50892857142856 L72.78125,248.50892857142856 L69.78125,248.50892857142856 Z M77.78125,247.50892857142856 L77.78125,247.50892857142856 L80.78125,247.50892857142856 L80.78125,248.50892857142856 L77.78125,248.50892857142856 Z M85.78125,247.50892857142856 L85.78125,247.50892857142856 L88.78125,247.50892857142856 L88.78125,248.50892857142856 L85.78125,248.50892857142856 Z M93.78125,247.50892857142856 L93.78125,247.50892857142856 L96.78125,247.50892857142856 L96.78125,248.50892857142856 L93.78125,248.50892857142856 Z M101.78125,247.50892857142856 L101.78125,247.50892857142856 L104.78125,247.50892857142856 L104.78125,248.50892857142856 L101.78125,248.50892857142856 Z M109.78125,247.50892857142856 L109.78125,247.50892857142856 L112.78125,247.50892857142856 L112.78125,248.50892857142856 L109.78125,248.50892857142856 Z M117.78125,247.50892857142856 L117.78125,247.50892857142856 L120.78125,247.50892857142856 L120.78125,248.50892857142856 L117.78125,248.50892857142856 Z M125.78125,247.50892857142856 L125.78125,247.50892857142856 L128.78125,247.50892857142856 L128.78125,248.50892857142856 L125.78125,248.50892857142856 Z M133.78125,247.50892857142856 L133.78125,247.50892857142856 L136.78125,247.50892857142856 L136.78125,248.50892857142856 L133.78125,248.50892857142856 Z M141.78125,247.50892857142856 L141.78125,247.50892857142856 L144.78125,247.50892857142856 L144.78125,248.50892857142856 L141.78125,248.50892857142856 Z M149.78125,247.50892857142856 L149.78125,247.50892857142856 L152.78125,247.50892857142856 L152.78125,248.50892857142856 L149.78125,248.50892857142856 Z M157.78125,247.50892857142856 L157.78125,247.50892857142856 L160.78125,247.50892857142856 L160.78125,248.50892857142856 L157.78125,248.50892857142856 Z M165.78125,247.50892857142856 L165.78125,247.50892857142856 L168.78125,247.50892857142856 L168.78125,248.50892857142856 L165.78125,248.50892857142856 Z M173.78125,247.50892857142856 L173.78125,247.50892857142856 L176.78125,247.50892857142856 L176.78125,248.50892857142856 L173.78125,248.50892857142856 Z M181.78125,247.50892857142856 L181.78125,247.50892857142856 L184.78125,247.50892857142856 L184.78125,248.50892857142856 L181.78125,248.50892857142856 Z M189.78125,247.50892857142856 L189.78125,247.50892857142856 L192.78125,247.50892857142856 L192.78125,248.50892857142856 L189.78125,248.50892857142856 Z M197.78125,247.50892857142856 L197.78125,247.50892857142856 L200.78125,247.50892857142856 L200.78125,248.50892857142856 L197.78125,248.50892857142856 Z M205.78125,247.50892857142856 L205.78125,247.50892857142856 L208.78125,247.50892857142856 L208.78125,248.50892857142856 L205.78125,248.50892857142856 Z M213.78125,247.50892857142856 L213.78125,247.50892857142856 L216.78125,247.50892857142856 L216.78125,248.50892857142856 L213.78125,248.50892857142856 Z M221.78125,247.50892857142856 L221.78125,247.50892857142856 L224.78125,247.50892857142856 L224.78125,248.50892857142856 L221.78125,248.50892857142856 Z M229.78125,247.50892857142856 L229.78125,247.50892857142856 L232.78125,247.50892857142856 L232.78125,248.50892857142856 L229.78125,248.50892857142856 Z M237.78125,247.50892857142856 L237.78125,247.50892857142856 L240.78125,247.50892857142856 L240.78125,248.50892857142856 L237.78125,248.50892857142856 Z M245.78125,247.50892857142856 L245.78125,247.50892857142856 L248.78125,247.50892857142856 L248.78125,248.50892857142856 L245.78125,248.50892857142856 Z M253.78125,247.50892857142856 L253.78125,247.50892857142856 L256.78125,247.50892857142856 L256.78125,248.50892857142856 L253.78125,248.50892857142856 Z M261.78125,247.50892857142856 L261.78125,247.50892857142856 L264.78125,247.50892857142856 L264.78125,248.50892857142856 L261.78125,248.50892857142856 Z M269.78125,247.50892857142856 L269.78125,247.50892857142856 L272.78125,247.50892857142856 L272.78125,248.50892857142856 L269.78125,248.50892857142856 Z M277.78125,247.50892857142856 L277.78125,247.50892857142856 L280.78125,247.50892857142856 L280.78125,248.50892857142856 L277.78125,248.50892857142856 Z M285.78125,247.50892857142856 L285.78125,247.50892857142856 L288.78125,247.50892857142856 L288.78125,248.50892857142856 L285.78125,248.50892857142856 Z M293.78125,247.50892857142856 L293.78125,247.50892857142856 L296.78125,247.50892857142856 L296.78125,248.50892857142856 L293.78125,248.50892857142856 Z M301.78125,247.50892857142856 L301.78125,247.50892857142856 L304.78125,247.50892857142856 L304.78125,248.50892857142856 L301.78125,248.50892857142856 Z M309.78125,247.50892857142856 L309.78125,247.50892857142856 L312.78125,247.50892857142856 L312.78125,248.50892857142856 L309.78125,248.50892857142856 Z M317.78125,247.50892857142856 L317.78125,247.50892857142856 L320.78125,247.50892857142856 L320.78125,248.50892857142856 L317.78125,248.50892857142856 Z M325.78125,247.50892857142856 L325.78125,247.50892857142856 L328.78125,247.50892857142856 L328.78125,248.50892857142856 L325.78125,248.50892857142856 Z M333.78125,247.50892857142856 L333.78125,247.50892857142856 L336.78125,247.50892857142856 L336.78125,248.50892857142856 L333.78125,248.50892857142856 Z M341.78125,247.50892857142856 L341.78125,247.50892857142856 L344.78125,247.50892857142856 L344.78125,248.50892857142856 L341.78125,248.50892857142856 Z M349.78125,247.50892857142856 L349.78125,247.50892857142856 L352.78125,247.50892857142856 L352.78125,248.50892857142856 L349.78125,248.50892857142856 Z M357.78125,247.50892857142856 L357.78125,247.50892857142856 L360.78125,247.50892857142856 L360.78125,248.50892857142856 L357.78125,248.50892857142856 Z M365.78125,247.50892857142856 L365.78125,247.50892857142856 L368.78125,247.50892857142856 L368.78125,248.50892857142856 L365.78125,248.50892857142856 Z M373.78125,247.50892857142856 L373.78125,247.50892857142856 L376.78125,247.50892857142856 L376.78125,248.50892857142856 L373.78125,248.50892857142856 Z M381.78125,247.50892857142856 L381.78125,247.50892857142856 L384.78125,247.50892857142856 L384.78125,248.50892857142856 L381.78125,248.50892857142856 Z M389.78125,247.50892857142856 L389.78125,247.50892857142856 L392.78125,247.50892857142856 L392.78125,248.50892857142856 L389.78125,248.50892857142856 Z M397.78125,247.50892857142856 L397.78125,247.50892857142856 L400.78125,247.50892857142856 L400.78125,248.50892857142856 L397.78125,248.50892857142856 Z M405.78125,247.50892857142856 L405.78125,247.50892857142856 L408.78125,247.50892857142856 L408.78125,248.50892857142856 L405.78125,248.50892857142856 Z M413.78125,247.50892857142856 L413.78125,247.50892857142856 L416.78125,247.50892857142856 L416.78125,248.50892857142856 L413.78125,248.50892857142856 Z M421.78125,247.50892857142856 L421.78125,247.50892857142856 L424.78125,247.50892857142856 L424.78125,248.50892857142856 L421.78125,248.50892857142856 Z M429.78125,247.50892857142856 L429.78125,247.50892857142856 L432.78125,247.50892857142856 L432.78125,248.50892857142856 L429.78125,248.50892857142856 Z M437.78125,247.50892857142856 L437.78125,247.50892857142856 L440.78125,247.50892857142856 L440.78125,248.50892857142856 L437.78125,248.50892857142856 Z M445.78125,247.50892857142856 L445.78125,247.50892857142856 L448.78125,247.50892857142856 L448.78125,248.50892857142856 L445.78125,248.50892857142856 Z M453.78125,247.50892857142856 L453.78125,247.50892857142856 L456.78125,247.50892857142856 L456.78125,248.50892857142856 L453.78125,248.50892857142856 Z M461.78125,247.50892857142856 L461.78125,247.50892857142856 L464.78125,247.50892857142856 L464.78125,248.50892857142856 L461.78125,248.50892857142856 Z M469.78125,247.50892857142856 L469.78125,247.50892857142856 L472.78125,247.50892857142856 L472.78125,248.50892857142856 L469.78125,248.50892857142856 Z M477.78125,247.50892857142856 L477.78125,247.50892857142856 L480.78125,247.50892857142856 L480.78125,248.50892857142856 L477.78125,248.50892857142856 Z M485.78125,247.50892857142856 L485.78125,247.50892857142856 L488.78125,247.50892857142856 L488.78125,248.50892857142856 L485.78125,248.50892857142856 Z M493.78125,247.50892857142856 L493.78125,247.50892857142856 L496.78125,247.50892857142856 L496.78125,248.50892857142856 L493.78125,248.50892857142856 Z M501.78125,247.50892857142856 L501.78125,247.50892857142856 L504.78125,247.50892857142856 L504.78125,248.50892857142856 L501.78125,248.50892857142856 Z M509.78125,247.50892857142856 L509.78125,247.50892857142856 L512.78125,247.50892857142856 L512.78125,248.50892857142856 L509.78125,248.50892857142856 Z M517.78125,247.50892857142856 L517.78125,247.50892857142856 L518.625,247.50892857142856 L518.625,248.50892857142856 L517.78125,248.50892857142856 Z M45.78125,247.50892857142856 L45.78125,247.50892857142856 L48.78125,247.50892857142856 L48.78125,248.50892857142856 L45.78125,248.50892857142856 Z" style="fill:none;stroke:rgb(210,210,210);stroke-miterlimit:10;stroke-linejoin:bevel;stroke-dasharray:3,5;"/>
    <path d="M53.78125,202.63839285714286 L53.78125,202.63839285714286 L56.78125,202.63839285714286 L56.78125,203.63839285714286 L53.78125,203.63839285714286 Z M61.78125,202.63839285714286 L61.78125,202.63839285714286 L64.78125,202.63839285714286 L64.78125,203.63839285714286 L61.78125,203.63839285714286 Z M69.78125,202.63839285714286 L69.78125,202.63839285714286 L72.78125,202.63839285714286 L72.78125,203.63839285714286 L69.78125,203.63839285714286 Z M77.78125,202.63839285714286 L77.78125,202.63839285714286 L80.78125,202.63839285714286 L80.78125,203.63839285714286 L77.78125,203.63839285714286 Z M85.78125,202.63839285714286 L85.78125,202.63839285714286 L88.78125,202.63839285714286 L88.78125,203.63839285714286 L85.78125,203.63839285714286 Z M93.78125,202.63839285714286 L93.78125,202.63839285714286 L96.78125,202.63839285714286 L96.78125,203.63839285714286 L93.78125,203.63839285714286 Z M101.78125,202.63839285714286 L101.78125,202.63839285714286 L104.78125,202.63839285714286 L104.78125,203.63839285714286 L101.78125,203.63839285714286 Z M109.78125,202.63839285714286 L109.78125,202.63839285714286 L112.78125,202.63839285714286 L112.78125,203.63839285714286 L109.78125,203.63839285714286 Z M117.78125,202.63839285714286 L117.78125,202.63839285714286 L120.78125,202.63839285714286 L120.78125,203.63839285714286 L117.78125,203.63839285714286 Z M125.78125,202.63839285714286 L125.78125,202.63839285714286 L128.78125,202.63839285714286 L128.78125,203.63839285714286 L125.78125,203.63839285714286 Z M133.78125,202.63839285714286 L133.78125,202.63839285714286 L136.78125,202.63839285714286 L136.78125,203.63839285714286 L133.78125,203.63839285714286 Z M141.78125,202.63839285714286 L141.78125,202.63839285714286 L144.78125,202.63839285714286 L144.78125,203.63839285714286 L141.78125,203.63839285714286 Z M149.78125,202.63839285714286 L149.78125,202.63839285714286 L152.78125,202.63839285714286 L152.78125,203.63839285714286 L149.78125,203.63839285714286 Z M157.78125,202.63839285714286 L157.78125,202.63839285714286 L160.78125,202.63839285714286 L160.78125,203.63839285714286 L157.78125,203.63839285714286 Z M165.78125,202.63839285714286 L165.78125,202.63839285714286 L168.78125,202.63839285714286 L168.78125,203.63839285714286 L165.78125,203.63839285714286 Z M173.78125,202.63839285714286 L173.78125,202.63839285714286 L176.78125,202.63839285714286 L176.78125,203.63839285714286 L173.78125,203.63839285714286 Z M181.78125,202.63839285714286 L181.78125,202.63839285714286 L184.78125,202.63839285714286 L184.78125,203.63839285714286 L181.78125,203.63839285714286 Z M189.78125,202.63839285714286 L189.78125,202.63839285714286 L192.78125,202.63839285714286 L192.78125,203.63839285714286 L189.78125,203.63839285714286 Z M197.78125,202.63839285714286 L197.78125,202.63839285714286 L200.78125,202.63839285714286 L200.78125,203.63839285714286 L197.78125,203.63839285714286 Z M205.78125,202.63839285714286 L205.78125,202.63839285714286 L208.78125,202.63839285714286 L208.78125,203.63839285714286 L205.78125,203.63839285714286 Z M213.78125,202.63839285714286 L213.78125,202.63839285714286 L216.78125,202.63839285714286 L216.78125,203.63839285714286 L213.78125,203.63839285714286 Z M221.78125,202.63839285714286 L221.78125,202.63839285714286 L224.78125,202.63839285714286 L224.78125,203.63839285714286 L221.78125,203.63839285714286 Z M229.78125,202.63839285714286 L229.78125,202.63839285714286 L232.78125,202.63839285714286 L232.78125,203.63839285714286 L229.78125,203.63839285714286 Z M237.78125,202.63839285714286 L237.78125,202.63839285714286 L240.78125,202.63839285714286 L240.78125,203.63839285714286 L237.78125,203.63839285714286 Z M245.78125,202.63839285714286 L245.78125,202.63839285714286 L248.78125,202.63839285714286 L248.78125,203.63839285714286 L245.78125,203.63839285714286 Z M253.78125,202.63839285714286 L253.78125,202.63839285714286 L256.78125,202.63839285714286 L256.78125,203.63839285714286 L253.78125,203.63839285714286 Z M261.78125,202.63839285714286 L261.78125,202.63839285714286 L264.78125,202.63839285714286 L264.78125,203.63839285714286 L261.78125,203.63839285714286 Z M269.78125,202.63839285714286 L269.78125,202.63839285714286 L272.78125,202.63839285714286 L272.78125,203.63839285714286 L269.78125,203.63839285714286 Z M277.78125,202.63839285714286 L277.78125,202.63839285714286 L280.78125,202.63839285714286 L280.78125,203.63839285714286 L277.78125,203.63839285714286 Z M285.78125,202.63839285714286 L285.78125,202.63839285714286 L288.78125,202.63839285714286 L288.78125,203.63839285714286 L285.78125,203.63839285714286 Z M293.78125,202.63839285714286 L293.78125,202.63839285714286 L296.78125,202.63839285714286 L296.78125,203.63839285714286 L293.78125,203.63839285714286 Z M301.78125,202.63839285714286 L301.78125,202.63839285714286 L304.78125,202.63839285714286 L304.78125,203.63839285714286 L301.78125,203.63839285714286 Z M309.78125,202.63839285714286 L309.78125,202.63839285714286 L312.78125,202.63839285714286 L312.78125,203.63839285714286 L309.78125,203.63839285714286 Z M317.78125,202.63839285714286 L317.78125,202.63839285714286 L320.78125,202.63839285714286 L320.78125,203.63839285714286 L317.78125,203.63839285714286 Z M325.78125,202.63839285714286 L325.78125,202.63839285714286 L328.78125,202.63839285714286 L328.78125,203.63839285714286 L325.78125,203.63839285714286 Z M333.78125,202.63839285714286 L333.78125,202.63839285714286 L336.78125,202.63839285714286 L336.78125,203.63839285714286 L333.78125,203.63839285714286 Z M341.78125,202.63839285714286 L341.78125,202.63839285714286 L344.78125,202.63839285714286 L344.78125,203.63839285714286 L341.78125,203.63839285714286 Z M349.78125,202.63839285714286 L349.78125,202.63839285714286 L352.78125,202.63839285714286 L352.78125,203.63839285714286 L349.78125,203.63839285714286 Z M357.78125,202.63839285714286 L357.78125,202.63839285714286 L360.78125,202.63839285714286 L360.78125,203.63839285714286 L357.78125,203.63839285714286 Z M365.78125,202.63839285714286 L365.78125,202.63839285714286 L368.78125,202.63839285714286 L368.78125,203.63839285714286 L365.78125,203.63839285714286 Z M373.78125,202.63839285714286 L373.78125,202.63839285714286 L376.78125,202.63839285714286 L376.78125,203.63839285714286 L373.78125,203.63839285714286 Z M381.78125,202.63839285714286 L381.78125,202.63839285714286 L384.78125,202.63839285714286 L384.78125,203.63839285714286 L381.78125,203.63839285714286 Z M389.78125,202.63839285714286 L389.78125,202.63839285714286 L392.78125,202.63839285714286 L392.78125,203.63839285714286 L389.78125,203.63839285714286 Z M397.78125,202.63839285714286 L397.78125,202.63839285714286 L400.78125,202.63839285714286 L400.78125,203.63839285714286 L397.78125,203.63839285714286 Z M405.78125,202.63839285714286 L405.78125,202.63839285714286 L408.78125,202.63839285714286 L408.78125,203.63839285714286 L405.78125,203.63839285714286 Z M413.78125,202.63839285714286 L413.78125,202.63839285714286 L416.78125,202.63839285714286 L416.78125,203.63839285714286 L413.78125,203.63839285714286 Z M421.78125,202.63839285714286 L421.78125,202.63839285714286 L424.78125,202.63839285714286 L424.78125,203.63839285714286 L421.78125,203.63839285714286 Z M429.78125,202.63839285714286 L429.78125,202.63839285714286 L432.78125,202.63839285714286 L432.78125,203.63839285714286 L429.78125,203.63839285714286 Z M437.78125,202.63839285714286 L437.78125,202.63839285714286 L440.78125,202.63839285714286 L440.78125,203.63839285714286 L437.78125,203.63839285714286 Z M445.78125,202.63839285714286 L445.78125,202.63839285714286 L448.78125,202.63839285714286 L448.78125,203.63839285714286 L445.78125,203.63839285714286 Z M453.78125,202.63839285714286 L453.78125,202.63839285714286 L456.78125,202.63839285714286 L456.78125,203.63839285714286 L453.78125,203.63839285714286 Z M461.78125,202.63839285714286 L461.78125,202.63839285714286 L464.78125,202.63839285714286 L464.78125,203.63839285714286 L461.78125,203.63839285714286 Z M469.78125,202.63839285714286 L469.78125,202.63839285714286 L472.78125,202.63839285714286 L472.78125,203.63839285714286 L469.78125,203.63839285714286 Z M477.78125,202.63839285714286 L477.78125,202.63839285714286 L480.78125,202.63839285714286 L480.78125,203.63839285714286 L477.78125,203.63839285714286 Z M485.78125,202.63839285714286 L485.78125,202.63839285714286 L488.78125,202.63839285714286 L488.78125,203.63839285714286 L485.78125,203.63839285714286 Z M493.78125,202.63839285714286 L493.78125,202.63839285714286 L496.78125,202.63839285714286 L496.78125,203.63839285714286 L493.78125,203.63839285714286 Z M501.78125,202.63839285714286 L501.78125,202.63839285714286 L504.78125,202.63839285714286 L504.78125,203.63839285714286 L501.78125,203.63839285714286 Z M509.78125,202.63839285714286 L509.78125,202.63839285714286 L512.78125,202.63839285714286 L512.78125,203.63839285714286 L509.78125,203.63839285714286 Z M517.78125,202.63839285714286 L517.78125,202.63839285714286 L518.625,202.63839285714286 L518.625,203.63839285714286 L517.78125,203.63839285714286 Z M45.78125,202.63839285714286 L45.78125,202.63839285714286 L48.78125,202.63839285714286 L48.78125,203.63839285714286 L45.78125,203.63839285714286 Z" style="fill:none;stroke:rgb(210,210,210);stroke-miterlimit:10;stroke-linejoin:bevel;stroke-dasharray:3,5;"/>
    <path d="M53.78125,157.76785714285714 L53.78125,157.76785714285714 L56.78125,157.76785714285714 L56.78125,158.76785714285714 L53.78125,158.76785714285714 Z M61.78125,157.76785714285714 L61.78125,157.76785714285714 L64.78125,157.76785714285714 L64.78125,158.76785714285714 L61.78125,158.76785714285714 Z M69.78125,157.76785714285714 L69.78125,157.76785714285714 L72.78125,157.76785714285714 L72.78125,158.76785714285714 L69.78125,158.76785714285714 Z M77.78125,157.76785714285714 L77.78125,157.76785714285714 L80.78125,157.76785714285714 L80.78125,158.76785714285714 L77.78125,158.76785714285714 Z M85.78125,157.76785714285714 L85.78125,157.76785714285714 L88.78125,157.76785714285714 L88.78125,158.76785714285714 L85.78125,158.76785714285714 Z M93.78125,157.76785714285714 L93.78125,157.76785714285714 L96.78125,157.76785714285714 L96.78125,158.76785714285714 L93.78125,158.76785714285714 Z M101.78125,157.76785714285714 L101.78125,157.76785714285714 L104.78125,157.76785714285714 L104.78125,158.76785714285714 L101.78125,158.76785714285714 Z M109.78125,157.76785714285714 L109.78125,157.76785714285714 L112.78125,157.76785714285714 L112.78125,158.76785714285714 L109.78125,158.76785714285714 Z M117.78125,157.76785714285714 L117.78125,157.76785714285714 L120.78125,157.76785714285714 L120.78125,158.76785714285714 L117.78125,158.76785714285714 Z M125.78125,157.76785714285714 L125.78125,157.76785714285714 L128.78125,157.76785714285714 L128.78125,158.76785714285714 L125.78125,158.76785714285714 Z M133.78125,157.76785714285714 L133.78125,157.76785714285714 L136.78125,157.76785714285714 L136.78125,158.76785714285714 L133.78125,158.76785714285714 Z M141.78125,157.76785714285714 L141.78125,157.76785714285714 L144.78125,157.76785714285714 L144.78125,158.76785714285714 L141.78125,158.76785714285714 Z M149.78125,157.76785714285714 L149.78125,157.76785714285714 L152.78125,157.76785714285714 L152.78125,158.76785714285714 L149.78125,158.76785714285714 Z M157.78125,157.76785714285714 L157.78125,157.76785714285714 L160.78125,157.76785714285714 L160.78125,158.76785714285714 L157.78125,158.76785714285714 Z M165.78125,157.76785714285714 L165.78125,157.76785714285714 L168.78125,157.76785714285714 L168.78125,158.76785714285714 L165.78125,158.76785714285714 Z M173.78125,157.76785714285714 L173.78125,157.76785714285714 L176.78125,157.76785714285714 L176.78125,158.76785714285714 L173.78125,158.76785714285714 Z M181.78125,157.76785714285714 L181.78125,157.76785714285714 L184.78125,157.76785714285714 L184.78125,158.76785714285714 L181.78125,158.76785714285714 Z M189.78125,157.76785714285714 L189.78125,157.76785714285714 L192.78125,157.76785714285714 L192.78125,158.76785714285714 L189.78125,158.76785714285714 Z M197.78125,157.76785714285714 L197.78125,157.76785714285714 L200.78125,157.76785714285714 L200.78125,158.76785714285714 L197.78125,158.76785714285714 Z M205.78125,157.76785714285714 L205.78125,157.76785714285714 L208.78125,157.76785714285714 L208.78125,158.76785714285714 L205.78125,158.76785714285714 Z M213.78125,157.76785714285714 L213.78125,157.76785714285714 L216.78125,157.76785714285714 L216.78125,158.76785714285714 L213.78125,158.76785714285714 Z M221.78125,157.76785714285714 L221.78125,157.76785714285714 L224.78125,157.76785714285714 L224.78125,158.76785714285714 L221.78125,158.76785714285714 Z M229.78125,157.76785714285714 L229.78125,157.76785714285714 L232.78125,157.76785714285714 L232.78125,158.76785714285714 L229.78125,158.76785714285714 Z M237.78125,157.76785714285714 L237.78125,157.76785714285714 L240.78125,157.76785714285714 L240.78125,158.76785714285714 L237.78125,158.76785714285714 Z M245.78125,157.76785714285714 L245.78125,157.76785714285714 L248.78125,157.76785714285714 L248.78125,158.76785714285714 L245.78125,158.76785714285714 Z M253.78125,157.76785714285714 L253.78125,157.76785714285714 L256.78125,157.76785714285714 L256.78125,158.76785714285714 L253.78125,158.76785714285714 Z M261.78125,157.76785714285714 L261.78125,157.76785714285714 L264.78125,157.76785714285714 L264.78125,158.76785714285714 L261.78125,158.76785714285714 Z M269.78125,157.76785714285714 L269.78125,157.76785714285714 L272.78125,157.76785714285714 L272.78125,158.76785714285714 L269.78125,158.76785714285714 Z M277.78125,157.76785714285714 L277.78125,157.76785714285714 L280.78125,157.76785714285714 L280.78125,158.76785714285714 L277.78125,158.76785714285714 Z M285.78125,157.76785714285714 L285.78125,157.76785714285714 L288.78125,157.76785714285714 L288.78125,158.76785714285714 L285.78125,158.76785714285714 Z M293.78125,157.76785714285714 L293.78125,157.76785714285714 L296.78125,157.76785714285714 L296.78125,158.76785714285714 L293.78125,158.76785714285714 Z M301.78125,157.76785714285714 L301.78125,157.76785714285714 L304.78125,157.76785714285714 L304.78125,158.76785714285714 L301.78125,158.76785714285714 Z M309.78125,157.76785714285714 L309.78125,157.76785714285714 L312.78125,157.76785714285714 L312.78125,158.76785714285714 L309.78125,158.76785714285714 Z M317.78125,157.76785714285714 L317.78125,157.76785714285714 L320.78125,157.76785714285714 L320.78125,158.76785714285714 L317.78125,158.76785714285714 Z M325.78125,157.76785714285714 L325.78125,157.76785714285714 L328.78125,157.76785714285714 L328.78125,158.76785714285714 L325.78125,158.76785714285714 Z M333.78125,157.76785714285714 L333.78125,157.76785714285714 L336.78125,157.76785714285714 L336.78125,158.76785714285714 L333.78125,158.76785714285714 Z M341.78125,157.76785714285714 L341.78125,157.76785714285714 L344.78125,157.76785714285714 L344.78125,158.76785714285714 L341.78125,158.76785714285714 Z M349.78125,157.76785714285714 L349.78125,157.76785714285714 L352.78125,157.76785714285714 L352.78125,158.76785714285714 L349.78125,158.76785714285714 Z M357.78125,157.76785714285714 L357.78125,157.76785714285714 L360.78125,157.76785714285714 L360.78125,158.76785714285714 L357.78125,158.76785714285714 Z M365.78125,157.76785714285714 L365.78125,157.76785714285714 L368.78125,157.76785714285714 L368.78125,158.76785714285714 L365.78125,158.76785714285714 Z M373.78125,157.76785714285714 L373.78125,157.76785714285714 L376.78125,157.76785714285714 L376.78125,158.76785714285714 L373.78125,158.76785714285714 Z M381.78125,157.76785714285714 L381.78125,157.76785714285714 L384.78125,157.76785714285714 L384.78125,158.76785714285714 L381.78125,158.76785714285714 Z M389.78125,157.76785714285714 L389.78125,157.76785714285714 L392.78125,157.76785714285714 L392.78125,158.76785714285714 L389.78125,158.76785714285714 Z M397.78125,157.76785714285714 L397.78125,157.76785714285714 L400.78125,157.76785714285714 L400.78125,158.76785714285714 L397.78125,158.76785714285714 Z M405.78125,157.76785714285714 L405.78125,157.76785714285714 L408.78125,157.76785714285714 L408.78125,158.76785714285714 L405.78125,158.76785714285714 Z M413.78125,157.76785714285714 L413.78125,157.76785714285714 L416.78125,157.76785714285714 L416.78125,158.76785714285714 L413.78125,158.76785714285714 Z M421.78125,157.76785714285714 L421.78125,157.76785714285714 L424.78125,157.76785714285714 L424.78125,158.76785714285714 L421.78125,158.76785714285714 Z M429.78125,157.76785714285714 L429.78125,157.76785714285714 L432.78125,157.76785714285714 L432.78125,158.76785714285714 L429.78125,158.76785714285714 Z M437.78125,157.76785714285714 L437.78125,157.76785714285714 L440.78125,157.76785714285714 L440.78125,158.76785714285714 L437.78125,158.76785714285714 Z M445.78125,157.76785714285714 L445.78125,157.76785714285714 L448.78125,157.76785714285714 L448.78125,158.76785714285714 L445.78125,158.76785714285714 Z M453.78125,157.76785714285714 L453.78125,157.76785714285714 L456.78125,157.76785714285714 L456.78125,158.76785714285714 L453.78125,158.76785714285714 Z M461.78125,157.76785714285714 L461.78125,157.76785714285714 L464.78125,157.76785714285714 L464.78125,158.76785714285714 L461.78125,158.76785714285714 Z M469.78125,157.76785714285714 L469.78125,157.76785714285714 L472.78125,157.76785714285714 L472.78125,158.76785714285714 L469.78125,158.76785714285714 Z M477.78125,157.76785714285714 L477.78125,157.76785714285714 L480.78125,157.76785714285714 L480.78125,158.76785714285714 L477.78125,158.76785714285714 Z M485.78125,157.76785714285714 L485.78125,157.76785714285714 L488.78125,157.76785714285714 L488.78125,158.76785714285714 L485.78125,158.76785714285714 Z M493.78125,157.76785714285714 L493.78125,157.76785714285714 L496.78125,157.76785714285714 L496.78125,158.76785714285714 L493.78125,158.76785714285714 Z M501.78125,157.76785714285714 L501.78125,157.76785714285714 L504.78125,157.76785714285714 L504.78125,158.76785714285714 L501.78125,158.76785714285714 Z M509.78125,157.76785714285714 L509.78125,157.76785714285714 L512.78125,157.76785714285714 L512.78125,158.76785714285714 L509.78125,158.76785714285714 Z M517.78125,157.76785714285714 L517.78125,157.76785714285714 L518.625,157.76785714285714 L518.625,158.76785714285714 L517.78125,158.76785714285714 Z M45.78125,157.76785714285714 L45.78125,157.76785714285714 L48.78125,157.76785714285714 L48.78125,158.76785714285714 L45.78125,158.76785714285714 Z" style="fill:none;stroke:rgb(210,210,210);stroke-miterlimit:10;stroke-linejoin:bevel;stroke-dasharray:3,5;"/>
    <path d="M53.78125,112.89732142857142 L53.78125,112.89732142857142 L56.78125,112.89732142857142 L56.78125,113.89732142857142 L53.78125,113.89732142857142 Z M61.78125,112.89732142857142 L61.78125,112.89732142857142 L64.78125,112.89732142857142 L64.78125,113.89732142857142 L61.78125,113.89732142857142 Z M69.78125,112.89732142857142 L69.78125,112.89732142857142 L72.78125,112.89732142857142 L72.78125,113.89732142857142 L69.78125,113.89732142857142 Z M77.78125,112.89732142857142 L77.78125,112.89732142857142 L80.78125,112.89732142857142 L80.78125,113.89732142857142 L77.78125,113.89732142857142 Z M85.78125,112.89732142857142 L85.78125,112.89732142857142 L88.78125,112.89732142857142 L88.78125,113.89732142857142 L85.78125,113.89732142857142 Z M93.78125,112.89732142857142 L93.78125,112.89732142857142 L96.78125,112.89732142857142 L96.78125,113.89732142857142 L93.78125,113.89732142857142 Z M101.78125,112.89732142857142 L101.78125,112.89732142857142 L104.78125,112.89732142857142 L104.78125,113.89732142857142 L101.78125,113.89732142857142 Z M109.78125,112.89732142857142 L109.78125,112.89732142857142 L112.78125,112.89732142857142 L112.78125,113.89732142857142 L109.78125,113.89732142857142 Z M117.78125,112.89732142857142 L117.78125,112.89732142857142 L120.78125,112.89732142857142 L120.78125,113.89732142857142 L117.78125,113.89732142857142 Z M125.78125,112.89732142857142 L125.78125,112.89732142857142 L128.78125,112.89732142857142 L128.78125,113.89732142857142 L125.78125,113.89732142857142 Z M133.78125,112.89732142857142 L133.78125,112.89732142857142 L136.78125,112.89732142857142 L136.78125,113.89732142857142 L133.78125,113.89732142857142 Z M141.78125,112.89732142857142 L141.78125,112.89732142857142 L144.78125,112.89732142857142 L144.78125,113.89732142857142 L141.78125,113.89732142857142 Z M149.78125,112.89732142857142 L149.78125,112.89732142857142 L152.78125,112.89732142857142 L152.78125,113.89732142857142 L149.78125,113.89732142857142 Z M157.78125,112.89732142857142 L157.78125,112.89732142857142 L160.78125,112.89732142857142 L160.78125,113.89732142857142 L157.78125,113.89732142857142 Z M165.78125,112.89732142857142 L165.78125,112.89732142857142 L168.78125,112.89732142857142 L168.78125,113.89732142857142 L165.78125,113.89732142857142 Z M173.78125,112.89732142857142 L173.78125,112.89732142857142 L176.78125,112.89732142857142 L176.78125,113.89732142857142 L173.78125,113.89732142857142 Z M181.78125,112.89732142857142 L181.78125,112.89732142857142 L184.78125,112.89732142857142 L184.78125,113.89732142857142 L181.78125,113.89732142857142 Z M189.78125,112.89732142857142 L189.78125,112.89732142857142 L192.78125,112.89732142857142 L192.78125,113.89732142857142 L189.78125,113.89732142857142 Z M197.78125,112.89732142857142 L197.78125,112.89732142857142 L200.78125,112.89732142857142 L200.78125,113.89732142857142 L197.78125,113.89732142857142 Z M205.78125,112.89732142857142 L205.78125,112.89732142857142 L208.78125,112.89732142857142 L208.78125,113.89732142857142 L205.78125,113.89732142857142 Z M213.78125,112.89732142857142 L213.78125,112.89732142857142 L216.78125,112.89732142857142 L216.78125,113.89732142857142 L213.78125,113.89732142857142 Z M221.78125,112.89732142857142 L221.78125,112.89732142857142 L224.78125,112.89732142857142 L224.78125,113.89732142857142 L221.78125,113.89732142857142 Z M229.78125,112.89732142857142 L229.78125,112.89732142857142 L232.78125,112.89732142857142 L232.78125,113.89732142857142 L229.78125,113.89732142857142 Z M237.78125,112.89732142857142 L237.78125,112.89732142857142 L240.78125,112.89732142857142 L240.78125,113.89732142857142 L237.78125,113.89732142857142 Z M245.78125,112.89732142857142 L245.78125,112.89732142857142 L248.78125,112.89732142857142 L248.78125,113.89732142857142 L245.78125,113.89732142857142 Z M253.78125,112.89732142857142 L253.78125,112.89732142857142 L256.78125,112.89732142857142 L256.78125,113.89732142857142 L253.78125,113.89732142857142 Z M261.78125,112.89732142857142 L261.78125,112.89732142857142 L264.78125,112.89732142857142 L264.78125,113.89732142857142 L261.78125,113.89732142857142 Z M269.78125,112.89732142857142 L269.78125,112.89732142857142 L272.78125,112.89732142857142 L272.78125,113.89732142857142 L269.78125,113.89732142857142 Z M277.78125,112.89732142857142 L277.78125,112.89732142857142 L280.78125,112.89732142857142 L280.78125,113.89732142857142 L277.78125,113.89732142857142 Z M285.78125,112.89732142857142 L285.78125,112.89732142857142 L288.78125,112.89732142857142 L288.78125,113.89732142857142 L285.78125,113.89732142857142 Z M293.78125,112.89732142857142 L293.78125,112.89732142857142 L296.78125,112.89732142857142 L296.78125,113.89732142857142 L293.78125,113.89732142857142 Z M301.78125,112.89732142857142 L301.78125,112.89732142857142 L304.78125,112.89732142857142 L304.78125,113.89732142857142 L301.78125,113.89732142857142 Z M309.78125,112.89732142857142 L309.78125,112.89732142857142 L312.78125,112.89732142857142 L312.78125,113.89732142857142 L309.78125,113.89732142857142 Z M317.78125,112.89732142857142 L317.78125,112.89732142857142 L320.78125,112.89732142857142 L320.78125,113.89732142857142 L317.78125,113.89732142857142 Z M325.78125,112.89732142857142 L325.78125,112.89732142857142 L328.78125,112.89732142857142 L328.78125,113.89732142857142 L325.78125,113.89732142857142 Z M333.78125,112.89732142857142 L333.78125,112.89732142857142 L336.78125,112.89732142857142 L336.78125,113.89732142857142 L333.78125,113.89732142857142 Z M341.78125,112.89732142857142 L341.78125,112.89732142857142 L344.78125,112.89732142857142 L344.78125,113.89732142857142 L341.78125,113.89732142857142 Z M349.78125,112.89732142857142 L349.78125,112.89732142857142 L352.78125,112.89732142857142 L352.78125,113.89732142857142 L349.78125,113.89732142857142 Z M357.78125,112.89732142857142 L357.78125,112.89732142857142 L360.78125,112.89732142857142 L360.78125,113.89732142857142 L357.78125,113.89732142857142 Z M365.78125,112.89732142857142 L365.78125,112.89732142857142 L368.78125,112.89732142857142 L368.78125,113.89732142857142 L365.78125,113.89732142857142 Z M373.78125,112.89732142857142 L373.78125,112.89732142857142 L376.78125,112.89732142857142 L376.78125,113.89732142857142 L373.78125,113.89732142857142 Z M381.78125,112.89732142857142 L381.78125,112.89732142857142 L384.78125,112.89732142857142 L384.78125,113.89732142857142 L381.78125,113.89732142857142 Z M389.78125,112.89732142857142 L389.78125,112.89732142857142 L392.78125,112.89732142857142 L392.78125,113.89732142857142 L389.78125,113.89732142857142 Z M397.78125,112.89732142857142 L397.78125,112.89732142857142 L400.78125,112.89732142857142 L400.78125,113.89732142857142 L397.78125,113.89732142857142 Z M405.78125,112.89732142857142 L405.78125,112.89732142857142 L408.78125,112.89732142857142 L408.78125,113.89732142857142 L405.78125,113.89732142857142 Z M413.78125,112.89732142857142 L413.78125,112.89732142857142 L416.78125,112.89732142857142 L416.78125,113.89732142857142 L413.78125,113.89732142857142 Z M421.78125,112.89732142857142 L421.78125,112.89732142857142 L424.78125,112.89732142857142 L424.78125,113.89732142857142 L421.78125,113.89732142857142 Z M429.78125,112.89732142857142 L429.78125,112.89732142857142 L432.78125,112.89732142857142 L432.78125,113.89732142857142 L429.78125,113.89732142857142 Z M437.78125,112.89732142857142 L437.78125,112.89732142857142 L440.78125,112.89732142857142 L440.78125,113.89732142857142 L437.78125,113.89732142857142 Z M445.78125,112.89732142857142 L445.78125,112.89732142857142 L448.78125,112.89732142857142 L448.78125,113.89732142857142 L445.78125,113.89732142857142 Z M453.78125,112.89732142857142 L453.78125,112.89732142857142 L456.78125,112.89732142857142 L456.78125,113.89732142857142 L453.78125,113.89732142857142 Z M461.78125,112.89732142857142 L461.78125,112.89732142857142 L464.78125,112.89732142857142 L464.78125,113.89732142857142 L461.78125,113.89732142857142 Z M469.78125,112.89732142857142 L469.78125,112.89732142857142 L472.78125,112.89732142857142 L472.78125,113.89732142857142 L469.78125,113.89732142857142 Z M477.78125,112.89732142857142 L477.78125,112.89732142857142 L480.78125,112.89732142857142 L480.78125,113.89732142857142 L477.78125,113.89732142857142 Z M485.78125,112.89732142857142 L485.78125,112.89732142857142 L488.78125,112.89732142857142 L488.78125,113.89732142857142 L485.78125,113.89732142857142 Z M493.78125,112.89732142857142 L493.78125,112.89732142857142 L496.78125,112.89732142857142 L496.78125,113.89732142857142 L493.78125,113.89732142857142 Z M501.78125,112.89732142857142 L501.78125,112.89732142857142 L504.78125,112.89732142857142 L504.78125,113.89732142857142 L501.78125,113.89732142857142 Z M509.78125,112.89732142857142 L509.78125,112.89732142857142 L512.78125,112.89732142857142 L512.78125,113.89732142857142 L509.78125,113.89732142857142 Z M517.78125,112.89732142857142 L517.78125,112.89732142857142 L518.625,112.89732142857142 L518.625,113.89732142857142 L517.78125,113.89732142857142 Z M45.78125,112.89732142857142 L45.78125,112.89732142857142 L48.78125,112.89732142857142 L48.78125,113.89732142857142 L45.78125,113.89732142857142 Z" style="fill:none;stroke:rgb(210,210,210);stroke-miterlimit:10;stroke-linejoin:bevel;stroke-dasharray:3,5;"/>
    <path d="M53.78125,68.02678571428572 L53.78125,68.02678571428572 L56.78125,68.02678571428572 L56.78125,69.02678571428572 L53.78125,69.02678571428572 Z M61.78125,68.02678571428572 L61.78125,68.02678571428572 L64.78125,68.02678571428572 L64.78125,69.02678571428572 L61.78125,69.02678571428572 Z M69.78125,68.02678571428572 L69.78125,68.02678571428572 L72.78125,68.02678571428572 L72.78125,69.02678571428572 L69.78125,69.02678571428572 Z M77.78125,68.02678571428572 L77.78125,68.02678571428572 L80.78125,68.02678571428572 L80.78125,69.02678571428572 L77.78125,69.02678571428572 Z M85.78125,68.02678571428572 L85.78125,68.02678571428572 L88.78125,68.02678571428572 L88.78125,69.02678571428572 L85.78125,69.02678571428572 Z M93.78125,68.02678571428572 L93.78125,68.02678571428572 L96.78125,68.02678571428572 L96.78125,69.02678571428572 L93.78125,69.02678571428572 Z M101.78125,68.02678571428572 L101.78125,68.02678571428572 L104.78125,68.02678571428572 L104.78125,69.02678571428572 L101.78125,69.02678571428572 Z M109.78125,68.02678571428572 L109.78125,68.02678571428572 L112.78125,68.02678571428572 L112.78125,69.02678571428572 L109.78125,69.02678571428572 Z M117.78125,68.02678571428572 L117.78125,68.02678571428572 L120.78125,68.02678571428572 L120.78125,69.02678571428572 L117.78125,69.02678571428572 Z M125.78125,68.02678571428572 L125.78125,68.02678571428572 L128.78125,68.02678571428572 L128.78125,69.02678571428572 L125.78125,69.02678571428572 Z M133.78125,68.02678571428572 L133.78125,68.02678571428572 L136.78125,68.02678571428572 L136.78125,69.02678571428572 L133.78125,69.02678571428572 Z M141.78125,68.02678571428572 L141.78125,68.02678571428572 L144.78125,68.02678571428572 L144.78125,69.02678571428572 L141.78125,69.02678571428572 Z M149.78125,68.02678571428572 L149.78125,68.02678571428572 L152.78125,68.02678571428572 L152.78125,69.02678571428572 L149.78125,69.02678571428572 Z M157.78125,68.02678571428572 L157.78125,68.02678571428572 L160.78125,68.02678571428572 L160.78125,69.02678571428572 L157.78125,69.02678571428572 Z M165.78125,68.02678571428572 L165.78125,68.02678571428572 L168.78125,68.02678571428572 L168.78125,69.02678571428572 L165.78125,69.02678571428572 Z M173.78125,68.02678571428572 L173.78125,68.02678571428572 L176.78125,68.02678571428572 L176.78125,69.02678571428572 L173.78125,69.02678571428572 Z M181.78125,68.02678571428572 L181.78125,68.02678571428572 L184.78125,68.02678571428572 L184.78125,69.02678571428572 L181.78125,69.02678571428572 Z M189.78125,68.02678571428572 L189.78125,68.02678571428572 L192.78125,68.02678571428572 L192.78125,69.02678571428572 L189.78125,69.02678571428572 Z M197.78125,68.02678571428572 L197.78125,68.02678571428572 L200.78125,68.02678571428572 L200.78125,69.02678571428572 L197.78125,69.02678571428572 Z M205.78125,68.02678571428572 L205.78125,68.02678571428572 L208.78125,68.02678571428572 L208.78125,69.02678571428572 L205.78125,69.02678571428572 Z M213.78125,68.02678571428572 L213.78125,68.02678571428572 L216.78125,68.02678571428572 L216.78125,69.02678571428572 L213.78125,69.02678571428572 Z M221.78125,68.02678571428572 L221.78125,68.02678571428572 L224.78125,68.02678571428572 L224.78125,69.02678571428572 L221.78125,69.02678571428572 Z M229.78125,68.02678571428572 L229.78125,68.02678571428572 L232.78125,68.02678571428572 L232.78125,69.02678571428572 L229.78125,69.02678571428572 Z M237.78125,68.02678571428572 L237.78125,68.02678571428572 L240.78125,68.02678571428572 L240.78125,69.02678571428572 L237.78125,69.02678571428572 Z M245.78125,68.02678571428572 L245.78125,68.02678571428572 L248.78125,68.02678571428572 L248.78125,69.02678571428572 L245.78125,69.02678571428572 Z M253.78125,68.02678571428572 L253.78125,68.02678571428572 L256.78125,68.02678571428572 L256.78125,69.02678571428572 L253.78125,69.02678571428572 Z M261.78125,68.02678571428572 L261.78125,68.02678571428572 L264.78125,68.02678571428572 L264.78125,69.02678571428572 L261.78125,69.02678571428572 Z M269.78125,68.02678571428572 L269.78125,68.02678571428572 L272.78125,68.02678571428572 L272.78125,69.02678571428572 L269.78125,69.02678571428572 Z M277.78125,68.02678571428572 L277.78125,68.02678571428572 L280.78125,68.02678571428572 L280.78125,69.02678571428572 L277.78125,69.02678571428572 Z M285.78125,68.02678571428572 L285.78125,68.02678571428572 L288.78125,68.02678571428572 L288.78125,69.02678571428572 L285.78125,69.02678571428572 Z M293.78125,68.02678571428572 L293.78125,68.02678571428572 L296.78125,68.02678571428572 L296.78125,69.02678571428572 L293.78125,69.02678571428572 Z M301.78125,68.02678571428572 L301.78125,68.02678571428572 L304.78125,68.02678571428572 L304.78125,69.02678571428572 L301.78125,69.02678571428572 Z M309.78125,68.02678571428572 L309.78125,68.02678571428572 L312.78125,68.02678571428572 L312.78125,69.02678571428572 L309.78125,69.02678571428572 Z M317.78125,68.02678571428572 L317.78125,68.02678571428572 L320.78125,68.02678571428572 L320.78125,69.02678571428572 L317.78125,69.02678571428572 Z M325.78125,68.02678571428572 L325.78125,68.02678571428572 L328.78125,68.02678571428572 L328.78125,69.02678571428572 L325.78125,69.02678571428572 Z M333.78125,68.02678571428572 L333.78125,68.02678571428572 L336.78125,68.02678571428572 L336.78125,69.02678571428572 L333.78125,69.02678571428572 Z M341.78125,68.02678571428572 L341.78125,68.02678571428572 L344.78125,68.02678571428572 L344.78125,69.02678571428572 L341.78125,69.02678571428572 Z M349.78125,68.02678571428572 L349.78125,68.02678571428572 L352.78125,68.02678571428572 L352.78125,69.02678571428572 L349.78125,69.02678571428572 Z M357.78125,68.02678571428572 L357.78125,68.02678571428572 L360.78125,68.02678571428572 L360.78125,69.02678571428572 L357.78125,69.02678571428572 Z M365.78125,68.02678571428572 L365.78125,68.02678571428572 L368.78125,68.02678571428572 L368.78125,69.02678571428572 L365.78125,69.02678571428572 Z M373.78125,68.02678571428572 L373.78125,68.02678571428572 L376.78125,68.02678571428572 L376.78125,69.02678571428572 L373.78125,69.02678571428572 Z M381.78125,68.02678571428572 L381.78125,68.02678571428572 L384.78125,68.02678571428572 L384.78125,69.02678571428572 L381.78125,69.02678571428572 Z M389.78125,68.02678571428572 L389.78125,68.02678571428572 L392.78125,68.02678571428572 L392.78125,69.02678571428572 L389.78125,69.02678571428572 Z M397.78125,68.02678571428572 L397.78125,68.02678571428572 L400.78125,68.02678571428572 L400.78125,69.02678571428572 L397.78125,69.02678571428572 Z M405.78125,68.02678571428572 L405.78125,68.02678571428572 L408.78125,68.02678571428572 L408.78125,69.02678571428572 L405.78125,69.02678571428572 Z M413.78125,68.02678571428572 L413.78125,68.02678571428572 L416.78125,68.02678571428572 L416.78125,69.02678571428572 L413.78125,69.02678571428572 Z M421.78125,68.02678571428572 L421.78125,68.02678571428572 L424.78125,68.02678571428572 L424.78125,69.02678571428572 L421.78125,69.02678571428572 Z M429.78125,68.02678571428572 L429.78125,68.02678571428572 L432.78125,68.02678571428572 L432.78125,69.02678571428572 L429.78125,69.02678571428572 Z M437.78125,68.02678571428572 L437.78125,68.02678571428572 L440.78125,68.02678571428572 L440.78125,69.02678571428572 L437.78125,69.02678571428572 Z M445.78125,68.02678571428572 L445.78125,68.02678571428572 L448.78125,68.02678571428572 L448.78125,69.02678571428572 L445.78125,69.02678571428572 Z M453.78125,68.02678571428572 L453.78125,68.02678571428572 L456.78125,68.02678571428572 L456.78125,69.02678571428572 L453.78125,69.02678571428572 Z M461.78125,68.02678571428572 L461.78125,68.02678571428572 L464.78125,68.02678571428572 L464.78125,69.02678571428572 L461.78125,69.02678571428572 Z M469.78125,68.02678571428572 L469.78125,68.02678571428572 L472.78125,68.02678571428572 L472.78125,69.02678571428572 L469.78125,69.02678571428572 Z M477.78125,68.02678571428572 L477.78125,68.02678571428572 L480.78125,68.02678571428572 L480.78125,69.02678571428572 L477.78125,69.02678571428572 Z M485.78125,68.02678571428572 L485.78125,68.02678571428572 L488.78125,68.02678571428572 L488.78125,69.02678571428572 L485.78125,69.02678571428572 Z M493.78125,68.02678571428572 L493.78125,68.02678571428572 L496.78125,68.02678571428572 L496.78125,69.02678571428572 L493.78125,69.02678571428572 Z M501.78125,68.02678571428572 L501.78125,68.02678571428572 L504.78125,68.02678571428572 L504.78125,69.02678571428572 L501.78125,69.02678571428572 Z M509.78125,68.02678571428572 L509.78125,68.02678571428572 L512.78125,68.02678571428572 L512.78125,69.02678571428572 L509.78125,69.02678571428572 Z M517.78125,68.02678571428572 L517.78125,68.02678571428572 L518.625,68.02678571428572 L518.625,69.02678571428572 L517.78125,69.02678571428572 Z M45.78125,68.02678571428572 L45.78125,68.02678571428572 L48.78125,68.02678571428572 L48.78125,69.02678571428572 L45.78125,69.02678571428572 Z" style="fill:none;stroke:rgb(210,210,210);stroke-miterlimit:10;stroke-linejoin:bevel;stroke-dasharray:3,5;"/>
    <path d="M53.78125,23.15625 L53.78125,23.15625 L56.78125,23.15625 L56.78125,24.15625 L53.78125,24.15625 Z M61.78125,23.15625 L61.78125,23.15625 L64.78125,23.15625 L64.78125,24.15625 L61.78125,24.15625 Z M69.78125,23.15625 L69.78125,23.15625 L72.78125,23.15625 L72.78125,24.15625 L69.78125,24.15625 Z M77.78125,23.15625 L77.78125,23.15625 L80.78125,23.15625 L80.78125,24.15625 L77.78125,24.15625 Z M85.78125,23.15625 L85.78125,23.15625 L88.78125,23.15625 L88.78125,24.15625 L85.78125,24.15625 Z M93.78125,23.15625 L93.78125,23.15625 L96.78125,23.15625 L96.78125,24.15625 L93.78125,24.15625 Z M101.78125,23.15625 L101.78125,23.15625 L104.78125,23.15625 L104.78125,24.15625 L101.78125,24.15625 Z M109.78125,23.15625 L109.78125,23.15625 L112.78125,23.15625 L112.78125,24.15625 L109.78125,24.15625 Z M117.78125,23.15625 L117.78125,23.15625 L120.78125,23.15625 L120.78125,24.15625 L117.78125,24.15625 Z M125.78125,23.15625 L125.78125,23.15625 L128.78125,23.15625 L128.78125,24.15625 L125.78125,24.15625 Z M133.78125,23.15625 L133.78125,23.15625 L136.78125,23.15625 L136.78125,24.15625 L133.78125,24.15625 Z M141.78125,23.15625 L141.78125,23.15625 L144.78125,23.15625 L144.78125,24.15625 L141.78125,24.15625 Z M149.78125,23.15625 L149.78125,23.15625 L152.78125,23.15625 L152.78125,24.15625 L149.78125,24.15625 Z M157.78125,23.15625 L157.78125,23.15625 L160.78125,23.15625 L160.78125,24.15625 L157.78125,24.15625 Z M165.78125,23.15625 L165.78125,23.15625 L168.78125,23.15625 L168.78125,24.15625 L165.78125,24.15625 Z M173.78125,23.15625 L173.78125,23.15625 L176.78125,23.15625 L176.78125,24.15625 L173.78125,24.15625 Z M181.78125,23.15625 L181.78125,23.15625 L184.78125,23.15625 L184.78125,24.15625 L181.78125,24.15625 Z M189.78125,23.15625 L189.78125,23.15625 L192.78125,23.15625 L192.78125,24.15625 L189.78125,24.15625 Z M197.78125,23.15625 L197.78125,23.15625 L200.78125,23.15625 L200.78125,24.15625 L197.78125,24.15625 Z M205.78125,23.15625 L205.78125,23.15625 L208.78125,23.15625 L208.78125,24.15625 L205.78125,24.15625 Z M213.78125,23.15625 L213.78125,23.15625 L216.78125,23.15625 L216.78125,24.15625 L213.78125,24.15625 Z M221.78125,23.15625 L221.78125,23.15625 L224.78125,23.15625 L224.78125,24.15625 L221.78125,24.15625 Z M229.78125,23.15625 L229.78125,23.15625 L232.78125,23.15625 L232.78125,24.15625 L229.78125,24.15625 Z M237.78125,23.15625 L237.78125,23.15625 L240.78125,23.15625 L240.78125,24.15625 L237.78125,24.15625 Z M245.78125,23.15625 L245.78125,23.15625 L248.78125,23.15625 L248.78125,24.15625 L245.78125,24.15625 Z M253.78125,23.15625 L253.78125,23.15625 L256.78125,23.15625 L256.78125,24.15625 L253.78125,24.15625 Z M261.78125,23.15625 L261.78125,23.15625 L264.78125,23.15625 L264.78125,24.15625 L261.78125,24.15625 Z M269.78125,23.15625 L269.78125,23.15625 L272.78125,23.15625 L272.78125,24.15625 L269.78125,24.15625 Z M277.78125,23.15625 L277.78125,23.15625 L280.78125,23.15625 L280.78125,24.15625 L277.78125,24.15625 Z M285.78125,23.15625 L285.78125,23.15625 L288.78125,23.15625 L288.78125,24.15625 L285.78125,24.15625 Z M293.78125,23.15625 L293.78125,23.15625 L296.78125,23.15625 L296.78125,24.15625 L293.78125,24.15625 Z M301.78125,23.15625 L301.78125,23.15625 L304.78125,23.15625 L304.78125,24.15625 L301.78125,24.15625 Z M309.78125,23.15625 L309.78125,23.15625 L312.78125,23.15625 L312.78125,24.15625 L309.78125,24.15625 Z M317.78125,23.15625 L317.78125,23.15625 L320.78125,23.15625 L320.78125,24.15625 L317.78125,24.15625 Z M325.78125,23.15625 L325.78125,23.15625 L328.78125,23.15625 L328.78125,24.15625 L325.78125,24.15625 Z M333.78125,23.15625 L333.78125,23.15625 L336.78125,23.15625 L336.78125,24.15625 L333.78125,24.15625 Z M341.78125,23.15625 L341.78125,23.15625 L344.78125,23.15625 L344.78125,24.15625 L341.78125,24.15625 Z M349.78125,23.15625 L349.78125,23.15625 L352.78125,23.15625 L352.78125,24.15625 L349.78125,24.15625 Z M357.78125,23.15625 L357.78125,23.15625 L360.78125,23.15625 L360.78125,24.15625 L357.78125,24.15625 Z M365.78125,23.15625 L365.78125,23.15625 L368.78125,23.15625 L368.78125,24.15625 L365.78125,24.15625 Z M373.78125,23.15625 L373.78125,23.15625 L376.78125,23.15625 L376.78125,24.15625 L373.78125,24.15625 Z M381.78125,23.15625 L381.78125,23.15625 L384.78125,23.15625 L384.78125,24.15625 L381.78125,24.15625 Z M389.78125,23.15625 L389.78125,23.15625 L392.78125,23.15625 L392.78125,24.15625 L389.78125,24.15625 Z M397.78125,23.15625 L397.78125,23.15625 L400.78125,23.15625 L400.78125,24.15625 L397.78125,24.15625 Z M405.78125,23.15625 L405.78125,23.15625 L408.78125,23.15625 L408.78125,24.15625 L405.78125,24.15625 Z M413.78125,23.15625 L413.78125,23.15625 L416.78125,23.15625 L416.78125,24.15625 L413.78125,24.15625 Z M421.78125,23.15625 L421.78125,23.15625 L424.78125,23.15625 L424.78125,24.15625 L421.78125,24.15625 Z M429.78125,23.15625 L429.78125,23.15625 L432.78125,23.15625 L432.78125,24.15625 L429.78125,24.15625 Z M437.78125,23.15625 L437.78125,23.15625 L440.78125,23.15625 L440.78125,24.15625 L437.78125,24.15625 Z M445.78125,23.15625 L445.78125,23.15625 L448.78125,23.15625 L448.78125,24.15625 L445.78125,24.15625 Z M453.78125,23.15625 L453.78125,23.15625 L456.78125,23.15625 L456.78125,24.15625 L453.78125,24.15625 Z M461.78125,23.15625 L461.78125,23.15625 L464.78125,23.15625 L464.78125,24.15625 L461.78125,24.15625 Z M469.78125,23.15625 L469.78125,23.15625 L472.78125,23.15625 L472.78125,24.15625 L469.78125,24.15625 Z M477.78125,23.15625 L477.78125,23.15625 L480.78125,23.15625 L480.78125,24.15625 L477.78125,24.15625 Z M485.78125,23.15625 L485.78125,23.15625 L488.78125,23.15625 L488.78125,24.15625 L485.78125,24.15625 Z M493.78125,23.15625 L493.78125,23.15625 L496.78125,23.15625 L496.78125,24.15625 L493.78125,24.15625 Z M501.78125,23.15625 L501.78125,23.15625 L504.78125,23.15625 L504.78125,24.15625 L501.78125,24.15625 Z M509.78125,23.15625 L509.78125,23.15625 L512.78125,23.15625 L512.78125,24.15625 L509.78125,24.15625 Z M517.78125,23.15625 L517.78125,23.15625 L518.625,23.15625 L518.625,24.15625 L517.78125,24.15625 Z M45.78125,23.15625 L45.78125,23.15625 L48.78125,23.15625 L48.78125,24.15625 L45.78125,24.15625 Z" style="fill:none;stroke:rgb(210,210,210);stroke-miterlimit:10;stroke-linejoin:bevel;stroke-dasharray:3,5;"/>
    <path d="M137.6977083333333,18 L137.6977083333333,18 L137.6977083333333,21 L136.6977083333333,21 L136.6977083333333,18 Z M137.6977083333333,26 L137.6977083333333,26 L137.6977083333333,29 L136.6977083333333,29 L136.6977083333333,26 Z M137.6977083333333,34 L137.6977083333333,34 L137.6977083333333,37 L136.6977083333333,37 L136.6977083333333,34 Z M137.6977083333333,42 L137.6977083333333,42 L137.6977083333333,45 L136.6977083333333,45 L136.6977083333333,42 Z M137.6977083333333,50 L137.6977083333333,50 L137.6977083333333,53 L136.6977083333333,53 L136.6977083333333,50 Z M137.6977083333333,58 L137.6977083333333,58 L137.6977083333333,61 L136.6977083333333,61 L136.6977083333333,58 Z M137.6977083333333,66 L137.6977083333333,66 L137.6977083333333,69 L136.6977083333333,69 L136.6977083333333,66 Z M137.6977083333333,74 L137.6977083333333,74 L137.6977083333333,77 L136.6977083333333,77 L136.6977083333333,74 Z M137.6977083333333,82 L137.6977083333333,82 L137.6977083333333,85 L136.6977083333333,85 L136.6977083333333,82 Z M137.6977083333333,90 L137.6977083333333,90 L137.6977083333333,93 L136.6977083333333,93 L136.6977083333333,90 Z M137.6977083333333,98 L137.6977083333333,98 L137.6977083333333,101 L136.6977083333333,101 L136.6977083333333,98 Z M137.6977083333333,106 L137.6977083333333,106 L137.6977083333333,109 L136.6977083333333,109 L136.6977083333333,106 Z M137.6977083333333,114 L137.6977083333333,114 L137.6977083333333,117 L136.6977083333333,117 L136.6977083333333,114 Z M137.6977083333333,122 L137.6977083333333,122 L137.6977083333333,125 L136.6977083333333,125 L136.6977083333333,122 Z M137.6977083333333,130 L137.6977083333333,130 L137.6977083333333,133 L136.6977083333333,133 L136.6977083333333,130 Z M137.6977083333333,138 L137.6977083333333,138 L137.6977083333333,141 L136.6977083333333,141 L136.6977083333333,138 Z M137.6977083333333,146 L137.6977083333333,146 L137.6977083333333,149 L136.6977083333333,149 L136.6977083333333,146 Z M137.6977083333333,154 L137.6977083333333,154 L137.6977083333333,157 L136.6977083333333,157 L136.6977083333333,154 Z M137.6977083333333,162 L137.6977083333333,162 L137.6977083333333,165 L136.6977083333333,165 L136.6977083333333,162 Z M137.6977083333333,170 L137.6977083333333,170 L137.6977083333333,173 L136.6977083333333,173 L136.6977083333333,170 Z M137.6977083333333,178 L137.6977083333333,178 L137.6977083333333,181 L136.6977083333333,181 L136.6977083333333,178 Z M137.6977083333333,186 L137.6977083333333,186 L137.6977083333333,189 L136.6977083333333,189 L136.6977083333333,186 Z M137.6977083333333,194 L137.6977083333333,194 L137.6977083333333,197 L136.6977083333333,197 L136.6977083333333,194 Z M137.6977083333333,202 L137.6977083333333,202 L137.6977083333333,205 L136.6977083333333,205 L136.6977083333333,202 Z M137.6977083333333,210 L137.6977083333333,210 L137.6977083333333,213 L136.6977083333333,213 L136.6977083333333,210 Z M137.6977083333333,218 L137.6977083333333,218 L137.6977083333333,221 L136.6977083333333,221 L136.6977083333333,218 Z M137.6977083333333,226 L137.6977083333333,226 L137.6977083333333,229 L136.6977083333333,229 L136.6977083333333,226 Z M137.6977083333333,234 L137.6977083333333,234 L137.6977083333333,237 L136.6977083333333,237 L136.6977083333333,234 Z M137.6977083333333,242 L137.6977083333333,242 L137.6977083333333,245 L136.6977083333333,245 L136.6977083333333,242 Z M137.6977083333333,250 L137.6977083333333,250 L137.6977083333333,253 L136.6977083333333,253 L136.6977083333333,250 Z M137.6977083333333,258 L137.6977083333333,258 L137.6977083333333,261 L136.6977083333333,261 L136.6977083333333,258 Z M137.6977083333333,266 L137.6977083333333,266 L137.6977083333333,269 L136.6977083333333,269 L136.6977083333333,266 Z M137.6977083333333,274 L137.6977083333333,274 L137.6977083333333,277 L136.6977083333333,277 L136.6977083333333,274 Z M137.6977083333333,282 L137.6977083333333,282 L137.6977083333333,285 L136.6977083333333,285 L136.6977083333333,282 Z M137.6977083333333,290 L137.6977083333333,290 L137.6977083333333,293 L136.6977083333333,293 L136.6977083333333,290 Z M137.6977083333333,298 L137.6977083333333,298 L137.6977083333333,301 L136.6977083333333,301 L136.6977083333333,298 Z M137.6977083333333,306 L137.6977083333333,306 L137.6977083333333,309 L136.6977083333333,309 L136.6977083333333,306 Z M137.6977083333333,314 L137.6977083333333,314 L137.6977083333333,317 L136.6977083333333,317 L136.6977083333333,314 Z M137.6977083333333,322 L137.6977083333333,322 L137.6977083333333,325 L136.6977083333333,325 L136.6977083333333,322 Z M137.6977083333333,330 L137.6977083333333,330 L137.6977083333333,333 L136.6977083333333,333 L136.6977083333333,330 Z M137.6977083333333,338 L137.6977083333333,338 L137.6977083333333,341 L136.6977083333333,341 L136.6977083333333,338 Z M137.6977083333333,346 L137.6977083333333,346 L137.6977083333333,349 L136.6977083333333,349 L136.6977083333333,346 Z M137.6977083333333,10 L137.6977083333333,10 L137.6977083333333,13 L136.6977083333333,13 L136.6977083333333,10 Z" style="fill:none;stroke:rgb(210,210,210);stroke-miterlimit:10;stroke-linejoin:bevel;stroke-dasharray:3,5;"/>
    <path d="M282.703125,18 L282.703125,18 L282.703125,21 L281.703125,21 L281.703125,18 Z M282.703125,26 L282.703125,26 L282.703125,29 L281.703125,29 L281.703125,26 Z M282.703125,34 L282.703125,34 L282.703125,37 L281.703125,37 L281.703125,34 Z M282.703125,42 L282.703125,42 L282.703125,45 L281.703125,45 L281.703125,42 Z M282.703125,50 L282.703125,50 L282.703125,53 L281.703125,53 L281.703125,50 Z M282.703125,58 L282.703125,58 L282.703125,61 L281.703125,61 L281.703125,58 Z M282.703125,66 L282.703125,66 L282.703125,69 L281.703125,69 L281.703125,66 Z M282.703125,74 L282.703125,74 L282.703125,77 L281.703125,77 L281.703125,74 Z M282.703125,82 L282.703125,82 L282.703125,85 L281.703125,85 L281.703125,82 Z M282.703125,90 L282.703125,90 L282.703125,93 L281.703125,93 L281.703125,90 Z M282.703125,98 L282.703125,98 L282.703125,101 L281.703125,101 L281.703125,98 Z M282.703125,106 L282.703125,106 L282.703125,109 L281.703125,109 L281.703125,106 Z M282.703125,114 L282.703125,114 L282.703125,117 L281.703125,117 L281.703125,114 Z M282.703125,122 L282.703125,122 L282.703125,125 L281.703125,125 L281.703125,122 Z M282.703125,130 L282.703125,130 L282.703125,133 L281.703125,133 L281.703125,130 Z M282.703125,138 L282.703125,138 L282.703125,141 L281.703125,141 L281.703125,138 Z M282.703125,146 L282.703125,146 L282.703125,149 L281.703125,149 L281.703125,146 Z M282.703125,154 L282.703125,154 L282.703125,157 L281.703125,157 L281.703125,154 Z M282.703125,162 L282.703125,162 L282.703125,165 L281.703125,165 L281.703125,162 Z M282.703125,170 L282.703125,170 L282.703125,173 L281.703125,173 L281.703125,170 Z M282.703125,178 L282.703125,178 L282.703125,181 L281.703125,181 L281.703125,178 Z M282.703125,186 L282.703125,186 L282.703125,189 L281.703125,189 L281.703125,186 Z M282.703125,194 L282.703125,194 L282.703125,197 L281.703125,197 L281.703125,194 Z M282.703125,202 L282.703125,202 L282.703125,205 L281.703125,205 L281.703125,202 Z M282.703125,210 L282.703125,210 L282.703125,213 L281.703125,213 L281.703125,210 Z M282.703125,218 L282.703125,218 L282.703125,221 L281.703125,221 L281.703125,218 Z M282.703125,226 L282.703125,226 L282.703125,229 L281.703125,229 L281.703125,226 Z M282.703125,234 L282.703125,234 L282.703125,237 L281.703125,237 L281.703125,234 Z M282.703125,242 L282.703125,242 L282.703125,245 L281.703125,245 L281.703125,242 Z M282.703125,250 L282.703125,250 L282.703125,253 L281.703125,253 L281.703125,250 Z M282.703125,258 L282.703125,258 L282.703125,261 L281.703125,261 L281.703125,258 Z M282.703125,266 L282.703125,266 L282.703125,269 L281.703125,269 L281.703125,266 Z M282.703125,274 L282.703125,274 L282.703125,277 L281.703125,277 L281.703125,274 Z M282.703125,282 L282.703125,282 L282.703125,285 L281.703125,285 L281.703125,282 Z M282.703125,290 L282.703125,290 L282.703125,293 L281.703125,293 L281.703125,290 Z M282.703125,298 L282.703125,298 L282.703125,301 L281.703125,301 L281.703125,298 Z M282.703125,306 L282.703125,306 L282.703125,309 L281.703125,309 L281.703125,306 Z M282.703125,314 L282.703125,314 L282.703125,317 L281.703125,317 L281.703125,314 Z M282.703125,322 L282.703125,322 L282.703125,325 L281.703125,325 L281.703125,322 Z M282.703125,330 L282.703125,330 L282.703125,333 L281.703125,333 L281.703125,330 Z M282.703125,338 L282.703125,338 L282.703125,341 L281.703125,341 L281.703125,338 Z M282.703125,346 L282.703125,346 L282.703125,349 L281.703125,349 L281.703125,346 Z M282.703125,10 L282.703125,10 L282.703125,13 L281.703125,13 L281.703125,10 Z" style="fill:none;stroke:rgb(210,210,210);stroke-miterlimit:10;stroke-linejoin:bevel;stroke-dasharray:3,5;"/>
    <path d="M427.70854166666663,18 L427.70854166666663,18 L427.70854166666663,21 L426.70854166666663,21 L426.70854166666663,18 Z M427.70854166666663,26 L427.70854166666663,26 L427.70854166666663,29 L426.70854166666663,29 L426.70854166666663,26 Z M427.70854166666663,34 L427.70854166666663,34 L427.70854166666663,37 L426.70854166666663,37 L426.70854166666663,34 Z M427.70854166666663,42 L427.70854166666663,42 L427.70854166666663,45 L426.70854166666663,45 L426.70854166666663,42 Z M427.70854166666663,50 L427.70854166666663,50 L427.70854166666663,53 L426.70854166666663,53 L426.70854166666663,50 Z M427.70854166666663,58 L427.70854166666663,58 L427.70854166666663,61 L426.70854166666663,61 L426.70854166666663,58 Z M427.70854166666663,66 L427.70854166666663,66 L427.70854166666663,69 L426.70854166666663,69 L426.70854166666663,66 Z M427.70854166666663,74 L427.70854166666663,74 L427.70854166666663,77 L426.70854166666663,77 L426.70854166666663,74 Z M427.70854166666663,82 L427.70854166666663,82 L427.70854166666663,85 L426.70854166666663,85 L426.70854166666663,82 Z M427.70854166666663,90 L427.70854166666663,90 L427.70854166666663,93 L426.70854166666663,93 L426.70854166666663,90 Z M427.70854166666663,98 L427.70854166666663,98 L427.70854166666663,101 L426.70854166666663,101 L426.70854166666663,98 Z M427.70854166666663,106 L427.70854166666663,106 L427.70854166666663,109 L426.70854166666663,109 L426.70854166666663,106 Z M427.70854166666663,114 L427.70854166666663,114 L427.70854166666663,117 L426.70854166666663,117 L426.70854166666663,114 Z M427.70854166666663,122 L427.70854166666663,122 L427.70854166666663,125 L426.70854166666663,125 L426.70854166666663,122 Z M427.70854166666663,130 L427.70854166666663,130 L427.70854166666663,133 L426.70854166666663,133 L426.70854166666663,130 Z M427.70854166666663,138 L427.70854166666663,138 L427.70854166666663,141 L426.70854166666663,141 L426.70854166666663,138 Z M427.70854166666663,146 L427.70854166666663,146 L427.70854166666663,149 L426.70854166666663,149 L426.70854166666663,146 Z M427.70854166666663,154 L427.70854166666663,154 L427.70854166666663,157 L426.70854166666663,157 L426.70854166666663,154 Z M427.70854166666663,162 L427.70854166666663,162 L427.70854166666663,165 L426.70854166666663,165 L426.70854166666663,162 Z M427.70854166666663,170 L427.70854166666663,170 L427.70854166666663,173 L426.70854166666663,173 L426.70854166666663,170 Z M427.70854166666663,178 L427.70854166666663,178 L427.70854166666663,181 L426.70854166666663,181 L426.70854166666663,178 Z M427.70854166666663,186 L427.70854166666663,186 L427.70854166666663,189 L426.70854166666663,189 L426.70854166666663,186 Z M427.70854166666663,194 L427.70854166666663,194 L427.70854166666663,197 L426.70854166666663,197 L426.70854166666663,194 Z M427.70854166666663,202 L427.70854166666663,202 L427.70854166666663,205 L426.70854166666663,205 L426.70854166666663,202 Z M427.70854166666663,210 L427.70854166666663,210 L427.70854166666663,213 L426.70854166666663,213 L426.70854166666663,210 Z M427.70854166666663,218 L427.70854166666663,218 L427.70854166666663,221 L426.70854166666663,221 L426.70854166666663,218 Z M427.70854166666663,226 L427.70854166666663,226 L427.70854166666663,229 L426.70854166666663,229 L426.70854166666663,226 Z M427.70854166666663,234 L427.70854166666663,234 L427.70854166666663,237 L426.70854166666663,237 L426.70854166666663,234 Z M427.70854166666663,242 L427.70854166666663,242 L427.70854166666663,245 L426.70854166666663,245 L426.70854166666663,242 Z M427.70854166666663,250 L427.70854166666663,250 L427.70854166666663,253 L426.70854166666663,253 L426.70854166666663,250 Z M427.70854166666663,258 L427.70854166666663,258 L427.70854166666663,261 L426.70854166666663,261 L426.70854166666663,258 Z M427.70854166666663,266 L427.70854166666663,266 L427.70854166666663,269 L426.70854166666663,269 L426.70854166666663,266 Z M427.70854166666663,274 L427.70854166666663,274 L427.70854166666663,277 L426.70854166666663,277 L426.70854166666663,274 Z M427.70854166666663,282 L427.70854166666663,282 L427.70854166666663,285 L426.70854166666663,285 L426.70854166666663,282 Z M427.70854166666663,290 L427.70854166666663,290 L427.70854166666663,293 L426.70854166666663,293 L426.70854166666663,290 Z M427.70854166666663,298 L427.70854166666663,298 L427.70854166666663,301 L426.70854166666663,301 L426.70854166666663,298 Z M427.70854166666663,306 L427.70854166666663,306 L427.70854166666663,309 L426.70854166666663,309 L426.70854166666663,306 Z M427.70854166666663,314 L427.70854166666663,314 L427.70854166666663,317 L426.70854166666663,317 L426.70854166666663,314 Z M427.70854166666663,322 L427.70854166666663,322 L427.70854166666663,325 L426.70854166666663,325 L426.70854166666663,322 Z M427.70854166666663,330 L427.70854166666663,330 L427.70854166666663,333 L426.70854166666663,333 L426.70854166666663,330 Z M427.70854166666663,338 L427.70854166666663,338 L427.70854166666663,341 L426.70854166666663,341 L426.70854166666663,338 Z M427.70854166666663,346 L427.70854166666663,346 L427.70854166666663,349 L426.70854166666663,349 L426.70854166666663,346 Z M427.70854166666663,10 L427.70854166666663,10 L427.70854166666663,13 L426.70854166666663,13 L426.70854166666663,10 Z" style="fill:none;stroke:rgb(210,210,210);stroke-miterlimit:10;stroke-linejoin:bevel;stroke-dasharray:3,5;"/>
    <rect height="341.40625" style="fill:none;stroke:rgb(130,130,130);stroke-miterlimit:10;stroke-linejoin:bevel;stroke-dasharray:3,0;" width="472.84375" x="45.78125" y="10"/>
  </g>
  <g clip-path="url(#clip807176704)">
    <path d="M71.94527083333332,203.13839285714286 L137.1977083333333,203.13839285714286 L137.1977083333333,337.75 L71.94527083333332,337.75 Z" style="fill:rgb(0,55,255);fill-opacity:0.705882352941177;stroke:none;"/>
    <path d="M216.9506875,158.26785714285714 L282.203125,158.26785714285714 L282.203125,337.75 L216.9506875,337.75 Z" style="fill:rgb(0,55,255);fill-opacity:0.705882352941177;stroke:none;"/>
    <path d="M361.95610416666665,113.39732142857142 L427.20854166666663,113.39732142857142 L427.20854166666663,337.75 L361.95610416666665,337.75 Z" style="fill:rgb(0,55,255);fill-opacity:0.705882352941177;stroke:none;"/>
    <path d="M137.1977083333333,203.13839285714286 L202.4501458333333,203.13839285714286 L202.4501458333333,337.75 L137.1977083333333,337.75 Z" style="fill:rgb(255,172,0);fill-opacity:0.705882352941177;stroke:none;"/>
    <path d="M282.203125,113.39732142857142 L347.4555625,113.39732142857142 L347.4555625,337.75 L282.203125,337.75 Z" style="fill:rgb(255,172,0);fill-opacity:0.705882352941177;stroke:none;"/>
    <path d="M427.20854166666663,23.65625 L492.4609791666666,23.65625 L492.4609791666666,337.75 L427.20854166666663,337.75 Z" style="fill:rgb(255,172,0);fill-opacity:0.705882352941177;stroke:none;"/>
  </g>
  <g>
    <rect height="70" style="fill:rgb(255,255,255);stroke:none;" width="61.375" x="532.625" y="145.703125"/>
    <rect height="70" style="fill:none;stroke:rgb(130,130,130);stroke-miterlimit:10;stroke-linejoin:bevel;stroke-dasharray:3,0;" width="61.375" x="532.625" y="145.703125"/>
    <rect height="20" style="fill:rgb(0,55,255);fill-opacity:0.705882352941177;stroke:none;" width="20" x="542.625" y="155.703125"/>
  </g>
  <g transform="translate(572.625 169.640625)">
    <path d="M-0.015625,-0 L3.015625,-7.875 L4.125,-7.875 L7.359375,-0 L6.171875,-0 L5.25,-2.390625 L1.953125,-2.390625 L1.09375,-0 L-0.015625,-0 Z M2.25,-3.234375 L4.921875,-3.234375 L4.109375,-5.421875 Q3.734375,-6.40625 3.546875,-7.046875 Q3.390625,-6.296875 3.125,-5.546875 L2.25,-3.234375 Z" style="fill:rgb(0,0,0);stroke:none;"/>
  </g>
  <g>
    <rect height="20" style="fill:rgb(255,172,0);fill-opacity:0.705882352941177;stroke:none;" width="20" x="542.625" y="185.703125"/>
  </g>
  <g transform="translate(572.625 199.640625)">
    <path d="M0.8125,-0 L0.8125,-7.875 L3.765625,-7.875 Q4.65625,-7.875 5.203125,-7.625 Q5.75,-7.390625 6.0625,-6.890625 Q6.375,-6.40625 6.375,-5.859375 Q6.375,-5.359375 6.09375,-4.90625 Q5.828125,-4.46875 5.265625,-4.1875 Q5.984375,-3.984375 6.359375,-3.46875 Q6.75,-2.96875 6.75,-2.28125 Q6.75,-1.734375 6.515625,-1.25 Q6.28125,-0.78125 5.9375,-0.515625 Q5.59375,-0.265625 5.078125,-0.125 Q4.5625,-0 3.8125,-0 L0.8125,-0 Z M1.84375,-4.5625 L3.546875,-4.5625 Q4.25,-4.5625 4.546875,-4.65625 Q4.9375,-4.78125 5.140625,-5.046875 Q5.34375,-5.328125 5.34375,-5.734375 Q5.34375,-6.125 5.15625,-6.421875 Q4.96875,-6.71875 4.609375,-6.828125 Q4.265625,-6.9375 3.421875,-6.9375 L1.84375,-6.9375 L1.84375,-4.5625 Z M1.84375,-0.921875 L3.8125,-0.921875 Q4.3125,-0.921875 4.515625,-0.96875 Q4.875,-1.03125 5.109375,-1.171875 Q5.359375,-1.328125 5.515625,-1.609375 Q5.671875,-1.90625 5.671875,-2.28125 Q5.671875,-2.71875 5.4375,-3.046875 Q5.21875,-3.375 4.8125,-3.5 Q4.421875,-3.640625 3.671875,-3.640625 L1.84375,-3.640625 L1.84375,-0.921875 Z" style="fill:rgb(0,0,0);stroke:none;"/>
  </g>
</svg>
