<?xml version="1.0" encoding="UTF-8" standalone="no"?>
<!DOCTYPE svg PUBLIC "-//W3C//DTD SVG 1.1//EN" "http://www.w3.org/Graphics/SVG/1.1/DTD/svg11.dtd">
<svg xmlns:xlink="http://www.w3.org/1999/xlink" height="400px" version="1.1" viewBox="0 0 600 400" width="600px" x="0px" y="0px" xmlns="http://www.w3.org/2000/svg">
  <defs>
    <clipPath id="clip813264128">
      <rect height="360" width="491.4375" x="27.1875" y="10"/>
    </clipPath>
  </defs>
  <rect height="400" style="fill:rgb(210,210,210);stroke:none;" width="600" x="0" y="0"/>
  <g transform="translate(10 265.4714285714286)">
    <path d="M6.078125,-1.53125 L6.078125,-0 L0.296875,-0 Q0.390625,-0.875 0.859375,-1.640625 Q1.328125,-2.421875 2.71875,-3.703125 Q3.828125,-4.734375 4.078125,-5.109375 Q4.421875,-5.625 4.421875,-6.125 Q4.421875,-6.671875 4.125,-6.96875 Q3.828125,-7.265625 3.3125,-7.265625 Q2.796875,-7.265625 2.484375,-6.953125 Q2.1875,-6.640625 2.140625,-5.921875 L0.5,-6.078125 Q0.640625,-7.4375 1.40625,-8.03125 Q2.1875,-8.625 3.34375,-8.625 Q4.625,-8.625 5.34375,-7.9375 Q6.078125,-7.25 6.078125,-6.234375 Q6.078125,-5.65625 5.859375,-5.125 Q5.65625,-4.609375 5.203125,-4.03125 Q4.90625,-3.65625 4.125,-2.9375 Q3.34375,-2.21875 3.140625,-1.984375 Q2.9375,-1.75 2.796875,-1.53125 L6.078125,-1.53125 Z" style="fill:rgb(0,0,0);stroke:none;"/>
  </g>
  <g transform="translate(10 124.02857142857144)">
    <path d="M0.53125,-2.203125 L2.171875,-2.375 Q2.25,-1.828125 2.59375,-1.5 Q2.9375,-1.171875 3.390625,-1.171875 Q3.90625,-1.171875 4.265625,-1.59375 Q4.625,-2.015625 4.625,-2.859375 Q4.625,-3.640625 4.265625,-4.03125 Q3.90625,-4.4375 3.34375,-4.4375 Q2.625,-4.4375 2.0625,-3.8125 L0.734375,-4 L1.578125,-8.46875 L5.9375,-8.46875 L5.9375,-6.9375 L2.828125,-6.9375 L2.5625,-5.46875 Q3.125,-5.75 3.6875,-5.75 Q4.78125,-5.75 5.546875,-4.953125 Q6.3125,-4.15625 6.3125,-2.890625 Q6.3125,-1.828125 5.703125,-0.984375 Q4.859375,0.140625 3.375,0.140625 Q2.1875,0.140625 1.4375,-0.484375 Q0.6875,-1.125 0.53125,-2.203125 Z" style="fill:rgb(0,0,0);stroke:none;"/>
  </g>
  <g transform="translate(10 170.84285714285716)">
    <path d="M3.734375,-0 L3.734375,-1.734375 L0.21875,-1.734375 L0.21875,-3.171875 L3.953125,-8.625 L5.328125,-8.625 L5.328125,-3.171875 L6.40625,-3.171875 L6.40625,-1.734375 L5.328125,-1.734375 L5.328125,-0 L3.734375,-0 Z M3.734375,-3.171875 L3.734375,-6.109375 L1.765625,-3.171875 L3.734375,-3.171875 Z" style="fill:rgb(0,0,0);stroke:none;"/>
  </g>
  <g transform="translate(10 360.6)">
    <path d="M3.296875,-8.625 Q4.546875,-8.625 5.25,-7.734375 Q6.078125,-6.6875 6.078125,-4.234375 Q6.078125,-1.796875 5.234375,-0.734375 Q4.546875,0.140625 3.296875,0.140625 Q2.046875,0.140625 1.265625,-0.8125 Q0.5,-1.78125 0.5,-4.25 Q0.5,-6.6875 1.34375,-7.75 Q2.046875,-8.625 3.296875,-8.625 Z M3.296875,-7.265625 Q3,-7.265625 2.765625,-7.0625 Q2.53125,-6.875 2.390625,-6.390625 Q2.234375,-5.75 2.234375,-4.234375 Q2.234375,-2.71875 2.375,-2.15625 Q2.53125,-1.59375 2.765625,-1.40625 Q3,-1.21875 3.296875,-1.21875 Q3.59375,-1.21875 3.828125,-1.40625 Q4.0625,-1.59375 4.1875,-2.09375 Q4.359375,-2.71875 4.359375,-4.234375 Q4.359375,-5.75 4.203125,-6.3125 Q4.0625,-6.875 3.828125,-7.0625 Q3.59375,-7.265625 3.296875,-7.265625 Z" style="fill:rgb(0,0,0);stroke:none;"/>
  </g>
  <g transform="translate(10 76.71428571428578)">
    <path d="M6.09375,-6.484375 L4.5,-6.3125 Q4.4375,-6.796875 4.1875,-7.03125 Q3.9375,-7.265625 3.546875,-7.265625 Q3.03125,-7.265625 2.671875,-6.796875 Q2.3125,-6.328125 2.21875,-4.859375 Q2.828125,-5.578125 3.75,-5.578125 Q4.78125,-5.578125 5.515625,-4.796875 Q6.25,-4.015625 6.25,-2.765625 Q6.25,-1.453125 5.46875,-0.65625 Q4.703125,0.140625 3.484375,0.140625 Q2.1875,0.140625 1.34375,-0.859375 Q0.515625,-1.875 0.515625,-4.171875 Q0.515625,-6.546875 1.375,-7.578125 Q2.25,-8.625 3.65625,-8.625 Q4.625,-8.625 5.265625,-8.078125 Q5.90625,-7.53125 6.09375,-6.484375 Z M2.359375,-2.890625 Q2.359375,-2.09375 2.71875,-1.65625 Q3.09375,-1.21875 3.5625,-1.21875 Q4.03125,-1.21875 4.328125,-1.578125 Q4.640625,-1.9375 4.640625,-2.75 Q4.640625,-3.59375 4.3125,-3.96875 Q3.984375,-4.359375 3.484375,-4.359375 Q3.015625,-4.359375 2.6875,-3.984375 Q2.359375,-3.625 2.359375,-2.890625 Z" style="fill:rgb(0,0,0);stroke:none;"/>
  </g>
  <g transform="translate(10 218.65714285714287)">
    <path d="M0.453125,-2.28125 L2.046875,-2.46875 Q2.125,-1.859375 2.453125,-1.53125 Q2.796875,-1.21875 3.265625,-1.21875 Q3.78125,-1.21875 4.125,-1.609375 Q4.46875,-2 4.46875,-2.65625 Q4.46875,-3.265625 4.125,-3.625 Q3.796875,-4 3.328125,-4 Q3,-4 2.5625,-3.875 L2.75,-5.21875 Q3.421875,-5.203125 3.765625,-5.5 Q4.125,-5.8125 4.125,-6.328125 Q4.125,-6.75 3.859375,-7 Q3.609375,-7.265625 3.171875,-7.265625 Q2.75,-7.265625 2.453125,-6.96875 Q2.15625,-6.6875 2.09375,-6.125 L0.578125,-6.375 Q0.734375,-7.15625 1.046875,-7.625 Q1.375,-8.09375 1.9375,-8.359375 Q2.515625,-8.625 3.21875,-8.625 Q4.4375,-8.625 5.171875,-7.859375 Q5.765625,-7.21875 5.765625,-6.421875 Q5.765625,-5.296875 4.53125,-4.625 Q5.28125,-4.453125 5.71875,-3.90625 Q6.15625,-3.359375 6.15625,-2.578125 Q6.15625,-1.453125 5.328125,-0.65625 Q4.5,0.140625 3.28125,0.140625 Q2.109375,0.140625 1.34375,-0.53125 Q0.578125,-1.203125 0.453125,-2.28125 Z" style="fill:rgb(0,0,0);stroke:none;"/>
  </g>
  <g transform="translate(10 312.7857142857143)">
    <path d="M4.71875,-0 L3.078125,-0 L3.078125,-6.203125 Q2.171875,-5.359375 0.953125,-4.953125 L0.953125,-6.453125 Q1.59375,-6.65625 2.34375,-7.25 Q3.109375,-7.84375 3.390625,-8.625 L4.71875,-8.625 L4.71875,-0 Z" style="fill:rgb(0,0,0);stroke:none;"/>
  </g>
  <g transform="translate(10 28.899999999999977)">
    <path d="M0.515625,-6.9375 L0.515625,-8.46875 L6.140625,-8.46875 L6.140625,-7.28125 Q5.4375,-6.59375 4.71875,-5.3125 Q4,-4.03125 3.625,-2.578125 Q3.25,-1.140625 3.25,-0 L1.671875,-0 Q1.703125,-1.78125 2.390625,-3.625 Q3.09375,-5.484375 4.25,-6.9375 L0.515625,-6.9375 Z" style="fill:rgb(0,0,0);stroke:none;"/>
  </g>
  <g>
    <line style="fill:none;stroke:rgb(130,130,130);stroke-miterlimit:10;stroke-linecap:square;" x1="20.1875" x2="23.1875" y1="355.6" y2="355.6"/>
    <line style="fill:none;stroke:rgb(130,130,130);stroke-miterlimit:10;stroke-linecap:square;" x1="20.1875" x2="23.1875" y1="308.2857142857143" y2="308.2857142857143"/>
    <line style="fill:none;stroke:rgb(130,130,130);stroke-miterlimit:10;stroke-linecap:square;" x1="20.1875" x2="23.1875" y1="260.9714285714286" y2="260.9714285714286"/>
    <line style="fill:none;stroke:rgb(130,130,130);stroke-miterlimit:10;stroke-linecap:square;" x1="20.1875" x2="23.1875" y1="213.65714285714287" y2="213.65714285714287"/>
    <line style="fill:none;stroke:rgb(130,130,130);stroke-miterlimit:10;stroke-linecap:square;" x1="20.1875" x2="23.1875" y1="166.34285714285716" y2="166.34285714285716"/>
    <line style="fill:none;stroke:rgb(130,130,130);stroke-miterlimit:10;stroke-linecap:square;" x1="20.1875" x2="23.1875" y1="119.02857142857144" y2="119.02857142857144"/>
    <line style="fill:none;stroke:rgb(130,130,130);stroke-miterlimit:10;stroke-linecap:square;" x1="20.1875" x2="23.1875" y1="71.71428571428578" y2="71.71428571428578"/>
    <line style="fill:none;stroke:rgb(130,130,130);stroke-miterlimit:10;stroke-linecap:square;" x1="20.1875" x2="23.1875" y1="24.399999999999977" y2="24.399999999999977"/>
    <line style="fill:none;stroke:rgb(130,130,130);stroke-miterlimit:10;stroke-linecap:square;" x1="23.1875" x2="23.1875" y1="10" y2="370"/>
  </g>
  <g transform="translate(120.3159375 390)">
    <path d="M4.71875,-0 L3.078125,-0 L3.078125,-6.203125 Q2.171875,-5.359375 0.953125,-4.953125 L0.953125,-6.453125 Q1.59375,-6.65625 2.34375,-7.25 Q3.109375,-7.84375 3.390625,-8.625 L4.71875,-8.625 L4.71875,-0 Z" style="fill:rgb(0,0,0);stroke:none;"/>
  </g>
  <g transform="translate(270.015625 390)">
    <path d="M6.078125,-1.53125 L6.078125,-0 L0.296875,-0 Q0.390625,-0.875 0.859375,-1.640625 Q1.328125,-2.421875 2.71875,-3.703125 Q3.828125,-4.734375 4.078125,-5.109375 Q4.421875,-5.625 4.421875,-6.125 Q4.421875,-6.671875 4.125,-6.96875 Q3.828125,-7.265625 3.3125,-7.265625 Q2.796875,-7.265625 2.484375,-6.953125 Q2.1875,-6.640625 2.140625,-5.921875 L0.5,-6.078125 Q0.640625,-7.4375 1.40625,-8.03125 Q2.1875,-8.625 3.34375,-8.625 Q4.625,-8.625 5.34375,-7.9375 Q6.078125,-7.25 6.078125,-6.234375 Q6.078125,-5.65625 5.859375,-5.125 Q5.65625,-4.609375 5.203125,-4.03125 Q4.90625,-3.65625 4.125,-2.9375 Q3.34375,-2.21875 3.140625,-1.984375 Q2.9375,-1.75 2.796875,-1.53125 L6.078125,-1.53125 Z" style="fill:rgb(0,0,0);stroke:none;"/>
  </g>
  <g transform="translate(420.76218750000004 389.859375)">
    <path d="M0.453125,-2.28125 L2.046875,-2.46875 Q2.125,-1.859375 2.453125,-1.53125 Q2.796875,-1.21875 3.265625,-1.21875 Q3.78125,-1.21875 4.125,-1.609375 Q4.46875,-2 4.46875,-2.65625 Q4.46875,-3.265625 4.125,-3.625 Q3.796875,-4 3.328125,-4 Q3,-4 2.5625,-3.875 L2.75,-5.21875 Q3.421875,-5.203125 3.765625,-5.5 Q4.125,-5.8125 4.125,-6.328125 Q4.125,-6.75 3.859375,-7 Q3.609375,-7.265625 3.171875,-7.265625 Q2.75,-7.265625 2.453125,-6.96875 Q2.15625,-6.6875 2.09375,-6.125 L0.578125,-6.375 Q0.734375,-7.15625 1.046875,-7.625 Q1.375,-8.09375 1.9375,-8.359375 Q2.515625,-8.625 3.21875,-8.625 Q4.4375,-8.625 5.171875,-7.859375 Q5.765625,-7.21875 5.765625,-6.421875 Q5.765625,-5.296875 4.53125,-4.625 Q5.28125,-4.453125 5.71875,-3.90625 Q6.15625,-3.359375 6.15625,-2.578125 Q6.15625,-1.453125 5.328125,-0.65625 Q4.5,0.140625 3.28125,0.140625 Q2.109375,0.140625 1.34375,-0.53125 Q0.578125,-1.203125 0.453125,-2.28125 Z" style="fill:rgb(0,0,0);stroke:none;"/>
  </g>
  <g>
    <line style="fill:none;stroke:rgb(130,130,130);stroke-miterlimit:10;stroke-linecap:square;" x1="122.19875" x2="122.19875" y1="377.234375" y2="374.234375"/>
    <line style="fill:none;stroke:rgb(130,130,130);stroke-miterlimit:10;stroke-linecap:square;" x1="272.90625" x2="272.90625" y1="377.234375" y2="374.234375"/>
    <line style="fill:none;stroke:rgb(130,130,130);stroke-miterlimit:10;stroke-linecap:square;" x1="423.61375000000004" x2="423.61375000000004" y1="377.234375" y2="374.234375"/>
    <line style="fill:none;stroke:rgb(130,130,130);stroke-miterlimit:10;stroke-linecap:square;" x1="27" x2="518" y1="374" y2="374"/>
    <rect height="360" style="fill:rgb(255,255,255);stroke:none;" width="491.4375" x="27.1875" y="10"/>
    <path d="M35.1875,355.1 L35.1875,355.1 L38.1875,355.1 L38.1875,356.1 L35.1875,356.1 Z M43.1875,355.1 L43.1875,355.1 L46.1875,355.1 L46.1875,356.1 L43.1875,356.1 Z M51.1875,355.1 L51.1875,355.1 L54.1875,355.1 L54.1875,356.1 L51.1875,356.1 Z M59.1875,355.1 L59.1875,355.1 L62.1875,355.1 L62.1875,356.1 L59.1875,356.1 Z M67.1875,355.1 L67.1875,355.1 L70.1875,355.1 L70.1875,356.1 L67.1875,356.1 Z M75.1875,355.1 L75.1875,355.1 L78.1875,355.1 L78.1875,356.1 L75.1875,356.1 Z M83.1875,355.1 L83.1875,355.1 L86.1875,355.1 L86.1875,356.1 L83.1875,356.1 Z M91.1875,355.1 L91.1875,355.1 L94.1875,355.1 L94.1875,356.1 L91.1875,356.1 Z M99.1875,355.1 L99.1875,355.1 L102.1875,355.1 L102.1875,356.1 L99.1875,356.1 Z M107.1875,355.1 L107.1875,355.1 L110.1875,355.1 L110.1875,356.1 L107.1875,356.1 Z M115.1875,355.1 L115.1875,355.1 L118.1875,355.1 L118.1875,356.1 L115.1875,356.1 Z M123.1875,355.1 L123.1875,355.1 L126.1875,355.1 L126.1875,356.1 L123.1875,356.1 Z M131.1875,355.1 L131.1875,355.1 L134.1875,355.1 L134.1875,356.1 L131.1875,356.1 Z M139.1875,355.1 L139.1875,355.1 L142.1875,355.1 L142.1875,356.1 L139.1875,356.1 Z M147.1875,355.1 L147.1875,355.1 L150.1875,355.1 L150.1875,356.1 L147.1875,356.1 Z M155.1875,355.1 L155.1875,355.1 L158.1875,355.1 L158.1875,356.1 L155.1875,356.1 Z M163.1875,355.1 L163.1875,355.1 L166.1875,355.1 L166.1875,356.1 L163.1875,356.1 Z M171.1875,355.1 L171.1875,355.1 L174.1875,355.1 L174.1875,356.1 L171.1875,356.1 Z M179.1875,355.1 L179.1875,355.1 L182.1875,355.1 L182.1875,356.1 L179.1875,356.1 Z M187.1875,355.1 L187.1875,355.1 L190.1875,355.1 L190.1875,356.1 L187.1875,356.1 Z M195.1875,355.1 L195.1875,355.1 L198.1875,355.1 L198.1875,356.1 L195.1875,356.1 Z M203.1875,355.1 L203.1875,355.1 L206.1875,355.1 L206.1875,356.1 L203.1875,356.1 Z M211.1875,355.1 L211.1875,355.1 L214.1875,355.1 L214.1875,356.1 L211.1875,356.1 Z M219.1875,355.1 L219.1875,355.1 L222.1875,355.1 L222.1875,356.1 L219.1875,356.1 Z M227.1875,355.1 L227.1875,355.1 L230.1875,355.1 L230.1875,356.1 L227.1875,356.1 Z M235.1875,355.1 L235.1875,355.1 L238.1875,355.1 L238.1875,356.1 L235.1875,356.1 Z M243.1875,355.1 L243.1875,355.1 L246.1875,355.1 L246.1875,356.1 L243.1875,356.1 Z M251.1875,355.1 L251.1875,355.1 L254.1875,355.1 L254.1875,356.1 L251.1875,356.1 Z M259.1875,355.1 L259.1875,355.1 L262.1875,355.1 L262.1875,356.1 L259.1875,356.1 Z M267.1875,355.1 L267.1875,355.1 L270.1875,355.1 L270.1875,356.1 L267.1875,356.1 Z M275.1875,355.1 L275.1875,355.1 L278.1875,355.1 L278.1875,356.1 L275.1875,356.1 Z M283.1875,355.1 L283.1875,355.1 L286.1875,355.1 L286.1875,356.1 L283.1875,356.1 Z M291.1875,355.1 L291.1875,355.1 L294.1875,355.1 L294.1875,356.1 L291.1875,356.1 Z M299.1875,355.1 L299.1875,355.1 L302.1875,355.1 L302.1875,356.1 L299.1875,356.1 Z M307.1875,355.1 L307.1875,355.1 L310.1875,355.1 L310.1875,356.1 L307.1875,356.1 Z M315.1875,355.1 L315.1875,355.1 L318.1875,355.1 L318.1875,356.1 L315.1875,356.1 Z M323.1875,355.1 L323.1875,355.1 L326.1875,355.1 L326.1875,356.1 L323.1875,356.1 Z M331.1875,355.1 L331.1875,355.1 L334.1875,355.1 L334.1875,356.1 L331.1875,356.1 Z M339.1875,355.1 L339.1875,355.1 L342.1875,355.1 L342.1875,356.1 L339.1875,356.1 Z M347.1875,355.1 L347.1875,355.1 L350.1875,355.1 L350.1875,356.1 L347.1875,356.1 Z M355.1875,355.1 L355.1875,355.1 L358.1875,355.1 L358.1875,356.1 L355.1875,356.1 Z M363.1875,355.1 L363.1875,355.1 L366.1875,355.1 L366.1875,356.1 L363.1875,356.1 Z M371.1875,355.1 L371.1875,355.1 L374.1875,355.1 L374.1875,356.1 L371.1875,356.1 Z M379.1875,355.1 L379.1875,355.1 L382.1875,355.1 L382.1875,356.1 L379.1875,356.1 Z M387.1875,355.1 L387.1875,355.1 L390.1875,355.1 L390.1875,356.1 L387.1875,356.1 Z M395.1875,355.1 L395.1875,355.1 L398.1875,355.1 L398.1875,356.1 L395.1875,356.1 Z M403.1875,355.1 L403.1875,355.1 L406.1875,355.1 L406.1875,356.1 L403.1875,356.1 Z M411.1875,355.1 L411.1875,355.1 L414.1875,355.1 L414.1875,356.1 L411.1875,356.1 Z M419.1875,355.1 L419.1875,355.1 L422.1875,355.1 L422.1875,356.1 L419.1875,356.1 Z M427.1875,355.1 L427.1875,355.1 L430.1875,355.1 L430.1875,356.1 L427.1875,356.1 Z M435.1875,355.1 L435.1875,355.1 L438.1875,355.1 L438.1875,356.1 L435.1875,356.1 Z M443.1875,355.1 L443.1875,355.1 L446.1875,355.1 L446.1875,356.1 L443.1875,356.1 Z M451.1875,355.1 L451.1875,355.1 L454.1875,355.1 L454.1875,356.1 L451.1875,356.1 Z M459.1875,355.1 L459.1875,355.1 L462.1875,355.1 L462.1875,356.1 L459.1875,356.1 Z M467.1875,355.1 L467.1875,355.1 L470.1875,355.1 L470.1875,356.1 L467.1875,356.1 Z M475.1875,355.1 L475.1875,355.1 L478.1875,355.1 L478.1875,356.1 L475.1875,356.1 Z M483.1875,355.1 L483.1875,355.1 L486.1875,355.1 L486.1875,356.1 L483.1875,356.1 Z M491.1875,355.1 L491.1875,355.1 L494.1875,355.1 L494.1875,356.1 L491.1875,356.1 Z M499.1875,355.1 L499.1875,355.1 L502.1875,355.1 L502.1875,356.1 L499.1875,356.1 Z M507.1875,355.1 L507.1875,355.1 L510.1875,355.1 L510.1875,356.1 L507.1875,356.1 Z M515.1875,355.1 L515.1875,355.1 L518.1875,355.1 L518.1875,356.1 L515.1875,356.1 Z M27.1875,355.1 L27.1875,355.1 L30.1875,355.1 L30.1875,356.1 L27.1875,356.1 Z" style="fill:none;stroke:rgb(210,210,210);stroke-miterlimit:10;stroke-linejoin:bevel;stroke-dasharray:3,5;"/>
    <path d="M35.1875,307.7857142857143 L35.1875,307.7857142857143 L38.1875,307.7857142857143 L38.1875,308.7857142857143 L35.1875,308.7857142857143 Z M43.1875,307.7857142857143 L43.1875,307.7857142857143 L46.1875,307.7857142857143 L46.1875,308.7857142857143 L43.1875,308.7857142857143 Z M51.1875,307.7857142857143 L51.1875,307.7857142857143 L54.1875,307.7857142857143 L54.1875,308.7857142857143 L51.1875,308.7857142857143 Z M59.1875,307.7857142857143 L59.1875,307.7857142857143 L62.1875,307.7857142857143 L62.1875,308.7857142857143 L59.1875,308.7857142857143 Z M67.1875,307.7857142857143 L67.1875,307.7857142857143 L70.1875,307.7857142857143 L70.1875,308.7857142857143 L67.1875,308.7857142857143 Z M75.1875,307.7857142857143 L75.1875,307.7857142857143 L78.1875,307.7857142857143 L78.1875,308.7857142857143 L75.1875,308.7857142857143 Z M83.1875,307.7857142857143 L83.1875,307.7857142857143 L86.1875,307.7857142857143 L86.1875,308.7857142857143 L83.1875,308.7857142857143 Z M91.1875,307.7857142857143 L91.1875,307.7857142857143 L94.1875,307.7857142857143 L94.1875,308.7857142857143 L91.1875,308.7857142857143 Z M99.1875,307.7857142857143 L99.1875,307.7857142857143 L102.1875,307.7857142857143 L102.1875,308.7857142857143 L99.1875,308.7857142857143 Z M107.1875,307.7857142857143 L107.1875,307.7857142857143 L110.1875,307.7857142857143 L110.1875,308.7857142857143 L107.1875,308.7857142857143 Z M115.1875,307.7857142857143 L115.1875,307.7857142857143 L118.1875,307.7857142857143 L118.1875,308.7857142857143 L115.1875,308.7857142857143 Z M123.1875,307.7857142857143 L123.1875,307.7857142857143 L126.1875,307.7857142857143 L126.1875,308.7857142857143 L123.1875,308.7857142857143 Z M131.1875,307.7857142857143 L131.1875,307.7857142857143 L134.1875,307.7857142857143 L134.1875,308.7857142857143 L131.1875,308.7857142857143 Z M139.1875,307.7857142857143 L139.1875,307.7857142857143 L142.1875,307.7857142857143 L142.1875,308.7857142857143 L139.1875,308.7857142857143 Z M147.1875,307.7857142857143 L147.1875,307.7857142857143 L150.1875,307.7857142857143 L150.1875,308.7857142857143 L147.1875,308.7857142857143 Z M155.1875,307.7857142857143 L155.1875,307.7857142857143 L158.1875,307.7857142857143 L158.1875,308.7857142857143 L155.1875,308.7857142857143 Z M163.1875,307.7857142857143 L163.1875,307.7857142857143 L166.1875,307.7857142857143 L166.1875,308.7857142857143 L163.1875,308.7857142857143 Z M171.1875,307.7857142857143 L171.1875,307.7857142857143 L174.1875,307.7857142857143 L174.1875,308.7857142857143 L171.1875,308.7857142857143 Z M179.1875,307.7857142857143 L179.1875,307.7857142857143 L182.1875,307.7857142857143 L182.1875,308.7857142857143 L179.1875,308.7857142857143 Z M187.1875,307.7857142857143 L187.1875,307.7857142857143 L190.1875,307.7857142857143 L190.1875,308.7857142857143 L187.1875,308.7857142857143 Z M195.1875,307.7857142857143 L195.1875,307.7857142857143 L198.1875,307.7857142857143 L198.1875,308.7857142857143 L195.1875,308.7857142857143 Z M203.1875,307.7857142857143 L203.1875,307.7857142857143 L206.1875,307.7857142857143 L206.1875,308.7857142857143 L203.1875,308.7857142857143 Z M211.1875,307.7857142857143 L211.1875,307.7857142857143 L214.1875,307.7857142857143 L214.1875,308.7857142857143 L211.1875,308.7857142857143 Z M219.1875,307.7857142857143 L219.1875,307.7857142857143 L222.1875,307.7857142857143 L222.1875,308.7857142857143 L219.1875,308.7857142857143 Z M227.1875,307.7857142857143 L227.1875,307.7857142857143 L230.1875,307.7857142857143 L230.1875,308.7857142857143 L227.1875,308.7857142857143 Z M235.1875,307.7857142857143 L235.1875,307.7857142857143 L238.1875,307.7857142857143 L238.1875,308.7857142857143 L235.1875,308.7857142857143 Z M243.1875,307.7857142857143 L243.1875,307.7857142857143 L246.1875,307.7857142857143 L246.1875,308.7857142857143 L243.1875,308.7857142857143 Z M251.1875,307.7857142857143 L251.1875,307.7857142857143 L254.1875,307.7857142857143 L254.1875,308.7857142857143 L251.1875,308.7857142857143 Z M259.1875,307.7857142857143 L259.1875,307.7857142857143 L262.1875,307.7857142857143 L262.1875,308.7857142857143 L259.1875,308.7857142857143 Z M267.1875,307.7857142857143 L267.1875,307.7857142857143 L270.1875,307.7857142857143 L270.1875,308.7857142857143 L267.1875,308.7857142857143 Z M275.1875,307.7857142857143 L275.1875,307.7857142857143 L278.1875,307.7857142857143 L278.1875,308.7857142857143 L275.1875,308.7857142857143 Z M283.1875,307.7857142857143 L283.1875,307.7857142857143 L286.1875,307.7857142857143 L286.1875,308.7857142857143 L283.1875,308.7857142857143 Z M291.1875,307.7857142857143 L291.1875,307.7857142857143 L294.1875,307.7857142857143 L294.1875,308.7857142857143 L291.1875,308.7857142857143 Z M299.1875,307.7857142857143 L299.1875,307.7857142857143 L302.1875,307.7857142857143 L302.1875,308.7857142857143 L299.1875,308.7857142857143 Z M307.1875,307.7857142857143 L307.1875,307.7857142857143 L310.1875,307.7857142857143 L310.1875,308.7857142857143 L307.1875,308.7857142857143 Z M315.1875,307.7857142857143 L315.1875,307.7857142857143 L318.1875,307.7857142857143 L318.1875,308.7857142857143 L315.1875,308.7857142857143 Z M323.1875,307.7857142857143 L323.1875,307.7857142857143 L326.1875,307.7857142857143 L326.1875,308.7857142857143 L323.1875,308.7857142857143 Z M331.1875,307.7857142857143 L331.1875,307.7857142857143 L334.1875,307.7857142857143 L334.1875,308.7857142857143 L331.1875,308.7857142857143 Z M339.1875,307.7857142857143 L339.1875,307.7857142857143 L342.1875,307.7857142857143 L342.1875,308.7857142857143 L339.1875,308.7857142857143 Z M347.1875,307.7857142857143 L347.1875,307.7857142857143 L350.1875,307.7857142857143 L350.1875,308.7857142857143 L347.1875,308.7857142857143 Z M355.1875,307.7857142857143 L355.1875,307.7857142857143 L358.1875,307.7857142857143 L358.1875,308.7857142857143 L355.1875,308.7857142857143 Z M363.1875,307.7857142857143 L363.1875,307.7857142857143 L366.1875,307.7857142857143 L366.1875,308.7857142857143 L363.1875,308.7857142857143 Z M371.1875,307.7857142857143 L371.1875,307.7857142857143 L374.1875,307.7857142857143 L374.1875,308.7857142857143 L371.1875,308.7857142857143 Z M379.1875,307.7857142857143 L379.1875,307.7857142857143 L382.1875,307.7857142857143 L382.1875,308.7857142857143 L379.1875,308.7857142857143 Z M387.1875,307.7857142857143 L387.1875,307.7857142857143 L390.1875,307.7857142857143 L390.1875,308.7857142857143 L387.1875,308.7857142857143 Z M395.1875,307.7857142857143 L395.1875,307.7857142857143 L398.1875,307.7857142857143 L398.1875,308.7857142857143 L395.1875,308.7857142857143 Z M403.1875,307.7857142857143 L403.1875,307.7857142857143 L406.1875,307.7857142857143 L406.1875,308.7857142857143 L403.1875,308.7857142857143 Z M411.1875,307.7857142857143 L411.1875,307.7857142857143 L414.1875,307.7857142857143 L414.1875,308.7857142857143 L411.1875,308.7857142857143 Z M419.1875,307.7857142857143 L419.1875,307.7857142857143 L422.1875,307.7857142857143 L422.1875,308.7857142857143 L419.1875,308.7857142857143 Z M427.1875,307.7857142857143 L427.1875,307.7857142857143 L430.1875,307.7857142857143 L430.1875,308.7857142857143 L427.1875,308.7857142857143 Z M435.1875,307.7857142857143 L435.1875,307.7857142857143 L438.1875,307.7857142857143 L438.1875,308.7857142857143 L435.1875,308.7857142857143 Z M443.1875,307.7857142857143 L443.1875,307.7857142857143 L446.1875,307.7857142857143 L446.1875,308.7857142857143 L443.1875,308.7857142857143 Z M451.1875,307.7857142857143 L451.1875,307.7857142857143 L454.1875,307.7857142857143 L454.1875,308.7857142857143 L451.1875,308.7857142857143 Z M459.1875,307.7857142857143 L459.1875,307.7857142857143 L462.1875,307.7857142857143 L462.1875,308.7857142857143 L459.1875,308.7857142857143 Z M467.1875,307.7857142857143 L467.1875,307.7857142857143 L470.1875,307.7857142857143 L470.1875,308.7857142857143 L467.1875,308.7857142857143 Z M475.1875,307.7857142857143 L475.1875,307.7857142857143 L478.1875,307.7857142857143 L478.1875,308.7857142857143 L475.1875,308.7857142857143 Z M483.1875,307.7857142857143 L483.1875,307.7857142857143 L486.1875,307.7857142857143 L486.1875,308.7857142857143 L483.1875,308.7857142857143 Z M491.1875,307.7857142857143 L491.1875,307.7857142857143 L494.1875,307.7857142857143 L494.1875,308.7857142857143 L491.1875,308.7857142857143 Z M499.1875,307.7857142857143 L499.1875,307.7857142857143 L502.1875,307.7857142857143 L502.1875,308.7857142857143 L499.1875,308.7857142857143 Z M507.1875,307.7857142857143 L507.1875,307.7857142857143 L510.1875,307.7857142857143 L510.1875,308.7857142857143 L507.1875,308.7857142857143 Z M515.1875,307.7857142857143 L515.1875,307.7857142857143 L518.1875,307.7857142857143 L518.1875,308.7857142857143 L515.1875,308.7857142857143 Z M27.1875,307.7857142857143 L27.1875,307.7857142857143 L30.1875,307.7857142857143 L30.1875,308.7857142857143 L27.1875,308.7857142857143 Z" style="fill:none;stroke:rgb(210,210,210);stroke-miterlimit:10;stroke-linejoin:bevel;stroke-dasharray:3,5;"/>
    <path d="M35.1875,260.4714285714286 L35.1875,260.4714285714286 L38.1875,260.4714285714286 L38.1875,261.4714285714286 L35.1875,261.4714285714286 Z M43.1875,260.4714285714286 L43.1875,260.4714285714286 L46.1875,260.4714285714286 L46.1875,261.4714285714286 L43.1875,261.4714285714286 Z M51.1875,260.4714285714286 L51.1875,260.4714285714286 L54.1875,260.4714285714286 L54.1875,261.4714285714286 L51.1875,261.4714285714286 Z M59.1875,260.4714285714286 L59.1875,260.4714285714286 L62.1875,260.4714285714286 L62.1875,261.4714285714286 L59.1875,261.4714285714286 Z M67.1875,260.4714285714286 L67.1875,260.4714285714286 L70.1875,260.4714285714286 L70.1875,261.4714285714286 L67.1875,261.4714285714286 Z M75.1875,260.4714285714286 L75.1875,260.4714285714286 L78.1875,260.4714285714286 L78.1875,261.4714285714286 L75.1875,261.4714285714286 Z M83.1875,260.4714285714286 L83.1875,260.4714285714286 L86.1875,260.4714285714286 L86.1875,261.4714285714286 L83.1875,261.4714285714286 Z M91.1875,260.4714285714286 L91.1875,260.4714285714286 L94.1875,260.4714285714286 L94.1875,261.4714285714286 L91.1875,261.4714285714286 Z M99.1875,260.4714285714286 L99.1875,260.4714285714286 L102.1875,260.4714285714286 L102.1875,261.4714285714286 L99.1875,261.4714285714286 Z M107.1875,260.4714285714286 L107.1875,260.4714285714286 L110.1875,260.4714285714286 L110.1875,261.4714285714286 L107.1875,261.4714285714286 Z M115.1875,260.4714285714286 L115.1875,260.4714285714286 L118.1875,260.4714285714286 L118.1875,261.4714285714286 L115.1875,261.4714285714286 Z M123.1875,260.4714285714286 L123.1875,260.4714285714286 L126.1875,260.4714285714286 L126.1875,261.4714285714286 L123.1875,261.4714285714286 Z M131.1875,260.4714285714286 L131.1875,260.4714285714286 L134.1875,260.4714285714286 L134.1875,261.4714285714286 L131.1875,261.4714285714286 Z M139.1875,260.4714285714286 L139.1875,260.4714285714286 L142.1875,260.4714285714286 L142.1875,261.4714285714286 L139.1875,261.4714285714286 Z M147.1875,260.4714285714286 L147.1875,260.4714285714286 L150.1875,260.4714285714286 L150.1875,261.4714285714286 L147.1875,261.4714285714286 Z M155.1875,260.4714285714286 L155.1875,260.4714285714286 L158.1875,260.4714285714286 L158.1875,261.4714285714286 L155.1875,261.4714285714286 Z M163.1875,260.4714285714286 L163.1875,260.4714285714286 L166.1875,260.4714285714286 L166.1875,261.4714285714286 L163.1875,261.4714285714286 Z M171.1875,260.4714285714286 L171.1875,260.4714285714286 L174.1875,260.4714285714286 L174.1875,261.4714285714286 L171.1875,261.4714285714286 Z M179.1875,260.4714285714286 L179.1875,260.4714285714286 L182.1875,260.4714285714286 L182.1875,261.4714285714286 L179.1875,261.4714285714286 Z M187.1875,260.4714285714286 L187.1875,260.4714285714286 L190.1875,260.4714285714286 L190.1875,261.4714285714286 L187.1875,261.4714285714286 Z M195.1875,260.4714285714286 L195.1875,260.4714285714286 L198.1875,260.4714285714286 L198.1875,261.4714285714286 L195.1875,261.4714285714286 Z M203.1875,260.4714285714286 L203.1875,260.4714285714286 L206.1875,260.4714285714286 L206.1875,261.4714285714286 L203.1875,261.4714285714286 Z M211.1875,260.4714285714286 L211.1875,260.4714285714286 L214.1875,260.4714285714286 L214.1875,261.4714285714286 L211.1875,261.4714285714286 Z M219.1875,260.4714285714286 L219.1875,260.4714285714286 L222.1875,260.4714285714286 L222.1875,261.4714285714286 L219.1875,261.4714285714286 Z M227.1875,260.4714285714286 L227.1875,260.4714285714286 L230.1875,260.4714285714286 L230.1875,261.4714285714286 L227.1875,261.4714285714286 Z M235.1875,260.4714285714286 L235.1875,260.4714285714286 L238.1875,260.4714285714286 L238.1875,261.4714285714286 L235.1875,261.4714285714286 Z M243.1875,260.4714285714286 L243.1875,260.4714285714286 L246.1875,260.4714285714286 L246.1875,261.4714285714286 L243.1875,261.4714285714286 Z M251.1875,260.4714285714286 L251.1875,260.4714285714286 L254.1875,260.4714285714286 L254.1875,261.4714285714286 L251.1875,261.4714285714286 Z M259.1875,260.4714285714286 L259.1875,260.4714285714286 L262.1875,260.4714285714286 L262.1875,261.4714285714286 L259.1875,261.4714285714286 Z M267.1875,260.4714285714286 L267.1875,260.4714285714286 L270.1875,260.4714285714286 L270.1875,261.4714285714286 L267.1875,261.4714285714286 Z M275.1875,260.4714285714286 L275.1875,260.4714285714286 L278.1875,260.4714285714286 L278.1875,261.4714285714286 L275.1875,261.4714285714286 Z M283.1875,260.4714285714286 L283.1875,260.4714285714286 L286.1875,260.4714285714286 L286.1875,261.4714285714286 L283.1875,261.4714285714286 Z M291.1875,260.4714285714286 L291.1875,260.4714285714286 L294.1875,260.4714285714286 L294.1875,261.4714285714286 L291.1875,261.4714285714286 Z M299.1875,260.4714285714286 L299.1875,260.4714285714286 L302.1875,260.4714285714286 L302.1875,261.4714285714286 L299.1875,261.4714285714286 Z M307.1875,260.4714285714286 L307.1875,260.4714285714286 L310.1875,260.4714285714286 L310.1875,261.4714285714286 L307.1875,261.4714285714286 Z M315.1875,260.4714285714286 L315.1875,260.4714285714286 L318.1875,260.4714285714286 L318.1875,261.4714285714286 L315.1875,261.4714285714286 Z M323.1875,260.4714285714286 L323.1875,260.4714285714286 L326.1875,260.4714285714286 L326.1875,261.4714285714286 L323.1875,261.4714285714286 Z M331.1875,260.4714285714286 L331.1875,260.4714285714286 L334.1875,260.4714285714286 L334.1875,261.4714285714286 L331.1875,261.4714285714286 Z M339.1875,260.4714285714286 L339.1875,260.4714285714286 L342.1875,260.4714285714286 L342.1875,261.4714285714286 L339.1875,261.4714285714286 Z M347.1875,260.4714285714286 L347.1875,260.4714285714286 L350.1875,260.4714285714286 L350.1875,261.4714285714286 L347.1875,261.4714285714286 Z M355.1875,260.4714285714286 L355.1875,260.4714285714286 L358.1875,260.4714285714286 L358.1875,261.4714285714286 L355.1875,261.4714285714286 Z M363.1875,260.4714285714286 L363.1875,260.4714285714286 L366.1875,260.4714285714286 L366.1875,261.4714285714286 L363.1875,261.4714285714286 Z M371.1875,260.4714285714286 L371.1875,260.4714285714286 L374.1875,260.4714285714286 L374.1875,261.4714285714286 L371.1875,261.4714285714286 Z M379.1875,260.4714285714286 L379.1875,260.4714285714286 L382.1875,260.4714285714286 L382.1875,261.4714285714286 L379.1875,261.4714285714286 Z M387.1875,260.4714285714286 L387.1875,260.4714285714286 L390.1875,260.4714285714286 L390.1875,261.4714285714286 L387.1875,261.4714285714286 Z M395.1875,260.4714285714286 L395.1875,260.4714285714286 L398.1875,260.4714285714286 L398.1875,261.4714285714286 L395.1875,261.4714285714286 Z M403.1875,260.4714285714286 L403.1875,260.4714285714286 L406.1875,260.4714285714286 L406.1875,261.4714285714286 L403.1875,261.4714285714286 Z M411.1875,260.4714285714286 L411.1875,260.4714285714286 L414.1875,260.4714285714286 L414.1875,261.4714285714286 L411.1875,261.4714285714286 Z M419.1875,260.4714285714286 L419.1875,260.4714285714286 L422.1875,260.4714285714286 L422.1875,261.4714285714286 L419.1875,261.4714285714286 Z M427.1875,260.4714285714286 L427.1875,260.4714285714286 L430.1875,260.4714285714286 L430.1875,261.4714285714286 L427.1875,261.4714285714286 Z M435.1875,260.4714285714286 L435.1875,260.4714285714286 L438.1875,260.4714285714286 L438.1875,261.4714285714286 L435.1875,261.4714285714286 Z M443.1875,260.4714285714286 L443.1875,260.4714285714286 L446.1875,260.4714285714286 L446.1875,261.4714285714286 L443.1875,261.4714285714286 Z M451.1875,260.4714285714286 L451.1875,260.4714285714286 L454.1875,260.4714285714286 L454.1875,261.4714285714286 L451.1875,261.4714285714286 Z M459.1875,260.4714285714286 L459.1875,260.4714285714286 L462.1875,260.4714285714286 L462.1875,261.4714285714286 L459.1875,261.4714285714286 Z M467.1875,260.4714285714286 L467.1875,260.4714285714286 L470.1875,260.4714285714286 L470.1875,261.4714285714286 L467.1875,261.4714285714286 Z M475.1875,260.4714285714286 L475.1875,260.4714285714286 L478.1875,260.4714285714286 L478.1875,261.4714285714286 L475.1875,261.4714285714286 Z M483.1875,260.4714285714286 L483.1875,260.4714285714286 L486.1875,260.4714285714286 L486.1875,261.4714285714286 L483.1875,261.4714285714286 Z M491.1875,260.4714285714286 L491.1875,260.4714285714286 L494.1875,260.4714285714286 L494.1875,261.4714285714286 L491.1875,261.4714285714286 Z M499.1875,260.4714285714286 L499.1875,260.4714285714286 L502.1875,260.4714285714286 L502.1875,261.4714285714286 L499.1875,261.4714285714286 Z M507.1875,260.4714285714286 L507.1875,260.4714285714286 L510.1875,260.4714285714286 L510.1875,261.4714285714286 L507.1875,261.4714285714286 Z M515.1875,260.4714285714286 L515.1875,260.4714285714286 L518.1875,260.4714285714286 L518.1875,261.4714285714286 L515.1875,261.4714285714286 Z M27.1875,260.4714285714286 L27.1875,260.4714285714286 L30.1875,260.4714285714286 L30.1875,261.4714285714286 L27.1875,261.4714285714286 Z" style="fill:none;stroke:rgb(210,210,210);stroke-miterlimit:10;stroke-linejoin:bevel;stroke-dasharray:3,5;"/>
    <path d="M35.1875,213.15714285714287 L35.1875,213.15714285714287 L38.1875,213.15714285714287 L38.1875,214.15714285714287 L35.1875,214.15714285714287 Z M43.1875,213.15714285714287 L43.1875,213.15714285714287 L46.1875,213.15714285714287 L46.1875,214.15714285714287 L43.1875,214.15714285714287 Z M51.1875,213.15714285714287 L51.1875,213.15714285714287 L54.1875,213.15714285714287 L54.1875,214.15714285714287 L51.1875,214.15714285714287 Z M59.1875,213.15714285714287 L59.1875,213.15714285714287 L62.1875,213.15714285714287 L62.1875,214.15714285714287 L59.1875,214.15714285714287 Z M67.1875,213.15714285714287 L67.1875,213.15714285714287 L70.1875,213.15714285714287 L70.1875,214.15714285714287 L67.1875,214.15714285714287 Z M75.1875,213.15714285714287 L75.1875,213.15714285714287 L78.1875,213.15714285714287 L78.1875,214.15714285714287 L75.1875,214.15714285714287 Z M83.1875,213.15714285714287 L83.1875,213.15714285714287 L86.1875,213.15714285714287 L86.1875,214.15714285714287 L83.1875,214.15714285714287 Z M91.1875,213.15714285714287 L91.1875,213.15714285714287 L94.1875,213.15714285714287 L94.1875,214.15714285714287 L91.1875,214.15714285714287 Z M99.1875,213.15714285714287 L99.1875,213.15714285714287 L102.1875,213.15714285714287 L102.1875,214.15714285714287 L99.1875,214.15714285714287 Z M107.1875,213.15714285714287 L107.1875,213.15714285714287 L110.1875,213.15714285714287 L110.1875,214.15714285714287 L107.1875,214.15714285714287 Z M115.1875,213.15714285714287 L115.1875,213.15714285714287 L118.1875,213.15714285714287 L118.1875,214.15714285714287 L115.1875,214.15714285714287 Z M123.1875,213.15714285714287 L123.1875,213.15714285714287 L126.1875,213.15714285714287 L126.1875,214.15714285714287 L123.1875,214.15714285714287 Z M131.1875,213.15714285714287 L131.1875,213.15714285714287 L134.1875,213.15714285714287 L134.1875,214.15714285714287 L131.1875,214.15714285714287 Z M139.1875,213.15714285714287 L139.1875,213.15714285714287 L142.1875,213.15714285714287 L142.1875,214.15714285714287 L139.1875,214.15714285714287 Z M147.1875,213.15714285714287 L147.1875,213.15714285714287 L150.1875,213.15714285714287 L150.1875,214.15714285714287 L147.1875,214.15714285714287 Z M155.1875,213.15714285714287 L155.1875,213.15714285714287 L158.1875,213.15714285714287 L158.1875,214.15714285714287 L155.1875,214.15714285714287 Z M163.1875,213.15714285714287 L163.1875,213.15714285714287 L166.1875,213.15714285714287 L166.1875,214.15714285714287 L163.1875,214.15714285714287 Z M171.1875,213.15714285714287 L171.1875,213.15714285714287 L174.1875,213.15714285714287 L174.1875,214.15714285714287 L171.1875,214.15714285714287 Z M179.1875,213.15714285714287 L179.1875,213.15714285714287 L182.1875,213.15714285714287 L182.1875,214.15714285714287 L179.1875,214.15714285714287 Z M187.1875,213.15714285714287 L187.1875,213.15714285714287 L190.1875,213.15714285714287 L190.1875,214.15714285714287 L187.1875,214.15714285714287 Z M195.1875,213.15714285714287 L195.1875,213.15714285714287 L198.1875,213.15714285714287 L198.1875,214.15714285714287 L195.1875,214.15714285714287 Z M203.1875,213.15714285714287 L203.1875,213.15714285714287 L206.1875,213.15714285714287 L206.1875,214.15714285714287 L203.1875,214.15714285714287 Z M211.1875,213.15714285714287 L211.1875,213.15714285714287 L214.1875,213.15714285714287 L214.1875,214.15714285714287 L211.1875,214.15714285714287 Z M219.1875,213.15714285714287 L219.1875,213.15714285714287 L222.1875,213.15714285714287 L222.1875,214.15714285714287 L219.1875,214.15714285714287 Z M227.1875,213.15714285714287 L227.1875,213.15714285714287 L230.1875,213.15714285714287 L230.1875,214.15714285714287 L227.1875,214.15714285714287 Z M235.1875,213.15714285714287 L235.1875,213.15714285714287 L238.1875,213.15714285714287 L238.1875,214.15714285714287 L235.1875,214.15714285714287 Z M243.1875,213.15714285714287 L243.1875,213.15714285714287 L246.1875,213.15714285714287 L246.1875,214.15714285714287 L243.1875,214.15714285714287 Z M251.1875,213.15714285714287 L251.1875,213.15714285714287 L254.1875,213.15714285714287 L254.1875,214.15714285714287 L251.1875,214.15714285714287 Z M259.1875,213.15714285714287 L259.1875,213.15714285714287 L262.1875,213.15714285714287 L262.1875,214.15714285714287 L259.1875,214.15714285714287 Z M267.1875,213.15714285714287 L267.1875,213.15714285714287 L270.1875,213.15714285714287 L270.1875,214.15714285714287 L267.1875,214.15714285714287 Z M275.1875,213.15714285714287 L275.1875,213.15714285714287 L278.1875,213.15714285714287 L278.1875,214.15714285714287 L275.1875,214.15714285714287 Z M283.1875,213.15714285714287 L283.1875,213.15714285714287 L286.1875,213.15714285714287 L286.1875,214.15714285714287 L283.1875,214.15714285714287 Z M291.1875,213.15714285714287 L291.1875,213.15714285714287 L294.1875,213.15714285714287 L294.1875,214.15714285714287 L291.1875,214.15714285714287 Z M299.1875,213.15714285714287 L299.1875,213.15714285714287 L302.1875,213.15714285714287 L302.1875,214.15714285714287 L299.1875,214.15714285714287 Z M307.1875,213.15714285714287 L307.1875,213.15714285714287 L310.1875,213.15714285714287 L310.1875,214.15714285714287 L307.1875,214.15714285714287 Z M315.1875,213.15714285714287 L315.1875,213.15714285714287 L318.1875,213.15714285714287 L318.1875,214.15714285714287 L315.1875,214.15714285714287 Z M323.1875,213.15714285714287 L323.1875,213.15714285714287 L326.1875,213.15714285714287 L326.1875,214.15714285714287 L323.1875,214.15714285714287 Z M331.1875,213.15714285714287 L331.1875,213.15714285714287 L334.1875,213.15714285714287 L334.1875,214.15714285714287 L331.1875,214.15714285714287 Z M339.1875,213.15714285714287 L339.1875,213.15714285714287 L342.1875,213.15714285714287 L342.1875,214.15714285714287 L339.1875,214.15714285714287 Z M347.1875,213.15714285714287 L347.1875,213.15714285714287 L350.1875,213.15714285714287 L350.1875,214.15714285714287 L347.1875,214.15714285714287 Z M355.1875,213.15714285714287 L355.1875,213.15714285714287 L358.1875,213.15714285714287 L358.1875,214.15714285714287 L355.1875,214.15714285714287 Z M363.1875,213.15714285714287 L363.1875,213.15714285714287 L366.1875,213.15714285714287 L366.1875,214.15714285714287 L363.1875,214.15714285714287 Z M371.1875,213.15714285714287 L371.1875,213.15714285714287 L374.1875,213.15714285714287 L374.1875,214.15714285714287 L371.1875,214.15714285714287 Z M379.1875,213.15714285714287 L379.1875,213.15714285714287 L382.1875,213.15714285714287 L382.1875,214.15714285714287 L379.1875,214.15714285714287 Z M387.1875,213.15714285714287 L387.1875,213.15714285714287 L390.1875,213.15714285714287 L390.1875,214.15714285714287 L387.1875,214.15714285714287 Z M395.1875,213.15714285714287 L395.1875,213.15714285714287 L398.1875,213.15714285714287 L398.1875,214.15714285714287 L395.1875,214.15714285714287 Z M403.1875,213.15714285714287 L403.1875,213.15714285714287 L406.1875,213.15714285714287 L406.1875,214.15714285714287 L403.1875,214.15714285714287 Z M411.1875,213.15714285714287 L411.1875,213.15714285714287 L414.1875,213.15714285714287 L414.1875,214.15714285714287 L411.1875,214.15714285714287 Z M419.1875,213.15714285714287 L419.1875,213.15714285714287 L422.1875,213.15714285714287 L422.1875,214.15714285714287 L419.1875,214.15714285714287 Z M427.1875,213.15714285714287 L427.1875,213.15714285714287 L430.1875,213.15714285714287 L430.1875,214.15714285714287 L427.1875,214.15714285714287 Z M435.1875,213.15714285714287 L435.1875,213.15714285714287 L438.1875,213.15714285714287 L438.1875,214.15714285714287 L435.1875,214.15714285714287 Z M443.1875,213.15714285714287 L443.1875,213.15714285714287 L446.1875,213.15714285714287 L446.1875,214.15714285714287 L443.1875,214.15714285714287 Z M451.1875,213.15714285714287 L451.1875,213.15714285714287 L454.1875,213.15714285714287 L454.1875,214.15714285714287 L451.1875,214.15714285714287 Z M459.1875,213.15714285714287 L459.1875,213.15714285714287 L462.1875,213.15714285714287 L462.1875,214.15714285714287 L459.1875,214.15714285714287 Z M467.1875,213.15714285714287 L467.1875,213.15714285714287 L470.1875,213.15714285714287 L470.1875,214.15714285714287 L467.1875,214.15714285714287 Z M475.1875,213.15714285714287 L475.1875,213.15714285714287 L478.1875,213.15714285714287 L478.1875,214.15714285714287 L475.1875,214.15714285714287 Z M483.1875,213.15714285714287 L483.1875,213.15714285714287 L486.1875,213.15714285714287 L486.1875,214.15714285714287 L483.1875,214.15714285714287 Z M491.1875,213.15714285714287 L491.1875,213.15714285714287 L494.1875,213.15714285714287 L494.1875,214.15714285714287 L491.1875,214.15714285714287 Z M499.1875,213.15714285714287 L499.1875,213.15714285714287 L502.1875,213.15714285714287 L502.1875,214.15714285714287 L499.1875,214.15714285714287 Z M507.1875,213.15714285714287 L507.1875,213.15714285714287 L510.1875,213.15714285714287 L510.1875,214.15714285714287 L507.1875,214.15714285714287 Z M515.1875,213.15714285714287 L515.1875,213.15714285714287 L518.1875,213.15714285714287 L518.1875,214.15714285714287 L515.1875,214.15714285714287 Z M27.1875,213.15714285714287 L27.1875,213.15714285714287 L30.1875,213.15714285714287 L30.1875,214.15714285714287 L27.1875,214.15714285714287 Z" style="fill:none;stroke:rgb(210,210,210);stroke-miterlimit:10;stroke-linejoin:bevel;stroke-dasharray:3,5;"/>
    <path d="M35.1875,165.84285714285716 L35.1875,165.84285714285716 L38.1875,165.84285714285716 L38.1875,166.84285714285716 L35.1875,166.84285714285716 Z M43.1875,165.84285714285716 L43.1875,165.84285714285716 L46.1875,165.84285714285716 L46.1875,166.84285714285716 L43.1875,166.84285714285716 Z M51.1875,165.84285714285716 L51.1875,165.84285714285716 L54.1875,165.84285714285716 L54.1875,166.84285714285716 L51.1875,166.84285714285716 Z M59.1875,165.84285714285716 L59.1875,165.84285714285716 L62.1875,165.84285714285716 L62.1875,166.84285714285716 L59.1875,166.84285714285716 Z M67.1875,165.84285714285716 L67.1875,165.84285714285716 L70.1875,165.84285714285716 L70.1875,166.84285714285716 L67.1875,166.84285714285716 Z M75.1875,165.84285714285716 L75.1875,165.84285714285716 L78.1875,165.84285714285716 L78.1875,166.84285714285716 L75.1875,166.84285714285716 Z M83.1875,165.84285714285716 L83.1875,165.84285714285716 L86.1875,165.84285714285716 L86.1875,166.84285714285716 L83.1875,166.84285714285716 Z M91.1875,165.84285714285716 L91.1875,165.84285714285716 L94.1875,165.84285714285716 L94.1875,166.84285714285716 L91.1875,166.84285714285716 Z M99.1875,165.84285714285716 L99.1875,165.84285714285716 L102.1875,165.84285714285716 L102.1875,166.84285714285716 L99.1875,166.84285714285716 Z M107.1875,165.84285714285716 L107.1875,165.84285714285716 L110.1875,165.84285714285716 L110.1875,166.84285714285716 L107.1875,166.84285714285716 Z M115.1875,165.84285714285716 L115.1875,165.84285714285716 L118.1875,165.84285714285716 L118.1875,166.84285714285716 L115.1875,166.84285714285716 Z M123.1875,165.84285714285716 L123.1875,165.84285714285716 L126.1875,165.84285714285716 L126.1875,166.84285714285716 L123.1875,166.84285714285716 Z M131.1875,165.84285714285716 L131.1875,165.84285714285716 L134.1875,165.84285714285716 L134.1875,166.84285714285716 L131.1875,166.84285714285716 Z M139.1875,165.84285714285716 L139.1875,165.84285714285716 L142.1875,165.84285714285716 L142.1875,166.84285714285716 L139.1875,166.84285714285716 Z M147.1875,165.84285714285716 L147.1875,165.84285714285716 L150.1875,165.84285714285716 L150.1875,166.84285714285716 L147.1875,166.84285714285716 Z M155.1875,165.84285714285716 L155.1875,165.84285714285716 L158.1875,165.84285714285716 L158.1875,166.84285714285716 L155.1875,166.84285714285716 Z M163.1875,165.84285714285716 L163.1875,165.84285714285716 L166.1875,165.84285714285716 L166.1875,166.84285714285716 L163.1875,166.84285714285716 Z M171.1875,165.84285714285716 L171.1875,165.84285714285716 L174.1875,165.84285714285716 L174.1875,166.84285714285716 L171.1875,166.84285714285716 Z M179.1875,165.84285714285716 L179.1875,165.84285714285716 L182.1875,165.84285714285716 L182.1875,166.84285714285716 L179.1875,166.84285714285716 Z M187.1875,165.84285714285716 L187.1875,165.84285714285716 L190.1875,165.84285714285716 L190.1875,166.84285714285716 L187.1875,166.84285714285716 Z M195.1875,165.84285714285716 L195.1875,165.84285714285716 L198.1875,165.84285714285716 L198.1875,166.84285714285716 L195.1875,166.84285714285716 Z M203.1875,165.84285714285716 L203.1875,165.84285714285716 L206.1875,165.84285714285716 L206.1875,166.84285714285716 L203.1875,166.84285714285716 Z M211.1875,165.84285714285716 L211.1875,165.84285714285716 L214.1875,165.84285714285716 L214.1875,166.84285714285716 L211.1875,166.84285714285716 Z M219.1875,165.84285714285716 L219.1875,165.84285714285716 L222.1875,165.84285714285716 L222.1875,166.84285714285716 L219.1875,166.84285714285716 Z M227.1875,165.84285714285716 L227.1875,165.84285714285716 L230.1875,165.84285714285716 L230.1875,166.84285714285716 L227.1875,166.84285714285716 Z M235.1875,165.84285714285716 L235.1875,165.84285714285716 L238.1875,165.84285714285716 L238.1875,166.84285714285716 L235.1875,166.84285714285716 Z M243.1875,165.84285714285716 L243.1875,165.84285714285716 L246.1875,165.84285714285716 L246.1875,166.84285714285716 L243.1875,166.84285714285716 Z M251.1875,165.84285714285716 L251.1875,165.84285714285716 L254.1875,165.84285714285716 L254.1875,166.84285714285716 L251.1875,166.84285714285716 Z M259.1875,165.84285714285716 L259.1875,165.84285714285716 L262.1875,165.84285714285716 L262.1875,166.84285714285716 L259.1875,166.84285714285716 Z M267.1875,165.84285714285716 L267.1875,165.84285714285716 L270.1875,165.84285714285716 L270.1875,166.84285714285716 L267.1875,166.84285714285716 Z M275.1875,165.84285714285716 L275.1875,165.84285714285716 L278.1875,165.84285714285716 L278.1875,166.84285714285716 L275.1875,166.84285714285716 Z M283.1875,165.84285714285716 L283.1875,165.84285714285716 L286.1875,165.84285714285716 L286.1875,166.84285714285716 L283.1875,166.84285714285716 Z M291.1875,165.84285714285716 L291.1875,165.84285714285716 L294.1875,165.84285714285716 L294.1875,166.84285714285716 L291.1875,166.84285714285716 Z M299.1875,165.84285714285716 L299.1875,165.84285714285716 L302.1875,165.84285714285716 L302.1875,166.84285714285716 L299.1875,166.84285714285716 Z M307.1875,165.84285714285716 L307.1875,165.84285714285716 L310.1875,165.84285714285716 L310.1875,166.84285714285716 L307.1875,166.84285714285716 Z M315.1875,165.84285714285716 L315.1875,165.84285714285716 L318.1875,165.84285714285716 L318.1875,166.84285714285716 L315.1875,166.84285714285716 Z M323.1875,165.84285714285716 L323.1875,165.84285714285716 L326.1875,165.84285714285716 L326.1875,166.84285714285716 L323.1875,166.84285714285716 Z M331.1875,165.84285714285716 L331.1875,165.84285714285716 L334.1875,165.84285714285716 L334.1875,166.84285714285716 L331.1875,166.84285714285716 Z M339.1875,165.84285714285716 L339.1875,165.84285714285716 L342.1875,165.84285714285716 L342.1875,166.84285714285716 L339.1875,166.84285714285716 Z M347.1875,165.84285714285716 L347.1875,165.84285714285716 L350.1875,165.84285714285716 L350.1875,166.84285714285716 L347.1875,166.84285714285716 Z M355.1875,165.84285714285716 L355.1875,165.84285714285716 L358.1875,165.84285714285716 L358.1875,166.84285714285716 L355.1875,166.84285714285716 Z M363.1875,165.84285714285716 L363.1875,165.84285714285716 L366.1875,165.84285714285716 L366.1875,166.84285714285716 L363.1875,166.84285714285716 Z M371.1875,165.84285714285716 L371.1875,165.84285714285716 L374.1875,165.84285714285716 L374.1875,166.84285714285716 L371.1875,166.84285714285716 Z M379.1875,165.84285714285716 L379.1875,165.84285714285716 L382.1875,165.84285714285716 L382.1875,166.84285714285716 L379.1875,166.84285714285716 Z M387.1875,165.84285714285716 L387.1875,165.84285714285716 L390.1875,165.84285714285716 L390.1875,166.84285714285716 L387.1875,166.84285714285716 Z M395.1875,165.84285714285716 L395.1875,165.84285714285716 L398.1875,165.84285714285716 L398.1875,166.84285714285716 L395.1875,166.84285714285716 Z M403.1875,165.84285714285716 L403.1875,165.84285714285716 L406.1875,165.84285714285716 L406.1875,166.84285714285716 L403.1875,166.84285714285716 Z M411.1875,165.84285714285716 L411.1875,165.84285714285716 L414.1875,165.84285714285716 L414.1875,166.84285714285716 L411.1875,166.84285714285716 Z M419.1875,165.84285714285716 L419.1875,165.84285714285716 L422.1875,165.84285714285716 L422.1875,166.84285714285716 L419.1875,166.84285714285716 Z M427.1875,165.84285714285716 L427.1875,165.84285714285716 L430.1875,165.84285714285716 L430.1875,166.84285714285716 L427.1875,166.84285714285716 Z M435.1875,165.84285714285716 L435.1875,165.84285714285716 L438.1875,165.84285714285716 L438.1875,166.84285714285716 L435.1875,166.84285714285716 Z M443.1875,165.84285714285716 L443.1875,165.84285714285716 L446.1875,165.84285714285716 L446.1875,166.84285714285716 L443.1875,166.84285714285716 Z M451.1875,165.84285714285716 L451.1875,165.84285714285716 L454.1875,165.84285714285716 L454.1875,166.84285714285716 L451.1875,166.84285714285716 Z M459.1875,165.84285714285716 L459.1875,165.84285714285716 L462.1875,165.84285714285716 L462.1875,166.84285714285716 L459.1875,166.84285714285716 Z M467.1875,165.84285714285716 L467.1875,165.84285714285716 L470.1875,165.84285714285716 L470.1875,166.84285714285716 L467.1875,166.84285714285716 Z M475.1875,165.84285714285716 L475.1875,165.84285714285716 L478.1875,165.84285714285716 L478.1875,166.84285714285716 L475.1875,166.84285714285716 Z M483.1875,165.84285714285716 L483.1875,165.84285714285716 L486.1875,165.84285714285716 L486.1875,166.84285714285716 L483.1875,166.84285714285716 Z M491.1875,165.84285714285716 L491.1875,165.84285714285716 L494.1875,165.84285714285716 L494.1875,166.84285714285716 L491.1875,166.84285714285716 Z M499.1875,165.84285714285716 L499.1875,165.84285714285716 L502.1875,165.84285714285716 L502.1875,166.84285714285716 L499.1875,166.84285714285716 Z M507.1875,165.84285714285716 L507.1875,165.84285714285716 L510.1875,165.84285714285716 L510.1875,166.84285714285716 L507.1875,166.84285714285716 Z M515.1875,165.84285714285716 L515.1875,165.84285714285716 L518.1875,165.84285714285716 L518.1875,166.84285714285716 L515.1875,166.84285714285716 Z M27.1875,165.84285714285716 L27.1875,165.84285714285716 L30.1875,165.84285714285716 L30.1875,166.84285714285716 L27.1875,166.84285714285716 Z" style="fill:none;stroke:rgb(210,210,210);stroke-miterlimit:10;stroke-linejoin:bevel;stroke-dasharray:3,5;"/>
    <path d="M35.1875,118.52857142857144 L35.1875,118.52857142857144 L38.1875,118.52857142857144 L38.1875,119.52857142857144 L35.1875,119.52857142857144 Z M43.1875,118.52857142857144 L43.1875,118.52857142857144 L46.1875,118.52857142857144 L46.1875,119.52857142857144 L43.1875,119.52857142857144 Z M51.1875,118.52857142857144 L51.1875,118.52857142857144 L54.1875,118.52857142857144 L54.1875,119.52857142857144 L51.1875,119.52857142857144 Z M59.1875,118.52857142857144 L59.1875,118.52857142857144 L62.1875,118.52857142857144 L62.1875,119.52857142857144 L59.1875,119.52857142857144 Z M67.1875,118.52857142857144 L67.1875,118.52857142857144 L70.1875,118.52857142857144 L70.1875,119.52857142857144 L67.1875,119.52857142857144 Z M75.1875,118.52857142857144 L75.1875,118.52857142857144 L78.1875,118.52857142857144 L78.1875,119.52857142857144 L75.1875,119.52857142857144 Z M83.1875,118.52857142857144 L83.1875,118.52857142857144 L86.1875,118.52857142857144 L86.1875,119.52857142857144 L83.1875,119.52857142857144 Z M91.1875,118.52857142857144 L91.1875,118.52857142857144 L94.1875,118.52857142857144 L94.1875,119.52857142857144 L91.1875,119.52857142857144 Z M99.1875,118.52857142857144 L99.1875,118.52857142857144 L102.1875,118.52857142857144 L102.1875,119.52857142857144 L99.1875,119.52857142857144 Z M107.1875,118.52857142857144 L107.1875,118.52857142857144 L110.1875,118.52857142857144 L110.1875,119.52857142857144 L107.1875,119.52857142857144 Z M115.1875,118.52857142857144 L115.1875,118.52857142857144 L118.1875,118.52857142857144 L118.1875,119.52857142857144 L115.1875,119.52857142857144 Z M123.1875,118.52857142857144 L123.1875,118.52857142857144 L126.1875,118.52857142857144 L126.1875,119.52857142857144 L123.1875,119.52857142857144 Z M131.1875,118.52857142857144 L131.1875,118.52857142857144 L134.1875,118.52857142857144 L134.1875,119.52857142857144 L131.1875,119.52857142857144 Z M139.1875,118.52857142857144 L139.1875,118.52857142857144 L142.1875,118.52857142857144 L142.1875,119.52857142857144 L139.1875,119.52857142857144 Z M147.1875,118.52857142857144 L147.1875,118.52857142857144 L150.1875,118.52857142857144 L150.1875,119.52857142857144 L147.1875,119.52857142857144 Z M155.1875,118.52857142857144 L155.1875,118.52857142857144 L158.1875,118.52857142857144 L158.1875,119.52857142857144 L155.1875,119.52857142857144 Z M163.1875,118.52857142857144 L163.1875,118.52857142857144 L166.1875,118.52857142857144 L166.1875,119.52857142857144 L163.1875,119.52857142857144 Z M171.1875,118.52857142857144 L171.1875,118.52857142857144 L174.1875,118.52857142857144 L174.1875,119.52857142857144 L171.1875,119.52857142857144 Z M179.1875,118.52857142857144 L179.1875,118.52857142857144 L182.1875,118.52857142857144 L182.1875,119.52857142857144 L179.1875,119.52857142857144 Z M187.1875,118.52857142857144 L187.1875,118.52857142857144 L190.1875,118.52857142857144 L190.1875,119.52857142857144 L187.1875,119.52857142857144 Z M195.1875,118.52857142857144 L195.1875,118.52857142857144 L198.1875,118.52857142857144 L198.1875,119.52857142857144 L195.1875,119.52857142857144 Z M203.1875,118.52857142857144 L203.1875,118.52857142857144 L206.1875,118.52857142857144 L206.1875,119.52857142857144 L203.1875,119.52857142857144 Z M211.1875,118.52857142857144 L211.1875,118.52857142857144 L214.1875,118.52857142857144 L214.1875,119.52857142857144 L211.1875,119.52857142857144 Z M219.1875,118.52857142857144 L219.1875,118.52857142857144 L222.1875,118.52857142857144 L222.1875,119.52857142857144 L219.1875,119.52857142857144 Z M227.1875,118.52857142857144 L227.1875,118.52857142857144 L230.1875,118.52857142857144 L230.1875,119.52857142857144 L227.1875,119.52857142857144 Z M235.1875,118.52857142857144 L235.1875,118.52857142857144 L238.1875,118.52857142857144 L238.1875,119.52857142857144 L235.1875,119.52857142857144 Z M243.1875,118.52857142857144 L243.1875,118.52857142857144 L246.1875,118.52857142857144 L246.1875,119.52857142857144 L243.1875,119.52857142857144 Z M251.1875,118.52857142857144 L251.1875,118.52857142857144 L254.1875,118.52857142857144 L254.1875,119.52857142857144 L251.1875,119.52857142857144 Z M259.1875,118.52857142857144 L259.1875,118.52857142857144 L262.1875,118.52857142857144 L262.1875,119.52857142857144 L259.1875,119.52857142857144 Z M267.1875,118.52857142857144 L267.1875,118.52857142857144 L270.1875,118.52857142857144 L270.1875,119.52857142857144 L267.1875,119.52857142857144 Z M275.1875,118.52857142857144 L275.1875,118.52857142857144 L278.1875,118.52857142857144 L278.1875,119.52857142857144 L275.1875,119.52857142857144 Z M283.1875,118.52857142857144 L283.1875,118.52857142857144 L286.1875,118.52857142857144 L286.1875,119.52857142857144 L283.1875,119.52857142857144 Z M291.1875,118.52857142857144 L291.1875,118.52857142857144 L294.1875,118.52857142857144 L294.1875,119.52857142857144 L291.1875,119.52857142857144 Z M299.1875,118.52857142857144 L299.1875,118.52857142857144 L302.1875,118.52857142857144 L302.1875,119.52857142857144 L299.1875,119.52857142857144 Z M307.1875,118.52857142857144 L307.1875,118.52857142857144 L310.1875,118.52857142857144 L310.1875,119.52857142857144 L307.1875,119.52857142857144 Z M315.1875,118.52857142857144 L315.1875,118.52857142857144 L318.1875,118.52857142857144 L318.1875,119.52857142857144 L315.1875,119.52857142857144 Z M323.1875,118.52857142857144 L323.1875,118.52857142857144 L326.1875,118.52857142857144 L326.1875,119.52857142857144 L323.1875,119.52857142857144 Z M331.1875,118.52857142857144 L331.1875,118.52857142857144 L334.1875,118.52857142857144 L334.1875,119.52857142857144 L331.1875,119.52857142857144 Z M339.1875,118.52857142857144 L339.1875,118.52857142857144 L342.1875,118.52857142857144 L342.1875,119.52857142857144 L339.1875,119.52857142857144 Z M347.1875,118.52857142857144 L347.1875,118.52857142857144 L350.1875,118.52857142857144 L350.1875,119.52857142857144 L347.1875,119.52857142857144 Z M355.1875,118.52857142857144 L355.1875,118.52857142857144 L358.1875,118.52857142857144 L358.1875,119.52857142857144 L355.1875,119.52857142857144 Z M363.1875,118.52857142857144 L363.1875,118.52857142857144 L366.1875,118.52857142857144 L366.1875,119.52857142857144 L363.1875,119.52857142857144 Z M371.1875,118.52857142857144 L371.1875,118.52857142857144 L374.1875,118.52857142857144 L374.1875,119.52857142857144 L371.1875,119.52857142857144 Z M379.1875,118.52857142857144 L379.1875,118.52857142857144 L382.1875,118.52857142857144 L382.1875,119.52857142857144 L379.1875,119.52857142857144 Z M387.1875,118.52857142857144 L387.1875,118.52857142857144 L390.1875,118.52857142857144 L390.1875,119.52857142857144 L387.1875,119.52857142857144 Z M395.1875,118.52857142857144 L395.1875,118.52857142857144 L398.1875,118.52857142857144 L398.1875,119.52857142857144 L395.1875,119.52857142857144 Z M403.1875,118.52857142857144 L403.1875,118.52857142857144 L406.1875,118.52857142857144 L406.1875,119.52857142857144 L403.1875,119.52857142857144 Z M411.1875,118.52857142857144 L411.1875,118.52857142857144 L414.1875,118.52857142857144 L414.1875,119.52857142857144 L411.1875,119.52857142857144 Z M419.1875,118.52857142857144 L419.1875,118.52857142857144 L422.1875,118.52857142857144 L422.1875,119.52857142857144 L419.1875,119.52857142857144 Z M427.1875,118.52857142857144 L427.1875,118.52857142857144 L430.1875,118.52857142857144 L430.1875,119.52857142857144 L427.1875,119.52857142857144 Z M435.1875,118.52857142857144 L435.1875,118.52857142857144 L438.1875,118.52857142857144 L438.1875,119.52857142857144 L435.1875,119.52857142857144 Z M443.1875,118.52857142857144 L443.1875,118.52857142857144 L446.1875,118.52857142857144 L446.1875,119.52857142857144 L443.1875,119.52857142857144 Z M451.1875,118.52857142857144 L451.1875,118.52857142857144 L454.1875,118.52857142857144 L454.1875,119.52857142857144 L451.1875,119.52857142857144 Z M459.1875,118.52857142857144 L459.1875,118.52857142857144 L462.1875,118.52857142857144 L462.1875,119.52857142857144 L459.1875,119.52857142857144 Z M467.1875,118.52857142857144 L467.1875,118.52857142857144 L470.1875,118.52857142857144 L470.1875,119.52857142857144 L467.1875,119.52857142857144 Z M475.1875,118.52857142857144 L475.1875,118.52857142857144 L478.1875,118.52857142857144 L478.1875,119.52857142857144 L475.1875,119.52857142857144 Z M483.1875,118.52857142857144 L483.1875,118.52857142857144 L486.1875,118.52857142857144 L486.1875,119.52857142857144 L483.1875,119.52857142857144 Z M491.1875,118.52857142857144 L491.1875,118.52857142857144 L494.1875,118.52857142857144 L494.1875,119.52857142857144 L491.1875,119.52857142857144 Z M499.1875,118.52857142857144 L499.1875,118.52857142857144 L502.1875,118.52857142857144 L502.1875,119.52857142857144 L499.1875,119.52857142857144 Z M507.1875,118.52857142857144 L507.1875,118.52857142857144 L510.1875,118.52857142857144 L510.1875,119.52857142857144 L507.1875,119.52857142857144 Z M515.1875,118.52857142857144 L515.1875,118.52857142857144 L518.1875,118.52857142857144 L518.1875,119.52857142857144 L515.1875,119.52857142857144 Z M27.1875,118.52857142857144 L27.1875,118.52857142857144 L30.1875,118.52857142857144 L30.1875,119.52857142857144 L27.1875,119.52857142857144 Z" style="fill:none;stroke:rgb(210,210,210);stroke-miterlimit:10;stroke-linejoin:bevel;stroke-dasharray:3,5;"/>
    <path d="M35.1875,71.21428571428578 L35.1875,71.21428571428578 L38.1875,71.21428571428578 L38.1875,72.21428571428578 L35.1875,72.21428571428578 Z M43.1875,71.21428571428578 L43.1875,71.21428571428578 L46.1875,71.21428571428578 L46.1875,72.21428571428578 L43.1875,72.21428571428578 Z M51.1875,71.21428571428578 L51.1875,71.21428571428578 L54.1875,71.21428571428578 L54.1875,72.21428571428578 L51.1875,72.21428571428578 Z M59.1875,71.21428571428578 L59.1875,71.21428571428578 L62.1875,71.21428571428578 L62.1875,72.21428571428578 L59.1875,72.21428571428578 Z M67.1875,71.21428571428578 L67.1875,71.21428571428578 L70.1875,71.21428571428578 L70.1875,72.21428571428578 L67.1875,72.21428571428578 Z M75.1875,71.21428571428578 L75.1875,71.21428571428578 L78.1875,71.21428571428578 L78.1875,72.21428571428578 L75.1875,72.21428571428578 Z M83.1875,71.21428571428578 L83.1875,71.21428571428578 L86.1875,71.21428571428578 L86.1875,72.21428571428578 L83.1875,72.21428571428578 Z M91.1875,71.21428571428578 L91.1875,71.21428571428578 L94.1875,71.21428571428578 L94.1875,72.21428571428578 L91.1875,72.21428571428578 Z M99.1875,71.21428571428578 L99.1875,71.21428571428578 L102.1875,71.21428571428578 L102.1875,72.21428571428578 L99.1875,72.21428571428578 Z M107.1875,71.21428571428578 L107.1875,71.21428571428578 L110.1875,71.21428571428578 L110.1875,72.21428571428578 L107.1875,72.21428571428578 Z M115.1875,71.21428571428578 L115.1875,71.21428571428578 L118.1875,71.21428571428578 L118.1875,72.21428571428578 L115.1875,72.21428571428578 Z M123.1875,71.21428571428578 L123.1875,71.21428571428578 L126.1875,71.21428571428578 L126.1875,72.21428571428578 L123.1875,72.21428571428578 Z M131.1875,71.21428571428578 L131.1875,71.21428571428578 L134.1875,71.21428571428578 L134.1875,72.21428571428578 L131.1875,72.21428571428578 Z M139.1875,71.21428571428578 L139.1875,71.21428571428578 L142.1875,71.21428571428578 L142.1875,72.21428571428578 L139.1875,72.21428571428578 Z M147.1875,71.21428571428578 L147.1875,71.21428571428578 L150.1875,71.21428571428578 L150.1875,72.21428571428578 L147.1875,72.21428571428578 Z M155.1875,71.21428571428578 L155.1875,71.21428571428578 L158.1875,71.21428571428578 L158.1875,72.21428571428578 L155.1875,72.21428571428578 Z M163.1875,71.21428571428578 L163.1875,71.21428571428578 L166.1875,71.21428571428578 L166.1875,72.21428571428578 L163.1875,72.21428571428578 Z M171.1875,71.21428571428578 L171.1875,71.21428571428578 L174.1875,71.21428571428578 L174.1875,72.21428571428578 L171.1875,72.21428571428578 Z M179.1875,71.21428571428578 L179.1875,71.21428571428578 L182.1875,71.21428571428578 L182.1875,72.21428571428578 L179.1875,72.21428571428578 Z M187.1875,71.21428571428578 L187.1875,71.21428571428578 L190.1875,71.21428571428578 L190.1875,72.21428571428578 L187.1875,72.21428571428578 Z M195.1875,71.21428571428578 L195.1875,71.21428571428578 L198.1875,71.21428571428578 L198.1875,72.21428571428578 L195.1875,72.21428571428578 Z M203.1875,71.21428571428578 L203.1875,71.21428571428578 L206.1875,71.21428571428578 L206.1875,72.21428571428578 L203.1875,72.21428571428578 Z M211.1875,71.21428571428578 L211.1875,71.21428571428578 L214.1875,71.21428571428578 L214.1875,72.21428571428578 L211.1875,72.21428571428578 Z M219.1875,71.21428571428578 L219.1875,71.21428571428578 L222.1875,71.21428571428578 L222.1875,72.21428571428578 L219.1875,72.21428571428578 Z M227.1875,71.21428571428578 L227.1875,71.21428571428578 L230.1875,71.21428571428578 L230.1875,72.21428571428578 L227.1875,72.21428571428578 Z M235.1875,71.21428571428578 L235.1875,71.21428571428578 L238.1875,71.21428571428578 L238.1875,72.21428571428578 L235.1875,72.21428571428578 Z M243.1875,71.21428571428578 L243.1875,71.21428571428578 L246.1875,71.21428571428578 L246.1875,72.21428571428578 L243.1875,72.21428571428578 Z M251.1875,71.21428571428578 L251.1875,71.21428571428578 L254.1875,71.21428571428578 L254.1875,72.21428571428578 L251.1875,72.21428571428578 Z M259.1875,71.21428571428578 L259.1875,71.21428571428578 L262.1875,71.21428571428578 L262.1875,72.21428571428578 L259.1875,72.21428571428578 Z M267.1875,71.21428571428578 L267.1875,71.21428571428578 L270.1875,71.21428571428578 L270.1875,72.21428571428578 L267.1875,72.21428571428578 Z M275.1875,71.21428571428578 L275.1875,71.21428571428578 L278.1875,71.21428571428578 L278.1875,72.21428571428578 L275.1875,72.21428571428578 Z M283.1875,71.21428571428578 L283.1875,71.21428571428578 L286.1875,71.21428571428578 L286.1875,72.21428571428578 L283.1875,72.21428571428578 Z M291.1875,71.21428571428578 L291.1875,71.21428571428578 L294.1875,71.21428571428578 L294.1875,72.21428571428578 L291.1875,72.21428571428578 Z M299.1875,71.21428571428578 L299.1875,71.21428571428578 L302.1875,71.21428571428578 L302.1875,72.21428571428578 L299.1875,72.21428571428578 Z M307.1875,71.21428571428578 L307.1875,71.21428571428578 L310.1875,71.21428571428578 L310.1875,72.21428571428578 L307.1875,72.21428571428578 Z M315.1875,71.21428571428578 L315.1875,71.21428571428578 L318.1875,71.21428571428578 L318.1875,72.21428571428578 L315.1875,72.21428571428578 Z M323.1875,71.21428571428578 L323.1875,71.21428571428578 L326.1875,71.21428571428578 L326.1875,72.21428571428578 L323.1875,72.21428571428578 Z M331.1875,71.21428571428578 L331.1875,71.21428571428578 L334.1875,71.21428571428578 L334.1875,72.21428571428578 L331.1875,72.21428571428578 Z M339.1875,71.21428571428578 L339.1875,71.21428571428578 L342.1875,71.21428571428578 L342.1875,72.21428571428578 L339.1875,72.21428571428578 Z M347.1875,71.21428571428578 L347.1875,71.21428571428578 L350.1875,71.21428571428578 L350.1875,72.21428571428578 L347.1875,72.21428571428578 Z M355.1875,71.21428571428578 L355.1875,71.21428571428578 L358.1875,71.21428571428578 L358.1875,72.21428571428578 L355.1875,72.21428571428578 Z M363.1875,71.21428571428578 L363.1875,71.21428571428578 L366.1875,71.21428571428578 L366.1875,72.21428571428578 L363.1875,72.21428571428578 Z M371.1875,71.21428571428578 L371.1875,71.21428571428578 L374.1875,71.21428571428578 L374.1875,72.21428571428578 L371.1875,72.21428571428578 Z M379.1875,71.21428571428578 L379.1875,71.21428571428578 L382.1875,71.21428571428578 L382.1875,72.21428571428578 L379.1875,72.21428571428578 Z M387.1875,71.21428571428578 L387.1875,71.21428571428578 L390.1875,71.21428571428578 L390.1875,72.21428571428578 L387.1875,72.21428571428578 Z M395.1875,71.21428571428578 L395.1875,71.21428571428578 L398.1875,71.21428571428578 L398.1875,72.21428571428578 L395.1875,72.21428571428578 Z M403.1875,71.21428571428578 L403.1875,71.21428571428578 L406.1875,71.21428571428578 L406.1875,72.21428571428578 L403.1875,72.21428571428578 Z M411.1875,71.21428571428578 L411.1875,71.21428571428578 L414.1875,71.21428571428578 L414.1875,72.21428571428578 L411.1875,72.21428571428578 Z M419.1875,71.21428571428578 L419.1875,71.21428571428578 L422.1875,71.21428571428578 L422.1875,72.21428571428578 L419.1875,72.21428571428578 Z M427.1875,71.21428571428578 L427.1875,71.21428571428578 L430.1875,71.21428571428578 L430.1875,72.21428571428578 L427.1875,72.21428571428578 Z M435.1875,71.21428571428578 L435.1875,71.21428571428578 L438.1875,71.21428571428578 L438.1875,72.21428571428578 L435.1875,72.21428571428578 Z M443.1875,71.21428571428578 L443.1875,71.21428571428578 L446.1875,71.21428571428578 L446.1875,72.21428571428578 L443.1875,72.21428571428578 Z M451.1875,71.21428571428578 L451.1875,71.21428571428578 L454.1875,71.21428571428578 L454.1875,72.21428571428578 L451.1875,72.21428571428578 Z M459.1875,71.21428571428578 L459.1875,71.21428571428578 L462.1875,71.21428571428578 L462.1875,72.21428571428578 L459.1875,72.21428571428578 Z M467.1875,71.21428571428578 L467.1875,71.21428571428578 L470.1875,71.21428571428578 L470.1875,72.21428571428578 L467.1875,72.21428571428578 Z M475.1875,71.21428571428578 L475.1875,71.21428571428578 L478.1875,71.21428571428578 L478.1875,72.21428571428578 L475.1875,72.21428571428578 Z M483.1875,71.21428571428578 L483.1875,71.21428571428578 L486.1875,71.21428571428578 L486.1875,72.21428571428578 L483.1875,72.21428571428578 Z M491.1875,71.21428571428578 L491.1875,71.21428571428578 L494.1875,71.21428571428578 L494.1875,72.21428571428578 L491.1875,72.21428571428578 Z M499.1875,71.21428571428578 L499.1875,71.21428571428578 L502.1875,71.21428571428578 L502.1875,72.21428571428578 L499.1875,72.21428571428578 Z M507.1875,71.21428571428578 L507.1875,71.21428571428578 L510.1875,71.21428571428578 L510.1875,72.21428571428578 L507.1875,72.21428571428578 Z M515.1875,71.21428571428578 L515.1875,71.21428571428578 L518.1875,71.21428571428578 L518.1875,72.21428571428578 L515.1875,72.21428571428578 Z M27.1875,71.21428571428578 L27.1875,71.21428571428578 L30.1875,71.21428571428578 L30.1875,72.21428571428578 L27.1875,72.21428571428578 Z" style="fill:none;stroke:rgb(210,210,210);stroke-miterlimit:10;stroke-linejoin:bevel;stroke-dasharray:3,5;"/>
    <path d="M35.1875,23.899999999999977 L35.1875,23.899999999999977 L38.1875,23.899999999999977 L38.1875,24.899999999999977 L35.1875,24.899999999999977 Z M43.1875,23.899999999999977 L43.1875,23.899999999999977 L46.1875,23.899999999999977 L46.1875,24.899999999999977 L43.1875,24.899999999999977 Z M51.1875,23.899999999999977 L51.1875,23.899999999999977 L54.1875,23.899999999999977 L54.1875,24.899999999999977 L51.1875,24.899999999999977 Z M59.1875,23.899999999999977 L59.1875,23.899999999999977 L62.1875,23.899999999999977 L62.1875,24.899999999999977 L59.1875,24.899999999999977 Z M67.1875,23.899999999999977 L67.1875,23.899999999999977 L70.1875,23.899999999999977 L70.1875,24.899999999999977 L67.1875,24.899999999999977 Z M75.1875,23.899999999999977 L75.1875,23.899999999999977 L78.1875,23.899999999999977 L78.1875,24.899999999999977 L75.1875,24.899999999999977 Z M83.1875,23.899999999999977 L83.1875,23.899999999999977 L86.1875,23.899999999999977 L86.1875,24.899999999999977 L83.1875,24.899999999999977 Z M91.1875,23.899999999999977 L91.1875,23.899999999999977 L94.1875,23.899999999999977 L94.1875,24.899999999999977 L91.1875,24.899999999999977 Z M99.1875,23.899999999999977 L99.1875,23.899999999999977 L102.1875,23.899999999999977 L102.1875,24.899999999999977 L99.1875,24.899999999999977 Z M107.1875,23.899999999999977 L107.1875,23.899999999999977 L110.1875,23.899999999999977 L110.1875,24.899999999999977 L107.1875,24.899999999999977 Z M115.1875,23.899999999999977 L115.1875,23.899999999999977 L118.1875,23.899999999999977 L118.1875,24.899999999999977 L115.1875,24.899999999999977 Z M123.1875,23.899999999999977 L123.1875,23.899999999999977 L126.1875,23.899999999999977 L126.1875,24.899999999999977 L123.1875,24.899999999999977 Z M131.1875,23.899999999999977 L131.1875,23.899999999999977 L134.1875,23.899999999999977 L134.1875,24.899999999999977 L131.1875,24.899999999999977 Z M139.1875,23.899999999999977 L139.1875,23.899999999999977 L142.1875,23.899999999999977 L142.1875,24.899999999999977 L139.1875,24.899999999999977 Z M147.1875,23.899999999999977 L147.1875,23.899999999999977 L150.1875,23.899999999999977 L150.1875,24.899999999999977 L147.1875,24.899999999999977 Z M155.1875,23.899999999999977 L155.1875,23.899999999999977 L158.1875,23.899999999999977 L158.1875,24.899999999999977 L155.1875,24.899999999999977 Z M163.1875,23.899999999999977 L163.1875,23.899999999999977 L166.1875,23.899999999999977 L166.1875,24.899999999999977 L163.1875,24.899999999999977 Z M171.1875,23.899999999999977 L171.1875,23.899999999999977 L174.1875,23.899999999999977 L174.1875,24.899999999999977 L171.1875,24.899999999999977 Z M179.1875,23.899999999999977 L179.1875,23.899999999999977 L182.1875,23.899999999999977 L182.1875,24.899999999999977 L179.1875,24.899999999999977 Z M187.1875,23.899999999999977 L187.1875,23.899999999999977 L190.1875,23.899999999999977 L190.1875,24.899999999999977 L187.1875,24.899999999999977 Z M195.1875,23.899999999999977 L195.1875,23.899999999999977 L198.1875,23.899999999999977 L198.1875,24.899999999999977 L195.1875,24.899999999999977 Z M203.1875,23.899999999999977 L203.1875,23.899999999999977 L206.1875,23.899999999999977 L206.1875,24.899999999999977 L203.1875,24.899999999999977 Z M211.1875,23.899999999999977 L211.1875,23.899999999999977 L214.1875,23.899999999999977 L214.1875,24.899999999999977 L211.1875,24.899999999999977 Z M219.1875,23.899999999999977 L219.1875,23.899999999999977 L222.1875,23.899999999999977 L222.1875,24.899999999999977 L219.1875,24.899999999999977 Z M227.1875,23.899999999999977 L227.1875,23.899999999999977 L230.1875,23.899999999999977 L230.1875,24.899999999999977 L227.1875,24.899999999999977 Z M235.1875,23.899999999999977 L235.1875,23.899999999999977 L238.1875,23.899999999999977 L238.1875,24.899999999999977 L235.1875,24.899999999999977 Z M243.1875,23.899999999999977 L243.1875,23.899999999999977 L246.1875,23.899999999999977 L246.1875,24.899999999999977 L243.1875,24.899999999999977 Z M251.1875,23.899999999999977 L251.1875,23.899999999999977 L254.1875,23.899999999999977 L254.1875,24.899999999999977 L251.1875,24.899999999999977 Z M259.1875,23.899999999999977 L259.1875,23.899999999999977 L262.1875,23.899999999999977 L262.1875,24.899999999999977 L259.1875,24.899999999999977 Z M267.1875,23.899999999999977 L267.1875,23.899999999999977 L270.1875,23.899999999999977 L270.1875,24.899999999999977 L267.1875,24.899999999999977 Z M275.1875,23.899999999999977 L275.1875,23.899999999999977 L278.1875,23.899999999999977 L278.1875,24.899999999999977 L275.1875,24.899999999999977 Z M283.1875,23.899999999999977 L283.1875,23.899999999999977 L286.1875,23.899999999999977 L286.1875,24.899999999999977 L283.1875,24.899999999999977 Z M291.1875,23.899999999999977 L291.1875,23.899999999999977 L294.1875,23.899999999999977 L294.1875,24.899999999999977 L291.1875,24.899999999999977 Z M299.1875,23.899999999999977 L299.1875,23.899999999999977 L302.1875,23.899999999999977 L302.1875,24.899999999999977 L299.1875,24.899999999999977 Z M307.1875,23.899999999999977 L307.1875,23.899999999999977 L310.1875,23.899999999999977 L310.1875,24.899999999999977 L307.1875,24.899999999999977 Z M315.1875,23.899999999999977 L315.1875,23.899999999999977 L318.1875,23.899999999999977 L318.1875,24.899999999999977 L315.1875,24.899999999999977 Z M323.1875,23.899999999999977 L323.1875,23.899999999999977 L326.1875,23.899999999999977 L326.1875,24.899999999999977 L323.1875,24.899999999999977 Z M331.1875,23.899999999999977 L331.1875,23.899999999999977 L334.1875,23.899999999999977 L334.1875,24.899999999999977 L331.1875,24.899999999999977 Z M339.1875,23.899999999999977 L339.1875,23.899999999999977 L342.1875,23.899999999999977 L342.1875,24.899999999999977 L339.1875,24.899999999999977 Z M347.1875,23.899999999999977 L347.1875,23.899999999999977 L350.1875,23.899999999999977 L350.1875,24.899999999999977 L347.1875,24.899999999999977 Z M355.1875,23.899999999999977 L355.1875,23.899999999999977 L358.1875,23.899999999999977 L358.1875,24.899999999999977 L355.1875,24.899999999999977 Z M363.1875,23.899999999999977 L363.1875,23.899999999999977 L366.1875,23.899999999999977 L366.1875,24.899999999999977 L363.1875,24.899999999999977 Z M371.1875,23.899999999999977 L371.1875,23.899999999999977 L374.1875,23.899999999999977 L374.1875,24.899999999999977 L371.1875,24.899999999999977 Z M379.1875,23.899999999999977 L379.1875,23.899999999999977 L382.1875,23.899999999999977 L382.1875,24.899999999999977 L379.1875,24.899999999999977 Z M387.1875,23.899999999999977 L387.1875,23.899999999999977 L390.1875,23.899999999999977 L390.1875,24.899999999999977 L387.1875,24.899999999999977 Z M395.1875,23.899999999999977 L395.1875,23.899999999999977 L398.1875,23.899999999999977 L398.1875,24.899999999999977 L395.1875,24.899999999999977 Z M403.1875,23.899999999999977 L403.1875,23.899999999999977 L406.1875,23.899999999999977 L406.1875,24.899999999999977 L403.1875,24.899999999999977 Z M411.1875,23.899999999999977 L411.1875,23.899999999999977 L414.1875,23.899999999999977 L414.1875,24.899999999999977 L411.1875,24.899999999999977 Z M419.1875,23.899999999999977 L419.1875,23.899999999999977 L422.1875,23.899999999999977 L422.1875,24.899999999999977 L419.1875,24.899999999999977 Z M427.1875,23.899999999999977 L427.1875,23.899999999999977 L430.1875,23.899999999999977 L430.1875,24.899999999999977 L427.1875,24.899999999999977 Z M435.1875,23.899999999999977 L435.1875,23.899999999999977 L438.1875,23.899999999999977 L438.1875,24.899999999999977 L435.1875,24.899999999999977 Z M443.1875,23.899999999999977 L443.1875,23.899999999999977 L446.1875,23.899999999999977 L446.1875,24.899999999999977 L443.1875,24.899999999999977 Z M451.1875,23.899999999999977 L451.1875,23.899999999999977 L454.1875,23.899999999999977 L454.1875,24.899999999999977 L451.1875,24.899999999999977 Z M459.1875,23.899999999999977 L459.1875,23.899999999999977 L462.1875,23.899999999999977 L462.1875,24.899999999999977 L459.1875,24.899999999999977 Z M467.1875,23.899999999999977 L467.1875,23.899999999999977 L470.1875,23.899999999999977 L470.1875,24.899999999999977 L467.1875,24.899999999999977 Z M475.1875,23.899999999999977 L475.1875,23.899999999999977 L478.1875,23.899999999999977 L478.1875,24.899999999999977 L475.1875,24.899999999999977 Z M483.1875,23.899999999999977 L483.1875,23.899999999999977 L486.1875,23.899999999999977 L486.1875,24.899999999999977 L483.1875,24.899999999999977 Z M491.1875,23.899999999999977 L491.1875,23.899999999999977 L494.1875,23.899999999999977 L494.1875,24.899999999999977 L491.1875,24.899999999999977 Z M499.1875,23.899999999999977 L499.1875,23.899999999999977 L502.1875,23.899999999999977 L502.1875,24.899999999999977 L499.1875,24.899999999999977 Z M507.1875,23.899999999999977 L507.1875,23.899999999999977 L510.1875,23.899999999999977 L510.1875,24.899999999999977 L507.1875,24.899999999999977 Z M515.1875,23.899999999999977 L515.1875,23.899999999999977 L518.1875,23.899999999999977 L518.1875,24.899999999999977 L515.1875,24.899999999999977 Z M27.1875,23.899999999999977 L27.1875,23.899999999999977 L30.1875,23.899999999999977 L30.1875,24.899999999999977 L27.1875,24.899999999999977 Z" style="fill:none;stroke:rgb(210,210,210);stroke-miterlimit:10;stroke-linejoin:bevel;stroke-dasharray:3,5;"/>
    <path d="M122.69875,18 L122.69875,18 L122.69875,21 L121.69875,21 L121.69875,18 Z M122.69875,26 L122.69875,26 L122.69875,29 L121.69875,29 L121.69875,26 Z M122.69875,34 L122.69875,34 L122.69875,37 L121.69875,37 L121.69875,34 Z M122.69875,42 L122.69875,42 L122.69875,45 L121.69875,45 L121.69875,42 Z M122.69875,50 L122.69875,50 L122.69875,53 L121.69875,53 L121.69875,50 Z M122.69875,58 L122.69875,58 L122.69875,61 L121.69875,61 L121.69875,58 Z M122.69875,66 L122.69875,66 L122.69875,69 L121.69875,69 L121.69875,66 Z M122.69875,74 L122.69875,74 L122.69875,77 L121.69875,77 L121.69875,74 Z M122.69875,82 L122.69875,82 L122.69875,85 L121.69875,85 L121.69875,82 Z M122.69875,90 L122.69875,90 L122.69875,93 L121.69875,93 L121.69875,90 Z M122.69875,98 L122.69875,98 L122.69875,101 L121.69875,101 L121.69875,98 Z M122.69875,106 L122.69875,106 L122.69875,109 L121.69875,109 L121.69875,106 Z M122.69875,114 L122.69875,114 L122.69875,117 L121.69875,117 L121.69875,114 Z M122.69875,122 L122.69875,122 L122.69875,125 L121.69875,125 L121.69875,122 Z M122.69875,130 L122.69875,130 L122.69875,133 L121.69875,133 L121.69875,130 Z M122.69875,138 L122.69875,138 L122.69875,141 L121.69875,141 L121.69875,138 Z M122.69875,146 L122.69875,146 L122.69875,149 L121.69875,149 L121.69875,146 Z M122.69875,154 L122.69875,154 L122.69875,157 L121.69875,157 L121.69875,154 Z M122.69875,162 L122.69875,162 L122.69875,165 L121.69875,165 L121.69875,162 Z M122.69875,170 L122.69875,170 L122.69875,173 L121.69875,173 L121.69875,170 Z M122.69875,178 L122.69875,178 L122.69875,181 L121.69875,181 L121.69875,178 Z M122.69875,186 L122.69875,186 L122.69875,189 L121.69875,189 L121.69875,186 Z M122.69875,194 L122.69875,194 L122.69875,197 L121.69875,197 L121.69875,194 Z M122.69875,202 L122.69875,202 L122.69875,205 L121.69875,205 L121.69875,202 Z M122.69875,210 L122.69875,210 L122.69875,213 L121.69875,213 L121.69875,210 Z M122.69875,218 L122.69875,218 L122.69875,221 L121.69875,221 L121.69875,218 Z M122.69875,226 L122.69875,226 L122.69875,229 L121.69875,229 L121.69875,226 Z M122.69875,234 L122.69875,234 L122.69875,237 L121.69875,237 L121.69875,234 Z M122.69875,242 L122.69875,242 L122.69875,245 L121.69875,245 L121.69875,242 Z M122.69875,250 L122.69875,250 L122.69875,253 L121.69875,253 L121.69875,250 Z M122.69875,258 L122.69875,258 L122.69875,261 L121.69875,261 L121.69875,258 Z M122.69875,266 L122.69875,266 L122.69875,269 L121.69875,269 L121.69875,266 Z M122.69875,274 L122.69875,274 L122.69875,277 L121.69875,277 L121.69875,274 Z M122.69875,282 L122.69875,282 L122.69875,285 L121.69875,285 L121.69875,282 Z M122.69875,290 L122.69875,290 L122.69875,293 L121.69875,293 L121.69875,290 Z M122.69875,298 L122.69875,298 L122.69875,301 L121.69875,301 L121.69875,298 Z M122.69875,306 L122.69875,306 L122.69875,309 L121.69875,309 L121.69875,306 Z M122.69875,314 L122.69875,314 L122.69875,317 L121.69875,317 L121.69875,314 Z M122.69875,322 L122.69875,322 L122.69875,325 L121.69875,325 L121.69875,322 Z M122.69875,330 L122.69875,330 L122.69875,333 L121.69875,333 L121.69875,330 Z M122.69875,338 L122.69875,338 L122.69875,341 L121.69875,341 L121.69875,338 Z M122.69875,346 L122.69875,346 L122.69875,349 L121.69875,349 L121.69875,346 Z M122.69875,354 L122.69875,354 L122.69875,357 L121.69875,357 L121.69875,354 Z M122.69875,362 L122.69875,362 L122.69875,365 L121.69875,365 L121.69875,362 Z M122.69875,10 L122.69875,10 L122.69875,13 L121.69875,13 L121.69875,10 Z" style="fill:none;stroke:rgb(210,210,210);stroke-miterlimit:10;stroke-linejoin:bevel;stroke-dasharray:3,5;"/>
    <path d="M273.40625,18 L273.40625,18 L273.40625,21 L272.40625,21 L272.40625,18 Z M273.40625,26 L273.40625,26 L273.40625,29 L272.40625,29 L272.40625,26 Z M273.40625,34 L273.40625,34 L273.40625,37 L272.40625,37 L272.40625,34 Z M273.40625,42 L273.40625,42 L273.40625,45 L272.40625,45 L272.40625,42 Z M273.40625,50 L273.40625,50 L273.40625,53 L272.40625,53 L272.40625,50 Z M273.40625,58 L273.40625,58 L273.40625,61 L272.40625,61 L272.40625,58 Z M273.40625,66 L273.40625,66 L273.40625,69 L272.40625,69 L272.40625,66 Z M273.40625,74 L273.40625,74 L273.40625,77 L272.40625,77 L272.40625,74 Z M273.40625,82 L273.40625,82 L273.40625,85 L272.40625,85 L272.40625,82 Z M273.40625,90 L273.40625,90 L273.40625,93 L272.40625,93 L272.40625,90 Z M273.40625,98 L273.40625,98 L273.40625,101 L272.40625,101 L272.40625,98 Z M273.40625,106 L273.40625,106 L273.40625,109 L272.40625,109 L272.40625,106 Z M273.40625,114 L273.40625,114 L273.40625,117 L272.40625,117 L272.40625,114 Z M273.40625,122 L273.40625,122 L273.40625,125 L272.40625,125 L272.40625,122 Z M273.40625,130 L273.40625,130 L273.40625,133 L272.40625,133 L272.40625,130 Z M273.40625,138 L273.40625,138 L273.40625,141 L272.40625,141 L272.40625,138 Z M273.40625,146 L273.40625,146 L273.40625,149 L272.40625,149 L272.40625,146 Z M273.40625,154 L273.40625,154 L273.40625,157 L272.40625,157 L272.40625,154 Z M273.40625,162 L273.40625,162 L273.40625,165 L272.40625,165 L272.40625,162 Z M273.40625,170 L273.40625,170 L273.40625,173 L272.40625,173 L272.40625,170 Z M273.40625,178 L273.40625,178 L273.40625,181 L272.40625,181 L272.40625,178 Z M273.40625,186 L273.40625,186 L273.40625,189 L272.40625,189 L272.40625,186 Z M273.40625,194 L273.40625,194 L273.40625,197 L272.40625,197 L272.40625,194 Z M273.40625,202 L273.40625,202 L273.40625,205 L272.40625,205 L272.40625,202 Z M273.40625,210 L273.40625,210 L273.40625,213 L272.40625,213 L272.40625,210 Z M273.40625,218 L273.40625,218 L273.40625,221 L272.40625,221 L272.40625,218 Z M273.40625,226 L273.40625,226 L273.40625,229 L272.40625,229 L272.40625,226 Z M273.40625,234 L273.40625,234 L273.40625,237 L272.40625,237 L272.40625,234 Z M273.40625,242 L273.40625,242 L273.40625,245 L272.40625,245 L272.40625,242 Z M273.40625,250 L273.40625,250 L273.40625,253 L272.40625,253 L272.40625,250 Z M273.40625,258 L273.40625,258 L273.40625,261 L272.40625,261 L272.40625,258 Z M273.40625,266 L273.40625,266 L273.40625,269 L272.40625,269 L272.40625,266 Z M273.40625,274 L273.40625,274 L273.40625,277 L272.40625,277 L272.40625,274 Z M273.40625,282 L273.40625,282 L273.40625,285 L272.40625,285 L272.40625,282 Z M273.40625,290 L273.40625,290 L273.40625,293 L272.40625,293 L272.40625,290 Z M273.40625,298 L273.40625,298 L273.40625,301 L272.40625,301 L272.40625,298 Z M273.40625,306 L273.40625,306 L273.40625,309 L272.40625,309 L272.40625,306 Z M273.40625,314 L273.40625,314 L273.40625,317 L272.40625,317 L272.40625,314 Z M273.40625,322 L273.40625,322 L273.40625,325 L272.40625,325 L272.40625,322 Z M273.40625,330 L273.40625,330 L273.40625,333 L272.40625,333 L272.40625,330 Z M273.40625,338 L273.40625,338 L273.40625,341 L272.40625,341 L272.40625,338 Z M273.40625,346 L273.40625,346 L273.40625,349 L272.40625,349 L272.40625,346 Z M273.40625,354 L273.40625,354 L273.40625,357 L272.40625,357 L272.40625,354 Z M273.40625,362 L273.40625,362 L273.40625,365 L272.40625,365 L272.40625,362 Z M273.40625,10 L273.40625,10 L273.40625,13 L272.40625,13 L272.40625,10 Z" style="fill:none;stroke:rgb(210,210,210);stroke-miterlimit:10;stroke-linejoin:bevel;stroke-dasharray:3,5;"/>
    <path d="M424.11375000000004,18 L424.11375000000004,18 L424.11375000000004,21 L423.11375000000004,21 L423.11375000000004,18 Z M424.11375000000004,26 L424.11375000000004,26 L424.11375000000004,29 L423.11375000000004,29 L423.11375000000004,26 Z M424.11375000000004,34 L424.11375000000004,34 L424.11375000000004,37 L423.11375000000004,37 L423.11375000000004,34 Z M424.11375000000004,42 L424.11375000000004,42 L424.11375000000004,45 L423.11375000000004,45 L423.11375000000004,42 Z M424.11375000000004,50 L424.11375000000004,50 L424.11375000000004,53 L423.11375000000004,53 L423.11375000000004,50 Z M424.11375000000004,58 L424.11375000000004,58 L424.11375000000004,61 L423.11375000000004,61 L423.11375000000004,58 Z M424.11375000000004,66 L424.11375000000004,66 L424.11375000000004,69 L423.11375000000004,69 L423.11375000000004,66 Z M424.11375000000004,74 L424.11375000000004,74 L424.11375000000004,77 L423.11375000000004,77 L423.11375000000004,74 Z M424.11375000000004,82 L424.11375000000004,82 L424.11375000000004,85 L423.11375000000004,85 L423.11375000000004,82 Z M424.11375000000004,90 L424.11375000000004,90 L424.11375000000004,93 L423.11375000000004,93 L423.11375000000004,90 Z M424.11375000000004,98 L424.11375000000004,98 L424.11375000000004,101 L423.11375000000004,101 L423.11375000000004,98 Z M424.11375000000004,106 L424.11375000000004,106 L424.11375000000004,109 L423.11375000000004,109 L423.11375000000004,106 Z M424.11375000000004,114 L424.11375000000004,114 L424.11375000000004,117 L423.11375000000004,117 L423.11375000000004,114 Z M424.11375000000004,122 L424.11375000000004,122 L424.11375000000004,125 L423.11375000000004,125 L423.11375000000004,122 Z M424.11375000000004,130 L424.11375000000004,130 L424.11375000000004,133 L423.11375000000004,133 L423.11375000000004,130 Z M424.11375000000004,138 L424.11375000000004,138 L424.11375000000004,141 L423.11375000000004,141 L423.11375000000004,138 Z M424.11375000000004,146 L424.11375000000004,146 L424.11375000000004,149 L423.11375000000004,149 L423.11375000000004,146 Z M424.11375000000004,154 L424.11375000000004,154 L424.11375000000004,157 L423.11375000000004,157 L423.11375000000004,154 Z M424.11375000000004,162 L424.11375000000004,162 L424.11375000000004,165 L423.11375000000004,165 L423.11375000000004,162 Z M424.11375000000004,170 L424.11375000000004,170 L424.11375000000004,173 L423.11375000000004,173 L423.11375000000004,170 Z M424.11375000000004,178 L424.11375000000004,178 L424.11375000000004,181 L423.11375000000004,181 L423.11375000000004,178 Z M424.11375000000004,186 L424.11375000000004,186 L424.11375000000004,189 L423.11375000000004,189 L423.11375000000004,186 Z M424.11375000000004,194 L424.11375000000004,194 L424.11375000000004,197 L423.11375000000004,197 L423.11375000000004,194 Z M424.11375000000004,202 L424.11375000000004,202 L424.11375000000004,205 L423.11375000000004,205 L423.11375000000004,202 Z M424.11375000000004,210 L424.11375000000004,210 L424.11375000000004,213 L423.11375000000004,213 L423.11375000000004,210 Z M424.11375000000004,218 L424.11375000000004,218 L424.11375000000004,221 L423.11375000000004,221 L423.11375000000004,218 Z M424.11375000000004,226 L424.11375000000004,226 L424.11375000000004,229 L423.11375000000004,229 L423.11375000000004,226 Z M424.11375000000004,234 L424.11375000000004,234 L424.11375000000004,237 L423.11375000000004,237 L423.11375000000004,234 Z M424.11375000000004,242 L424.11375000000004,242 L424.11375000000004,245 L423.11375000000004,245 L423.11375000000004,242 Z M424.11375000000004,250 L424.11375000000004,250 L424.11375000000004,253 L423.11375000000004,253 L423.11375000000004,250 Z M424.11375000000004,258 L424.11375000000004,258 L424.11375000000004,261 L423.11375000000004,261 L423.11375000000004,258 Z M424.11375000000004,266 L424.11375000000004,266 L424.11375000000004,269 L423.11375000000004,269 L423.11375000000004,266 Z M424.11375000000004,274 L424.11375000000004,274 L424.11375000000004,277 L423.11375000000004,277 L423.11375000000004,274 Z M424.11375000000004,282 L424.11375000000004,282 L424.11375000000004,285 L423.11375000000004,285 L423.11375000000004,282 Z M424.11375000000004,290 L424.11375000000004,290 L424.11375000000004,293 L423.11375000000004,293 L423.11375000000004,290 Z M424.11375000000004,298 L424.11375000000004,298 L424.11375000000004,301 L423.11375000000004,301 L423.11375000000004,298 Z M424.11375000000004,306 L424.11375000000004,306 L424.11375000000004,309 L423.11375000000004,309 L423.11375000000004,306 Z M424.11375000000004,314 L424.11375000000004,314 L424.11375000000004,317 L423.11375000000004,317 L423.11375000000004,314 Z M424.11375000000004,322 L424.11375000000004,322 L424.11375000000004,325 L423.11375000000004,325 L423.11375000000004,322 Z M424.11375000000004,330 L424.11375000000004,330 L424.11375000000004,333 L423.11375000000004,333 L423.11375000000004,330 Z M424.11375000000004,338 L424.11375000000004,338 L424.11375000000004,341 L423.11375000000004,341 L423.11375000000004,338 Z M424.11375000000004,346 L424.11375000000004,346 L424.11375000000004,349 L423.11375000000004,349 L423.11375000000004,346 Z M424.11375000000004,354 L424.11375000000004,354 L424.11375000000004,357 L423.11375000000004,357 L423.11375000000004,354 Z M424.11375000000004,362 L424.11375000000004,362 L424.11375000000004,365 L423.11375000000004,365 L423.11375000000004,362 Z M424.11375000000004,10 L424.11375000000004,10 L424.11375000000004,13 L423.11375000000004,13 L423.11375000000004,10 Z" style="fill:none;stroke:rgb(210,210,210);stroke-miterlimit:10;stroke-linejoin:bevel;stroke-dasharray:3,5;"/>
    <rect height="360" style="fill:none;stroke:rgb(130,130,130);stroke-miterlimit:10;stroke-linejoin:bevel;stroke-dasharray:3,0;" width="491.4375" x="27.1875" y="10"/>
  </g>
  <g clip-path="url(#clip813264128)">
    <path d="M54.380375,213.65714285714287 L122.19875,213.65714285714287 L122.19875,355.6 L54.380375,355.6 Z" style="fill:rgb(0,55,255);fill-opacity:0.705882352941177;stroke:none;"/>
    <path d="M205.087875,166.34285714285716 L272.90625,166.34285714285716 L272.90625,355.6 L205.087875,355.6 Z" style="fill:rgb(0,55,255);fill-opacity:0.705882352941177;stroke:none;"/>
    <path d="M355.795375,119.02857142857144 L423.61375,119.02857142857144 L423.61375,355.6 L355.795375,355.6 Z" style="fill:rgb(0,55,255);fill-opacity:0.705882352941177;stroke:none;"/>
    <path d="M122.19875,213.65714285714287 L190.01712500000002,213.65714285714287 L190.01712500000002,355.6 L122.19875,355.6 Z" style="fill:rgb(255,172,0);fill-opacity:0.705882352941177;stroke:none;"/>
    <path d="M272.90625,119.02857142857144 L340.724625,119.02857142857144 L340.724625,355.6 L272.90625,355.6 Z" style="fill:rgb(255,172,0);fill-opacity:0.705882352941177;stroke:none;"/>
    <path d="M423.61375,24.399999999999977 L491.432125,24.399999999999977 L491.432125,355.6 L423.61375,355.6 Z" style="fill:rgb(255,172,0);fill-opacity:0.705882352941177;stroke:none;"/>
  </g>
  <g>
    <rect height="70" style="fill:rgb(255,255,255);stroke:none;" width="61.375" x="532.625" y="155"/>
    <rect height="70" style="fill:none;stroke:rgb(130,130,130);stroke-miterlimit:10;stroke-linejoin:bevel;stroke-dasharray:3,0;" width="61.375" x="532.625" y="155"/>
    <rect height="20" style="fill:rgb(0,55,255);fill-opacity:0.705882352941177;stroke:none;" width="20" x="542.625" y="165"/>
  </g>
  <g transform="translate(572.625 178.9375)">
    <path d="M-0.015625,-0 L3.015625,-7.875 L4.125,-7.875 L7.359375,-0 L6.171875,-0 L5.25,-2.390625 L1.953125,-2.390625 L1.09375,-0 L-0.015625,-0 Z M2.25,-3.234375 L4.921875,-3.234375 L4.109375,-5.421875 Q3.734375,-6.40625 3.546875,-7.046875 Q3.390625,-6.296875 3.125,-5.546875 L2.25,-3.234375 Z" style="fill:rgb(0,0,0);stroke:none;"/>
  </g>
  <g>
    <rect height="20" style="fill:rgb(255,172,0);fill-opacity:0.705882352941177;stroke:none;" width="20" x="542.625" y="195"/>
  </g>
  <g transform="translate(572.625 208.9375)">
    <path d="M0.8125,-0 L0.8125,-7.875 L3.765625,-7.875 Q4.65625,-7.875 5.203125,-7.625 Q5.75,-7.390625 6.0625,-6.890625 Q6.375,-6.40625 6.375,-5.859375 Q6.375,-5.359375 6.09375,-4.90625 Q5.828125,-4.46875 5.265625,-4.1875 Q5.984375,-3.984375 6.359375,-3.46875 Q6.75,-2.96875 6.75,-2.28125 Q6.75,-1.734375 6.515625,-1.25 Q6.28125,-0.78125 5.9375,-0.515625 Q5.59375,-0.265625 5.078125,-0.125 Q4.5625,-0 3.8125,-0 L0.8125,-0 Z M1.84375,-4.5625 L3.546875,-4.5625 Q4.25,-4.5625 4.546875,-4.65625 Q4.9375,-4.78125 5.140625,-5.046875 Q5.34375,-5.328125 5.34375,-5.734375 Q5.34375,-6.125 5.15625,-6.421875 Q4.96875,-6.71875 4.609375,-6.828125 Q4.265625,-6.9375 3.421875,-6.9375 L1.84375,-6.9375 L1.84375,-4.5625 Z M1.84375,-0.921875 L3.8125,-0.921875 Q4.3125,-0.921875 4.515625,-0.96875 Q4.875,-1.03125 5.109375,-1.171875 Q5.359375,-1.328125 5.515625,-1.609375 Q5.671875,-1.90625 5.671875,-2.28125 Q5.671875,-2.71875 5.4375,-3.046875 Q5.21875,-3.375 4.8125,-3.5 Q4.421875,-3.640625 3.671875,-3.640625 L1.84375,-3.640625 L1.84375,-0.921875 Z" style="fill:rgb(0,0,0);stroke:none;"/>
  </g>
</svg>
