<?xml version="1.0" encoding="UTF-8" standalone="no"?>
<!DOCTYPE svg PUBLIC "-//W3C//DTD SVG 1.1//EN" "http://www.w3.org/Graphics/SVG/1.1/DTD/svg11.dtd">
<svg xmlns:xlink="http://www.w3.org/1999/xlink" height="400px" version="1.1" viewBox="0 0 600 400" width="600px" x="0px" y="0px" xmlns="http://www.w3.org/2000/svg">
  <defs>
    <clipPath id="clip806331840">
      <rect height="341.40625" width="468.046875" x="45.78125" y="10"/>
    </clipPath>
  </defs>
  <rect height="400" style="fill:rgb(210,210,210);stroke:none;" width="600" x="0" y="0"/>
  <g transform="translate(18 184)">
    <path d="M-0,-3.125 L-3.609375,-3.125 L-8.59375,0.015625 L-8.59375,-2.015625 L-5.1875,-4.03125 L-8.59375,-6.015625 L-8.59375,-8.015625 L-3.609375,-4.859375 L-0.0,-4.859375 L-0.0,-3.125 Z" style="fill:rgb(0,0,0);stroke:none;"/>
  </g>
  <g transform="translate(28 28.15625)">
    <path d="M3.734375,-0 L3.734375,-1.734375 L0.21875,-1.734375 L0.21875,-3.171875 L3.953125,-8.625 L5.328125,-8.625 L5.328125,-3.171875 L6.40625,-3.171875 L6.40625,-1.734375 L5.328125,-1.734375 L5.328125,-0 L3.734375,-0 Z M3.734375,-3.171875 L3.734375,-6.109375 L1.765625,-3.171875 L3.734375,-3.171875 Z" style="fill:rgb(0,0,0);stroke:none;"/>
  </g>
  <g transform="translate(28 185.203125)">
    <path d="M6.078125,-1.53125 L6.078125,-0 L0.296875,-0 Q0.390625,-0.875 0.859375,-1.640625 Q1.328125,-2.421875 2.71875,-3.703125 Q3.828125,-4.734375 4.078125,-5.109375 Q4.421875,-5.625 4.421875,-6.125 Q4.421875,-6.671875 4.125,-6.96875 Q3.828125,-7.265625 3.3125,-7.265625 Q2.796875,-7.265625 2.484375,-6.953125 Q2.1875,-6.640625 2.140625,-5.921875 L0.5,-6.078125 Q0.640625,-7.4375 1.40625,-8.03125 Q2.1875,-8.625 3.34375,-8.625 Q4.625,-8.625 5.34375,-7.9375 Q6.078125,-7.25 6.078125,-6.234375 Q6.078125,-5.65625 5.859375,-5.125 Q5.65625,-4.609375 5.203125,-4.03125 Q4.90625,-3.65625 4.125,-2.9375 Q3.34375,-2.21875 3.140625,-1.984375 Q2.9375,-1.75 2.796875,-1.53125 L6.078125,-1.53125 Z" style="fill:rgb(0,0,0);stroke:none;"/>
  </g>
  <g transform="translate(28 263.7265625)">
    <path d="M4.71875,-0 L3.078125,-0 L3.078125,-6.203125 Q2.171875,-5.359375 0.953125,-4.953125 L0.953125,-6.453125 Q1.59375,-6.65625 2.34375,-7.25 Q3.109375,-7.84375 3.390625,-8.625 L4.71875,-8.625 L4.71875,-0 Z" style="fill:rgb(0,0,0);stroke:none;"/>
  </g>
  <g transform="translate(28 342.75)">
    <path d="M3.296875,-8.625 Q4.546875,-8.625 5.25,-7.734375 Q6.078125,-6.6875 6.078125,-4.234375 Q6.078125,-1.796875 5.234375,-0.734375 Q4.546875,0.140625 3.296875,0.140625 Q2.046875,0.140625 1.265625,-0.8125 Q0.5,-1.78125 0.5,-4.25 Q0.5,-6.6875 1.34375,-7.75 Q2.046875,-8.625 3.296875,-8.625 Z M3.296875,-7.265625 Q3,-7.265625 2.765625,-7.0625 Q2.53125,-6.875 2.390625,-6.390625 Q2.234375,-5.75 2.234375,-4.234375 Q2.234375,-2.71875 2.375,-2.15625 Q2.53125,-1.59375 2.765625,-1.40625 Q3,-1.21875 3.296875,-1.21875 Q3.59375,-1.21875 3.828125,-1.40625 Q4.0625,-1.59375 4.1875,-2.09375 Q4.359375,-2.71875 4.359375,-4.234375 Q4.359375,-5.75 4.203125,-6.3125 Q4.0625,-6.875 3.828125,-7.0625 Q3.59375,-7.265625 3.296875,-7.265625 Z" style="fill:rgb(0,0,0);stroke:none;"/>
  </g>
  <g transform="translate(28 107.1796875)">
    <path d="M0.453125,-2.28125 L2.046875,-2.46875 Q2.125,-1.859375 2.453125,-1.53125 Q2.796875,-1.21875 3.265625,-1.21875 Q3.78125,-1.21875 4.125,-1.609375 Q4.46875,-2 4.46875,-2.65625 Q4.46875,-3.265625 4.125,-3.625 Q3.796875,-4 3.328125,-4 Q3,-4 2.5625,-3.875 L2.75,-5.21875 Q3.421875,-5.203125 3.765625,-5.5 Q4.125,-5.8125 4.125,-6.328125 Q4.125,-6.75 3.859375,-7 Q3.609375,-7.265625 3.171875,-7.265625 Q2.75,-7.265625 2.453125,-6.96875 Q2.15625,-6.6875 2.09375,-6.125 L0.578125,-6.375 Q0.734375,-7.15625 1.046875,-7.625 Q1.375,-8.09375 1.9375,-8.359375 Q2.515625,-8.625 3.21875,-8.625 Q4.4375,-8.625 5.171875,-7.859375 Q5.765625,-7.21875 5.765625,-6.421875 Q5.765625,-5.296875 4.53125,-4.625 Q5.28125,-4.453125 5.71875,-3.90625 Q6.15625,-3.359375 6.15625,-2.578125 Q6.15625,-1.453125 5.328125,-0.65625 Q4.5,0.140625 3.28125,0.140625 Q2.109375,0.140625 1.34375,-0.53125 Q0.578125,-1.203125 0.453125,-2.28125 Z" style="fill:rgb(0,0,0);stroke:none;"/>
  </g>
  <g>
    <line style="fill:none;stroke:rgb(130,130,130);stroke-miterlimit:10;stroke-linecap:square;" x1="38.1875" x2="41.1875" y1="337.75" y2="337.75"/>
    <line style="fill:none;stroke:rgb(130,130,130);stroke-miterlimit:10;stroke-linecap:square;" x1="38.1875" x2="41.1875" y1="259.2265625" y2="259.2265625"/>
    <line style="fill:none;stroke:rgb(130,130,130);stroke-miterlimit:10;stroke-linecap:square;" x1="38.1875" x2="41.1875" y1="180.703125" y2="180.703125"/>
    <line style="fill:none;stroke:rgb(130,130,130);stroke-miterlimit:10;stroke-linecap:square;" x1="38.1875" x2="41.1875" y1="102.1796875" y2="102.1796875"/>
    <line style="fill:none;stroke:rgb(130,130,130);stroke-miterlimit:10;stroke-linecap:square;" x1="38.1875" x2="41.1875" y1="23.65625" y2="23.65625"/>
    <line style="fill:none;stroke:rgb(130,130,130);stroke-miterlimit:10;stroke-linecap:square;" x1="41.1875" x2="41.1875" y1="10" y2="351.40625"/>
  </g>
  <g transform="translate(275.8125 390)">
    <path d="M0,-0 L2.9375,-4.484375 L0.28125,-8.59375 L2.296875,-8.59375 L4.03125,-5.828125 L5.71875,-8.59375 L7.71875,-8.59375 L5.046875,-4.421875 L7.984375,-0 L5.890625,-0 L3.984375,-2.96875 L2.078125,-0 L0.0,-0 Z" style="fill:rgb(0,0,0);stroke:none;"/>
  </g>
  <g transform="translate(98.50390624999999 371.40625)">
    <path d="M4.71875,-0 L3.078125,-0 L3.078125,-6.203125 Q2.171875,-5.359375 0.953125,-4.953125 L0.953125,-6.453125 Q1.59375,-6.65625 2.34375,-7.25 Q3.109375,-7.84375 3.390625,-8.625 L4.71875,-8.625 L4.71875,-0 Z" style="fill:rgb(0,0,0);stroke:none;"/>
  </g>
  <g transform="translate(169.30234374999998 371.265625)">
    <path d="M0.453125,-2.28125 L2.046875,-2.46875 Q2.125,-1.859375 2.453125,-1.53125 Q2.796875,-1.21875 3.265625,-1.21875 Q3.78125,-1.21875 4.125,-1.609375 Q4.46875,-2 4.46875,-2.65625 Q4.46875,-3.265625 4.125,-3.625 Q3.796875,-4 3.328125,-4 Q3,-4 2.5625,-3.875 L2.75,-5.21875 Q3.421875,-5.203125 3.765625,-5.5 Q4.125,-5.8125 4.125,-6.328125 Q4.125,-6.75 3.859375,-7 Q3.609375,-7.265625 3.171875,-7.265625 Q2.75,-7.265625 2.453125,-6.96875 Q2.15625,-6.6875 2.09375,-6.125 L0.578125,-6.375 Q0.734375,-7.15625 1.046875,-7.625 Q1.375,-8.09375 1.9375,-8.359375 Q2.515625,-8.625 3.21875,-8.625 Q4.4375,-8.625 5.171875,-7.859375 Q5.765625,-7.21875 5.765625,-6.421875 Q5.765625,-5.296875 4.53125,-4.625 Q5.28125,-4.453125 5.71875,-3.90625 Q6.15625,-3.359375 6.15625,-2.578125 Q6.15625,-1.453125 5.328125,-0.65625 Q4.5,0.140625 3.28125,0.140625 Q2.109375,0.140625 1.34375,-0.53125 Q0.578125,-1.203125 0.453125,-2.28125 Z" style="fill:rgb(0,0,0);stroke:none;"/>
  </g>
  <g transform="translate(241.03046875 371.265625)">
    <path d="M0.53125,-2.203125 L2.171875,-2.375 Q2.25,-1.828125 2.59375,-1.5 Q2.9375,-1.171875 3.390625,-1.171875 Q3.90625,-1.171875 4.265625,-1.59375 Q4.625,-2.015625 4.625,-2.859375 Q4.625,-3.640625 4.265625,-4.03125 Q3.90625,-4.4375 3.34375,-4.4375 Q2.625,-4.4375 2.0625,-3.8125 L0.734375,-4 L1.578125,-8.46875 L5.9375,-8.46875 L5.9375,-6.9375 L2.828125,-6.9375 L2.5625,-5.46875 Q3.125,-5.75 3.6875,-5.75 Q4.78125,-5.75 5.546875,-4.953125 Q6.3125,-4.15625 6.3125,-2.890625 Q6.3125,-1.828125 5.703125,-0.984375 Q4.859375,0.140625 3.375,0.140625 Q2.1875,0.140625 1.4375,-0.484375 Q0.6875,-1.125 0.53125,-2.203125 Z" style="fill:rgb(0,0,0);stroke:none;"/>
  </g>
  <g transform="translate(312.87578125 371.40625)">
    <path d="M0.515625,-6.9375 L0.515625,-8.46875 L6.140625,-8.46875 L6.140625,-7.28125 Q5.4375,-6.59375 4.71875,-5.3125 Q4,-4.03125 3.625,-2.578125 Q3.25,-1.140625 3.25,-0 L1.671875,-0 Q1.703125,-1.78125 2.390625,-3.625 Q3.09375,-5.484375 4.25,-6.9375 L0.515625,-6.9375 Z" style="fill:rgb(0,0,0);stroke:none;"/>
  </g>
  <g transform="translate(384.58046875 371.25)">
    <path d="M0.546875,-1.984375 L2.140625,-2.15625 Q2.203125,-1.671875 2.4375,-1.4375 Q2.6875,-1.203125 3.09375,-1.203125 Q3.609375,-1.203125 3.953125,-1.671875 Q4.3125,-2.140625 4.421875,-3.625 Q3.796875,-2.90625 2.859375,-2.90625 Q1.859375,-2.90625 1.109375,-3.6875 Q0.375,-4.46875 0.375,-5.71875 Q0.375,-7.03125 1.15625,-7.828125 Q1.9375,-8.625 3.140625,-8.625 Q4.4375,-8.625 5.28125,-7.609375 Q6.125,-6.609375 6.125,-4.296875 Q6.125,-1.9375 5.25,-0.890625 Q4.375,0.15625 2.96875,0.15625 Q1.96875,0.15625 1.34375,-0.375 Q0.71875,-0.921875 0.546875,-1.984375 Z M4.265625,-5.578125 Q4.265625,-6.375 3.90625,-6.8125 Q3.546875,-7.265625 3.0625,-7.265625 Q2.609375,-7.265625 2.296875,-6.90625 Q2,-6.546875 2,-5.71875 Q2,-4.890625 2.328125,-4.5 Q2.65625,-4.109375 3.140625,-4.109375 Q3.625,-4.109375 3.9375,-4.484375 Q4.265625,-4.859375 4.265625,-5.578125 Z" style="fill:rgb(0,0,0);stroke:none;"/>
  </g>
  <g transform="translate(454.0029296875 371.40625)">
    <path d="M4.71875,-0 L3.078125,-0 L3.078125,-6.203125 Q2.171875,-5.359375 0.953125,-4.953125 L0.953125,-6.453125 Q1.59375,-6.65625 2.34375,-7.25 Q3.109375,-7.84375 3.390625,-8.625 L4.71875,-8.625 L4.71875,-0 Z M11.392578125,0 L9.751953125,0 L9.751953125,-6.203125 Q8.845703125,-5.359375 7.626953125,-4.953125 L7.626953125,-6.453125 Q8.267578125,-6.65625 9.017578125,-7.25 Q9.783203125,-7.84375 10.064453125,-8.625 L11.392578125,-8.625 L11.392578125,0 Z" style="fill:rgb(0,0,0);stroke:none;"/>
  </g>
  <g>
    <line style="fill:none;stroke:rgb(130,130,130);stroke-miterlimit:10;stroke-linecap:square;" x1="100.38671874999999" x2="100.38671874999999" y1="358.625" y2="355.625"/>
    <line style="fill:none;stroke:rgb(130,130,130);stroke-miterlimit:10;stroke-linecap:square;" x1="172.15390624999998" x2="172.15390624999998" y1="358.625" y2="355.625"/>
    <line style="fill:none;stroke:rgb(130,130,130);stroke-miterlimit:10;stroke-linecap:square;" x1="243.92109375" x2="243.92109375" y1="358.625" y2="355.625"/>
    <line style="fill:none;stroke:rgb(130,130,130);stroke-miterlimit:10;stroke-linecap:square;" x1="315.68828125" x2="315.68828125" y1="358.625" y2="355.625"/>
    <line style="fill:none;stroke:rgb(130,130,130);stroke-miterlimit:10;stroke-linecap:square;" x1="387.45546875" x2="387.45546875" y1="358.625" y2="355.625"/>
    <line style="fill:none;stroke:rgb(130,130,130);stroke-miterlimit:10;stroke-linecap:square;" x1="459.22265625" x2="459.22265625" y1="358.625" y2="355.625"/>
    <line style="fill:none;stroke:rgb(130,130,130);stroke-miterlimit:10;stroke-linecap:square;" x1="45" x2="513" y1="355" y2="355"/>
    <rect height="341.40625" style="fill:rgb(255,255,255);stroke:none;" width="468.046875" x="45.78125" y="10"/>
    <path d="M53.78125,337.25 L53.78125,337.25 L56.78125,337.25 L56.78125,338.25 L53.78125,338.25 Z M61.78125,337.25 L61.78125,337.25 L64.78125,337.25 L64.78125,338.25 L61.78125,338.25 Z M69.78125,337.25 L69.78125,337.25 L72.78125,337.25 L72.78125,338.25 L69.78125,338.25 Z M77.78125,337.25 L77.78125,337.25 L80.78125,337.25 L80.78125,338.25 L77.78125,338.25 Z M85.78125,337.25 L85.78125,337.25 L88.78125,337.25 L88.78125,338.25 L85.78125,338.25 Z M93.78125,337.25 L93.78125,337.25 L96.78125,337.25 L96.78125,338.25 L93.78125,338.25 Z M101.78125,337.25 L101.78125,337.25 L104.78125,337.25 L104.78125,338.25 L101.78125,338.25 Z M109.78125,337.25 L109.78125,337.25 L112.78125,337.25 L112.78125,338.25 L109.78125,338.25 Z M117.78125,337.25 L117.78125,337.25 L120.78125,337.25 L120.78125,338.25 L117.78125,338.25 Z M125.78125,337.25 L125.78125,337.25 L128.78125,337.25 L128.78125,338.25 L125.78125,338.25 Z M133.78125,337.25 L133.78125,337.25 L136.78125,337.25 L136.78125,338.25 L133.78125,338.25 Z M141.78125,337.25 L141.78125,337.25 L144.78125,337.25 L144.78125,338.25 L141.78125,338.25 Z M149.78125,337.25 L149.78125,337.25 L152.78125,337.25 L152.78125,338.25 L149.78125,338.25 Z M157.78125,337.25 L157.78125,337.25 L160.78125,337.25 L160.78125,338.25 L157.78125,338.25 Z M165.78125,337.25 L165.78125,337.25 L168.78125,337.25 L168.78125,338.25 L165.78125,338.25 Z M173.78125,337.25 L173.78125,337.25 L176.78125,337.25 L176.78125,338.25 L173.78125,338.25 Z M181.78125,337.25 L181.78125,337.25 L184.78125,337.25 L184.78125,338.25 L181.78125,338.25 Z M189.78125,337.25 L189.78125,337.25 L192.78125,337.25 L192.78125,338.25 L189.78125,338.25 Z M197.78125,337.25 L197.78125,337.25 L200.78125,337.25 L200.78125,338.25 L197.78125,338.25 Z M205.78125,337.25 L205.78125,337.25 L208.78125,337.25 L208.78125,338.25 L205.78125,338.25 Z M213.78125,337.25 L213.78125,337.25 L216.78125,337.25 L216.78125,338.25 L213.78125,338.25 Z M221.78125,337.25 L221.78125,337.25 L224.78125,337.25 L224.78125,338.25 L221.78125,338.25 Z M229.78125,337.25 L229.78125,337.25 L232.78125,337.25 L232.78125,338.25 L229.78125,338.25 Z M237.78125,337.25 L237.78125,337.25 L240.78125,337.25 L240.78125,338.25 L237.78125,338.25 Z M245.78125,337.25 L245.78125,337.25 L248.78125,337.25 L248.78125,338.25 L245.78125,338.25 Z M253.78125,337.25 L253.78125,337.25 L256.78125,337.25 L256.78125,338.25 L253.78125,338.25 Z M261.78125,337.25 L261.78125,337.25 L264.78125,337.25 L264.78125,338.25 L261.78125,338.25 Z M269.78125,337.25 L269.78125,337.25 L272.78125,337.25 L272.78125,338.25 L269.78125,338.25 Z M277.78125,337.25 L277.78125,337.25 L280.78125,337.25 L280.78125,338.25 L277.78125,338.25 Z M285.78125,337.25 L285.78125,337.25 L288.78125,337.25 L288.78125,338.25 L285.78125,338.25 Z M293.78125,337.25 L293.78125,337.25 L296.78125,337.25 L296.78125,338.25 L293.78125,338.25 Z M301.78125,337.25 L301.78125,337.25 L304.78125,337.25 L304.78125,338.25 L301.78125,338.25 Z M309.78125,337.25 L309.78125,337.25 L312.78125,337.25 L312.78125,338.25 L309.78125,338.25 Z M317.78125,337.25 L317.78125,337.25 L320.78125,337.25 L320.78125,338.25 L317.78125,338.25 Z M325.78125,337.25 L325.78125,337.25 L328.78125,337.25 L328.78125,338.25 L325.78125,338.25 Z M333.78125,337.25 L333.78125,337.25 L336.78125,337.25 L336.78125,338.25 L333.78125,338.25 Z M341.78125,337.25 L341.78125,337.25 L344.78125,337.25 L344.78125,338.25 L341.78125,338.25 Z M349.78125,337.25 L349.78125,337.25 L352.78125,337.25 L352.78125,338.25 L349.78125,338.25 Z M357.78125,337.25 L357.78125,337.25 L360.78125,337.25 L360.78125,338.25 L357.78125,338.25 Z M365.78125,337.25 L365.78125,337.25 L368.78125,337.25 L368.78125,338.25 L365.78125,338.25 Z M373.78125,337.25 L373.78125,337.25 L376.78125,337.25 L376.78125,338.25 L373.78125,338.25 Z M381.78125,337.25 L381.78125,337.25 L384.78125,337.25 L384.78125,338.25 L381.78125,338.25 Z M389.78125,337.25 L389.78125,337.25 L392.78125,337.25 L392.78125,338.25 L389.78125,338.25 Z M397.78125,337.25 L397.78125,337.25 L400.78125,337.25 L400.78125,338.25 L397.78125,338.25 Z M405.78125,337.25 L405.78125,337.25 L408.78125,337.25 L408.78125,338.25 L405.78125,338.25 Z M413.78125,337.25 L413.78125,337.25 L416.78125,337.25 L416.78125,338.25 L413.78125,338.25 Z M421.78125,337.25 L421.78125,337.25 L424.78125,337.25 L424.78125,338.25 L421.78125,338.25 Z M429.78125,337.25 L429.78125,337.25 L432.78125,337.25 L432.78125,338.25 L429.78125,338.25 Z M437.78125,337.25 L437.78125,337.25 L440.78125,337.25 L440.78125,338.25 L437.78125,338.25 Z M445.78125,337.25 L445.78125,337.25 L448.78125,337.25 L448.78125,338.25 L445.78125,338.25 Z M453.78125,337.25 L453.78125,337.25 L456.78125,337.25 L456.78125,338.25 L453.78125,338.25 Z M461.78125,337.25 L461.78125,337.25 L464.78125,337.25 L464.78125,338.25 L461.78125,338.25 Z M469.78125,337.25 L469.78125,337.25 L472.78125,337.25 L472.78125,338.25 L469.78125,338.25 Z M477.78125,337.25 L477.78125,337.25 L480.78125,337.25 L480.78125,338.25 L477.78125,338.25 Z M485.78125,337.25 L485.78125,337.25 L488.78125,337.25 L488.78125,338.25 L485.78125,338.25 Z M493.78125,337.25 L493.78125,337.25 L496.78125,337.25 L496.78125,338.25 L493.78125,338.25 Z M501.78125,337.25 L501.78125,337.25 L504.78125,337.25 L504.78125,338.25 L501.78125,338.25 Z M509.78125,337.25 L509.78125,337.25 L512.78125,337.25 L512.78125,338.25 L509.78125,338.25 Z M45.78125,337.25 L45.78125,337.25 L48.78125,337.25 L48.78125,338.25 L45.78125,338.25 Z" style="fill:none;stroke:rgb(210,210,210);stroke-miterlimit:10;stroke-linejoin:bevel;stroke-dasharray:3,5;"/>
    <path d="M53.78125,258.7265625 L53.78125,258.7265625 L56.78125,258.7265625 L56.78125,259.7265625 L53.78125,259.7265625 Z M61.78125,258.7265625 L61.78125,258.7265625 L64.78125,258.7265625 L64.78125,259.7265625 L61.78125,259.7265625 Z M69.78125,258.7265625 L69.78125,258.7265625 L72.78125,258.7265625 L72.78125,259.7265625 L69.78125,259.7265625 Z M77.78125,258.7265625 L77.78125,258.7265625 L80.78125,258.7265625 L80.78125,259.7265625 L77.78125,259.7265625 Z M85.78125,258.7265625 L85.78125,258.7265625 L88.78125,258.7265625 L88.78125,259.7265625 L85.78125,259.7265625 Z M93.78125,258.7265625 L93.78125,258.7265625 L96.78125,258.7265625 L96.78125,259.7265625 L93.78125,259.7265625 Z M101.78125,258.7265625 L101.78125,258.7265625 L104.78125,258.7265625 L104.78125,259.7265625 L101.78125,259.7265625 Z M109.78125,258.7265625 L109.78125,258.7265625 L112.78125,258.7265625 L112.78125,259.7265625 L109.78125,259.7265625 Z M117.78125,258.7265625 L117.78125,258.7265625 L120.78125,258.7265625 L120.78125,259.7265625 L117.78125,259.7265625 Z M125.78125,258.7265625 L125.78125,258.7265625 L128.78125,258.7265625 L128.78125,259.7265625 L125.78125,259.7265625 Z M133.78125,258.7265625 L133.78125,258.7265625 L136.78125,258.7265625 L136.78125,259.7265625 L133.78125,259.7265625 Z M141.78125,258.7265625 L141.78125,258.7265625 L144.78125,258.7265625 L144.78125,259.7265625 L141.78125,259.7265625 Z M149.78125,258.7265625 L149.78125,258.7265625 L152.78125,258.7265625 L152.78125,259.7265625 L149.78125,259.7265625 Z M157.78125,258.7265625 L157.78125,258.7265625 L160.78125,258.7265625 L160.78125,259.7265625 L157.78125,259.7265625 Z M165.78125,258.7265625 L165.78125,258.7265625 L168.78125,258.7265625 L168.78125,259.7265625 L165.78125,259.7265625 Z M173.78125,258.7265625 L173.78125,258.7265625 L176.78125,258.7265625 L176.78125,259.7265625 L173.78125,259.7265625 Z M181.78125,258.7265625 L181.78125,258.7265625 L184.78125,258.7265625 L184.78125,259.7265625 L181.78125,259.7265625 Z M189.78125,258.7265625 L189.78125,258.7265625 L192.78125,258.7265625 L192.78125,259.7265625 L189.78125,259.7265625 Z M197.78125,258.7265625 L197.78125,258.7265625 L200.78125,258.7265625 L200.78125,259.7265625 L197.78125,259.7265625 Z M205.78125,258.7265625 L205.78125,258.7265625 L208.78125,258.7265625 L208.78125,259.7265625 L205.78125,259.7265625 Z M213.78125,258.7265625 L213.78125,258.7265625 L216.78125,258.7265625 L216.78125,259.7265625 L213.78125,259.7265625 Z M221.78125,258.7265625 L221.78125,258.7265625 L224.78125,258.7265625 L224.78125,259.7265625 L221.78125,259.7265625 Z M229.78125,258.7265625 L229.78125,258.7265625 L232.78125,258.7265625 L232.78125,259.7265625 L229.78125,259.7265625 Z M237.78125,258.7265625 L237.78125,258.7265625 L240.78125,258.7265625 L240.78125,259.7265625 L237.78125,259.7265625 Z M245.78125,258.7265625 L245.78125,258.7265625 L248.78125,258.7265625 L248.78125,259.7265625 L245.78125,259.7265625 Z M253.78125,258.7265625 L253.78125,258.7265625 L256.78125,258.7265625 L256.78125,259.7265625 L253.78125,259.7265625 Z M261.78125,258.7265625 L261.78125,258.7265625 L264.78125,258.7265625 L264.78125,259.7265625 L261.78125,259.7265625 Z M269.78125,258.7265625 L269.78125,258.7265625 L272.78125,258.7265625 L272.78125,259.7265625 L269.78125,259.7265625 Z M277.78125,258.7265625 L277.78125,258.7265625 L280.78125,258.7265625 L280.78125,259.7265625 L277.78125,259.7265625 Z M285.78125,258.7265625 L285.78125,258.7265625 L288.78125,258.7265625 L288.78125,259.7265625 L285.78125,259.7265625 Z M293.78125,258.7265625 L293.78125,258.7265625 L296.78125,258.7265625 L296.78125,259.7265625 L293.78125,259.7265625 Z M301.78125,258.7265625 L301.78125,258.7265625 L304.78125,258.7265625 L304.78125,259.7265625 L301.78125,259.7265625 Z M309.78125,258.7265625 L309.78125,258.7265625 L312.78125,258.7265625 L312.78125,259.7265625 L309.78125,259.7265625 Z M317.78125,258.7265625 L317.78125,258.7265625 L320.78125,258.7265625 L320.78125,259.7265625 L317.78125,259.7265625 Z M325.78125,258.7265625 L325.78125,258.7265625 L328.78125,258.7265625 L328.78125,259.7265625 L325.78125,259.7265625 Z M333.78125,258.7265625 L333.78125,258.7265625 L336.78125,258.7265625 L336.78125,259.7265625 L333.78125,259.7265625 Z M341.78125,258.7265625 L341.78125,258.7265625 L344.78125,258.7265625 L344.78125,259.7265625 L341.78125,259.7265625 Z M349.78125,258.7265625 L349.78125,258.7265625 L352.78125,258.7265625 L352.78125,259.7265625 L349.78125,259.7265625 Z M357.78125,258.7265625 L357.78125,258.7265625 L360.78125,258.7265625 L360.78125,259.7265625 L357.78125,259.7265625 Z M365.78125,258.7265625 L365.78125,258.7265625 L368.78125,258.7265625 L368.78125,259.7265625 L365.78125,259.7265625 Z M373.78125,258.7265625 L373.78125,258.7265625 L376.78125,258.7265625 L376.78125,259.7265625 L373.78125,259.7265625 Z M381.78125,258.7265625 L381.78125,258.7265625 L384.78125,258.7265625 L384.78125,259.7265625 L381.78125,259.7265625 Z M389.78125,258.7265625 L389.78125,258.7265625 L392.78125,258.7265625 L392.78125,259.7265625 L389.78125,259.7265625 Z M397.78125,258.7265625 L397.78125,258.7265625 L400.78125,258.7265625 L400.78125,259.7265625 L397.78125,259.7265625 Z M405.78125,258.7265625 L405.78125,258.7265625 L408.78125,258.7265625 L408.78125,259.7265625 L405.78125,259.7265625 Z M413.78125,258.7265625 L413.78125,258.7265625 L416.78125,258.7265625 L416.78125,259.7265625 L413.78125,259.7265625 Z M421.78125,258.7265625 L421.78125,258.7265625 L424.78125,258.7265625 L424.78125,259.7265625 L421.78125,259.7265625 Z M429.78125,258.7265625 L429.78125,258.7265625 L432.78125,258.7265625 L432.78125,259.7265625 L429.78125,259.7265625 Z M437.78125,258.7265625 L437.78125,258.7265625 L440.78125,258.7265625 L440.78125,259.7265625 L437.78125,259.7265625 Z M445.78125,258.7265625 L445.78125,258.7265625 L448.78125,258.7265625 L448.78125,259.7265625 L445.78125,259.7265625 Z M453.78125,258.7265625 L453.78125,258.7265625 L456.78125,258.7265625 L456.78125,259.7265625 L453.78125,259.7265625 Z M461.78125,258.7265625 L461.78125,258.7265625 L464.78125,258.7265625 L464.78125,259.7265625 L461.78125,259.7265625 Z M469.78125,258.7265625 L469.78125,258.7265625 L472.78125,258.7265625 L472.78125,259.7265625 L469.78125,259.7265625 Z M477.78125,258.7265625 L477.78125,258.7265625 L480.78125,258.7265625 L480.78125,259.7265625 L477.78125,259.7265625 Z M485.78125,258.7265625 L485.78125,258.7265625 L488.78125,258.7265625 L488.78125,259.7265625 L485.78125,259.7265625 Z M493.78125,258.7265625 L493.78125,258.7265625 L496.78125,258.7265625 L496.78125,259.7265625 L493.78125,259.7265625 Z M501.78125,258.7265625 L501.78125,258.7265625 L504.78125,258.7265625 L504.78125,259.7265625 L501.78125,259.7265625 Z M509.78125,258.7265625 L509.78125,258.7265625 L512.78125,258.7265625 L512.78125,259.7265625 L509.78125,259.7265625 Z M45.78125,258.7265625 L45.78125,258.7265625 L48.78125,258.7265625 L48.78125,259.7265625 L45.78125,259.7265625 Z" style="fill:none;stroke:rgb(210,210,210);stroke-miterlimit:10;stroke-linejoin:bevel;stroke-dasharray:3,5;"/>
    <path d="M53.78125,180.203125 L53.78125,180.203125 L56.78125,180.203125 L56.78125,181.203125 L53.78125,181.203125 Z M61.78125,180.203125 L61.78125,180.203125 L64.78125,180.203125 L64.78125,181.203125 L61.78125,181.203125 Z M69.78125,180.203125 L69.78125,180.203125 L72.78125,180.203125 L72.78125,181.203125 L69.78125,181.203125 Z M77.78125,180.203125 L77.78125,180.203125 L80.78125,180.203125 L80.78125,181.203125 L77.78125,181.203125 Z M85.78125,180.203125 L85.78125,180.203125 L88.78125,180.203125 L88.78125,181.203125 L85.78125,181.203125 Z M93.78125,180.203125 L93.78125,180.203125 L96.78125,180.203125 L96.78125,181.203125 L93.78125,181.203125 Z M101.78125,180.203125 L101.78125,180.203125 L104.78125,180.203125 L104.78125,181.203125 L101.78125,181.203125 Z M109.78125,180.203125 L109.78125,180.203125 L112.78125,180.203125 L112.78125,181.203125 L109.78125,181.203125 Z M117.78125,180.203125 L117.78125,180.203125 L120.78125,180.203125 L120.78125,181.203125 L117.78125,181.203125 Z M125.78125,180.203125 L125.78125,180.203125 L128.78125,180.203125 L128.78125,181.203125 L125.78125,181.203125 Z M133.78125,180.203125 L133.78125,180.203125 L136.78125,180.203125 L136.78125,181.203125 L133.78125,181.203125 Z M141.78125,180.203125 L141.78125,180.203125 L144.78125,180.203125 L144.78125,181.203125 L141.78125,181.203125 Z M149.78125,180.203125 L149.78125,180.203125 L152.78125,180.203125 L152.78125,181.203125 L149.78125,181.203125 Z M157.78125,180.203125 L157.78125,180.203125 L160.78125,180.203125 L160.78125,181.203125 L157.78125,181.203125 Z M165.78125,180.203125 L165.78125,180.203125 L168.78125,180.203125 L168.78125,181.203125 L165.78125,181.203125 Z M173.78125,180.203125 L173.78125,180.203125 L176.78125,180.203125 L176.78125,181.203125 L173.78125,181.203125 Z M181.78125,180.203125 L181.78125,180.203125 L184.78125,180.203125 L184.78125,181.203125 L181.78125,181.203125 Z M189.78125,180.203125 L189.78125,180.203125 L192.78125,180.203125 L192.78125,181.203125 L189.78125,181.203125 Z M197.78125,180.203125 L197.78125,180.203125 L200.78125,180.203125 L200.78125,181.203125 L197.78125,181.203125 Z M205.78125,180.203125 L205.78125,180.203125 L208.78125,180.203125 L208.78125,181.203125 L205.78125,181.203125 Z M213.78125,180.203125 L213.78125,180.203125 L216.78125,180.203125 L216.78125,181.203125 L213.78125,181.203125 Z M221.78125,180.203125 L221.78125,180.203125 L224.78125,180.203125 L224.78125,181.203125 L221.78125,181.203125 Z M229.78125,180.203125 L229.78125,180.203125 L232.78125,180.203125 L232.78125,181.203125 L229.78125,181.203125 Z M237.78125,180.203125 L237.78125,180.203125 L240.78125,180.203125 L240.78125,181.203125 L237.78125,181.203125 Z M245.78125,180.203125 L245.78125,180.203125 L248.78125,180.203125 L248.78125,181.203125 L245.78125,181.203125 Z M253.78125,180.203125 L253.78125,180.203125 L256.78125,180.203125 L256.78125,181.203125 L253.78125,181.203125 Z M261.78125,180.203125 L261.78125,180.203125 L264.78125,180.203125 L264.78125,181.203125 L261.78125,181.203125 Z M269.78125,180.203125 L269.78125,180.203125 L272.78125,180.203125 L272.78125,181.203125 L269.78125,181.203125 Z M277.78125,180.203125 L277.78125,180.203125 L280.78125,180.203125 L280.78125,181.203125 L277.78125,181.203125 Z M285.78125,180.203125 L285.78125,180.203125 L288.78125,180.203125 L288.78125,181.203125 L285.78125,181.203125 Z M293.78125,180.203125 L293.78125,180.203125 L296.78125,180.203125 L296.78125,181.203125 L293.78125,181.203125 Z M301.78125,180.203125 L301.78125,180.203125 L304.78125,180.203125 L304.78125,181.203125 L301.78125,181.203125 Z M309.78125,180.203125 L309.78125,180.203125 L312.78125,180.203125 L312.78125,181.203125 L309.78125,181.203125 Z M317.78125,180.203125 L317.78125,180.203125 L320.78125,180.203125 L320.78125,181.203125 L317.78125,181.203125 Z M325.78125,180.203125 L325.78125,180.203125 L328.78125,180.203125 L328.78125,181.203125 L325.78125,181.203125 Z M333.78125,180.203125 L333.78125,180.203125 L336.78125,180.203125 L336.78125,181.203125 L333.78125,181.203125 Z M341.78125,180.203125 L341.78125,180.203125 L344.78125,180.203125 L344.78125,181.203125 L341.78125,181.203125 Z M349.78125,180.203125 L349.78125,180.203125 L352.78125,180.203125 L352.78125,181.203125 L349.78125,181.203125 Z M357.78125,180.203125 L357.78125,180.203125 L360.78125,180.203125 L360.78125,181.203125 L357.78125,181.203125 Z M365.78125,180.203125 L365.78125,180.203125 L368.78125,180.203125 L368.78125,181.203125 L365.78125,181.203125 Z M373.78125,180.203125 L373.78125,180.203125 L376.78125,180.203125 L376.78125,181.203125 L373.78125,181.203125 Z M381.78125,180.203125 L381.78125,180.203125 L384.78125,180.203125 L384.78125,181.203125 L381.78125,181.203125 Z M389.78125,180.203125 L389.78125,180.203125 L392.78125,180.203125 L392.78125,181.203125 L389.78125,181.203125 Z M397.78125,180.203125 L397.78125,180.203125 L400.78125,180.203125 L400.78125,181.203125 L397.78125,181.203125 Z M405.78125,180.203125 L405.78125,180.203125 L408.78125,180.203125 L408.78125,181.203125 L405.78125,181.203125 Z M413.78125,180.203125 L413.78125,180.203125 L416.78125,180.203125 L416.78125,181.203125 L413.78125,181.203125 Z M421.78125,180.203125 L421.78125,180.203125 L424.78125,180.203125 L424.78125,181.203125 L421.78125,181.203125 Z M429.78125,180.203125 L429.78125,180.203125 L432.78125,180.203125 L432.78125,181.203125 L429.78125,181.203125 Z M437.78125,180.203125 L437.78125,180.203125 L440.78125,180.203125 L440.78125,181.203125 L437.78125,181.203125 Z M445.78125,180.203125 L445.78125,180.203125 L448.78125,180.203125 L448.78125,181.203125 L445.78125,181.203125 Z M453.78125,180.203125 L453.78125,180.203125 L456.78125,180.203125 L456.78125,181.203125 L453.78125,181.203125 Z M461.78125,180.203125 L461.78125,180.203125 L464.78125,180.203125 L464.78125,181.203125 L461.78125,181.203125 Z M469.78125,180.203125 L469.78125,180.203125 L472.78125,180.203125 L472.78125,181.203125 L469.78125,181.203125 Z M477.78125,180.203125 L477.78125,180.203125 L480.78125,180.203125 L480.78125,181.203125 L477.78125,181.203125 Z M485.78125,180.203125 L485.78125,180.203125 L488.78125,180.203125 L488.78125,181.203125 L485.78125,181.203125 Z M493.78125,180.203125 L493.78125,180.203125 L496.78125,180.203125 L496.78125,181.203125 L493.78125,181.203125 Z M501.78125,180.203125 L501.78125,180.203125 L504.78125,180.203125 L504.78125,181.203125 L501.78125,181.203125 Z M509.78125,180.203125 L509.78125,180.203125 L512.78125,180.203125 L512.78125,181.203125 L509.78125,181.203125 Z M45.78125,180.203125 L45.78125,180.203125 L48.78125,180.203125 L48.78125,181.203125 L45.78125,181.203125 Z" style="fill:none;stroke:rgb(210,210,210);stroke-miterlimit:10;stroke-linejoin:bevel;stroke-dasharray:3,5;"/>
    <path d="M53.78125,101.6796875 L53.78125,101.6796875 L56.78125,101.6796875 L56.78125,102.6796875 L53.78125,102.6796875 Z M61.78125,101.6796875 L61.78125,101.6796875 L64.78125,101.6796875 L64.78125,102.6796875 L61.78125,102.6796875 Z M69.78125,101.6796875 L69.78125,101.6796875 L72.78125,101.6796875 L72.78125,102.6796875 L69.78125,102.6796875 Z M77.78125,101.6796875 L77.78125,101.6796875 L80.78125,101.6796875 L80.78125,102.6796875 L77.78125,102.6796875 Z M85.78125,101.6796875 L85.78125,101.6796875 L88.78125,101.6796875 L88.78125,102.6796875 L85.78125,102.6796875 Z M93.78125,101.6796875 L93.78125,101.6796875 L96.78125,101.6796875 L96.78125,102.6796875 L93.78125,102.6796875 Z M101.78125,101.6796875 L101.78125,101.6796875 L104.78125,101.6796875 L104.78125,102.6796875 L101.78125,102.6796875 Z M109.78125,101.6796875 L109.78125,101.6796875 L112.78125,101.6796875 L112.78125,102.6796875 L109.78125,102.6796875 Z M117.78125,101.6796875 L117.78125,101.6796875 L120.78125,101.6796875 L120.78125,102.6796875 L117.78125,102.6796875 Z M125.78125,101.6796875 L125.78125,101.6796875 L128.78125,101.6796875 L128.78125,102.6796875 L125.78125,102.6796875 Z M133.78125,101.6796875 L133.78125,101.6796875 L136.78125,101.6796875 L136.78125,102.6796875 L133.78125,102.6796875 Z M141.78125,101.6796875 L141.78125,101.6796875 L144.78125,101.6796875 L144.78125,102.6796875 L141.78125,102.6796875 Z M149.78125,101.6796875 L149.78125,101.6796875 L152.78125,101.6796875 L152.78125,102.6796875 L149.78125,102.6796875 Z M157.78125,101.6796875 L157.78125,101.6796875 L160.78125,101.6796875 L160.78125,102.6796875 L157.78125,102.6796875 Z M165.78125,101.6796875 L165.78125,101.6796875 L168.78125,101.6796875 L168.78125,102.6796875 L165.78125,102.6796875 Z M173.78125,101.6796875 L173.78125,101.6796875 L176.78125,101.6796875 L176.78125,102.6796875 L173.78125,102.6796875 Z M181.78125,101.6796875 L181.78125,101.6796875 L184.78125,101.6796875 L184.78125,102.6796875 L181.78125,102.6796875 Z M189.78125,101.6796875 L189.78125,101.6796875 L192.78125,101.6796875 L192.78125,102.6796875 L189.78125,102.6796875 Z M197.78125,101.6796875 L197.78125,101.6796875 L200.78125,101.6796875 L200.78125,102.6796875 L197.78125,102.6796875 Z M205.78125,101.6796875 L205.78125,101.6796875 L208.78125,101.6796875 L208.78125,102.6796875 L205.78125,102.6796875 Z M213.78125,101.6796875 L213.78125,101.6796875 L216.78125,101.6796875 L216.78125,102.6796875 L213.78125,102.6796875 Z M221.78125,101.6796875 L221.78125,101.6796875 L224.78125,101.6796875 L224.78125,102.6796875 L221.78125,102.6796875 Z M229.78125,101.6796875 L229.78125,101.6796875 L232.78125,101.6796875 L232.78125,102.6796875 L229.78125,102.6796875 Z M237.78125,101.6796875 L237.78125,101.6796875 L240.78125,101.6796875 L240.78125,102.6796875 L237.78125,102.6796875 Z M245.78125,101.6796875 L245.78125,101.6796875 L248.78125,101.6796875 L248.78125,102.6796875 L245.78125,102.6796875 Z M253.78125,101.6796875 L253.78125,101.6796875 L256.78125,101.6796875 L256.78125,102.6796875 L253.78125,102.6796875 Z M261.78125,101.6796875 L261.78125,101.6796875 L264.78125,101.6796875 L264.78125,102.6796875 L261.78125,102.6796875 Z M269.78125,101.6796875 L269.78125,101.6796875 L272.78125,101.6796875 L272.78125,102.6796875 L269.78125,102.6796875 Z M277.78125,101.6796875 L277.78125,101.6796875 L280.78125,101.6796875 L280.78125,102.6796875 L277.78125,102.6796875 Z M285.78125,101.6796875 L285.78125,101.6796875 L288.78125,101.6796875 L288.78125,102.6796875 L285.78125,102.6796875 Z M293.78125,101.6796875 L293.78125,101.6796875 L296.78125,101.6796875 L296.78125,102.6796875 L293.78125,102.6796875 Z M301.78125,101.6796875 L301.78125,101.6796875 L304.78125,101.6796875 L304.78125,102.6796875 L301.78125,102.6796875 Z M309.78125,101.6796875 L309.78125,101.6796875 L312.78125,101.6796875 L312.78125,102.6796875 L309.78125,102.6796875 Z M317.78125,101.6796875 L317.78125,101.6796875 L320.78125,101.6796875 L320.78125,102.6796875 L317.78125,102.6796875 Z M325.78125,101.6796875 L325.78125,101.6796875 L328.78125,101.6796875 L328.78125,102.6796875 L325.78125,102.6796875 Z M333.78125,101.6796875 L333.78125,101.6796875 L336.78125,101.6796875 L336.78125,102.6796875 L333.78125,102.6796875 Z M341.78125,101.6796875 L341.78125,101.6796875 L344.78125,101.6796875 L344.78125,102.6796875 L341.78125,102.6796875 Z M349.78125,101.6796875 L349.78125,101.6796875 L352.78125,101.6796875 L352.78125,102.6796875 L349.78125,102.6796875 Z M357.78125,101.6796875 L357.78125,101.6796875 L360.78125,101.6796875 L360.78125,102.6796875 L357.78125,102.6796875 Z M365.78125,101.6796875 L365.78125,101.6796875 L368.78125,101.6796875 L368.78125,102.6796875 L365.78125,102.6796875 Z M373.78125,101.6796875 L373.78125,101.6796875 L376.78125,101.6796875 L376.78125,102.6796875 L373.78125,102.6796875 Z M381.78125,101.6796875 L381.78125,101.6796875 L384.78125,101.6796875 L384.78125,102.6796875 L381.78125,102.6796875 Z M389.78125,101.6796875 L389.78125,101.6796875 L392.78125,101.6796875 L392.78125,102.6796875 L389.78125,102.6796875 Z M397.78125,101.6796875 L397.78125,101.6796875 L400.78125,101.6796875 L400.78125,102.6796875 L397.78125,102.6796875 Z M405.78125,101.6796875 L405.78125,101.6796875 L408.78125,101.6796875 L408.78125,102.6796875 L405.78125,102.6796875 Z M413.78125,101.6796875 L413.78125,101.6796875 L416.78125,101.6796875 L416.78125,102.6796875 L413.78125,102.6796875 Z M421.78125,101.6796875 L421.78125,101.6796875 L424.78125,101.6796875 L424.78125,102.6796875 L421.78125,102.6796875 Z M429.78125,101.6796875 L429.78125,101.6796875 L432.78125,101.6796875 L432.78125,102.6796875 L429.78125,102.6796875 Z M437.78125,101.6796875 L437.78125,101.6796875 L440.78125,101.6796875 L440.78125,102.6796875 L437.78125,102.6796875 Z M445.78125,101.6796875 L445.78125,101.6796875 L448.78125,101.6796875 L448.78125,102.6796875 L445.78125,102.6796875 Z M453.78125,101.6796875 L453.78125,101.6796875 L456.78125,101.6796875 L456.78125,102.6796875 L453.78125,102.6796875 Z M461.78125,101.6796875 L461.78125,101.6796875 L464.78125,101.6796875 L464.78125,102.6796875 L461.78125,102.6796875 Z M469.78125,101.6796875 L469.78125,101.6796875 L472.78125,101.6796875 L472.78125,102.6796875 L469.78125,102.6796875 Z M477.78125,101.6796875 L477.78125,101.6796875 L480.78125,101.6796875 L480.78125,102.6796875 L477.78125,102.6796875 Z M485.78125,101.6796875 L485.78125,101.6796875 L488.78125,101.6796875 L488.78125,102.6796875 L485.78125,102.6796875 Z M493.78125,101.6796875 L493.78125,101.6796875 L496.78125,101.6796875 L496.78125,102.6796875 L493.78125,102.6796875 Z M501.78125,101.6796875 L501.78125,101.6796875 L504.78125,101.6796875 L504.78125,102.6796875 L501.78125,102.6796875 Z M509.78125,101.6796875 L509.78125,101.6796875 L512.78125,101.6796875 L512.78125,102.6796875 L509.78125,102.6796875 Z M45.78125,101.6796875 L45.78125,101.6796875 L48.78125,101.6796875 L48.78125,102.6796875 L45.78125,102.6796875 Z" style="fill:none;stroke:rgb(210,210,210);stroke-miterlimit:10;stroke-linejoin:bevel;stroke-dasharray:3,5;"/>
    <path d="M53.78125,23.15625 L53.78125,23.15625 L56.78125,23.15625 L56.78125,24.15625 L53.78125,24.15625 Z M61.78125,23.15625 L61.78125,23.15625 L64.78125,23.15625 L64.78125,24.15625 L61.78125,24.15625 Z M69.78125,23.15625 L69.78125,23.15625 L72.78125,23.15625 L72.78125,24.15625 L69.78125,24.15625 Z M77.78125,23.15625 L77.78125,23.15625 L80.78125,23.15625 L80.78125,24.15625 L77.78125,24.15625 Z M85.78125,23.15625 L85.78125,23.15625 L88.78125,23.15625 L88.78125,24.15625 L85.78125,24.15625 Z M93.78125,23.15625 L93.78125,23.15625 L96.78125,23.15625 L96.78125,24.15625 L93.78125,24.15625 Z M101.78125,23.15625 L101.78125,23.15625 L104.78125,23.15625 L104.78125,24.15625 L101.78125,24.15625 Z M109.78125,23.15625 L109.78125,23.15625 L112.78125,23.15625 L112.78125,24.15625 L109.78125,24.15625 Z M117.78125,23.15625 L117.78125,23.15625 L120.78125,23.15625 L120.78125,24.15625 L117.78125,24.15625 Z M125.78125,23.15625 L125.78125,23.15625 L128.78125,23.15625 L128.78125,24.15625 L125.78125,24.15625 Z M133.78125,23.15625 L133.78125,23.15625 L136.78125,23.15625 L136.78125,24.15625 L133.78125,24.15625 Z M141.78125,23.15625 L141.78125,23.15625 L144.78125,23.15625 L144.78125,24.15625 L141.78125,24.15625 Z M149.78125,23.15625 L149.78125,23.15625 L152.78125,23.15625 L152.78125,24.15625 L149.78125,24.15625 Z M157.78125,23.15625 L157.78125,23.15625 L160.78125,23.15625 L160.78125,24.15625 L157.78125,24.15625 Z M165.78125,23.15625 L165.78125,23.15625 L168.78125,23.15625 L168.78125,24.15625 L165.78125,24.15625 Z M173.78125,23.15625 L173.78125,23.15625 L176.78125,23.15625 L176.78125,24.15625 L173.78125,24.15625 Z M181.78125,23.15625 L181.78125,23.15625 L184.78125,23.15625 L184.78125,24.15625 L181.78125,24.15625 Z M189.78125,23.15625 L189.78125,23.15625 L192.78125,23.15625 L192.78125,24.15625 L189.78125,24.15625 Z M197.78125,23.15625 L197.78125,23.15625 L200.78125,23.15625 L200.78125,24.15625 L197.78125,24.15625 Z M205.78125,23.15625 L205.78125,23.15625 L208.78125,23.15625 L208.78125,24.15625 L205.78125,24.15625 Z M213.78125,23.15625 L213.78125,23.15625 L216.78125,23.15625 L216.78125,24.15625 L213.78125,24.15625 Z M221.78125,23.15625 L221.78125,23.15625 L224.78125,23.15625 L224.78125,24.15625 L221.78125,24.15625 Z M229.78125,23.15625 L229.78125,23.15625 L232.78125,23.15625 L232.78125,24.15625 L229.78125,24.15625 Z M237.78125,23.15625 L237.78125,23.15625 L240.78125,23.15625 L240.78125,24.15625 L237.78125,24.15625 Z M245.78125,23.15625 L245.78125,23.15625 L248.78125,23.15625 L248.78125,24.15625 L245.78125,24.15625 Z M253.78125,23.15625 L253.78125,23.15625 L256.78125,23.15625 L256.78125,24.15625 L253.78125,24.15625 Z M261.78125,23.15625 L261.78125,23.15625 L264.78125,23.15625 L264.78125,24.15625 L261.78125,24.15625 Z M269.78125,23.15625 L269.78125,23.15625 L272.78125,23.15625 L272.78125,24.15625 L269.78125,24.15625 Z M277.78125,23.15625 L277.78125,23.15625 L280.78125,23.15625 L280.78125,24.15625 L277.78125,24.15625 Z M285.78125,23.15625 L285.78125,23.15625 L288.78125,23.15625 L288.78125,24.15625 L285.78125,24.15625 Z M293.78125,23.15625 L293.78125,23.15625 L296.78125,23.15625 L296.78125,24.15625 L293.78125,24.15625 Z M301.78125,23.15625 L301.78125,23.15625 L304.78125,23.15625 L304.78125,24.15625 L301.78125,24.15625 Z M309.78125,23.15625 L309.78125,23.15625 L312.78125,23.15625 L312.78125,24.15625 L309.78125,24.15625 Z M317.78125,23.15625 L317.78125,23.15625 L320.78125,23.15625 L320.78125,24.15625 L317.78125,24.15625 Z M325.78125,23.15625 L325.78125,23.15625 L328.78125,23.15625 L328.78125,24.15625 L325.78125,24.15625 Z M333.78125,23.15625 L333.78125,23.15625 L336.78125,23.15625 L336.78125,24.15625 L333.78125,24.15625 Z M341.78125,23.15625 L341.78125,23.15625 L344.78125,23.15625 L344.78125,24.15625 L341.78125,24.15625 Z M349.78125,23.15625 L349.78125,23.15625 L352.78125,23.15625 L352.78125,24.15625 L349.78125,24.15625 Z M357.78125,23.15625 L357.78125,23.15625 L360.78125,23.15625 L360.78125,24.15625 L357.78125,24.15625 Z M365.78125,23.15625 L365.78125,23.15625 L368.78125,23.15625 L368.78125,24.15625 L365.78125,24.15625 Z M373.78125,23.15625 L373.78125,23.15625 L376.78125,23.15625 L376.78125,24.15625 L373.78125,24.15625 Z M381.78125,23.15625 L381.78125,23.15625 L384.78125,23.15625 L384.78125,24.15625 L381.78125,24.15625 Z M389.78125,23.15625 L389.78125,23.15625 L392.78125,23.15625 L392.78125,24.15625 L389.78125,24.15625 Z M397.78125,23.15625 L397.78125,23.15625 L400.78125,23.15625 L400.78125,24.15625 L397.78125,24.15625 Z M405.78125,23.15625 L405.78125,23.15625 L408.78125,23.15625 L408.78125,24.15625 L405.78125,24.15625 Z M413.78125,23.15625 L413.78125,23.15625 L416.78125,23.15625 L416.78125,24.15625 L413.78125,24.15625 Z M421.78125,23.15625 L421.78125,23.15625 L424.78125,23.15625 L424.78125,24.15625 L421.78125,24.15625 Z M429.78125,23.15625 L429.78125,23.15625 L432.78125,23.15625 L432.78125,24.15625 L429.78125,24.15625 Z M437.78125,23.15625 L437.78125,23.15625 L440.78125,23.15625 L440.78125,24.15625 L437.78125,24.15625 Z M445.78125,23.15625 L445.78125,23.15625 L448.78125,23.15625 L448.78125,24.15625 L445.78125,24.15625 Z M453.78125,23.15625 L453.78125,23.15625 L456.78125,23.15625 L456.78125,24.15625 L453.78125,24.15625 Z M461.78125,23.15625 L461.78125,23.15625 L464.78125,23.15625 L464.78125,24.15625 L461.78125,24.15625 Z M469.78125,23.15625 L469.78125,23.15625 L472.78125,23.15625 L472.78125,24.15625 L469.78125,24.15625 Z M477.78125,23.15625 L477.78125,23.15625 L480.78125,23.15625 L480.78125,24.15625 L477.78125,24.15625 Z M485.78125,23.15625 L485.78125,23.15625 L488.78125,23.15625 L488.78125,24.15625 L485.78125,24.15625 Z M493.78125,23.15625 L493.78125,23.15625 L496.78125,23.15625 L496.78125,24.15625 L493.78125,24.15625 Z M501.78125,23.15625 L501.78125,23.15625 L504.78125,23.15625 L504.78125,24.15625 L501.78125,24.15625 Z M509.78125,23.15625 L509.78125,23.15625 L512.78125,23.15625 L512.78125,24.15625 L509.78125,24.15625 Z M45.78125,23.15625 L45.78125,23.15625 L48.78125,23.15625 L48.78125,24.15625 L45.78125,24.15625 Z" style="fill:none;stroke:rgb(210,210,210);stroke-miterlimit:10;stroke-linejoin:bevel;stroke-dasharray:3,5;"/>
    <path d="M100.88671874999999,18 L100.88671874999999,18 L100.88671874999999,21 L99.88671874999999,21 L99.88671874999999,18 Z M100.88671874999999,26 L100.88671874999999,26 L100.88671874999999,29 L99.88671874999999,29 L99.88671874999999,26 Z M100.88671874999999,34 L100.88671874999999,34 L100.88671874999999,37 L99.88671874999999,37 L99.88671874999999,34 Z M100.88671874999999,42 L100.88671874999999,42 L100.88671874999999,45 L99.88671874999999,45 L99.88671874999999,42 Z M100.88671874999999,50 L100.88671874999999,50 L100.88671874999999,53 L99.88671874999999,53 L99.88671874999999,50 Z M100.88671874999999,58 L100.88671874999999,58 L100.88671874999999,61 L99.88671874999999,61 L99.88671874999999,58 Z M100.88671874999999,66 L100.88671874999999,66 L100.88671874999999,69 L99.88671874999999,69 L99.88671874999999,66 Z M100.88671874999999,74 L100.88671874999999,74 L100.88671874999999,77 L99.88671874999999,77 L99.88671874999999,74 Z M100.88671874999999,82 L100.88671874999999,82 L100.88671874999999,85 L99.88671874999999,85 L99.88671874999999,82 Z M100.88671874999999,90 L100.88671874999999,90 L100.88671874999999,93 L99.88671874999999,93 L99.88671874999999,90 Z M100.88671874999999,98 L100.88671874999999,98 L100.88671874999999,101 L99.88671874999999,101 L99.88671874999999,98 Z M100.88671874999999,106 L100.88671874999999,106 L100.88671874999999,109 L99.88671874999999,109 L99.88671874999999,106 Z M100.88671874999999,114 L100.88671874999999,114 L100.88671874999999,117 L99.88671874999999,117 L99.88671874999999,114 Z M100.88671874999999,122 L100.88671874999999,122 L100.88671874999999,125 L99.88671874999999,125 L99.88671874999999,122 Z M100.88671874999999,130 L100.88671874999999,130 L100.88671874999999,133 L99.88671874999999,133 L99.88671874999999,130 Z M100.88671874999999,138 L100.88671874999999,138 L100.88671874999999,141 L99.88671874999999,141 L99.88671874999999,138 Z M100.88671874999999,146 L100.88671874999999,146 L100.88671874999999,149 L99.88671874999999,149 L99.88671874999999,146 Z M100.88671874999999,154 L100.88671874999999,154 L100.88671874999999,157 L99.88671874999999,157 L99.88671874999999,154 Z M100.88671874999999,162 L100.88671874999999,162 L100.88671874999999,165 L99.88671874999999,165 L99.88671874999999,162 Z M100.88671874999999,170 L100.88671874999999,170 L100.88671874999999,173 L99.88671874999999,173 L99.88671874999999,170 Z M100.88671874999999,178 L100.88671874999999,178 L100.88671874999999,181 L99.88671874999999,181 L99.88671874999999,178 Z M100.88671874999999,186 L100.88671874999999,186 L100.88671874999999,189 L99.88671874999999,189 L99.88671874999999,186 Z M100.88671874999999,194 L100.88671874999999,194 L100.88671874999999,197 L99.88671874999999,197 L99.88671874999999,194 Z M100.88671874999999,202 L100.88671874999999,202 L100.88671874999999,205 L99.88671874999999,205 L99.88671874999999,202 Z M100.88671874999999,210 L100.88671874999999,210 L100.88671874999999,213 L99.88671874999999,213 L99.88671874999999,210 Z M100.88671874999999,218 L100.88671874999999,218 L100.88671874999999,221 L99.88671874999999,221 L99.88671874999999,218 Z M100.88671874999999,226 L100.88671874999999,226 L100.88671874999999,229 L99.88671874999999,229 L99.88671874999999,226 Z M100.88671874999999,234 L100.88671874999999,234 L100.88671874999999,237 L99.88671874999999,237 L99.88671874999999,234 Z M100.88671874999999,242 L100.88671874999999,242 L100.88671874999999,245 L99.88671874999999,245 L99.88671874999999,242 Z M100.88671874999999,250 L100.88671874999999,250 L100.88671874999999,253 L99.88671874999999,253 L99.88671874999999,250 Z M100.88671874999999,258 L100.88671874999999,258 L100.88671874999999,261 L99.88671874999999,261 L99.88671874999999,258 Z M100.88671874999999,266 L100.88671874999999,266 L100.88671874999999,269 L99.88671874999999,269 L99.88671874999999,266 Z M100.88671874999999,274 L100.88671874999999,274 L100.88671874999999,277 L99.88671874999999,277 L99.88671874999999,274 Z M100.88671874999999,282 L100.88671874999999,282 L100.88671874999999,285 L99.88671874999999,285 L99.88671874999999,282 Z M100.88671874999999,290 L100.88671874999999,290 L100.88671874999999,293 L99.88671874999999,293 L99.88671874999999,290 Z M100.88671874999999,298 L100.88671874999999,298 L100.88671874999999,301 L99.88671874999999,301 L99.88671874999999,298 Z M100.88671874999999,306 L100.88671874999999,306 L100.88671874999999,309 L99.88671874999999,309 L99.88671874999999,306 Z M100.88671874999999,314 L100.88671874999999,314 L100.88671874999999,317 L99.88671874999999,317 L99.88671874999999,314 Z M100.88671874999999,322 L100.88671874999999,322 L100.88671874999999,325 L99.88671874999999,325 L99.88671874999999,322 Z M100.88671874999999,330 L100.88671874999999,330 L100.88671874999999,333 L99.88671874999999,333 L99.88671874999999,330 Z M100.88671874999999,338 L100.88671874999999,338 L100.88671874999999,341 L99.88671874999999,341 L99.88671874999999,338 Z M100.88671874999999,346 L100.88671874999999,346 L100.88671874999999,349 L99.88671874999999,349 L99.88671874999999,346 Z M100.88671874999999,10 L100.88671874999999,10 L100.88671874999999,13 L99.88671874999999,13 L99.88671874999999,10 Z" style="fill:none;stroke:rgb(210,210,210);stroke-miterlimit:10;stroke-linejoin:bevel;stroke-dasharray:3,5;"/>
    <path d="M172.65390624999998,18 L172.65390624999998,18 L172.65390624999998,21 L171.65390624999998,21 L171.65390624999998,18 Z M172.65390624999998,26 L172.65390624999998,26 L172.65390624999998,29 L171.65390624999998,29 L171.65390624999998,26 Z M172.65390624999998,34 L172.65390624999998,34 L172.65390624999998,37 L171.65390624999998,37 L171.65390624999998,34 Z M172.65390624999998,42 L172.65390624999998,42 L172.65390624999998,45 L171.65390624999998,45 L171.65390624999998,42 Z M172.65390624999998,50 L172.65390624999998,50 L172.65390624999998,53 L171.65390624999998,53 L171.65390624999998,50 Z M172.65390624999998,58 L172.65390624999998,58 L172.65390624999998,61 L171.65390624999998,61 L171.65390624999998,58 Z M172.65390624999998,66 L172.65390624999998,66 L172.65390624999998,69 L171.65390624999998,69 L171.65390624999998,66 Z M172.65390624999998,74 L172.65390624999998,74 L172.65390624999998,77 L171.65390624999998,77 L171.65390624999998,74 Z M172.65390624999998,82 L172.65390624999998,82 L172.65390624999998,85 L171.65390624999998,85 L171.65390624999998,82 Z M172.65390624999998,90 L172.65390624999998,90 L172.65390624999998,93 L171.65390624999998,93 L171.65390624999998,90 Z M172.65390624999998,98 L172.65390624999998,98 L172.65390624999998,101 L171.65390624999998,101 L171.65390624999998,98 Z M172.65390624999998,106 L172.65390624999998,106 L172.65390624999998,109 L171.65390624999998,109 L171.65390624999998,106 Z M172.65390624999998,114 L172.65390624999998,114 L172.65390624999998,117 L171.65390624999998,117 L171.65390624999998,114 Z M172.65390624999998,122 L172.65390624999998,122 L172.65390624999998,125 L171.65390624999998,125 L171.65390624999998,122 Z M172.65390624999998,130 L172.65390624999998,130 L172.65390624999998,133 L171.65390624999998,133 L171.65390624999998,130 Z M172.65390624999998,138 L172.65390624999998,138 L172.65390624999998,141 L171.65390624999998,141 L171.65390624999998,138 Z M172.65390624999998,146 L172.65390624999998,146 L172.65390624999998,149 L171.65390624999998,149 L171.65390624999998,146 Z M172.65390624999998,154 L172.65390624999998,154 L172.65390624999998,157 L171.65390624999998,157 L171.65390624999998,154 Z M172.65390624999998,162 L172.65390624999998,162 L172.65390624999998,165 L171.65390624999998,165 L171.65390624999998,162 Z M172.65390624999998,170 L172.65390624999998,170 L172.65390624999998,173 L171.65390624999998,173 L171.65390624999998,170 Z M172.65390624999998,178 L172.65390624999998,178 L172.65390624999998,181 L171.65390624999998,181 L171.65390624999998,178 Z M172.65390624999998,186 L172.65390624999998,186 L172.65390624999998,189 L171.65390624999998,189 L171.65390624999998,186 Z M172.65390624999998,194 L172.65390624999998,194 L172.65390624999998,197 L171.65390624999998,197 L171.65390624999998,194 Z M172.65390624999998,202 L172.65390624999998,202 L172.65390624999998,205 L171.65390624999998,205 L171.65390624999998,202 Z M172.65390624999998,210 L172.65390624999998,210 L172.65390624999998,213 L171.65390624999998,213 L171.65390624999998,210 Z M172.65390624999998,218 L172.65390624999998,218 L172.65390624999998,221 L171.65390624999998,221 L171.65390624999998,218 Z M172.65390624999998,226 L172.65390624999998,226 L172.65390624999998,229 L171.65390624999998,229 L171.65390624999998,226 Z M172.65390624999998,234 L172.65390624999998,234 L172.65390624999998,237 L171.65390624999998,237 L171.65390624999998,234 Z M172.65390624999998,242 L172.65390624999998,242 L172.65390624999998,245 L171.65390624999998,245 L171.65390624999998,242 Z M172.65390624999998,250 L172.65390624999998,250 L172.65390624999998,253 L171.65390624999998,253 L171.65390624999998,250 Z M172.65390624999998,258 L172.65390624999998,258 L172.65390624999998,261 L171.65390624999998,261 L171.65390624999998,258 Z M172.65390624999998,266 L172.65390624999998,266 L172.65390624999998,269 L171.65390624999998,269 L171.65390624999998,266 Z M172.65390624999998,274 L172.65390624999998,274 L172.65390624999998,277 L171.65390624999998,277 L171.65390624999998,274 Z M172.65390624999998,282 L172.65390624999998,282 L172.65390624999998,285 L171.65390624999998,285 L171.65390624999998,282 Z M172.65390624999998,290 L172.65390624999998,290 L172.65390624999998,293 L171.65390624999998,293 L171.65390624999998,290 Z M172.65390624999998,298 L172.65390624999998,298 L172.65390624999998,301 L171.65390624999998,301 L171.65390624999998,298 Z M172.65390624999998,306 L172.65390624999998,306 L172.65390624999998,309 L171.65390624999998,309 L171.65390624999998,306 Z M172.65390624999998,314 L172.65390624999998,314 L172.65390624999998,317 L171.65390624999998,317 L171.65390624999998,314 Z M172.65390624999998,322 L172.65390624999998,322 L172.65390624999998,325 L171.65390624999998,325 L171.65390624999998,322 Z M172.65390624999998,330 L172.65390624999998,330 L172.65390624999998,333 L171.65390624999998,333 L171.65390624999998,330 Z M172.65390624999998,338 L172.65390624999998,338 L172.65390624999998,341 L171.65390624999998,341 L171.65390624999998,338 Z M172.65390624999998,346 L172.65390624999998,346 L172.65390624999998,349 L171.65390624999998,349 L171.65390624999998,346 Z M172.65390624999998,10 L172.65390624999998,10 L172.65390624999998,13 L171.65390624999998,13 L171.65390624999998,10 Z" style="fill:none;stroke:rgb(210,210,210);stroke-miterlimit:10;stroke-linejoin:bevel;stroke-dasharray:3,5;"/>
    <path d="M244.42109375,18 L244.42109375,18 L244.42109375,21 L243.42109375,21 L243.42109375,18 Z M244.42109375,26 L244.42109375,26 L244.42109375,29 L243.42109375,29 L243.42109375,26 Z M244.42109375,34 L244.42109375,34 L244.42109375,37 L243.42109375,37 L243.42109375,34 Z M244.42109375,42 L244.42109375,42 L244.42109375,45 L243.42109375,45 L243.42109375,42 Z M244.42109375,50 L244.42109375,50 L244.42109375,53 L243.42109375,53 L243.42109375,50 Z M244.42109375,58 L244.42109375,58 L244.42109375,61 L243.42109375,61 L243.42109375,58 Z M244.42109375,66 L244.42109375,66 L244.42109375,69 L243.42109375,69 L243.42109375,66 Z M244.42109375,74 L244.42109375,74 L244.42109375,77 L243.42109375,77 L243.42109375,74 Z M244.42109375,82 L244.42109375,82 L244.42109375,85 L243.42109375,85 L243.42109375,82 Z M244.42109375,90 L244.42109375,90 L244.42109375,93 L243.42109375,93 L243.42109375,90 Z M244.42109375,98 L244.42109375,98 L244.42109375,101 L243.42109375,101 L243.42109375,98 Z M244.42109375,106 L244.42109375,106 L244.42109375,109 L243.42109375,109 L243.42109375,106 Z M244.42109375,114 L244.42109375,114 L244.42109375,117 L243.42109375,117 L243.42109375,114 Z M244.42109375,122 L244.42109375,122 L244.42109375,125 L243.42109375,125 L243.42109375,122 Z M244.42109375,130 L244.42109375,130 L244.42109375,133 L243.42109375,133 L243.42109375,130 Z M244.42109375,138 L244.42109375,138 L244.42109375,141 L243.42109375,141 L243.42109375,138 Z M244.42109375,146 L244.42109375,146 L244.42109375,149 L243.42109375,149 L243.42109375,146 Z M244.42109375,154 L244.42109375,154 L244.42109375,157 L243.42109375,157 L243.42109375,154 Z M244.42109375,162 L244.42109375,162 L244.42109375,165 L243.42109375,165 L243.42109375,162 Z M244.42109375,170 L244.42109375,170 L244.42109375,173 L243.42109375,173 L243.42109375,170 Z M244.42109375,178 L244.42109375,178 L244.42109375,181 L243.42109375,181 L243.42109375,178 Z M244.42109375,186 L244.42109375,186 L244.42109375,189 L243.42109375,189 L243.42109375,186 Z M244.42109375,194 L244.42109375,194 L244.42109375,197 L243.42109375,197 L243.42109375,194 Z M244.42109375,202 L244.42109375,202 L244.42109375,205 L243.42109375,205 L243.42109375,202 Z M244.42109375,210 L244.42109375,210 L244.42109375,213 L243.42109375,213 L243.42109375,210 Z M244.42109375,218 L244.42109375,218 L244.42109375,221 L243.42109375,221 L243.42109375,218 Z M244.42109375,226 L244.42109375,226 L244.42109375,229 L243.42109375,229 L243.42109375,226 Z M244.42109375,234 L244.42109375,234 L244.42109375,237 L243.42109375,237 L243.42109375,234 Z M244.42109375,242 L244.42109375,242 L244.42109375,245 L243.42109375,245 L243.42109375,242 Z M244.42109375,250 L244.42109375,250 L244.42109375,253 L243.42109375,253 L243.42109375,250 Z M244.42109375,258 L244.42109375,258 L244.42109375,261 L243.42109375,261 L243.42109375,258 Z M244.42109375,266 L244.42109375,266 L244.42109375,269 L243.42109375,269 L243.42109375,266 Z M244.42109375,274 L244.42109375,274 L244.42109375,277 L243.42109375,277 L243.42109375,274 Z M244.42109375,282 L244.42109375,282 L244.42109375,285 L243.42109375,285 L243.42109375,282 Z M244.42109375,290 L244.42109375,290 L244.42109375,293 L243.42109375,293 L243.42109375,290 Z M244.42109375,298 L244.42109375,298 L244.42109375,301 L243.42109375,301 L243.42109375,298 Z M244.42109375,306 L244.42109375,306 L244.42109375,309 L243.42109375,309 L243.42109375,306 Z M244.42109375,314 L244.42109375,314 L244.42109375,317 L243.42109375,317 L243.42109375,314 Z M244.42109375,322 L244.42109375,322 L244.42109375,325 L243.42109375,325 L243.42109375,322 Z M244.42109375,330 L244.42109375,330 L244.42109375,333 L243.42109375,333 L243.42109375,330 Z M244.42109375,338 L244.42109375,338 L244.42109375,341 L243.42109375,341 L243.42109375,338 Z M244.42109375,346 L244.42109375,346 L244.42109375,349 L243.42109375,349 L243.42109375,346 Z M244.42109375,10 L244.42109375,10 L244.42109375,13 L243.42109375,13 L243.42109375,10 Z" style="fill:none;stroke:rgb(210,210,210);stroke-miterlimit:10;stroke-linejoin:bevel;stroke-dasharray:3,5;"/>
    <path d="M316.18828125,18 L316.18828125,18 L316.18828125,21 L315.18828125,21 L315.18828125,18 Z M316.18828125,26 L316.18828125,26 L316.18828125,29 L315.18828125,29 L315.18828125,26 Z M316.18828125,34 L316.18828125,34 L316.18828125,37 L315.18828125,37 L315.18828125,34 Z M316.18828125,42 L316.18828125,42 L316.18828125,45 L315.18828125,45 L315.18828125,42 Z M316.18828125,50 L316.18828125,50 L316.18828125,53 L315.18828125,53 L315.18828125,50 Z M316.18828125,58 L316.18828125,58 L316.18828125,61 L315.18828125,61 L315.18828125,58 Z M316.18828125,66 L316.18828125,66 L316.18828125,69 L315.18828125,69 L315.18828125,66 Z M316.18828125,74 L316.18828125,74 L316.18828125,77 L315.18828125,77 L315.18828125,74 Z M316.18828125,82 L316.18828125,82 L316.18828125,85 L315.18828125,85 L315.18828125,82 Z M316.18828125,90 L316.18828125,90 L316.18828125,93 L315.18828125,93 L315.18828125,90 Z M316.18828125,98 L316.18828125,98 L316.18828125,101 L315.18828125,101 L315.18828125,98 Z M316.18828125,106 L316.18828125,106 L316.18828125,109 L315.18828125,109 L315.18828125,106 Z M316.18828125,114 L316.18828125,114 L316.18828125,117 L315.18828125,117 L315.18828125,114 Z M316.18828125,122 L316.18828125,122 L316.18828125,125 L315.18828125,125 L315.18828125,122 Z M316.18828125,130 L316.18828125,130 L316.18828125,133 L315.18828125,133 L315.18828125,130 Z M316.18828125,138 L316.18828125,138 L316.18828125,141 L315.18828125,141 L315.18828125,138 Z M316.18828125,146 L316.18828125,146 L316.18828125,149 L315.18828125,149 L315.18828125,146 Z M316.18828125,154 L316.18828125,154 L316.18828125,157 L315.18828125,157 L315.18828125,154 Z M316.18828125,162 L316.18828125,162 L316.18828125,165 L315.18828125,165 L315.18828125,162 Z M316.18828125,170 L316.18828125,170 L316.18828125,173 L315.18828125,173 L315.18828125,170 Z M316.18828125,178 L316.18828125,178 L316.18828125,181 L315.18828125,181 L315.18828125,178 Z M316.18828125,186 L316.18828125,186 L316.18828125,189 L315.18828125,189 L315.18828125,186 Z M316.18828125,194 L316.18828125,194 L316.18828125,197 L315.18828125,197 L315.18828125,194 Z M316.18828125,202 L316.18828125,202 L316.18828125,205 L315.18828125,205 L315.18828125,202 Z M316.18828125,210 L316.18828125,210 L316.18828125,213 L315.18828125,213 L315.18828125,210 Z M316.18828125,218 L316.18828125,218 L316.18828125,221 L315.18828125,221 L315.18828125,218 Z M316.18828125,226 L316.18828125,226 L316.18828125,229 L315.18828125,229 L315.18828125,226 Z M316.18828125,234 L316.18828125,234 L316.18828125,237 L315.18828125,237 L315.18828125,234 Z M316.18828125,242 L316.18828125,242 L316.18828125,245 L315.18828125,245 L315.18828125,242 Z M316.18828125,250 L316.18828125,250 L316.18828125,253 L315.18828125,253 L315.18828125,250 Z M316.18828125,258 L316.18828125,258 L316.18828125,261 L315.18828125,261 L315.18828125,258 Z M316.18828125,266 L316.18828125,266 L316.18828125,269 L315.18828125,269 L315.18828125,266 Z M316.18828125,274 L316.18828125,274 L316.18828125,277 L315.18828125,277 L315.18828125,274 Z M316.18828125,282 L316.18828125,282 L316.18828125,285 L315.18828125,285 L315.18828125,282 Z M316.18828125,290 L316.18828125,290 L316.18828125,293 L315.18828125,293 L315.18828125,290 Z M316.18828125,298 L316.18828125,298 L316.18828125,301 L315.18828125,301 L315.18828125,298 Z M316.18828125,306 L316.18828125,306 L316.18828125,309 L315.18828125,309 L315.18828125,306 Z M316.18828125,314 L316.18828125,314 L316.18828125,317 L315.18828125,317 L315.18828125,314 Z M316.18828125,322 L316.18828125,322 L316.18828125,325 L315.18828125,325 L315.18828125,322 Z M316.18828125,330 L316.18828125,330 L316.18828125,333 L315.18828125,333 L315.18828125,330 Z M316.18828125,338 L316.18828125,338 L316.18828125,341 L315.18828125,341 L315.18828125,338 Z M316.18828125,346 L316.18828125,346 L316.18828125,349 L315.18828125,349 L315.18828125,346 Z M316.18828125,10 L316.18828125,10 L316.18828125,13 L315.18828125,13 L315.18828125,10 Z" style="fill:none;stroke:rgb(210,210,210);stroke-miterlimit:10;stroke-linejoin:bevel;stroke-dasharray:3,5;"/>
    <path d="M387.95546875,18 L387.95546875,18 L387.95546875,21 L386.95546875,21 L386.95546875,18 Z M387.95546875,26 L387.95546875,26 L387.95546875,29 L386.95546875,29 L386.95546875,26 Z M387.95546875,34 L387.95546875,34 L387.95546875,37 L386.95546875,37 L386.95546875,34 Z M387.95546875,42 L387.95546875,42 L387.95546875,45 L386.95546875,45 L386.95546875,42 Z M387.95546875,50 L387.95546875,50 L387.95546875,53 L386.95546875,53 L386.95546875,50 Z M387.95546875,58 L387.95546875,58 L387.95546875,61 L386.95546875,61 L386.95546875,58 Z M387.95546875,66 L387.95546875,66 L387.95546875,69 L386.95546875,69 L386.95546875,66 Z M387.95546875,74 L387.95546875,74 L387.95546875,77 L386.95546875,77 L386.95546875,74 Z M387.95546875,82 L387.95546875,82 L387.95546875,85 L386.95546875,85 L386.95546875,82 Z M387.95546875,90 L387.95546875,90 L387.95546875,93 L386.95546875,93 L386.95546875,90 Z M387.95546875,98 L387.95546875,98 L387.95546875,101 L386.95546875,101 L386.95546875,98 Z M387.95546875,106 L387.95546875,106 L387.95546875,109 L386.95546875,109 L386.95546875,106 Z M387.95546875,114 L387.95546875,114 L387.95546875,117 L386.95546875,117 L386.95546875,114 Z M387.95546875,122 L387.95546875,122 L387.95546875,125 L386.95546875,125 L386.95546875,122 Z M387.95546875,130 L387.95546875,130 L387.95546875,133 L386.95546875,133 L386.95546875,130 Z M387.95546875,138 L387.95546875,138 L387.95546875,141 L386.95546875,141 L386.95546875,138 Z M387.95546875,146 L387.95546875,146 L387.95546875,149 L386.95546875,149 L386.95546875,146 Z M387.95546875,154 L387.95546875,154 L387.95546875,157 L386.95546875,157 L386.95546875,154 Z M387.95546875,162 L387.95546875,162 L387.95546875,165 L386.95546875,165 L386.95546875,162 Z M387.95546875,170 L387.95546875,170 L387.95546875,173 L386.95546875,173 L386.95546875,170 Z M387.95546875,178 L387.95546875,178 L387.95546875,181 L386.95546875,181 L386.95546875,178 Z M387.95546875,186 L387.95546875,186 L387.95546875,189 L386.95546875,189 L386.95546875,186 Z M387.95546875,194 L387.95546875,194 L387.95546875,197 L386.95546875,197 L386.95546875,194 Z M387.95546875,202 L387.95546875,202 L387.95546875,205 L386.95546875,205 L386.95546875,202 Z M387.95546875,210 L387.95546875,210 L387.95546875,213 L386.95546875,213 L386.95546875,210 Z M387.95546875,218 L387.95546875,218 L387.95546875,221 L386.95546875,221 L386.95546875,218 Z M387.95546875,226 L387.95546875,226 L387.95546875,229 L386.95546875,229 L386.95546875,226 Z M387.95546875,234 L387.95546875,234 L387.95546875,237 L386.95546875,237 L386.95546875,234 Z M387.95546875,242 L387.95546875,242 L387.95546875,245 L386.95546875,245 L386.95546875,242 Z M387.95546875,250 L387.95546875,250 L387.95546875,253 L386.95546875,253 L386.95546875,250 Z M387.95546875,258 L387.95546875,258 L387.95546875,261 L386.95546875,261 L386.95546875,258 Z M387.95546875,266 L387.95546875,266 L387.95546875,269 L386.95546875,269 L386.95546875,266 Z M387.95546875,274 L387.95546875,274 L387.95546875,277 L386.95546875,277 L386.95546875,274 Z M387.95546875,282 L387.95546875,282 L387.95546875,285 L386.95546875,285 L386.95546875,282 Z M387.95546875,290 L387.95546875,290 L387.95546875,293 L386.95546875,293 L386.95546875,290 Z M387.95546875,298 L387.95546875,298 L387.95546875,301 L386.95546875,301 L386.95546875,298 Z M387.95546875,306 L387.95546875,306 L387.95546875,309 L386.95546875,309 L386.95546875,306 Z M387.95546875,314 L387.95546875,314 L387.95546875,317 L386.95546875,317 L386.95546875,314 Z M387.95546875,322 L387.95546875,322 L387.95546875,325 L386.95546875,325 L386.95546875,322 Z M387.95546875,330 L387.95546875,330 L387.95546875,333 L386.95546875,333 L386.95546875,330 Z M387.95546875,338 L387.95546875,338 L387.95546875,341 L386.95546875,341 L386.95546875,338 Z M387.95546875,346 L387.95546875,346 L387.95546875,349 L386.95546875,349 L386.95546875,346 Z M387.95546875,10 L387.95546875,10 L387.95546875,13 L386.95546875,13 L386.95546875,10 Z" style="fill:none;stroke:rgb(210,210,210);stroke-miterlimit:10;stroke-linejoin:bevel;stroke-dasharray:3,5;"/>
    <path d="M459.72265625,18 L459.72265625,18 L459.72265625,21 L458.72265625,21 L458.72265625,18 Z M459.72265625,26 L459.72265625,26 L459.72265625,29 L458.72265625,29 L458.72265625,26 Z M459.72265625,34 L459.72265625,34 L459.72265625,37 L458.72265625,37 L458.72265625,34 Z M459.72265625,42 L459.72265625,42 L459.72265625,45 L458.72265625,45 L458.72265625,42 Z M459.72265625,50 L459.72265625,50 L459.72265625,53 L458.72265625,53 L458.72265625,50 Z M459.72265625,58 L459.72265625,58 L459.72265625,61 L458.72265625,61 L458.72265625,58 Z M459.72265625,66 L459.72265625,66 L459.72265625,69 L458.72265625,69 L458.72265625,66 Z M459.72265625,74 L459.72265625,74 L459.72265625,77 L458.72265625,77 L458.72265625,74 Z M459.72265625,82 L459.72265625,82 L459.72265625,85 L458.72265625,85 L458.72265625,82 Z M459.72265625,90 L459.72265625,90 L459.72265625,93 L458.72265625,93 L458.72265625,90 Z M459.72265625,98 L459.72265625,98 L459.72265625,101 L458.72265625,101 L458.72265625,98 Z M459.72265625,106 L459.72265625,106 L459.72265625,109 L458.72265625,109 L458.72265625,106 Z M459.72265625,114 L459.72265625,114 L459.72265625,117 L458.72265625,117 L458.72265625,114 Z M459.72265625,122 L459.72265625,122 L459.72265625,125 L458.72265625,125 L458.72265625,122 Z M459.72265625,130 L459.72265625,130 L459.72265625,133 L458.72265625,133 L458.72265625,130 Z M459.72265625,138 L459.72265625,138 L459.72265625,141 L458.72265625,141 L458.72265625,138 Z M459.72265625,146 L459.72265625,146 L459.72265625,149 L458.72265625,149 L458.72265625,146 Z M459.72265625,154 L459.72265625,154 L459.72265625,157 L458.72265625,157 L458.72265625,154 Z M459.72265625,162 L459.72265625,162 L459.72265625,165 L458.72265625,165 L458.72265625,162 Z M459.72265625,170 L459.72265625,170 L459.72265625,173 L458.72265625,173 L458.72265625,170 Z M459.72265625,178 L459.72265625,178 L459.72265625,181 L458.72265625,181 L458.72265625,178 Z M459.72265625,186 L459.72265625,186 L459.72265625,189 L458.72265625,189 L458.72265625,186 Z M459.72265625,194 L459.72265625,194 L459.72265625,197 L458.72265625,197 L458.72265625,194 Z M459.72265625,202 L459.72265625,202 L459.72265625,205 L458.72265625,205 L458.72265625,202 Z M459.72265625,210 L459.72265625,210 L459.72265625,213 L458.72265625,213 L458.72265625,210 Z M459.72265625,218 L459.72265625,218 L459.72265625,221 L458.72265625,221 L458.72265625,218 Z M459.72265625,226 L459.72265625,226 L459.72265625,229 L458.72265625,229 L458.72265625,226 Z M459.72265625,234 L459.72265625,234 L459.72265625,237 L458.72265625,237 L458.72265625,234 Z M459.72265625,242 L459.72265625,242 L459.72265625,245 L458.72265625,245 L458.72265625,242 Z M459.72265625,250 L459.72265625,250 L459.72265625,253 L458.72265625,253 L458.72265625,250 Z M459.72265625,258 L459.72265625,258 L459.72265625,261 L458.72265625,261 L458.72265625,258 Z M459.72265625,266 L459.72265625,266 L459.72265625,269 L458.72265625,269 L458.72265625,266 Z M459.72265625,274 L459.72265625,274 L459.72265625,277 L458.72265625,277 L458.72265625,274 Z M459.72265625,282 L459.72265625,282 L459.72265625,285 L458.72265625,285 L458.72265625,282 Z M459.72265625,290 L459.72265625,290 L459.72265625,293 L458.72265625,293 L458.72265625,290 Z M459.72265625,298 L459.72265625,298 L459.72265625,301 L458.72265625,301 L458.72265625,298 Z M459.72265625,306 L459.72265625,306 L459.72265625,309 L458.72265625,309 L458.72265625,306 Z M459.72265625,314 L459.72265625,314 L459.72265625,317 L458.72265625,317 L458.72265625,314 Z M459.72265625,322 L459.72265625,322 L459.72265625,325 L458.72265625,325 L458.72265625,322 Z M459.72265625,330 L459.72265625,330 L459.72265625,333 L458.72265625,333 L458.72265625,330 Z M459.72265625,338 L459.72265625,338 L459.72265625,341 L458.72265625,341 L458.72265625,338 Z M459.72265625,346 L459.72265625,346 L459.72265625,349 L458.72265625,349 L458.72265625,346 Z M459.72265625,10 L459.72265625,10 L459.72265625,13 L458.72265625,13 L458.72265625,10 Z" style="fill:none;stroke:rgb(210,210,210);stroke-miterlimit:10;stroke-linejoin:bevel;stroke-dasharray:3,5;"/>
    <rect height="341.40625" style="fill:none;stroke:rgb(130,130,130);stroke-miterlimit:10;stroke-linejoin:bevel;stroke-dasharray:3,0;" width="468.046875" x="45.78125" y="10"/>
  </g>
  <g clip-path="url(#clip806331840)">
    <path d="M68.09148437499998,259.2265625 L81.00957812499998,259.2265625 L81.00957812499998,337.75 L68.09148437499998,337.75 Z" style="fill:rgb(0,55,255);fill-opacity:0.705882352941177;stroke:none;"/>
    <path d="M139.858671875,180.703125 L152.776765625,180.703125 L152.776765625,337.75 L139.858671875,337.75 Z" style="fill:rgb(0,55,255);fill-opacity:0.705882352941177;stroke:none;"/>
    <path d="M211.625859375,180.703125 L224.543953125,180.703125 L224.543953125,337.75 L211.625859375,337.75 Z" style="fill:rgb(0,55,255);fill-opacity:0.705882352941177;stroke:none;"/>
    <path d="M283.393046875,180.703125 L296.311140625,180.703125 L296.311140625,337.75 L283.393046875,337.75 Z" style="fill:rgb(0,55,255);fill-opacity:0.705882352941177;stroke:none;"/>
    <path d="M355.16023437499996,180.703125 L368.078328125,180.703125 L368.078328125,337.75 L355.16023437499996,337.75 Z" style="fill:rgb(0,55,255);fill-opacity:0.705882352941177;stroke:none;"/>
    <path d="M426.92742187499994,102.1796875 L439.84551562499996,102.1796875 L439.84551562499996,337.75 L426.92742187499994,337.75 Z" style="fill:rgb(0,55,255);fill-opacity:0.705882352941177;stroke:none;"/>
    <path d="M81.00957812499998,180.703125 L93.92767187499997,180.703125 L93.92767187499997,337.75 L81.00957812499998,337.75 Z" style="fill:rgb(255,172,0);fill-opacity:0.705882352941177;stroke:none;"/>
    <path d="M152.776765625,23.65625 L165.694859375,23.65625 L165.694859375,337.75 L152.776765625,337.75 Z" style="fill:rgb(255,172,0);fill-opacity:0.705882352941177;stroke:none;"/>
    <path d="M224.543953125,23.65625 L237.462046875,23.65625 L237.462046875,337.75 L224.543953125,337.75 Z" style="fill:rgb(255,172,0);fill-opacity:0.705882352941177;stroke:none;"/>
    <path d="M296.311140625,180.703125 L309.22923437500003,180.703125 L309.22923437500003,337.75 L296.311140625,337.75 Z" style="fill:rgb(255,172,0);fill-opacity:0.705882352941177;stroke:none;"/>
    <path d="M368.078328125,337.75 L380.996421875,337.75 L380.996421875,337.75 L368.078328125,337.75 Z" style="fill:rgb(255,172,0);fill-opacity:0.705882352941177;stroke:none;"/>
    <path d="M439.84551562499996,337.75 L452.763609375,337.75 L452.763609375,337.75 L439.84551562499996,337.75 Z" style="fill:rgb(255,172,0);fill-opacity:0.705882352941177;stroke:none;"/>
    <path d="M93.92767187499999,337.75 L106.84576562499998,337.75 L106.84576562499998,337.75 L93.92767187499999,337.75 Z" style="fill:rgb(128,0,255);fill-opacity:0.705882352941177;stroke:none;"/>
    <path d="M165.694859375,23.65625 L178.612953125,23.65625 L178.612953125,337.75 L165.694859375,337.75 Z" style="fill:rgb(128,0,255);fill-opacity:0.705882352941177;stroke:none;"/>
    <path d="M237.462046875,23.65625 L250.380140625,23.65625 L250.380140625,337.75 L237.462046875,337.75 Z" style="fill:rgb(128,0,255);fill-opacity:0.705882352941177;stroke:none;"/>
    <path d="M309.229234375,23.65625 L322.147328125,23.65625 L322.147328125,337.75 L309.229234375,337.75 Z" style="fill:rgb(128,0,255);fill-opacity:0.705882352941177;stroke:none;"/>
    <path d="M380.99642187499995,337.75 L393.914515625,337.75 L393.914515625,337.75 L380.99642187499995,337.75 Z" style="fill:rgb(128,0,255);fill-opacity:0.705882352941177;stroke:none;"/>
    <path d="M452.76360937499993,337.75 L465.68170312499996,337.75 L465.68170312499996,337.75 L452.76360937499993,337.75 Z" style="fill:rgb(128,0,255);fill-opacity:0.705882352941177;stroke:none;"/>
    <path d="M106.84576562499998,337.75 L119.76385937499998,337.75 L119.76385937499998,337.75 L106.84576562499998,337.75 Z" style="fill:rgb(0,205,0);fill-opacity:0.705882352941177;stroke:none;"/>
    <path d="M178.61295312500002,180.703125 L191.53104687500002,180.703125 L191.53104687500002,337.75 L178.61295312500002,337.75 Z" style="fill:rgb(0,205,0);fill-opacity:0.705882352941177;stroke:none;"/>
    <path d="M250.380140625,23.65625 L263.298234375,23.65625 L263.298234375,337.75 L250.380140625,337.75 Z" style="fill:rgb(0,205,0);fill-opacity:0.705882352941177;stroke:none;"/>
    <path d="M322.147328125,23.65625 L335.065421875,23.65625 L335.065421875,337.75 L322.147328125,337.75 Z" style="fill:rgb(0,205,0);fill-opacity:0.705882352941177;stroke:none;"/>
    <path d="M393.914515625,180.703125 L406.832609375,180.703125 L406.832609375,337.75 L393.914515625,337.75 Z" style="fill:rgb(0,205,0);fill-opacity:0.705882352941177;stroke:none;"/>
    <path d="M465.68170312499996,337.75 L478.599796875,337.75 L478.599796875,337.75 L465.68170312499996,337.75 Z" style="fill:rgb(0,205,0);fill-opacity:0.705882352941177;stroke:none;"/>
    <path d="M119.763859375,337.75 L132.681953125,337.75 L132.681953125,337.75 L119.763859375,337.75 Z" style="fill:rgb(205,0,0);fill-opacity:0.705882352941177;stroke:none;"/>
    <path d="M191.53104687500002,337.75 L204.449140625,337.75 L204.449140625,337.75 L191.53104687500002,337.75 Z" style="fill:rgb(205,0,0);fill-opacity:0.705882352941177;stroke:none;"/>
    <path d="M263.298234375,23.65625 L276.216328125,23.65625 L276.216328125,337.75 L263.298234375,337.75 Z" style="fill:rgb(205,0,0);fill-opacity:0.705882352941177;stroke:none;"/>
    <path d="M335.06542187499997,23.65625 L347.983515625,23.65625 L347.983515625,337.75 L335.06542187499997,337.75 Z" style="fill:rgb(205,0,0);fill-opacity:0.705882352941177;stroke:none;"/>
    <path d="M406.83260937499995,23.65625 L419.750703125,23.65625 L419.750703125,337.75 L406.83260937499995,337.75 Z" style="fill:rgb(205,0,0);fill-opacity:0.705882352941177;stroke:none;"/>
    <path d="M478.5997968749999,337.75 L491.51789062499995,337.75 L491.51789062499995,337.75 L478.5997968749999,337.75 Z" style="fill:rgb(205,0,0);fill-opacity:0.705882352941177;stroke:none;"/>
  </g>
  <g>
    <rect height="160" style="fill:rgb(255,255,255);stroke:none;" width="66.171875" x="527.828125" y="100.703125"/>
    <rect height="160" style="fill:none;stroke:rgb(130,130,130);stroke-miterlimit:10;stroke-linejoin:bevel;stroke-dasharray:3,0;" width="66.171875" x="527.828125" y="100.703125"/>
    <rect height="20" style="fill:rgb(0,55,255);fill-opacity:0.705882352941177;stroke:none;" width="20" x="537.828125" y="110.703125"/>
  </g>
  <g transform="translate(567.828125 124.78125)">
    <path d="M0.5,-2.53125 L1.484375,-2.609375 Q1.546875,-2.03125 1.796875,-1.640625 Q2.0625,-1.265625 2.59375,-1.03125 Q3.125,-0.796875 3.796875,-0.796875 Q4.40625,-0.796875 4.859375,-0.96875 Q5.3125,-1.15625 5.53125,-1.453125 Q5.765625,-1.765625 5.765625,-2.140625 Q5.765625,-2.515625 5.546875,-2.78125 Q5.328125,-3.0625 4.828125,-3.25 Q4.515625,-3.375 3.421875,-3.625 Q2.34375,-3.890625 1.90625,-4.125 Q1.34375,-4.421875 1.0625,-4.859375 Q0.796875,-5.296875 0.796875,-5.84375 Q0.796875,-6.4375 1.125,-6.953125 Q1.46875,-7.46875 2.109375,-7.734375 Q2.765625,-8.015625 3.5625,-8.015625 Q4.4375,-8.015625 5.109375,-7.71875 Q5.78125,-7.4375 6.140625,-6.890625 Q6.5,-6.34375 6.53125,-5.65625 L5.53125,-5.578125 Q5.453125,-6.328125 4.984375,-6.703125 Q4.515625,-7.09375 3.609375,-7.09375 Q2.671875,-7.09375 2.234375,-6.734375 Q1.796875,-6.390625 1.796875,-5.90625 Q1.796875,-5.484375 2.109375,-5.203125 Q2.40625,-4.9375 3.671875,-4.640625 Q4.953125,-4.359375 5.421875,-4.140625 Q6.109375,-3.828125 6.4375,-3.34375 Q6.765625,-2.859375 6.765625,-2.21875 Q6.765625,-1.59375 6.40625,-1.03125 Q6.046875,-0.484375 5.359375,-0.171875 Q4.6875,0.140625 3.84375,0.140625 Q2.78125,0.140625 2.0625,-0.171875 Q1.34375,-0.484375 0.921875,-1.109375 Q0.515625,-1.734375 0.5,-2.53125 Z M11.4306640625,0 L10.4619140625,0 L10.4619140625,-6.15625 Q10.1181640625,-5.828125 9.5556640625,-5.484375 Q8.9931640625,-5.15625 8.5400390625,-5 L8.5400390625,-5.9375 Q9.3525390625,-6.3125 9.9462890625,-6.84375 Q10.5556640625,-7.390625 10.8056640625,-7.90625 L11.4306640625,-7.90625 L11.4306640625,0 Z" style="fill:rgb(0,0,0);stroke:none;"/>
  </g>
  <g>
    <rect height="20" style="fill:rgb(255,172,0);fill-opacity:0.705882352941177;stroke:none;" width="20" x="537.828125" y="140.703125"/>
  </g>
  <g transform="translate(567.828125 154.78125)">
    <path d="M0.5,-2.53125 L1.484375,-2.609375 Q1.546875,-2.03125 1.796875,-1.640625 Q2.0625,-1.265625 2.59375,-1.03125 Q3.125,-0.796875 3.796875,-0.796875 Q4.40625,-0.796875 4.859375,-0.96875 Q5.3125,-1.15625 5.53125,-1.453125 Q5.765625,-1.765625 5.765625,-2.140625 Q5.765625,-2.515625 5.546875,-2.78125 Q5.328125,-3.0625 4.828125,-3.25 Q4.515625,-3.375 3.421875,-3.625 Q2.34375,-3.890625 1.90625,-4.125 Q1.34375,-4.421875 1.0625,-4.859375 Q0.796875,-5.296875 0.796875,-5.84375 Q0.796875,-6.4375 1.125,-6.953125 Q1.46875,-7.46875 2.109375,-7.734375 Q2.765625,-8.015625 3.5625,-8.015625 Q4.4375,-8.015625 5.109375,-7.71875 Q5.78125,-7.4375 6.140625,-6.890625 Q6.5,-6.34375 6.53125,-5.65625 L5.53125,-5.578125 Q5.453125,-6.328125 4.984375,-6.703125 Q4.515625,-7.09375 3.609375,-7.09375 Q2.671875,-7.09375 2.234375,-6.734375 Q1.796875,-6.390625 1.796875,-5.90625 Q1.796875,-5.484375 2.109375,-5.203125 Q2.40625,-4.9375 3.671875,-4.640625 Q4.953125,-4.359375 5.421875,-4.140625 Q6.109375,-3.828125 6.4375,-3.34375 Q6.765625,-2.859375 6.765625,-2.21875 Q6.765625,-1.59375 6.40625,-1.03125 Q6.046875,-0.484375 5.359375,-0.171875 Q4.6875,0.140625 3.84375,0.140625 Q2.78125,0.140625 2.0625,-0.171875 Q1.34375,-0.484375 0.921875,-1.109375 Q0.515625,-1.734375 0.5,-2.53125 Z M12.8681640625,-0.921875 L12.8681640625,0 L7.6650390625,0 Q7.6650390625,-0.34375 7.7900390625,-0.671875 Q7.9775390625,-1.203125 8.4150390625,-1.71875 Q8.8525390625,-2.234375 9.6806640625,-2.90625 Q10.9619140625,-3.96875 11.4150390625,-4.578125 Q11.8681640625,-5.1875 11.8681640625,-5.734375 Q11.8681640625,-6.3125 11.4619140625,-6.703125 Q11.0556640625,-7.109375 10.3837890625,-7.109375 Q9.6962890625,-7.109375 9.2744140625,-6.6875 Q8.8525390625,-6.265625 8.8525390625,-5.53125 L7.8525390625,-5.625 Q7.9619140625,-6.734375 8.6181640625,-7.3125 Q9.2900390625,-7.90625 10.4150390625,-7.90625 Q11.5400390625,-7.90625 12.1962890625,-7.28125 Q12.8681640625,-6.65625 12.8681640625,-5.71875 Q12.8681640625,-5.25 12.6650390625,-4.78125 Q12.4775390625,-4.328125 12.0244140625,-3.828125 Q11.5869140625,-3.328125 10.5400390625,-2.4375 Q9.6650390625,-1.71875 9.4150390625,-1.453125 Q9.1806640625,-1.1875 9.0087890625,-0.921875 L12.8681640625,-0.921875 Z" style="fill:rgb(0,0,0);stroke:none;"/>
  </g>
  <g>
    <rect height="20" style="fill:rgb(128,0,255);fill-opacity:0.705882352941177;stroke:none;" width="20" x="537.828125" y="170.703125"/>
  </g>
  <g transform="translate(567.828125 184.78125)">
    <path d="M0.5,-2.53125 L1.484375,-2.609375 Q1.546875,-2.03125 1.796875,-1.640625 Q2.0625,-1.265625 2.59375,-1.03125 Q3.125,-0.796875 3.796875,-0.796875 Q4.40625,-0.796875 4.859375,-0.96875 Q5.3125,-1.15625 5.53125,-1.453125 Q5.765625,-1.765625 5.765625,-2.140625 Q5.765625,-2.515625 5.546875,-2.78125 Q5.328125,-3.0625 4.828125,-3.25 Q4.515625,-3.375 3.421875,-3.625 Q2.34375,-3.890625 1.90625,-4.125 Q1.34375,-4.421875 1.0625,-4.859375 Q0.796875,-5.296875 0.796875,-5.84375 Q0.796875,-6.4375 1.125,-6.953125 Q1.46875,-7.46875 2.109375,-7.734375 Q2.765625,-8.015625 3.5625,-8.015625 Q4.4375,-8.015625 5.109375,-7.71875 Q5.78125,-7.4375 6.140625,-6.890625 Q6.5,-6.34375 6.53125,-5.65625 L5.53125,-5.578125 Q5.453125,-6.328125 4.984375,-6.703125 Q4.515625,-7.09375 3.609375,-7.09375 Q2.671875,-7.09375 2.234375,-6.734375 Q1.796875,-6.390625 1.796875,-5.90625 Q1.796875,-5.484375 2.109375,-5.203125 Q2.40625,-4.9375 3.671875,-4.640625 Q4.953125,-4.359375 5.421875,-4.140625 Q6.109375,-3.828125 6.4375,-3.34375 Q6.765625,-2.859375 6.765625,-2.21875 Q6.765625,-1.59375 6.40625,-1.03125 Q6.046875,-0.484375 5.359375,-0.171875 Q4.6875,0.140625 3.84375,0.140625 Q2.78125,0.140625 2.0625,-0.171875 Q1.34375,-0.484375 0.921875,-1.109375 Q0.515625,-1.734375 0.5,-2.53125 Z M7.8056640625,-2.078125 L8.7587890625,-2.203125 Q8.9306640625,-1.390625 9.3212890625,-1.015625 Q9.7275390625,-0.65625 10.3056640625,-0.65625 Q10.9931640625,-0.65625 11.4619140625,-1.125 Q11.9306640625,-1.609375 11.9306640625,-2.296875 Q11.9306640625,-2.96875 11.4931640625,-3.390625 Q11.0556640625,-3.828125 10.3837890625,-3.828125 Q10.1181640625,-3.828125 9.7119140625,-3.734375 L9.8056640625,-4.578125 Q9.9150390625,-4.5625 9.9619140625,-4.5625 Q10.5869140625,-4.5625 11.0712890625,-4.875 Q11.5712890625,-5.203125 11.5712890625,-5.875 Q11.5712890625,-6.40625 11.2119140625,-6.75 Q10.8525390625,-7.109375 10.2900390625,-7.109375 Q9.7275390625,-7.109375 9.3525390625,-6.75 Q8.9775390625,-6.40625 8.8681640625,-5.6875 L7.8994140625,-5.859375 Q8.0712890625,-6.84375 8.6962890625,-7.375 Q9.3369140625,-7.90625 10.2587890625,-7.90625 Q10.9150390625,-7.90625 11.4462890625,-7.625 Q11.9931640625,-7.359375 12.2744140625,-6.875 Q12.5712890625,-6.390625 12.5712890625,-5.859375 Q12.5712890625,-5.34375 12.2900390625,-4.921875 Q12.0244140625,-4.515625 11.4775390625,-4.265625 Q12.1806640625,-4.109375 12.5712890625,-3.59375 Q12.9619140625,-3.09375 12.9619140625,-2.328125 Q12.9619140625,-1.296875 12.1962890625,-0.578125 Q11.4462890625,0.140625 10.3056640625,0.140625 Q9.2587890625,0.140625 8.5712890625,-0.46875 Q7.8994140625,-1.09375 7.8056640625,-2.078125 Z" style="fill:rgb(0,0,0);stroke:none;"/>
  </g>
  <g>
    <rect height="20" style="fill:rgb(0,205,0);fill-opacity:0.705882352941177;stroke:none;" width="20" x="537.828125" y="200.703125"/>
  </g>
  <g transform="translate(567.828125 214.78125)">
    <path d="M0.5,-2.53125 L1.484375,-2.609375 Q1.546875,-2.03125 1.796875,-1.640625 Q2.0625,-1.265625 2.59375,-1.03125 Q3.125,-0.796875 3.796875,-0.796875 Q4.40625,-0.796875 4.859375,-0.96875 Q5.3125,-1.15625 5.53125,-1.453125 Q5.765625,-1.765625 5.765625,-2.140625 Q5.765625,-2.515625 5.546875,-2.78125 Q5.328125,-3.0625 4.828125,-3.25 Q4.515625,-3.375 3.421875,-3.625 Q2.34375,-3.890625 1.90625,-4.125 Q1.34375,-4.421875 1.0625,-4.859375 Q0.796875,-5.296875 0.796875,-5.84375 Q0.796875,-6.4375 1.125,-6.953125 Q1.46875,-7.46875 2.109375,-7.734375 Q2.765625,-8.015625 3.5625,-8.015625 Q4.4375,-8.015625 5.109375,-7.71875 Q5.78125,-7.4375 6.140625,-6.890625 Q6.5,-6.34375 6.53125,-5.65625 L5.53125,-5.578125 Q5.453125,-6.328125 4.984375,-6.703125 Q4.515625,-7.09375 3.609375,-7.09375 Q2.671875,-7.09375 2.234375,-6.734375 Q1.796875,-6.390625 1.796875,-5.90625 Q1.796875,-5.484375 2.109375,-5.203125 Q2.40625,-4.9375 3.671875,-4.640625 Q4.953125,-4.359375 5.421875,-4.140625 Q6.109375,-3.828125 6.4375,-3.34375 Q6.765625,-2.859375 6.765625,-2.21875 Q6.765625,-1.59375 6.40625,-1.03125 Q6.046875,-0.484375 5.359375,-0.171875 Q4.6875,0.140625 3.84375,0.140625 Q2.78125,0.140625 2.0625,-0.171875 Q1.34375,-0.484375 0.921875,-1.109375 Q0.515625,-1.734375 0.5,-2.53125 Z M10.8994140625,0 L10.8994140625,-1.890625 L7.4775390625,-1.890625 L7.4775390625,-2.765625 L11.0712890625,-7.875 L11.8525390625,-7.875 L11.8525390625,-2.765625 L12.9306640625,-2.765625 L12.9306640625,-1.890625 L11.8525390625,-1.890625 L11.8525390625,0 L10.8994140625,0 Z M10.8994140625,-2.765625 L10.8994140625,-6.328125 L8.4306640625,-2.765625 L10.8994140625,-2.765625 Z" style="fill:rgb(0,0,0);stroke:none;"/>
  </g>
  <g>
    <rect height="20" style="fill:rgb(205,0,0);fill-opacity:0.705882352941177;stroke:none;" width="20" x="537.828125" y="230.703125"/>
  </g>
  <g transform="translate(567.828125 244.78125)">
    <path d="M0.5,-2.53125 L1.484375,-2.609375 Q1.546875,-2.03125 1.796875,-1.640625 Q2.0625,-1.265625 2.59375,-1.03125 Q3.125,-0.796875 3.796875,-0.796875 Q4.40625,-0.796875 4.859375,-0.96875 Q5.3125,-1.15625 5.53125,-1.453125 Q5.765625,-1.765625 5.765625,-2.140625 Q5.765625,-2.515625 5.546875,-2.78125 Q5.328125,-3.0625 4.828125,-3.25 Q4.515625,-3.375 3.421875,-3.625 Q2.34375,-3.890625 1.90625,-4.125 Q1.34375,-4.421875 1.0625,-4.859375 Q0.796875,-5.296875 0.796875,-5.84375 Q0.796875,-6.4375 1.125,-6.953125 Q1.46875,-7.46875 2.109375,-7.734375 Q2.765625,-8.015625 3.5625,-8.015625 Q4.4375,-8.015625 5.109375,-7.71875 Q5.78125,-7.4375 6.140625,-6.890625 Q6.5,-6.34375 6.53125,-5.65625 L5.53125,-5.578125 Q5.453125,-6.328125 4.984375,-6.703125 Q4.515625,-7.09375 3.609375,-7.09375 Q2.671875,-7.09375 2.234375,-6.734375 Q1.796875,-6.390625 1.796875,-5.90625 Q1.796875,-5.484375 2.109375,-5.203125 Q2.40625,-4.9375 3.671875,-4.640625 Q4.953125,-4.359375 5.421875,-4.140625 Q6.109375,-3.828125 6.4375,-3.34375 Q6.765625,-2.859375 6.765625,-2.21875 Q6.765625,-1.59375 6.40625,-1.03125 Q6.046875,-0.484375 5.359375,-0.171875 Q4.6875,0.140625 3.84375,0.140625 Q2.78125,0.140625 2.0625,-0.171875 Q1.34375,-0.484375 0.921875,-1.109375 Q0.515625,-1.734375 0.5,-2.53125 Z M7.7900390625,-2.0625 L8.8056640625,-2.15625 Q8.9150390625,-1.40625 9.3212890625,-1.03125 Q9.7431640625,-0.65625 10.3212890625,-0.65625 Q11.0244140625,-0.65625 11.5087890625,-1.1875 Q11.9931640625,-1.71875 11.9931640625,-2.578125 Q11.9931640625,-3.40625 11.5244140625,-3.875 Q11.0556640625,-4.359375 10.3056640625,-4.359375 Q9.8369140625,-4.359375 9.4619140625,-4.140625 Q9.0869140625,-3.9375 8.8681640625,-3.609375 L7.9619140625,-3.71875 L8.7275390625,-7.765625 L12.6494140625,-7.765625 L12.6494140625,-6.84375 L9.5087890625,-6.84375 L9.0712890625,-4.734375 Q9.7900390625,-5.21875 10.5712890625,-5.21875 Q11.6025390625,-5.21875 12.3056640625,-4.5 Q13.0087890625,-3.796875 13.0087890625,-2.671875 Q13.0087890625,-1.59375 12.3837890625,-0.828125 Q11.6337890625,0.140625 10.3212890625,0.140625 Q9.2431640625,0.140625 8.5556640625,-0.453125 Q7.8837890625,-1.0625 7.7900390625,-2.0625 Z" style="fill:rgb(0,0,0);stroke:none;"/>
  </g>
</svg>
