<?xml version="1.0" encoding="UTF-8" standalone="no"?>
<!DOCTYPE svg PUBLIC "-//W3C//DTD SVG 1.1//EN" "http://www.w3.org/Graphics/SVG/1.1/DTD/svg11.dtd">
<svg xmlns:xlink="http://www.w3.org/1999/xlink" height="400px" version="1.1" viewBox="0 0 600 400" width="600px" x="0px" y="0px" xmlns="http://www.w3.org/2000/svg">
  <defs>
    <clipPath id="clip866405824">
      <rect height="320.21875" width="457.984375" x="45.78125" y="31.1875"/>
    </clipPath>
  </defs>
  <rect height="400" style="fill:rgb(210,210,210);stroke:none;" width="600" x="0" y="0"/>
  <g transform="translate(18 195)">
    <path d="M-0,-3.125 L-3.609375,-3.125 L-8.59375,0.015625 L-8.59375,-2.015625 L-5.1875,-4.03125 L-8.59375,-6.015625 L-8.59375,-8.015625 L-3.609375,-4.859375 L-0.0,-4.859375 L-0.0,-3.125 Z" style="fill:rgb(0,0,0);stroke:none;"/>
  </g>
  <g transform="translate(28 196.296875)">
    <path d="M0.53125,-2.203125 L2.171875,-2.375 Q2.25,-1.828125 2.59375,-1.5 Q2.9375,-1.171875 3.390625,-1.171875 Q3.90625,-1.171875 4.265625,-1.59375 Q4.625,-2.015625 4.625,-2.859375 Q4.625,-3.640625 4.265625,-4.03125 Q3.90625,-4.4375 3.34375,-4.4375 Q2.625,-4.4375 2.0625,-3.8125 L0.734375,-4 L1.578125,-8.46875 L5.9375,-8.46875 L5.9375,-6.9375 L2.828125,-6.9375 L2.5625,-5.46875 Q3.125,-5.75 3.6875,-5.75 Q4.78125,-5.75 5.546875,-4.953125 Q6.3125,-4.15625 6.3125,-2.890625 Q6.3125,-1.828125 5.703125,-0.984375 Q4.859375,0.140625 3.375,0.140625 Q2.1875,0.140625 1.4375,-0.484375 Q0.6875,-1.125 0.53125,-2.203125 Z" style="fill:rgb(0,0,0);stroke:none;"/>
  </g>
  <g transform="translate(28 48.99625000000003)">
    <path d="M6.09375,-6.484375 L4.5,-6.3125 Q4.4375,-6.796875 4.1875,-7.03125 Q3.9375,-7.265625 3.546875,-7.265625 Q3.03125,-7.265625 2.671875,-6.796875 Q2.3125,-6.328125 2.21875,-4.859375 Q2.828125,-5.578125 3.75,-5.578125 Q4.78125,-5.578125 5.515625,-4.796875 Q6.25,-4.015625 6.25,-2.765625 Q6.25,-1.453125 5.46875,-0.65625 Q4.703125,0.140625 3.484375,0.140625 Q2.1875,0.140625 1.34375,-0.859375 Q0.515625,-1.875 0.515625,-4.171875 Q0.515625,-6.546875 1.375,-7.578125 Q2.25,-8.625 3.65625,-8.625 Q4.625,-8.625 5.265625,-8.078125 Q5.90625,-7.53125 6.09375,-6.484375 Z M2.359375,-2.890625 Q2.359375,-2.09375 2.71875,-1.65625 Q3.09375,-1.21875 3.5625,-1.21875 Q4.03125,-1.21875 4.328125,-1.578125 Q4.640625,-1.9375 4.640625,-2.75 Q4.640625,-3.59375 4.3125,-3.96875 Q3.984375,-4.359375 3.484375,-4.359375 Q3.015625,-4.359375 2.6875,-3.984375 Q2.359375,-3.625 2.359375,-2.890625 Z" style="fill:rgb(0,0,0);stroke:none;"/>
  </g>
  <g transform="translate(28 343.09749999999997)">
    <path d="M3.734375,-0 L3.734375,-1.734375 L0.21875,-1.734375 L0.21875,-3.171875 L3.953125,-8.625 L5.328125,-8.625 L5.328125,-3.171875 L6.40625,-3.171875 L6.40625,-1.734375 L5.328125,-1.734375 L5.328125,-0 L3.734375,-0 Z M3.734375,-3.171875 L3.734375,-6.109375 L1.765625,-3.171875 L3.734375,-3.171875 Z" style="fill:rgb(0,0,0);stroke:none;"/>
  </g>
  <g>
    <line style="fill:none;stroke:rgb(130,130,130);stroke-miterlimit:10;stroke-linecap:square;" x1="38.1875" x2="41.1875" y1="338.59749999999997" y2="338.59749999999997"/>
    <line style="fill:none;stroke:rgb(130,130,130);stroke-miterlimit:10;stroke-linecap:square;" x1="38.1875" x2="41.1875" y1="191.296875" y2="191.296875"/>
    <line style="fill:none;stroke:rgb(130,130,130);stroke-miterlimit:10;stroke-linecap:square;" x1="38.1875" x2="41.1875" y1="43.99625000000003" y2="43.99625000000003"/>
    <line style="fill:none;stroke:rgb(130,130,130);stroke-miterlimit:10;stroke-linecap:square;" x1="41.1875" x2="41.1875" y1="31.1875" y2="351.40625"/>
  </g>
  <g transform="translate(270.78125 390)">
    <path d="M0,-0 L2.9375,-4.484375 L0.28125,-8.59375 L2.296875,-8.59375 L4.03125,-5.828125 L5.71875,-8.59375 L7.71875,-8.59375 L5.046875,-4.421875 L7.984375,-0 L5.890625,-0 L3.984375,-2.96875 L2.078125,-0 L0.0,-0 Z" style="fill:rgb(0,0,0);stroke:none;"/>
  </g>
  <g transform="translate(62.21781249999998 371.40625)">
    <path d="M4.71875,-0 L3.078125,-0 L3.078125,-6.203125 Q2.171875,-5.359375 0.953125,-4.953125 L0.953125,-6.453125 Q1.59375,-6.65625 2.34375,-7.25 Q3.109375,-7.84375 3.390625,-8.625 L4.71875,-8.625 L4.71875,-0 Z" style="fill:rgb(0,0,0);stroke:none;"/>
  </g>
  <g transform="translate(271.8828125 371.40625)">
    <path d="M6.078125,-1.53125 L6.078125,-0 L0.296875,-0 Q0.390625,-0.875 0.859375,-1.640625 Q1.328125,-2.421875 2.71875,-3.703125 Q3.828125,-4.734375 4.078125,-5.109375 Q4.421875,-5.625 4.421875,-6.125 Q4.421875,-6.671875 4.125,-6.96875 Q3.828125,-7.265625 3.3125,-7.265625 Q2.796875,-7.265625 2.484375,-6.953125 Q2.1875,-6.640625 2.140625,-5.921875 L0.5,-6.078125 Q0.640625,-7.4375 1.40625,-8.03125 Q2.1875,-8.625 3.34375,-8.625 Q4.625,-8.625 5.34375,-7.9375 Q6.078125,-7.25 6.078125,-6.234375 Q6.078125,-5.65625 5.859375,-5.125 Q5.65625,-4.609375 5.203125,-4.03125 Q4.90625,-3.65625 4.125,-2.9375 Q3.34375,-2.21875 3.140625,-1.984375 Q2.9375,-1.75 2.796875,-1.53125 L6.078125,-1.53125 Z" style="fill:rgb(0,0,0);stroke:none;"/>
  </g>
  <g transform="translate(482.5946875 371.265625)">
    <path d="M0.453125,-2.28125 L2.046875,-2.46875 Q2.125,-1.859375 2.453125,-1.53125 Q2.796875,-1.21875 3.265625,-1.21875 Q3.78125,-1.21875 4.125,-1.609375 Q4.46875,-2 4.46875,-2.65625 Q4.46875,-3.265625 4.125,-3.625 Q3.796875,-4 3.328125,-4 Q3,-4 2.5625,-3.875 L2.75,-5.21875 Q3.421875,-5.203125 3.765625,-5.5 Q4.125,-5.8125 4.125,-6.328125 Q4.125,-6.75 3.859375,-7 Q3.609375,-7.265625 3.171875,-7.265625 Q2.75,-7.265625 2.453125,-6.96875 Q2.15625,-6.6875 2.09375,-6.125 L0.578125,-6.375 Q0.734375,-7.15625 1.046875,-7.625 Q1.375,-8.09375 1.9375,-8.359375 Q2.515625,-8.625 3.21875,-8.625 Q4.4375,-8.625 5.171875,-7.859375 Q5.765625,-7.21875 5.765625,-6.421875 Q5.765625,-5.296875 4.53125,-4.625 Q5.28125,-4.453125 5.71875,-3.90625 Q6.15625,-3.359375 6.15625,-2.578125 Q6.15625,-1.453125 5.328125,-0.65625 Q4.5,0.140625 3.28125,0.140625 Q2.109375,0.140625 1.34375,-0.53125 Q0.578125,-1.203125 0.453125,-2.28125 Z" style="fill:rgb(0,0,0);stroke:none;"/>
  </g>
  <g>
    <line style="fill:none;stroke:rgb(130,130,130);stroke-miterlimit:10;stroke-linecap:square;" x1="64.10062499999998" x2="64.10062499999998" y1="358.640625" y2="355.640625"/>
    <line style="fill:none;stroke:rgb(130,130,130);stroke-miterlimit:10;stroke-linecap:square;" x1="274.7734375" x2="274.7734375" y1="358.640625" y2="355.640625"/>
    <line style="fill:none;stroke:rgb(130,130,130);stroke-miterlimit:10;stroke-linecap:square;" x1="485.44625" x2="485.44625" y1="358.640625" y2="355.640625"/>
    <line style="fill:none;stroke:rgb(130,130,130);stroke-miterlimit:10;stroke-linecap:square;" x1="45" x2="503" y1="355" y2="355"/>
    <rect height="320.21875" style="fill:rgb(255,255,255);stroke:none;" width="457.984375" x="45.78125" y="31.1875"/>
    <path d="M53.78125,338.09749999999997 L53.78125,338.09749999999997 L56.78125,338.09749999999997 L56.78125,339.09749999999997 L53.78125,339.09749999999997 Z M61.78125,338.09749999999997 L61.78125,338.09749999999997 L64.78125,338.09749999999997 L64.78125,339.09749999999997 L61.78125,339.09749999999997 Z M69.78125,338.09749999999997 L69.78125,338.09749999999997 L72.78125,338.09749999999997 L72.78125,339.09749999999997 L69.78125,339.09749999999997 Z M77.78125,338.09749999999997 L77.78125,338.09749999999997 L80.78125,338.09749999999997 L80.78125,339.09749999999997 L77.78125,339.09749999999997 Z M85.78125,338.09749999999997 L85.78125,338.09749999999997 L88.78125,338.09749999999997 L88.78125,339.09749999999997 L85.78125,339.09749999999997 Z M93.78125,338.09749999999997 L93.78125,338.09749999999997 L96.78125,338.09749999999997 L96.78125,339.09749999999997 L93.78125,339.09749999999997 Z M101.78125,338.09749999999997 L101.78125,338.09749999999997 L104.78125,338.09749999999997 L104.78125,339.09749999999997 L101.78125,339.09749999999997 Z M109.78125,338.09749999999997 L109.78125,338.09749999999997 L112.78125,338.09749999999997 L112.78125,339.09749999999997 L109.78125,339.09749999999997 Z M117.78125,338.09749999999997 L117.78125,338.09749999999997 L120.78125,338.09749999999997 L120.78125,339.09749999999997 L117.78125,339.09749999999997 Z M125.78125,338.09749999999997 L125.78125,338.09749999999997 L128.78125,338.09749999999997 L128.78125,339.09749999999997 L125.78125,339.09749999999997 Z M133.78125,338.09749999999997 L133.78125,338.09749999999997 L136.78125,338.09749999999997 L136.78125,339.09749999999997 L133.78125,339.09749999999997 Z M141.78125,338.09749999999997 L141.78125,338.09749999999997 L144.78125,338.09749999999997 L144.78125,339.09749999999997 L141.78125,339.09749999999997 Z M149.78125,338.09749999999997 L149.78125,338.09749999999997 L152.78125,338.09749999999997 L152.78125,339.09749999999997 L149.78125,339.09749999999997 Z M157.78125,338.09749999999997 L157.78125,338.09749999999997 L160.78125,338.09749999999997 L160.78125,339.09749999999997 L157.78125,339.09749999999997 Z M165.78125,338.09749999999997 L165.78125,338.09749999999997 L168.78125,338.09749999999997 L168.78125,339.09749999999997 L165.78125,339.09749999999997 Z M173.78125,338.09749999999997 L173.78125,338.09749999999997 L176.78125,338.09749999999997 L176.78125,339.09749999999997 L173.78125,339.09749999999997 Z M181.78125,338.09749999999997 L181.78125,338.09749999999997 L184.78125,338.09749999999997 L184.78125,339.09749999999997 L181.78125,339.09749999999997 Z M189.78125,338.09749999999997 L189.78125,338.09749999999997 L192.78125,338.09749999999997 L192.78125,339.09749999999997 L189.78125,339.09749999999997 Z M197.78125,338.09749999999997 L197.78125,338.09749999999997 L200.78125,338.09749999999997 L200.78125,339.09749999999997 L197.78125,339.09749999999997 Z M205.78125,338.09749999999997 L205.78125,338.09749999999997 L208.78125,338.09749999999997 L208.78125,339.09749999999997 L205.78125,339.09749999999997 Z M213.78125,338.09749999999997 L213.78125,338.09749999999997 L216.78125,338.09749999999997 L216.78125,339.09749999999997 L213.78125,339.09749999999997 Z M221.78125,338.09749999999997 L221.78125,338.09749999999997 L224.78125,338.09749999999997 L224.78125,339.09749999999997 L221.78125,339.09749999999997 Z M229.78125,338.09749999999997 L229.78125,338.09749999999997 L232.78125,338.09749999999997 L232.78125,339.09749999999997 L229.78125,339.09749999999997 Z M237.78125,338.09749999999997 L237.78125,338.09749999999997 L240.78125,338.09749999999997 L240.78125,339.09749999999997 L237.78125,339.09749999999997 Z M245.78125,338.09749999999997 L245.78125,338.09749999999997 L248.78125,338.09749999999997 L248.78125,339.09749999999997 L245.78125,339.09749999999997 Z M253.78125,338.09749999999997 L253.78125,338.09749999999997 L256.78125,338.09749999999997 L256.78125,339.09749999999997 L253.78125,339.09749999999997 Z M261.78125,338.09749999999997 L261.78125,338.09749999999997 L264.78125,338.09749999999997 L264.78125,339.09749999999997 L261.78125,339.09749999999997 Z M269.78125,338.09749999999997 L269.78125,338.09749999999997 L272.78125,338.09749999999997 L272.78125,339.09749999999997 L269.78125,339.09749999999997 Z M277.78125,338.09749999999997 L277.78125,338.09749999999997 L280.78125,338.09749999999997 L280.78125,339.09749999999997 L277.78125,339.09749999999997 Z M285.78125,338.09749999999997 L285.78125,338.09749999999997 L288.78125,338.09749999999997 L288.78125,339.09749999999997 L285.78125,339.09749999999997 Z M293.78125,338.09749999999997 L293.78125,338.09749999999997 L296.78125,338.09749999999997 L296.78125,339.09749999999997 L293.78125,339.09749999999997 Z M301.78125,338.09749999999997 L301.78125,338.09749999999997 L304.78125,338.09749999999997 L304.78125,339.09749999999997 L301.78125,339.09749999999997 Z M309.78125,338.09749999999997 L309.78125,338.09749999999997 L312.78125,338.09749999999997 L312.78125,339.09749999999997 L309.78125,339.09749999999997 Z M317.78125,338.09749999999997 L317.78125,338.09749999999997 L320.78125,338.09749999999997 L320.78125,339.09749999999997 L317.78125,339.09749999999997 Z M325.78125,338.09749999999997 L325.78125,338.09749999999997 L328.78125,338.09749999999997 L328.78125,339.09749999999997 L325.78125,339.09749999999997 Z M333.78125,338.09749999999997 L333.78125,338.09749999999997 L336.78125,338.09749999999997 L336.78125,339.09749999999997 L333.78125,339.09749999999997 Z M341.78125,338.09749999999997 L341.78125,338.09749999999997 L344.78125,338.09749999999997 L344.78125,339.09749999999997 L341.78125,339.09749999999997 Z M349.78125,338.09749999999997 L349.78125,338.09749999999997 L352.78125,338.09749999999997 L352.78125,339.09749999999997 L349.78125,339.09749999999997 Z M357.78125,338.09749999999997 L357.78125,338.09749999999997 L360.78125,338.09749999999997 L360.78125,339.09749999999997 L357.78125,339.09749999999997 Z M365.78125,338.09749999999997 L365.78125,338.09749999999997 L368.78125,338.09749999999997 L368.78125,339.09749999999997 L365.78125,339.09749999999997 Z M373.78125,338.09749999999997 L373.78125,338.09749999999997 L376.78125,338.09749999999997 L376.78125,339.09749999999997 L373.78125,339.09749999999997 Z M381.78125,338.09749999999997 L381.78125,338.09749999999997 L384.78125,338.09749999999997 L384.78125,339.09749999999997 L381.78125,339.09749999999997 Z M389.78125,338.09749999999997 L389.78125,338.09749999999997 L392.78125,338.09749999999997 L392.78125,339.09749999999997 L389.78125,339.09749999999997 Z M397.78125,338.09749999999997 L397.78125,338.09749999999997 L400.78125,338.09749999999997 L400.78125,339.09749999999997 L397.78125,339.09749999999997 Z M405.78125,338.09749999999997 L405.78125,338.09749999999997 L408.78125,338.09749999999997 L408.78125,339.09749999999997 L405.78125,339.09749999999997 Z M413.78125,338.09749999999997 L413.78125,338.09749999999997 L416.78125,338.09749999999997 L416.78125,339.09749999999997 L413.78125,339.09749999999997 Z M421.78125,338.09749999999997 L421.78125,338.09749999999997 L424.78125,338.09749999999997 L424.78125,339.09749999999997 L421.78125,339.09749999999997 Z M429.78125,338.09749999999997 L429.78125,338.09749999999997 L432.78125,338.09749999999997 L432.78125,339.09749999999997 L429.78125,339.09749999999997 Z M437.78125,338.09749999999997 L437.78125,338.09749999999997 L440.78125,338.09749999999997 L440.78125,339.09749999999997 L437.78125,339.09749999999997 Z M445.78125,338.09749999999997 L445.78125,338.09749999999997 L448.78125,338.09749999999997 L448.78125,339.09749999999997 L445.78125,339.09749999999997 Z M453.78125,338.09749999999997 L453.78125,338.09749999999997 L456.78125,338.09749999999997 L456.78125,339.09749999999997 L453.78125,339.09749999999997 Z M461.78125,338.09749999999997 L461.78125,338.09749999999997 L464.78125,338.09749999999997 L464.78125,339.09749999999997 L461.78125,339.09749999999997 Z M469.78125,338.09749999999997 L469.78125,338.09749999999997 L472.78125,338.09749999999997 L472.78125,339.09749999999997 L469.78125,339.09749999999997 Z M477.78125,338.09749999999997 L477.78125,338.09749999999997 L480.78125,338.09749999999997 L480.78125,339.09749999999997 L477.78125,339.09749999999997 Z M485.78125,338.09749999999997 L485.78125,338.09749999999997 L488.78125,338.09749999999997 L488.78125,339.09749999999997 L485.78125,339.09749999999997 Z M493.78125,338.09749999999997 L493.78125,338.09749999999997 L496.78125,338.09749999999997 L496.78125,339.09749999999997 L493.78125,339.09749999999997 Z M501.78125,338.09749999999997 L501.78125,338.09749999999997 L503.765625,338.09749999999997 L503.765625,339.09749999999997 L501.78125,339.09749999999997 Z M45.78125,338.09749999999997 L45.78125,338.09749999999997 L48.78125,338.09749999999997 L48.78125,339.09749999999997 L45.78125,339.09749999999997 Z" style="fill:none;stroke:rgb(210,210,210);stroke-miterlimit:10;stroke-linejoin:bevel;stroke-dasharray:3,5;"/>
    <path d="M53.78125,190.796875 L53.78125,190.796875 L56.78125,190.796875 L56.78125,191.796875 L53.78125,191.796875 Z M61.78125,190.796875 L61.78125,190.796875 L64.78125,190.796875 L64.78125,191.796875 L61.78125,191.796875 Z M69.78125,190.796875 L69.78125,190.796875 L72.78125,190.796875 L72.78125,191.796875 L69.78125,191.796875 Z M77.78125,190.796875 L77.78125,190.796875 L80.78125,190.796875 L80.78125,191.796875 L77.78125,191.796875 Z M85.78125,190.796875 L85.78125,190.796875 L88.78125,190.796875 L88.78125,191.796875 L85.78125,191.796875 Z M93.78125,190.796875 L93.78125,190.796875 L96.78125,190.796875 L96.78125,191.796875 L93.78125,191.796875 Z M101.78125,190.796875 L101.78125,190.796875 L104.78125,190.796875 L104.78125,191.796875 L101.78125,191.796875 Z M109.78125,190.796875 L109.78125,190.796875 L112.78125,190.796875 L112.78125,191.796875 L109.78125,191.796875 Z M117.78125,190.796875 L117.78125,190.796875 L120.78125,190.796875 L120.78125,191.796875 L117.78125,191.796875 Z M125.78125,190.796875 L125.78125,190.796875 L128.78125,190.796875 L128.78125,191.796875 L125.78125,191.796875 Z M133.78125,190.796875 L133.78125,190.796875 L136.78125,190.796875 L136.78125,191.796875 L133.78125,191.796875 Z M141.78125,190.796875 L141.78125,190.796875 L144.78125,190.796875 L144.78125,191.796875 L141.78125,191.796875 Z M149.78125,190.796875 L149.78125,190.796875 L152.78125,190.796875 L152.78125,191.796875 L149.78125,191.796875 Z M157.78125,190.796875 L157.78125,190.796875 L160.78125,190.796875 L160.78125,191.796875 L157.78125,191.796875 Z M165.78125,190.796875 L165.78125,190.796875 L168.78125,190.796875 L168.78125,191.796875 L165.78125,191.796875 Z M173.78125,190.796875 L173.78125,190.796875 L176.78125,190.796875 L176.78125,191.796875 L173.78125,191.796875 Z M181.78125,190.796875 L181.78125,190.796875 L184.78125,190.796875 L184.78125,191.796875 L181.78125,191.796875 Z M189.78125,190.796875 L189.78125,190.796875 L192.78125,190.796875 L192.78125,191.796875 L189.78125,191.796875 Z M197.78125,190.796875 L197.78125,190.796875 L200.78125,190.796875 L200.78125,191.796875 L197.78125,191.796875 Z M205.78125,190.796875 L205.78125,190.796875 L208.78125,190.796875 L208.78125,191.796875 L205.78125,191.796875 Z M213.78125,190.796875 L213.78125,190.796875 L216.78125,190.796875 L216.78125,191.796875 L213.78125,191.796875 Z M221.78125,190.796875 L221.78125,190.796875 L224.78125,190.796875 L224.78125,191.796875 L221.78125,191.796875 Z M229.78125,190.796875 L229.78125,190.796875 L232.78125,190.796875 L232.78125,191.796875 L229.78125,191.796875 Z M237.78125,190.796875 L237.78125,190.796875 L240.78125,190.796875 L240.78125,191.796875 L237.78125,191.796875 Z M245.78125,190.796875 L245.78125,190.796875 L248.78125,190.796875 L248.78125,191.796875 L245.78125,191.796875 Z M253.78125,190.796875 L253.78125,190.796875 L256.78125,190.796875 L256.78125,191.796875 L253.78125,191.796875 Z M261.78125,190.796875 L261.78125,190.796875 L264.78125,190.796875 L264.78125,191.796875 L261.78125,191.796875 Z M269.78125,190.796875 L269.78125,190.796875 L272.78125,190.796875 L272.78125,191.796875 L269.78125,191.796875 Z M277.78125,190.796875 L277.78125,190.796875 L280.78125,190.796875 L280.78125,191.796875 L277.78125,191.796875 Z M285.78125,190.796875 L285.78125,190.796875 L288.78125,190.796875 L288.78125,191.796875 L285.78125,191.796875 Z M293.78125,190.796875 L293.78125,190.796875 L296.78125,190.796875 L296.78125,191.796875 L293.78125,191.796875 Z M301.78125,190.796875 L301.78125,190.796875 L304.78125,190.796875 L304.78125,191.796875 L301.78125,191.796875 Z M309.78125,190.796875 L309.78125,190.796875 L312.78125,190.796875 L312.78125,191.796875 L309.78125,191.796875 Z M317.78125,190.796875 L317.78125,190.796875 L320.78125,190.796875 L320.78125,191.796875 L317.78125,191.796875 Z M325.78125,190.796875 L325.78125,190.796875 L328.78125,190.796875 L328.78125,191.796875 L325.78125,191.796875 Z M333.78125,190.796875 L333.78125,190.796875 L336.78125,190.796875 L336.78125,191.796875 L333.78125,191.796875 Z M341.78125,190.796875 L341.78125,190.796875 L344.78125,190.796875 L344.78125,191.796875 L341.78125,191.796875 Z M349.78125,190.796875 L349.78125,190.796875 L352.78125,190.796875 L352.78125,191.796875 L349.78125,191.796875 Z M357.78125,190.796875 L357.78125,190.796875 L360.78125,190.796875 L360.78125,191.796875 L357.78125,191.796875 Z M365.78125,190.796875 L365.78125,190.796875 L368.78125,190.796875 L368.78125,191.796875 L365.78125,191.796875 Z M373.78125,190.796875 L373.78125,190.796875 L376.78125,190.796875 L376.78125,191.796875 L373.78125,191.796875 Z M381.78125,190.796875 L381.78125,190.796875 L384.78125,190.796875 L384.78125,191.796875 L381.78125,191.796875 Z M389.78125,190.796875 L389.78125,190.796875 L392.78125,190.796875 L392.78125,191.796875 L389.78125,191.796875 Z M397.78125,190.796875 L397.78125,190.796875 L400.78125,190.796875 L400.78125,191.796875 L397.78125,191.796875 Z M405.78125,190.796875 L405.78125,190.796875 L408.78125,190.796875 L408.78125,191.796875 L405.78125,191.796875 Z M413.78125,190.796875 L413.78125,190.796875 L416.78125,190.796875 L416.78125,191.796875 L413.78125,191.796875 Z M421.78125,190.796875 L421.78125,190.796875 L424.78125,190.796875 L424.78125,191.796875 L421.78125,191.796875 Z M429.78125,190.796875 L429.78125,190.796875 L432.78125,190.796875 L432.78125,191.796875 L429.78125,191.796875 Z M437.78125,190.796875 L437.78125,190.796875 L440.78125,190.796875 L440.78125,191.796875 L437.78125,191.796875 Z M445.78125,190.796875 L445.78125,190.796875 L448.78125,190.796875 L448.78125,191.796875 L445.78125,191.796875 Z M453.78125,190.796875 L453.78125,190.796875 L456.78125,190.796875 L456.78125,191.796875 L453.78125,191.796875 Z M461.78125,190.796875 L461.78125,190.796875 L464.78125,190.796875 L464.78125,191.796875 L461.78125,191.796875 Z M469.78125,190.796875 L469.78125,190.796875 L472.78125,190.796875 L472.78125,191.796875 L469.78125,191.796875 Z M477.78125,190.796875 L477.78125,190.796875 L480.78125,190.796875 L480.78125,191.796875 L477.78125,191.796875 Z M485.78125,190.796875 L485.78125,190.796875 L488.78125,190.796875 L488.78125,191.796875 L485.78125,191.796875 Z M493.78125,190.796875 L493.78125,190.796875 L496.78125,190.796875 L496.78125,191.796875 L493.78125,191.796875 Z M501.78125,190.796875 L501.78125,190.796875 L503.765625,190.796875 L503.765625,191.796875 L501.78125,191.796875 Z M45.78125,190.796875 L45.78125,190.796875 L48.78125,190.796875 L48.78125,191.796875 L45.78125,191.796875 Z" style="fill:none;stroke:rgb(210,210,210);stroke-miterlimit:10;stroke-linejoin:bevel;stroke-dasharray:3,5;"/>
    <path d="M53.78125,43.49625000000003 L53.78125,43.49625000000003 L56.78125,43.49625000000003 L56.78125,44.49625000000003 L53.78125,44.49625000000003 Z M61.78125,43.49625000000003 L61.78125,43.49625000000003 L64.78125,43.49625000000003 L64.78125,44.49625000000003 L61.78125,44.49625000000003 Z M69.78125,43.49625000000003 L69.78125,43.49625000000003 L72.78125,43.49625000000003 L72.78125,44.49625000000003 L69.78125,44.49625000000003 Z M77.78125,43.49625000000003 L77.78125,43.49625000000003 L80.78125,43.49625000000003 L80.78125,44.49625000000003 L77.78125,44.49625000000003 Z M85.78125,43.49625000000003 L85.78125,43.49625000000003 L88.78125,43.49625000000003 L88.78125,44.49625000000003 L85.78125,44.49625000000003 Z M93.78125,43.49625000000003 L93.78125,43.49625000000003 L96.78125,43.49625000000003 L96.78125,44.49625000000003 L93.78125,44.49625000000003 Z M101.78125,43.49625000000003 L101.78125,43.49625000000003 L104.78125,43.49625000000003 L104.78125,44.49625000000003 L101.78125,44.49625000000003 Z M109.78125,43.49625000000003 L109.78125,43.49625000000003 L112.78125,43.49625000000003 L112.78125,44.49625000000003 L109.78125,44.49625000000003 Z M117.78125,43.49625000000003 L117.78125,43.49625000000003 L120.78125,43.49625000000003 L120.78125,44.49625000000003 L117.78125,44.49625000000003 Z M125.78125,43.49625000000003 L125.78125,43.49625000000003 L128.78125,43.49625000000003 L128.78125,44.49625000000003 L125.78125,44.49625000000003 Z M133.78125,43.49625000000003 L133.78125,43.49625000000003 L136.78125,43.49625000000003 L136.78125,44.49625000000003 L133.78125,44.49625000000003 Z M141.78125,43.49625000000003 L141.78125,43.49625000000003 L144.78125,43.49625000000003 L144.78125,44.49625000000003 L141.78125,44.49625000000003 Z M149.78125,43.49625000000003 L149.78125,43.49625000000003 L152.78125,43.49625000000003 L152.78125,44.49625000000003 L149.78125,44.49625000000003 Z M157.78125,43.49625000000003 L157.78125,43.49625000000003 L160.78125,43.49625000000003 L160.78125,44.49625000000003 L157.78125,44.49625000000003 Z M165.78125,43.49625000000003 L165.78125,43.49625000000003 L168.78125,43.49625000000003 L168.78125,44.49625000000003 L165.78125,44.49625000000003 Z M173.78125,43.49625000000003 L173.78125,43.49625000000003 L176.78125,43.49625000000003 L176.78125,44.49625000000003 L173.78125,44.49625000000003 Z M181.78125,43.49625000000003 L181.78125,43.49625000000003 L184.78125,43.49625000000003 L184.78125,44.49625000000003 L181.78125,44.49625000000003 Z M189.78125,43.49625000000003 L189.78125,43.49625000000003 L192.78125,43.49625000000003 L192.78125,44.49625000000003 L189.78125,44.49625000000003 Z M197.78125,43.49625000000003 L197.78125,43.49625000000003 L200.78125,43.49625000000003 L200.78125,44.49625000000003 L197.78125,44.49625000000003 Z M205.78125,43.49625000000003 L205.78125,43.49625000000003 L208.78125,43.49625000000003 L208.78125,44.49625000000003 L205.78125,44.49625000000003 Z M213.78125,43.49625000000003 L213.78125,43.49625000000003 L216.78125,43.49625000000003 L216.78125,44.49625000000003 L213.78125,44.49625000000003 Z M221.78125,43.49625000000003 L221.78125,43.49625000000003 L224.78125,43.49625000000003 L224.78125,44.49625000000003 L221.78125,44.49625000000003 Z M229.78125,43.49625000000003 L229.78125,43.49625000000003 L232.78125,43.49625000000003 L232.78125,44.49625000000003 L229.78125,44.49625000000003 Z M237.78125,43.49625000000003 L237.78125,43.49625000000003 L240.78125,43.49625000000003 L240.78125,44.49625000000003 L237.78125,44.49625000000003 Z M245.78125,43.49625000000003 L245.78125,43.49625000000003 L248.78125,43.49625000000003 L248.78125,44.49625000000003 L245.78125,44.49625000000003 Z M253.78125,43.49625000000003 L253.78125,43.49625000000003 L256.78125,43.49625000000003 L256.78125,44.49625000000003 L253.78125,44.49625000000003 Z M261.78125,43.49625000000003 L261.78125,43.49625000000003 L264.78125,43.49625000000003 L264.78125,44.49625000000003 L261.78125,44.49625000000003 Z M269.78125,43.49625000000003 L269.78125,43.49625000000003 L272.78125,43.49625000000003 L272.78125,44.49625000000003 L269.78125,44.49625000000003 Z M277.78125,43.49625000000003 L277.78125,43.49625000000003 L280.78125,43.49625000000003 L280.78125,44.49625000000003 L277.78125,44.49625000000003 Z M285.78125,43.49625000000003 L285.78125,43.49625000000003 L288.78125,43.49625000000003 L288.78125,44.49625000000003 L285.78125,44.49625000000003 Z M293.78125,43.49625000000003 L293.78125,43.49625000000003 L296.78125,43.49625000000003 L296.78125,44.49625000000003 L293.78125,44.49625000000003 Z M301.78125,43.49625000000003 L301.78125,43.49625000000003 L304.78125,43.49625000000003 L304.78125,44.49625000000003 L301.78125,44.49625000000003 Z M309.78125,43.49625000000003 L309.78125,43.49625000000003 L312.78125,43.49625000000003 L312.78125,44.49625000000003 L309.78125,44.49625000000003 Z M317.78125,43.49625000000003 L317.78125,43.49625000000003 L320.78125,43.49625000000003 L320.78125,44.49625000000003 L317.78125,44.49625000000003 Z M325.78125,43.49625000000003 L325.78125,43.49625000000003 L328.78125,43.49625000000003 L328.78125,44.49625000000003 L325.78125,44.49625000000003 Z M333.78125,43.49625000000003 L333.78125,43.49625000000003 L336.78125,43.49625000000003 L336.78125,44.49625000000003 L333.78125,44.49625000000003 Z M341.78125,43.49625000000003 L341.78125,43.49625000000003 L344.78125,43.49625000000003 L344.78125,44.49625000000003 L341.78125,44.49625000000003 Z M349.78125,43.49625000000003 L349.78125,43.49625000000003 L352.78125,43.49625000000003 L352.78125,44.49625000000003 L349.78125,44.49625000000003 Z M357.78125,43.49625000000003 L357.78125,43.49625000000003 L360.78125,43.49625000000003 L360.78125,44.49625000000003 L357.78125,44.49625000000003 Z M365.78125,43.49625000000003 L365.78125,43.49625000000003 L368.78125,43.49625000000003 L368.78125,44.49625000000003 L365.78125,44.49625000000003 Z M373.78125,43.49625000000003 L373.78125,43.49625000000003 L376.78125,43.49625000000003 L376.78125,44.49625000000003 L373.78125,44.49625000000003 Z M381.78125,43.49625000000003 L381.78125,43.49625000000003 L384.78125,43.49625000000003 L384.78125,44.49625000000003 L381.78125,44.49625000000003 Z M389.78125,43.49625000000003 L389.78125,43.49625000000003 L392.78125,43.49625000000003 L392.78125,44.49625000000003 L389.78125,44.49625000000003 Z M397.78125,43.49625000000003 L397.78125,43.49625000000003 L400.78125,43.49625000000003 L400.78125,44.49625000000003 L397.78125,44.49625000000003 Z M405.78125,43.49625000000003 L405.78125,43.49625000000003 L408.78125,43.49625000000003 L408.78125,44.49625000000003 L405.78125,44.49625000000003 Z M413.78125,43.49625000000003 L413.78125,43.49625000000003 L416.78125,43.49625000000003 L416.78125,44.49625000000003 L413.78125,44.49625000000003 Z M421.78125,43.49625000000003 L421.78125,43.49625000000003 L424.78125,43.49625000000003 L424.78125,44.49625000000003 L421.78125,44.49625000000003 Z M429.78125,43.49625000000003 L429.78125,43.49625000000003 L432.78125,43.49625000000003 L432.78125,44.49625000000003 L429.78125,44.49625000000003 Z M437.78125,43.49625000000003 L437.78125,43.49625000000003 L440.78125,43.49625000000003 L440.78125,44.49625000000003 L437.78125,44.49625000000003 Z M445.78125,43.49625000000003 L445.78125,43.49625000000003 L448.78125,43.49625000000003 L448.78125,44.49625000000003 L445.78125,44.49625000000003 Z M453.78125,43.49625000000003 L453.78125,43.49625000000003 L456.78125,43.49625000000003 L456.78125,44.49625000000003 L453.78125,44.49625000000003 Z M461.78125,43.49625000000003 L461.78125,43.49625000000003 L464.78125,43.49625000000003 L464.78125,44.49625000000003 L461.78125,44.49625000000003 Z M469.78125,43.49625000000003 L469.78125,43.49625000000003 L472.78125,43.49625000000003 L472.78125,44.49625000000003 L469.78125,44.49625000000003 Z M477.78125,43.49625000000003 L477.78125,43.49625000000003 L480.78125,43.49625000000003 L480.78125,44.49625000000003 L477.78125,44.49625000000003 Z M485.78125,43.49625000000003 L485.78125,43.49625000000003 L488.78125,43.49625000000003 L488.78125,44.49625000000003 L485.78125,44.49625000000003 Z M493.78125,43.49625000000003 L493.78125,43.49625000000003 L496.78125,43.49625000000003 L496.78125,44.49625000000003 L493.78125,44.49625000000003 Z M501.78125,43.49625000000003 L501.78125,43.49625000000003 L503.765625,43.49625000000003 L503.765625,44.49625000000003 L501.78125,44.49625000000003 Z M45.78125,43.49625000000003 L45.78125,43.49625000000003 L48.78125,43.49625000000003 L48.78125,44.49625000000003 L45.78125,44.49625000000003 Z" style="fill:none;stroke:rgb(210,210,210);stroke-miterlimit:10;stroke-linejoin:bevel;stroke-dasharray:3,5;"/>
    <path d="M64.60062499999998,39.1875 L64.60062499999998,39.1875 L64.60062499999998,42.1875 L63.60062499999998,42.1875 L63.60062499999998,39.1875 Z M64.60062499999998,47.1875 L64.60062499999998,47.1875 L64.60062499999998,50.1875 L63.60062499999998,50.1875 L63.60062499999998,47.1875 Z M64.60062499999998,55.1875 L64.60062499999998,55.1875 L64.60062499999998,58.1875 L63.60062499999998,58.1875 L63.60062499999998,55.1875 Z M64.60062499999998,63.1875 L64.60062499999998,63.1875 L64.60062499999998,66.1875 L63.60062499999998,66.1875 L63.60062499999998,63.1875 Z M64.60062499999998,71.1875 L64.60062499999998,71.1875 L64.60062499999998,74.1875 L63.60062499999998,74.1875 L63.60062499999998,71.1875 Z M64.60062499999998,79.1875 L64.60062499999998,79.1875 L64.60062499999998,82.1875 L63.60062499999998,82.1875 L63.60062499999998,79.1875 Z M64.60062499999998,87.1875 L64.60062499999998,87.1875 L64.60062499999998,90.1875 L63.60062499999998,90.1875 L63.60062499999998,87.1875 Z M64.60062499999998,95.1875 L64.60062499999998,95.1875 L64.60062499999998,98.1875 L63.60062499999998,98.1875 L63.60062499999998,95.1875 Z M64.60062499999998,103.1875 L64.60062499999998,103.1875 L64.60062499999998,106.1875 L63.60062499999998,106.1875 L63.60062499999998,103.1875 Z M64.60062499999998,111.1875 L64.60062499999998,111.1875 L64.60062499999998,114.1875 L63.60062499999998,114.1875 L63.60062499999998,111.1875 Z M64.60062499999998,119.1875 L64.60062499999998,119.1875 L64.60062499999998,122.1875 L63.60062499999998,122.1875 L63.60062499999998,119.1875 Z M64.60062499999998,127.1875 L64.60062499999998,127.1875 L64.60062499999998,130.1875 L63.60062499999998,130.1875 L63.60062499999998,127.1875 Z M64.60062499999998,135.1875 L64.60062499999998,135.1875 L64.60062499999998,138.1875 L63.60062499999998,138.1875 L63.60062499999998,135.1875 Z M64.60062499999998,143.1875 L64.60062499999998,143.1875 L64.60062499999998,146.1875 L63.60062499999998,146.1875 L63.60062499999998,143.1875 Z M64.60062499999998,151.1875 L64.60062499999998,151.1875 L64.60062499999998,154.1875 L63.60062499999998,154.1875 L63.60062499999998,151.1875 Z M64.60062499999998,159.1875 L64.60062499999998,159.1875 L64.60062499999998,162.1875 L63.60062499999998,162.1875 L63.60062499999998,159.1875 Z M64.60062499999998,167.1875 L64.60062499999998,167.1875 L64.60062499999998,170.1875 L63.60062499999998,170.1875 L63.60062499999998,167.1875 Z M64.60062499999998,175.1875 L64.60062499999998,175.1875 L64.60062499999998,178.1875 L63.60062499999998,178.1875 L63.60062499999998,175.1875 Z M64.60062499999998,183.1875 L64.60062499999998,183.1875 L64.60062499999998,186.1875 L63.60062499999998,186.1875 L63.60062499999998,183.1875 Z M64.60062499999998,191.1875 L64.60062499999998,191.1875 L64.60062499999998,194.1875 L63.60062499999998,194.1875 L63.60062499999998,191.1875 Z M64.60062499999998,199.1875 L64.60062499999998,199.1875 L64.60062499999998,202.1875 L63.60062499999998,202.1875 L63.60062499999998,199.1875 Z M64.60062499999998,207.1875 L64.60062499999998,207.1875 L64.60062499999998,210.1875 L63.60062499999998,210.1875 L63.60062499999998,207.1875 Z M64.60062499999998,215.1875 L64.60062499999998,215.1875 L64.60062499999998,218.1875 L63.60062499999998,218.1875 L63.60062499999998,215.1875 Z M64.60062499999998,223.1875 L64.60062499999998,223.1875 L64.60062499999998,226.1875 L63.60062499999998,226.1875 L63.60062499999998,223.1875 Z M64.60062499999998,231.1875 L64.60062499999998,231.1875 L64.60062499999998,234.1875 L63.60062499999998,234.1875 L63.60062499999998,231.1875 Z M64.60062499999998,239.1875 L64.60062499999998,239.1875 L64.60062499999998,242.1875 L63.60062499999998,242.1875 L63.60062499999998,239.1875 Z M64.60062499999998,247.1875 L64.60062499999998,247.1875 L64.60062499999998,250.1875 L63.60062499999998,250.1875 L63.60062499999998,247.1875 Z M64.60062499999998,255.1875 L64.60062499999998,255.1875 L64.60062499999998,258.1875 L63.60062499999998,258.1875 L63.60062499999998,255.1875 Z M64.60062499999998,263.1875 L64.60062499999998,263.1875 L64.60062499999998,266.1875 L63.60062499999998,266.1875 L63.60062499999998,263.1875 Z M64.60062499999998,271.1875 L64.60062499999998,271.1875 L64.60062499999998,274.1875 L63.60062499999998,274.1875 L63.60062499999998,271.1875 Z M64.60062499999998,279.1875 L64.60062499999998,279.1875 L64.60062499999998,282.1875 L63.60062499999998,282.1875 L63.60062499999998,279.1875 Z M64.60062499999998,287.1875 L64.60062499999998,287.1875 L64.60062499999998,290.1875 L63.60062499999998,290.1875 L63.60062499999998,287.1875 Z M64.60062499999998,295.1875 L64.60062499999998,295.1875 L64.60062499999998,298.1875 L63.60062499999998,298.1875 L63.60062499999998,295.1875 Z M64.60062499999998,303.1875 L64.60062499999998,303.1875 L64.60062499999998,306.1875 L63.60062499999998,306.1875 L63.60062499999998,303.1875 Z M64.60062499999998,311.1875 L64.60062499999998,311.1875 L64.60062499999998,314.1875 L63.60062499999998,314.1875 L63.60062499999998,311.1875 Z M64.60062499999998,319.1875 L64.60062499999998,319.1875 L64.60062499999998,322.1875 L63.60062499999998,322.1875 L63.60062499999998,319.1875 Z M64.60062499999998,327.1875 L64.60062499999998,327.1875 L64.60062499999998,330.1875 L63.60062499999998,330.1875 L63.60062499999998,327.1875 Z M64.60062499999998,335.1875 L64.60062499999998,335.1875 L64.60062499999998,338.1875 L63.60062499999998,338.1875 L63.60062499999998,335.1875 Z M64.60062499999998,343.1875 L64.60062499999998,343.1875 L64.60062499999998,346.1875 L63.60062499999998,346.1875 L63.60062499999998,343.1875 Z M64.60062499999998,351.1875 L64.60062499999998,351.1875 L64.60062499999998,351.40625 L63.60062499999998,351.40625 L63.60062499999998,351.1875 Z M64.60062499999998,31.1875 L64.60062499999998,31.1875 L64.60062499999998,34.1875 L63.60062499999998,34.1875 L63.60062499999998,31.1875 Z" style="fill:none;stroke:rgb(210,210,210);stroke-miterlimit:10;stroke-linejoin:bevel;stroke-dasharray:3,5;"/>
    <path d="M275.2734375,39.1875 L275.2734375,39.1875 L275.2734375,42.1875 L274.2734375,42.1875 L274.2734375,39.1875 Z M275.2734375,47.1875 L275.2734375,47.1875 L275.2734375,50.1875 L274.2734375,50.1875 L274.2734375,47.1875 Z M275.2734375,55.1875 L275.2734375,55.1875 L275.2734375,58.1875 L274.2734375,58.1875 L274.2734375,55.1875 Z M275.2734375,63.1875 L275.2734375,63.1875 L275.2734375,66.1875 L274.2734375,66.1875 L274.2734375,63.1875 Z M275.2734375,71.1875 L275.2734375,71.1875 L275.2734375,74.1875 L274.2734375,74.1875 L274.2734375,71.1875 Z M275.2734375,79.1875 L275.2734375,79.1875 L275.2734375,82.1875 L274.2734375,82.1875 L274.2734375,79.1875 Z M275.2734375,87.1875 L275.2734375,87.1875 L275.2734375,90.1875 L274.2734375,90.1875 L274.2734375,87.1875 Z M275.2734375,95.1875 L275.2734375,95.1875 L275.2734375,98.1875 L274.2734375,98.1875 L274.2734375,95.1875 Z M275.2734375,103.1875 L275.2734375,103.1875 L275.2734375,106.1875 L274.2734375,106.1875 L274.2734375,103.1875 Z M275.2734375,111.1875 L275.2734375,111.1875 L275.2734375,114.1875 L274.2734375,114.1875 L274.2734375,111.1875 Z M275.2734375,119.1875 L275.2734375,119.1875 L275.2734375,122.1875 L274.2734375,122.1875 L274.2734375,119.1875 Z M275.2734375,127.1875 L275.2734375,127.1875 L275.2734375,130.1875 L274.2734375,130.1875 L274.2734375,127.1875 Z M275.2734375,135.1875 L275.2734375,135.1875 L275.2734375,138.1875 L274.2734375,138.1875 L274.2734375,135.1875 Z M275.2734375,143.1875 L275.2734375,143.1875 L275.2734375,146.1875 L274.2734375,146.1875 L274.2734375,143.1875 Z M275.2734375,151.1875 L275.2734375,151.1875 L275.2734375,154.1875 L274.2734375,154.1875 L274.2734375,151.1875 Z M275.2734375,159.1875 L275.2734375,159.1875 L275.2734375,162.1875 L274.2734375,162.1875 L274.2734375,159.1875 Z M275.2734375,167.1875 L275.2734375,167.1875 L275.2734375,170.1875 L274.2734375,170.1875 L274.2734375,167.1875 Z M275.2734375,175.1875 L275.2734375,175.1875 L275.2734375,178.1875 L274.2734375,178.1875 L274.2734375,175.1875 Z M275.2734375,183.1875 L275.2734375,183.1875 L275.2734375,186.1875 L274.2734375,186.1875 L274.2734375,183.1875 Z M275.2734375,191.1875 L275.2734375,191.1875 L275.2734375,194.1875 L274.2734375,194.1875 L274.2734375,191.1875 Z M275.2734375,199.1875 L275.2734375,199.1875 L275.2734375,202.1875 L274.2734375,202.1875 L274.2734375,199.1875 Z M275.2734375,207.1875 L275.2734375,207.1875 L275.2734375,210.1875 L274.2734375,210.1875 L274.2734375,207.1875 Z M275.2734375,215.1875 L275.2734375,215.1875 L275.2734375,218.1875 L274.2734375,218.1875 L274.2734375,215.1875 Z M275.2734375,223.1875 L275.2734375,223.1875 L275.2734375,226.1875 L274.2734375,226.1875 L274.2734375,223.1875 Z M275.2734375,231.1875 L275.2734375,231.1875 L275.2734375,234.1875 L274.2734375,234.1875 L274.2734375,231.1875 Z M275.2734375,239.1875 L275.2734375,239.1875 L275.2734375,242.1875 L274.2734375,242.1875 L274.2734375,239.1875 Z M275.2734375,247.1875 L275.2734375,247.1875 L275.2734375,250.1875 L274.2734375,250.1875 L274.2734375,247.1875 Z M275.2734375,255.1875 L275.2734375,255.1875 L275.2734375,258.1875 L274.2734375,258.1875 L274.2734375,255.1875 Z M275.2734375,263.1875 L275.2734375,263.1875 L275.2734375,266.1875 L274.2734375,266.1875 L274.2734375,263.1875 Z M275.2734375,271.1875 L275.2734375,271.1875 L275.2734375,274.1875 L274.2734375,274.1875 L274.2734375,271.1875 Z M275.2734375,279.1875 L275.2734375,279.1875 L275.2734375,282.1875 L274.2734375,282.1875 L274.2734375,279.1875 Z M275.2734375,287.1875 L275.2734375,287.1875 L275.2734375,290.1875 L274.2734375,290.1875 L274.2734375,287.1875 Z M275.2734375,295.1875 L275.2734375,295.1875 L275.2734375,298.1875 L274.2734375,298.1875 L274.2734375,295.1875 Z M275.2734375,303.1875 L275.2734375,303.1875 L275.2734375,306.1875 L274.2734375,306.1875 L274.2734375,303.1875 Z M275.2734375,311.1875 L275.2734375,311.1875 L275.2734375,314.1875 L274.2734375,314.1875 L274.2734375,311.1875 Z M275.2734375,319.1875 L275.2734375,319.1875 L275.2734375,322.1875 L274.2734375,322.1875 L274.2734375,319.1875 Z M275.2734375,327.1875 L275.2734375,327.1875 L275.2734375,330.1875 L274.2734375,330.1875 L274.2734375,327.1875 Z M275.2734375,335.1875 L275.2734375,335.1875 L275.2734375,338.1875 L274.2734375,338.1875 L274.2734375,335.1875 Z M275.2734375,343.1875 L275.2734375,343.1875 L275.2734375,346.1875 L274.2734375,346.1875 L274.2734375,343.1875 Z M275.2734375,351.1875 L275.2734375,351.1875 L275.2734375,351.40625 L274.2734375,351.40625 L274.2734375,351.1875 Z M275.2734375,31.1875 L275.2734375,31.1875 L275.2734375,34.1875 L274.2734375,34.1875 L274.2734375,31.1875 Z" style="fill:none;stroke:rgb(210,210,210);stroke-miterlimit:10;stroke-linejoin:bevel;stroke-dasharray:3,5;"/>
    <path d="M485.94625,39.1875 L485.94625,39.1875 L485.94625,42.1875 L484.94625,42.1875 L484.94625,39.1875 Z M485.94625,47.1875 L485.94625,47.1875 L485.94625,50.1875 L484.94625,50.1875 L484.94625,47.1875 Z M485.94625,55.1875 L485.94625,55.1875 L485.94625,58.1875 L484.94625,58.1875 L484.94625,55.1875 Z M485.94625,63.1875 L485.94625,63.1875 L485.94625,66.1875 L484.94625,66.1875 L484.94625,63.1875 Z M485.94625,71.1875 L485.94625,71.1875 L485.94625,74.1875 L484.94625,74.1875 L484.94625,71.1875 Z M485.94625,79.1875 L485.94625,79.1875 L485.94625,82.1875 L484.94625,82.1875 L484.94625,79.1875 Z M485.94625,87.1875 L485.94625,87.1875 L485.94625,90.1875 L484.94625,90.1875 L484.94625,87.1875 Z M485.94625,95.1875 L485.94625,95.1875 L485.94625,98.1875 L484.94625,98.1875 L484.94625,95.1875 Z M485.94625,103.1875 L485.94625,103.1875 L485.94625,106.1875 L484.94625,106.1875 L484.94625,103.1875 Z M485.94625,111.1875 L485.94625,111.1875 L485.94625,114.1875 L484.94625,114.1875 L484.94625,111.1875 Z M485.94625,119.1875 L485.94625,119.1875 L485.94625,122.1875 L484.94625,122.1875 L484.94625,119.1875 Z M485.94625,127.1875 L485.94625,127.1875 L485.94625,130.1875 L484.94625,130.1875 L484.94625,127.1875 Z M485.94625,135.1875 L485.94625,135.1875 L485.94625,138.1875 L484.94625,138.1875 L484.94625,135.1875 Z M485.94625,143.1875 L485.94625,143.1875 L485.94625,146.1875 L484.94625,146.1875 L484.94625,143.1875 Z M485.94625,151.1875 L485.94625,151.1875 L485.94625,154.1875 L484.94625,154.1875 L484.94625,151.1875 Z M485.94625,159.1875 L485.94625,159.1875 L485.94625,162.1875 L484.94625,162.1875 L484.94625,159.1875 Z M485.94625,167.1875 L485.94625,167.1875 L485.94625,170.1875 L484.94625,170.1875 L484.94625,167.1875 Z M485.94625,175.1875 L485.94625,175.1875 L485.94625,178.1875 L484.94625,178.1875 L484.94625,175.1875 Z M485.94625,183.1875 L485.94625,183.1875 L485.94625,186.1875 L484.94625,186.1875 L484.94625,183.1875 Z M485.94625,191.1875 L485.94625,191.1875 L485.94625,194.1875 L484.94625,194.1875 L484.94625,191.1875 Z M485.94625,199.1875 L485.94625,199.1875 L485.94625,202.1875 L484.94625,202.1875 L484.94625,199.1875 Z M485.94625,207.1875 L485.94625,207.1875 L485.94625,210.1875 L484.94625,210.1875 L484.94625,207.1875 Z M485.94625,215.1875 L485.94625,215.1875 L485.94625,218.1875 L484.94625,218.1875 L484.94625,215.1875 Z M485.94625,223.1875 L485.94625,223.1875 L485.94625,226.1875 L484.94625,226.1875 L484.94625,223.1875 Z M485.94625,231.1875 L485.94625,231.1875 L485.94625,234.1875 L484.94625,234.1875 L484.94625,231.1875 Z M485.94625,239.1875 L485.94625,239.1875 L485.94625,242.1875 L484.94625,242.1875 L484.94625,239.1875 Z M485.94625,247.1875 L485.94625,247.1875 L485.94625,250.1875 L484.94625,250.1875 L484.94625,247.1875 Z M485.94625,255.1875 L485.94625,255.1875 L485.94625,258.1875 L484.94625,258.1875 L484.94625,255.1875 Z M485.94625,263.1875 L485.94625,263.1875 L485.94625,266.1875 L484.94625,266.1875 L484.94625,263.1875 Z M485.94625,271.1875 L485.94625,271.1875 L485.94625,274.1875 L484.94625,274.1875 L484.94625,271.1875 Z M485.94625,279.1875 L485.94625,279.1875 L485.94625,282.1875 L484.94625,282.1875 L484.94625,279.1875 Z M485.94625,287.1875 L485.94625,287.1875 L485.94625,290.1875 L484.94625,290.1875 L484.94625,287.1875 Z M485.94625,295.1875 L485.94625,295.1875 L485.94625,298.1875 L484.94625,298.1875 L484.94625,295.1875 Z M485.94625,303.1875 L485.94625,303.1875 L485.94625,306.1875 L484.94625,306.1875 L484.94625,303.1875 Z M485.94625,311.1875 L485.94625,311.1875 L485.94625,314.1875 L484.94625,314.1875 L484.94625,311.1875 Z M485.94625,319.1875 L485.94625,319.1875 L485.94625,322.1875 L484.94625,322.1875 L484.94625,319.1875 Z M485.94625,327.1875 L485.94625,327.1875 L485.94625,330.1875 L484.94625,330.1875 L484.94625,327.1875 Z M485.94625,335.1875 L485.94625,335.1875 L485.94625,338.1875 L484.94625,338.1875 L484.94625,335.1875 Z M485.94625,343.1875 L485.94625,343.1875 L485.94625,346.1875 L484.94625,346.1875 L484.94625,343.1875 Z M485.94625,351.1875 L485.94625,351.1875 L485.94625,351.40625 L484.94625,351.40625 L484.94625,351.1875 Z M485.94625,31.1875 L485.94625,31.1875 L485.94625,34.1875 L484.94625,34.1875 L484.94625,31.1875 Z" style="fill:none;stroke:rgb(210,210,210);stroke-miterlimit:10;stroke-linejoin:bevel;stroke-dasharray:3,5;"/>
    <rect height="320.21875" style="fill:none;stroke:rgb(130,130,130);stroke-miterlimit:10;stroke-linejoin:bevel;stroke-dasharray:3,0;" width="457.984375" x="45.78125" y="31.1875"/>
  </g>
  <g clip-path="url(#clip866405824)">
    <line style="fill:none;stroke:rgb(0,55,255);stroke-opacity:0.705882352941177;stroke-width:2;stroke-miterlimit:10;stroke-linecap:round;" x1="63.60843749999998" x2="274.28125" y1="338.70687499999997" y2="191.40625"/>
    <line style="fill:none;stroke:rgb(0,55,255);stroke-opacity:0.705882352941177;stroke-width:2;stroke-miterlimit:10;stroke-linecap:round;" x1="274.28125" x2="484.9540625" y1="191.40625" y2="44.10562500000003"/>
  </g>
  <g transform="translate(216.6435546875 26.1875)">
    <path d="M1.03125,-0 L1.03125,-10.015625 L3.046875,-10.015625 L3.046875,-6.078125 L7.015625,-6.078125 L7.015625,-10.015625 L9.03125,-10.015625 L9.03125,-0 L7.015625,-0 L7.015625,-4.375 L3.046875,-4.375 L3.046875,-0 L1.03125,-0 Z M15.3134765625,-2.3125 L17.2353515625,-1.984375 Q16.8603515625,-0.9375 16.0634765625,-0.375 Q15.2666015625,0.171875 14.0791015625,0.171875 Q12.1884765625,0.171875 11.2666015625,-1.078125 Q10.5478515625,-2.0625 10.5478515625,-3.578125 Q10.5478515625,-5.375 11.4853515625,-6.390625 Q12.4384765625,-7.421875 13.8916015625,-7.421875 Q15.5009765625,-7.421875 16.4384765625,-6.34375 Q17.3759765625,-5.28125 17.3291015625,-3.078125 L12.5166015625,-3.078125 Q12.5478515625,-2.21875 12.9853515625,-1.734375 Q13.4384765625,-1.265625 14.0947265625,-1.265625 Q14.5478515625,-1.265625 14.8447265625,-1.515625 Q15.1572265625,-1.765625 15.3134765625,-2.3125 Z M15.4228515625,-4.25 Q15.4072265625,-5.09375 15.0009765625,-5.515625 Q14.5947265625,-5.953125 14.0009765625,-5.953125 Q13.3759765625,-5.953125 12.9541015625,-5.5 Q12.5478515625,-5.03125 12.5634765625,-4.25 L15.4228515625,-4.25 Z M18.896484375,0 L18.896484375,-10.015625 L20.818359375,-10.015625 L20.818359375,0 L18.896484375,0 Z M22.7861328125,0 L22.7861328125,-10.015625 L24.7080078125,-10.015625 L24.7080078125,0 L22.7861328125,0 Z M26.23828125,-3.734375 Q26.23828125,-4.6875 26.70703125,-5.578125 Q27.17578125,-6.484375 28.03515625,-6.953125 Q28.91015625,-7.421875 29.97265625,-7.421875 Q31.62890625,-7.421875 32.67578125,-6.34375 Q33.72265625,-5.28125 33.72265625,-3.65625 Q33.72265625,-2 32.66015625,-0.90625 Q31.59765625,0.171875 29.98828125,0.171875 Q28.98828125,0.171875 28.08203125,-0.28125 Q27.17578125,-0.734375 26.70703125,-1.609375 Q26.23828125,-2.484375 26.23828125,-3.734375 Z M28.20703125,-3.625 Q28.20703125,-2.546875 28.72265625,-1.96875 Q29.23828125,-1.40625 29.98828125,-1.40625 Q30.73828125,-1.40625 31.23828125,-1.96875 Q31.75390625,-2.546875 31.75390625,-3.640625 Q31.75390625,-4.703125 31.23828125,-5.28125 Q30.73828125,-5.859375 29.98828125,-5.859375 Q29.23828125,-5.859375 28.72265625,-5.28125 Q28.20703125,-4.703125 28.20703125,-3.625 Z M47.1953125,-1.265625 Q47.9453125,-0.734375 48.8203125,-0.421875 L48.0703125,1 Q47.6171875,0.875 47.1796875,0.625 Q47.0859375,0.578125 45.8359375,-0.265625 Q44.8515625,0.171875 43.6484375,0.171875 Q41.3515625,0.171875 40.0390625,-1.1875 Q38.7265625,-2.546875 38.7265625,-5.015625 Q38.7265625,-7.46875 40.0390625,-8.828125 Q41.3515625,-10.1875 43.6015625,-10.1875 Q45.8359375,-10.1875 47.1328125,-8.828125 Q48.4453125,-7.46875 48.4453125,-5.015625 Q48.4453125,-3.71875 48.0703125,-2.734375 Q47.8046875,-1.96875 47.1953125,-1.265625 Z M45.5703125,-2.40625 Q45.9609375,-2.875 46.1484375,-3.515625 Q46.3515625,-4.171875 46.3515625,-5.015625 Q46.3515625,-6.75 45.5859375,-7.609375 Q44.8203125,-8.46875 43.5859375,-8.46875 Q42.3515625,-8.46875 41.5703125,-7.59375 Q40.8046875,-6.734375 40.8046875,-5.015625 Q40.8046875,-3.25 41.5703125,-2.375 Q42.3515625,-1.515625 43.5234375,-1.515625 Q43.9609375,-1.515625 44.3515625,-1.65625 Q43.7421875,-2.0625 43.1015625,-2.28125 L43.6640625,-3.4375 Q44.6640625,-3.09375 45.5703125,-2.40625 Z M54.7880859375,0 L54.7880859375,-1.09375 Q54.3974609375,-0.5 53.7412109375,-0.15625 Q53.1005859375,0.171875 52.3818359375,0.171875 Q51.6474609375,0.171875 51.0693359375,-0.15625 Q50.4912109375,-0.484375 50.2255859375,-1.0625 Q49.9755859375,-1.640625 49.9755859375,-2.671875 L49.9755859375,-7.265625 L51.8974609375,-7.265625 L51.8974609375,-3.921875 Q51.8974609375,-2.390625 51.9912109375,-2.046875 Q52.1005859375,-1.703125 52.3818359375,-1.5 Q52.6630859375,-1.296875 53.1005859375,-1.296875 Q53.5849609375,-1.296875 53.9755859375,-1.5625 Q54.3662109375,-1.84375 54.5068359375,-2.234375 Q54.6474609375,-2.640625 54.6474609375,-4.203125 L54.6474609375,-7.265625 L56.5693359375,-7.265625 L56.5693359375,0 L54.7880859375,0 Z M58.55859375,-8.25 L58.55859375,-10.015625 L60.48046875,-10.015625 L60.48046875,-8.25 L58.55859375,-8.25 Z M58.55859375,0 L58.55859375,-7.265625 L60.48046875,-7.265625 L60.48046875,0 L58.55859375,0 Z M68.7763671875,-5.109375 L66.8857421875,-4.765625 Q66.7919921875,-5.34375 66.4482421875,-5.625 Q66.1201171875,-5.90625 65.5732421875,-5.90625 Q64.8544921875,-5.90625 64.4326171875,-5.40625 Q64.0107421875,-4.921875 64.0107421875,-3.765625 Q64.0107421875,-2.46875 64.4326171875,-1.9375 Q64.8701171875,-1.40625 65.6044921875,-1.40625 Q66.1513671875,-1.40625 66.4951171875,-1.71875 Q66.8544921875,-2.03125 66.9951171875,-2.78125 L68.8857421875,-2.46875 Q68.5888671875,-1.15625 67.7451171875,-0.484375 Q66.9169921875,0.171875 65.5107421875,0.171875 Q63.9169921875,0.171875 62.9638671875,-0.828125 Q62.0263671875,-1.84375 62.0263671875,-3.625 Q62.0263671875,-5.421875 62.9794921875,-6.421875 Q63.9326171875,-7.421875 65.5576171875,-7.421875 Q66.8701171875,-7.421875 67.6513671875,-6.84375 Q68.4482421875,-6.28125 68.7763671875,-5.109375 Z M70.171875,0 L70.171875,-10.015625 L72.09375,-10.015625 L72.09375,-4.703125 L74.34375,-7.265625 L76.703125,-7.265625 L74.21875,-4.609375 L76.890625,0 L74.8125,0 L72.984375,-3.265625 L72.09375,-2.328125 L72.09375,0 L70.171875,0 Z M88.34765625,-3.6875 L90.30078125,-3.0625 Q89.84765625,-1.421875 88.80078125,-0.625 Q87.75390625,0.171875 86.14453125,0.171875 Q84.14453125,0.171875 82.84765625,-1.1875 Q81.56640625,-2.5625 81.56640625,-4.921875 Q81.56640625,-7.421875 82.86328125,-8.796875 Q84.16015625,-10.1875 86.26953125,-10.1875 Q88.09765625,-10.1875 89.25390625,-9.109375 Q89.94140625,-8.46875 90.26953125,-7.265625 L88.26953125,-6.78125 Q88.09765625,-7.5625 87.53515625,-8.015625 Q86.97265625,-8.46875 86.16015625,-8.46875 Q85.05078125,-8.46875 84.34765625,-7.65625 Q83.66015625,-6.859375 83.66015625,-5.078125 Q83.66015625,-3.171875 84.33203125,-2.359375 Q85.01953125,-1.5625 86.11328125,-1.5625 Q86.92578125,-1.5625 87.50390625,-2.0625 Q88.08203125,-2.578125 88.34765625,-3.6875 Z M93.9423828125,-10.015625 L93.9423828125,-6.34375 Q94.8642578125,-7.421875 96.1611328125,-7.421875 Q96.8173828125,-7.421875 97.3486328125,-7.171875 Q97.8955078125,-6.9375 98.1611328125,-6.546875 Q98.4267578125,-6.171875 98.5205078125,-5.703125 Q98.6298828125,-5.234375 98.6298828125,-4.265625 L98.6298828125,0 L96.7080078125,0 L96.7080078125,-3.828125 Q96.7080078125,-4.984375 96.5986328125,-5.28125 Q96.4892578125,-5.59375 96.2080078125,-5.765625 Q95.9423828125,-5.953125 95.5205078125,-5.953125 Q95.0361328125,-5.953125 94.6611328125,-5.71875 Q94.2861328125,-5.484375 94.1142578125,-5.015625 Q93.9423828125,-4.546875 93.9423828125,-3.640625 L93.9423828125,0 L92.0205078125,0 L92.0205078125,-10.015625 L93.9423828125,-10.015625 Z M102.009765625,-5.046875 L100.275390625,-5.359375 Q100.556640625,-6.40625 101.275390625,-6.90625 Q101.994140625,-7.421875 103.416015625,-7.421875 Q104.697265625,-7.421875 105.322265625,-7.109375 Q105.962890625,-6.8125 106.212890625,-6.34375 Q106.462890625,-5.875 106.462890625,-4.625 L106.447265625,-2.390625 Q106.447265625,-1.421875 106.541015625,-0.96875 Q106.634765625,-0.515625 106.884765625,0 L104.994140625,0 Q104.916015625,-0.1875 104.806640625,-0.5625 Q104.759765625,-0.734375 104.728515625,-0.796875 Q104.244140625,-0.3125 103.681640625,-0.0625 Q103.119140625,0.171875 102.478515625,0.171875 Q101.369140625,0.171875 100.712890625,-0.4375 Q100.072265625,-1.046875 100.072265625,-1.984375 Q100.072265625,-2.59375 100.369140625,-3.078125 Q100.666015625,-3.5625 101.181640625,-3.8125 Q101.712890625,-4.078125 102.712890625,-4.265625 Q104.056640625,-4.515625 104.587890625,-4.734375 L104.587890625,-4.921875 Q104.587890625,-5.484375 104.306640625,-5.71875 Q104.041015625,-5.953125 103.275390625,-5.953125 Q102.759765625,-5.953125 102.478515625,-5.75 Q102.197265625,-5.546875 102.009765625,-5.046875 Z M104.587890625,-3.484375 Q104.212890625,-3.359375 103.416015625,-3.1875 Q102.619140625,-3.015625 102.369140625,-2.859375 Q101.994140625,-2.59375 101.994140625,-2.1875 Q101.994140625,-1.78125 102.291015625,-1.484375 Q102.587890625,-1.1875 103.056640625,-1.1875 Q103.572265625,-1.1875 104.056640625,-1.53125 Q104.400390625,-1.796875 104.509765625,-2.171875 Q104.587890625,-2.40625 104.587890625,-3.109375 L104.587890625,-3.484375 Z M110.2021484375,0 L108.2802734375,0 L108.2802734375,-7.265625 L110.0615234375,-7.265625 L110.0615234375,-6.234375 Q110.5302734375,-6.953125 110.8896484375,-7.1875 Q111.2490234375,-7.421875 111.7177734375,-7.421875 Q112.3740234375,-7.421875 112.9833984375,-7.0625 L112.3896484375,-5.390625 Q111.9052734375,-5.703125 111.4833984375,-5.703125 Q111.0771484375,-5.703125 110.7958984375,-5.46875 Q110.5302734375,-5.25 110.3583984375,-4.671875 Q110.2021484375,-4.09375 110.2021484375,-2.25 L110.2021484375,0 Z M117.134765625,-7.265625 L117.134765625,-5.734375 L115.822265625,-5.734375 L115.822265625,-2.796875 Q115.822265625,-1.921875 115.853515625,-1.765625 Q115.900390625,-1.625 116.025390625,-1.515625 Q116.166015625,-1.421875 116.369140625,-1.421875 Q116.634765625,-1.421875 117.134765625,-1.609375 L117.291015625,-0.125 Q116.634765625,0.171875 115.775390625,0.171875 Q115.259765625,0.171875 114.837890625,0 Q114.431640625,-0.1875 114.228515625,-0.453125 Q114.041015625,-0.734375 113.962890625,-1.203125 Q113.900390625,-1.546875 113.900390625,-2.5625 L113.900390625,-5.734375 L113.025390625,-5.734375 L113.025390625,-7.265625 L113.900390625,-7.265625 L113.900390625,-8.703125 L115.822265625,-9.828125 L115.822265625,-7.265625 L117.134765625,-7.265625 Z" style="fill:rgb(0,0,0);stroke:none;"/>
  </g>
  <g>
    <rect height="30.328125" style="fill:rgb(255,255,255);stroke:none;" width="76.234375" x="517.765625" y="176.1328125"/>
    <rect height="30.328125" style="fill:none;stroke:rgb(130,130,130);stroke-miterlimit:10;stroke-linejoin:bevel;stroke-dasharray:3,0;" width="76.234375" x="517.765625" y="176.1328125"/>
    <line style="fill:none;stroke:rgb(0,55,255);stroke-opacity:0.705882352941177;stroke-width:2;stroke-miterlimit:10;stroke-linecap:round;" x1="527.765625" x2="551.765625" y1="191.296875" y2="191.296875"/>
  </g>
  <g transform="translate(561.765625 196.4609375)">
    <path d="M3.0625,-0 L3.0625,-3.328125 L0.03125,-7.875 L1.296875,-7.875 L2.859375,-5.5 Q3.28125,-4.828125 3.65625,-4.171875 Q4,-4.78125 4.515625,-5.5625 L6.03125,-7.875 L7.25,-7.875 L4.109375,-3.328125 L4.109375,-0 L3.0625,-0 Z M9.9150390625,2.3125 Q9.1025390625,1.3125 8.5556640625,-0.046875 Q8.0087890625,-1.40625 8.0087890625,-2.859375 Q8.0087890625,-4.125 8.4150390625,-5.296875 Q8.8994140625,-6.65625 9.9150390625,-8.015625 L10.6025390625,-8.015625 Q9.9462890625,-6.890625 9.7431640625,-6.40625 Q9.4150390625,-5.671875 9.2275390625,-4.859375 Q8.9931640625,-3.859375 8.9931640625,-2.84375 Q8.9931640625,-0.265625 10.6025390625,2.3125 L9.9150390625,2.3125 Z M11.046875,0 L14.09375,-4.109375 L11.40625,-7.875 L12.65625,-7.875 L14.078125,-5.859375 Q14.53125,-5.21875 14.71875,-4.890625 Q14.96875,-5.3125 15.328125,-5.78125 L16.921875,-7.875 L18.046875,-7.875 L15.28125,-4.15625 L18.265625,0 L16.984375,0 L15.0,-2.8125 Q14.828125,-3.046875 14.65625,-3.328125 Q14.390625,-2.90625 14.28125,-2.75 L12.296875,0 L11.046875,0 Z M19.6962890625,2.3125 L19.0087890625,2.3125 Q20.6025390625,-0.265625 20.6025390625,-2.84375 Q20.6025390625,-3.859375 20.3837890625,-4.84375 Q20.1962890625,-5.65625 19.8681640625,-6.390625 Q19.6650390625,-6.875 19.0087890625,-8.015625 L19.6962890625,-8.015625 Q20.7119140625,-6.65625 21.1962890625,-5.296875 Q21.6025390625,-4.125 21.6025390625,-2.859375 Q21.6025390625,-1.40625 21.0400390625,-0.046875 Q20.4931640625,1.3125 19.6962890625,2.3125 Z" style="fill:rgb(0,0,0);stroke:none;"/>
  </g>
</svg>
