<?xml version="1.0" encoding="UTF-8" standalone="no"?>
<!DOCTYPE svg PUBLIC "-//W3C//DTD SVG 1.1//EN" "http://www.w3.org/Graphics/SVG/1.1/DTD/svg11.dtd">
<svg xmlns:xlink="http://www.w3.org/1999/xlink" height="400px" version="1.1" viewBox="0 0 600 400" width="600px" x="0px" y="0px" xmlns="http://www.w3.org/2000/svg">
  <defs>
    <clipPath id="clip858232704">
      <rect height="350" width="562.8125" x="27.1875" y="20"/>
    </clipPath>
  </defs>
  <rect height="400" style="fill:rgb(210,210,210);stroke:none;" width="600" x="0" y="0"/>
  <g transform="translate(10 239.75)">
    <path d="M3.734375,-0 L3.734375,-1.734375 L0.21875,-1.734375 L0.21875,-3.171875 L3.953125,-8.625 L5.328125,-8.625 L5.328125,-3.171875 L6.40625,-3.171875 L6.40625,-1.734375 L5.328125,-1.734375 L5.328125,-0 L3.734375,-0 Z M3.734375,-3.171875 L3.734375,-6.109375 L1.765625,-3.171875 L3.734375,-3.171875 Z" style="fill:rgb(0,0,0);stroke:none;"/>
  </g>
  <g transform="translate(10 79.25)">
    <path d="M1.921875,-4.640625 Q1.28125,-4.90625 0.984375,-5.375 Q0.703125,-5.84375 0.703125,-6.40625 Q0.703125,-7.375 1.375,-8 Q2.046875,-8.625 3.28125,-8.625 Q4.5,-8.625 5.171875,-8 Q5.859375,-7.375 5.859375,-6.40625 Q5.859375,-5.8125 5.546875,-5.34375 Q5.234375,-4.875 4.671875,-4.640625 Q5.390625,-4.34375 5.765625,-3.796875 Q6.140625,-3.25 6.140625,-2.53125 Q6.140625,-1.34375 5.375,-0.59375 Q4.625,0.15625 3.359375,0.15625 Q2.1875,0.15625 1.40625,-0.46875 Q0.484375,-1.1875 0.484375,-2.453125 Q0.484375,-3.15625 0.828125,-3.734375 Q1.171875,-4.3125 1.921875,-4.640625 Z M2.265625,-6.296875 Q2.265625,-5.796875 2.53125,-5.515625 Q2.8125,-5.25 3.28125,-5.25 Q3.75,-5.25 4.03125,-5.53125 Q4.3125,-5.8125 4.3125,-6.296875 Q4.3125,-6.765625 4.03125,-7.03125 Q3.75,-7.3125 3.296875,-7.3125 Q2.828125,-7.3125 2.546875,-7.03125 Q2.265625,-6.75 2.265625,-6.296875 Z M2.109375,-2.609375 Q2.109375,-1.9375 2.453125,-1.546875 Q2.8125,-1.171875 3.328125,-1.171875 Q3.84375,-1.171875 4.171875,-1.53125 Q4.5,-1.90625 4.5,-2.59375 Q4.5,-3.203125 4.15625,-3.5625 Q3.828125,-3.9375 3.3125,-3.9375 Q2.703125,-3.9375 2.40625,-3.515625 Q2.109375,-3.09375 2.109375,-2.609375 Z" style="fill:rgb(0,0,0);stroke:none;"/>
  </g>
  <g transform="translate(10 200)">
    <path d="M0.53125,-2.203125 L2.171875,-2.375 Q2.25,-1.828125 2.59375,-1.5 Q2.9375,-1.171875 3.390625,-1.171875 Q3.90625,-1.171875 4.265625,-1.59375 Q4.625,-2.015625 4.625,-2.859375 Q4.625,-3.640625 4.265625,-4.03125 Q3.90625,-4.4375 3.34375,-4.4375 Q2.625,-4.4375 2.0625,-3.8125 L0.734375,-4 L1.578125,-8.46875 L5.9375,-8.46875 L5.9375,-6.9375 L2.828125,-6.9375 L2.5625,-5.46875 Q3.125,-5.75 3.6875,-5.75 Q4.78125,-5.75 5.546875,-4.953125 Q6.3125,-4.15625 6.3125,-2.890625 Q6.3125,-1.828125 5.703125,-0.984375 Q4.859375,0.140625 3.375,0.140625 Q2.1875,0.140625 1.4375,-0.484375 Q0.6875,-1.125 0.53125,-2.203125 Z" style="fill:rgb(0,0,0);stroke:none;"/>
  </g>
  <g transform="translate(10 39)">
    <path d="M0.546875,-1.984375 L2.140625,-2.15625 Q2.203125,-1.671875 2.4375,-1.4375 Q2.6875,-1.203125 3.09375,-1.203125 Q3.609375,-1.203125 3.953125,-1.671875 Q4.3125,-2.140625 4.421875,-3.625 Q3.796875,-2.90625 2.859375,-2.90625 Q1.859375,-2.90625 1.109375,-3.6875 Q0.375,-4.46875 0.375,-5.71875 Q0.375,-7.03125 1.15625,-7.828125 Q1.9375,-8.625 3.140625,-8.625 Q4.4375,-8.625 5.28125,-7.609375 Q6.125,-6.609375 6.125,-4.296875 Q6.125,-1.9375 5.25,-0.890625 Q4.375,0.15625 2.96875,0.15625 Q1.96875,0.15625 1.34375,-0.375 Q0.71875,-0.921875 0.546875,-1.984375 Z M4.265625,-5.578125 Q4.265625,-6.375 3.90625,-6.8125 Q3.546875,-7.265625 3.0625,-7.265625 Q2.609375,-7.265625 2.296875,-6.90625 Q2,-6.546875 2,-5.71875 Q2,-4.890625 2.328125,-4.5 Q2.65625,-4.109375 3.140625,-4.109375 Q3.625,-4.109375 3.9375,-4.484375 Q4.265625,-4.859375 4.265625,-5.578125 Z" style="fill:rgb(0,0,0);stroke:none;"/>
  </g>
  <g transform="translate(10 280.5)">
    <path d="M0.453125,-2.28125 L2.046875,-2.46875 Q2.125,-1.859375 2.453125,-1.53125 Q2.796875,-1.21875 3.265625,-1.21875 Q3.78125,-1.21875 4.125,-1.609375 Q4.46875,-2 4.46875,-2.65625 Q4.46875,-3.265625 4.125,-3.625 Q3.796875,-4 3.328125,-4 Q3,-4 2.5625,-3.875 L2.75,-5.21875 Q3.421875,-5.203125 3.765625,-5.5 Q4.125,-5.8125 4.125,-6.328125 Q4.125,-6.75 3.859375,-7 Q3.609375,-7.265625 3.171875,-7.265625 Q2.75,-7.265625 2.453125,-6.96875 Q2.15625,-6.6875 2.09375,-6.125 L0.578125,-6.375 Q0.734375,-7.15625 1.046875,-7.625 Q1.375,-8.09375 1.9375,-8.359375 Q2.515625,-8.625 3.21875,-8.625 Q4.4375,-8.625 5.171875,-7.859375 Q5.765625,-7.21875 5.765625,-6.421875 Q5.765625,-5.296875 4.53125,-4.625 Q5.28125,-4.453125 5.71875,-3.90625 Q6.15625,-3.359375 6.15625,-2.578125 Q6.15625,-1.453125 5.328125,-0.65625 Q4.5,0.140625 3.28125,0.140625 Q2.109375,0.140625 1.34375,-0.53125 Q0.578125,-1.203125 0.453125,-2.28125 Z" style="fill:rgb(0,0,0);stroke:none;"/>
  </g>
  <g transform="translate(10 159.75)">
    <path d="M6.09375,-6.484375 L4.5,-6.3125 Q4.4375,-6.796875 4.1875,-7.03125 Q3.9375,-7.265625 3.546875,-7.265625 Q3.03125,-7.265625 2.671875,-6.796875 Q2.3125,-6.328125 2.21875,-4.859375 Q2.828125,-5.578125 3.75,-5.578125 Q4.78125,-5.578125 5.515625,-4.796875 Q6.25,-4.015625 6.25,-2.765625 Q6.25,-1.453125 5.46875,-0.65625 Q4.703125,0.140625 3.484375,0.140625 Q2.1875,0.140625 1.34375,-0.859375 Q0.515625,-1.875 0.515625,-4.171875 Q0.515625,-6.546875 1.375,-7.578125 Q2.25,-8.625 3.65625,-8.625 Q4.625,-8.625 5.265625,-8.078125 Q5.90625,-7.53125 6.09375,-6.484375 Z M2.359375,-2.890625 Q2.359375,-2.09375 2.71875,-1.65625 Q3.09375,-1.21875 3.5625,-1.21875 Q4.03125,-1.21875 4.328125,-1.578125 Q4.640625,-1.9375 4.640625,-2.75 Q4.640625,-3.59375 4.3125,-3.96875 Q3.984375,-4.359375 3.484375,-4.359375 Q3.015625,-4.359375 2.6875,-3.984375 Q2.359375,-3.625 2.359375,-2.890625 Z" style="fill:rgb(0,0,0);stroke:none;"/>
  </g>
  <g transform="translate(10 320.25)">
    <path d="M6.078125,-1.53125 L6.078125,-0 L0.296875,-0 Q0.390625,-0.875 0.859375,-1.640625 Q1.328125,-2.421875 2.71875,-3.703125 Q3.828125,-4.734375 4.078125,-5.109375 Q4.421875,-5.625 4.421875,-6.125 Q4.421875,-6.671875 4.125,-6.96875 Q3.828125,-7.265625 3.3125,-7.265625 Q2.796875,-7.265625 2.484375,-6.953125 Q2.1875,-6.640625 2.140625,-5.921875 L0.5,-6.078125 Q0.640625,-7.4375 1.40625,-8.03125 Q2.1875,-8.625 3.34375,-8.625 Q4.625,-8.625 5.34375,-7.9375 Q6.078125,-7.25 6.078125,-6.234375 Q6.078125,-5.65625 5.859375,-5.125 Q5.65625,-4.609375 5.203125,-4.03125 Q4.90625,-3.65625 4.125,-2.9375 Q3.34375,-2.21875 3.140625,-1.984375 Q2.9375,-1.75 2.796875,-1.53125 L6.078125,-1.53125 Z" style="fill:rgb(0,0,0);stroke:none;"/>
  </g>
  <g transform="translate(10 360.5)">
    <path d="M4.71875,-0 L3.078125,-0 L3.078125,-6.203125 Q2.171875,-5.359375 0.953125,-4.953125 L0.953125,-6.453125 Q1.59375,-6.65625 2.34375,-7.25 Q3.109375,-7.84375 3.390625,-8.625 L4.71875,-8.625 L4.71875,-0 Z" style="fill:rgb(0,0,0);stroke:none;"/>
  </g>
  <g transform="translate(10 119)">
    <path d="M0.515625,-6.9375 L0.515625,-8.46875 L6.140625,-8.46875 L6.140625,-7.28125 Q5.4375,-6.59375 4.71875,-5.3125 Q4,-4.03125 3.625,-2.578125 Q3.25,-1.140625 3.25,-0 L1.671875,-0 Q1.703125,-1.78125 2.390625,-3.625 Q3.09375,-5.484375 4.25,-6.9375 L0.515625,-6.9375 Z" style="fill:rgb(0,0,0);stroke:none;"/>
  </g>
  <g>
    <line style="fill:none;stroke:rgb(130,130,130);stroke-miterlimit:10;stroke-linecap:square;" x1="20.1875" x2="23.1875" y1="356" y2="356"/>
    <line style="fill:none;stroke:rgb(130,130,130);stroke-miterlimit:10;stroke-linecap:square;" x1="20.1875" x2="23.1875" y1="315.75" y2="315.75"/>
    <line style="fill:none;stroke:rgb(130,130,130);stroke-miterlimit:10;stroke-linecap:square;" x1="20.1875" x2="23.1875" y1="275.5" y2="275.5"/>
    <line style="fill:none;stroke:rgb(130,130,130);stroke-miterlimit:10;stroke-linecap:square;" x1="20.1875" x2="23.1875" y1="235.25" y2="235.25"/>
    <line style="fill:none;stroke:rgb(130,130,130);stroke-miterlimit:10;stroke-linecap:square;" x1="20.1875" x2="23.1875" y1="195" y2="195"/>
    <line style="fill:none;stroke:rgb(130,130,130);stroke-miterlimit:10;stroke-linecap:square;" x1="20.1875" x2="23.1875" y1="154.75" y2="154.75"/>
    <line style="fill:none;stroke:rgb(130,130,130);stroke-miterlimit:10;stroke-linecap:square;" x1="20.1875" x2="23.1875" y1="114.5" y2="114.5"/>
    <line style="fill:none;stroke:rgb(130,130,130);stroke-miterlimit:10;stroke-linecap:square;" x1="20.1875" x2="23.1875" y1="74.25" y2="74.25"/>
    <line style="fill:none;stroke:rgb(130,130,130);stroke-miterlimit:10;stroke-linecap:square;" x1="20.1875" x2="23.1875" y1="34" y2="34"/>
    <line style="fill:none;stroke:rgb(130,130,130);stroke-miterlimit:10;stroke-linecap:square;" x1="23.1875" x2="23.1875" y1="20" y2="370"/>
  </g>
  <g transform="translate(47.81718749999999 390)">
    <path d="M4.71875,-0 L3.078125,-0 L3.078125,-6.203125 Q2.171875,-5.359375 0.953125,-4.953125 L0.953125,-6.453125 Q1.59375,-6.65625 2.34375,-7.25 Q3.109375,-7.84375 3.390625,-8.625 L4.71875,-8.625 L4.71875,-0 Z" style="fill:rgb(0,0,0);stroke:none;"/>
  </g>
  <g transform="translate(305.703125 390)">
    <path d="M6.078125,-1.53125 L6.078125,-0 L0.296875,-0 Q0.390625,-0.875 0.859375,-1.640625 Q1.328125,-2.421875 2.71875,-3.703125 Q3.828125,-4.734375 4.078125,-5.109375 Q4.421875,-5.625 4.421875,-6.125 Q4.421875,-6.671875 4.125,-6.96875 Q3.828125,-7.265625 3.3125,-7.265625 Q2.796875,-7.265625 2.484375,-6.953125 Q2.1875,-6.640625 2.140625,-5.921875 L0.5,-6.078125 Q0.640625,-7.4375 1.40625,-8.03125 Q2.1875,-8.625 3.34375,-8.625 Q4.625,-8.625 5.34375,-7.9375 Q6.078125,-7.25 6.078125,-6.234375 Q6.078125,-5.65625 5.859375,-5.125 Q5.65625,-4.609375 5.203125,-4.03125 Q4.90625,-3.65625 4.125,-2.9375 Q3.34375,-2.21875 3.140625,-1.984375 Q2.9375,-1.75 2.796875,-1.53125 L6.078125,-1.53125 Z" style="fill:rgb(0,0,0);stroke:none;"/>
  </g>
  <g transform="translate(564.6359375 389.859375)">
    <path d="M0.453125,-2.28125 L2.046875,-2.46875 Q2.125,-1.859375 2.453125,-1.53125 Q2.796875,-1.21875 3.265625,-1.21875 Q3.78125,-1.21875 4.125,-1.609375 Q4.46875,-2 4.46875,-2.65625 Q4.46875,-3.265625 4.125,-3.625 Q3.796875,-4 3.328125,-4 Q3,-4 2.5625,-3.875 L2.75,-5.21875 Q3.421875,-5.203125 3.765625,-5.5 Q4.125,-5.8125 4.125,-6.328125 Q4.125,-6.75 3.859375,-7 Q3.609375,-7.265625 3.171875,-7.265625 Q2.75,-7.265625 2.453125,-6.96875 Q2.15625,-6.6875 2.09375,-6.125 L0.578125,-6.375 Q0.734375,-7.15625 1.046875,-7.625 Q1.375,-8.09375 1.9375,-8.359375 Q2.515625,-8.625 3.21875,-8.625 Q4.4375,-8.625 5.171875,-7.859375 Q5.765625,-7.21875 5.765625,-6.421875 Q5.765625,-5.296875 4.53125,-4.625 Q5.28125,-4.453125 5.71875,-3.90625 Q6.15625,-3.359375 6.15625,-2.578125 Q6.15625,-1.453125 5.328125,-0.65625 Q4.5,0.140625 3.28125,0.140625 Q2.109375,0.140625 1.34375,-0.53125 Q0.578125,-1.203125 0.453125,-2.28125 Z" style="fill:rgb(0,0,0);stroke:none;"/>
  </g>
  <g>
    <line style="fill:none;stroke:rgb(130,130,130);stroke-miterlimit:10;stroke-linecap:square;" x1="49.69999999999999" x2="49.69999999999999" y1="377.234375" y2="374.234375"/>
    <line style="fill:none;stroke:rgb(130,130,130);stroke-miterlimit:10;stroke-linecap:square;" x1="308.59375" x2="308.59375" y1="377.234375" y2="374.234375"/>
    <line style="fill:none;stroke:rgb(130,130,130);stroke-miterlimit:10;stroke-linecap:square;" x1="567.4875" x2="567.4875" y1="377.234375" y2="374.234375"/>
    <line style="fill:none;stroke:rgb(130,130,130);stroke-miterlimit:10;stroke-linecap:square;" x1="27" x2="590" y1="374" y2="374"/>
    <rect height="350" style="fill:rgb(255,255,255);stroke:none;" width="562.8125" x="27.1875" y="20"/>
    <path d="M35.1875,355.5 L35.1875,355.5 L38.1875,355.5 L38.1875,356.5 L35.1875,356.5 Z M43.1875,355.5 L43.1875,355.5 L46.1875,355.5 L46.1875,356.5 L43.1875,356.5 Z M51.1875,355.5 L51.1875,355.5 L54.1875,355.5 L54.1875,356.5 L51.1875,356.5 Z M59.1875,355.5 L59.1875,355.5 L62.1875,355.5 L62.1875,356.5 L59.1875,356.5 Z M67.1875,355.5 L67.1875,355.5 L70.1875,355.5 L70.1875,356.5 L67.1875,356.5 Z M75.1875,355.5 L75.1875,355.5 L78.1875,355.5 L78.1875,356.5 L75.1875,356.5 Z M83.1875,355.5 L83.1875,355.5 L86.1875,355.5 L86.1875,356.5 L83.1875,356.5 Z M91.1875,355.5 L91.1875,355.5 L94.1875,355.5 L94.1875,356.5 L91.1875,356.5 Z M99.1875,355.5 L99.1875,355.5 L102.1875,355.5 L102.1875,356.5 L99.1875,356.5 Z M107.1875,355.5 L107.1875,355.5 L110.1875,355.5 L110.1875,356.5 L107.1875,356.5 Z M115.1875,355.5 L115.1875,355.5 L118.1875,355.5 L118.1875,356.5 L115.1875,356.5 Z M123.1875,355.5 L123.1875,355.5 L126.1875,355.5 L126.1875,356.5 L123.1875,356.5 Z M131.1875,355.5 L131.1875,355.5 L134.1875,355.5 L134.1875,356.5 L131.1875,356.5 Z M139.1875,355.5 L139.1875,355.5 L142.1875,355.5 L142.1875,356.5 L139.1875,356.5 Z M147.1875,355.5 L147.1875,355.5 L150.1875,355.5 L150.1875,356.5 L147.1875,356.5 Z M155.1875,355.5 L155.1875,355.5 L158.1875,355.5 L158.1875,356.5 L155.1875,356.5 Z M163.1875,355.5 L163.1875,355.5 L166.1875,355.5 L166.1875,356.5 L163.1875,356.5 Z M171.1875,355.5 L171.1875,355.5 L174.1875,355.5 L174.1875,356.5 L171.1875,356.5 Z M179.1875,355.5 L179.1875,355.5 L182.1875,355.5 L182.1875,356.5 L179.1875,356.5 Z M187.1875,355.5 L187.1875,355.5 L190.1875,355.5 L190.1875,356.5 L187.1875,356.5 Z M195.1875,355.5 L195.1875,355.5 L198.1875,355.5 L198.1875,356.5 L195.1875,356.5 Z M203.1875,355.5 L203.1875,355.5 L206.1875,355.5 L206.1875,356.5 L203.1875,356.5 Z M211.1875,355.5 L211.1875,355.5 L214.1875,355.5 L214.1875,356.5 L211.1875,356.5 Z M219.1875,355.5 L219.1875,355.5 L222.1875,355.5 L222.1875,356.5 L219.1875,356.5 Z M227.1875,355.5 L227.1875,355.5 L230.1875,355.5 L230.1875,356.5 L227.1875,356.5 Z M235.1875,355.5 L235.1875,355.5 L238.1875,355.5 L238.1875,356.5 L235.1875,356.5 Z M243.1875,355.5 L243.1875,355.5 L246.1875,355.5 L246.1875,356.5 L243.1875,356.5 Z M251.1875,355.5 L251.1875,355.5 L254.1875,355.5 L254.1875,356.5 L251.1875,356.5 Z M259.1875,355.5 L259.1875,355.5 L262.1875,355.5 L262.1875,356.5 L259.1875,356.5 Z M267.1875,355.5 L267.1875,355.5 L270.1875,355.5 L270.1875,356.5 L267.1875,356.5 Z M275.1875,355.5 L275.1875,355.5 L278.1875,355.5 L278.1875,356.5 L275.1875,356.5 Z M283.1875,355.5 L283.1875,355.5 L286.1875,355.5 L286.1875,356.5 L283.1875,356.5 Z M291.1875,355.5 L291.1875,355.5 L294.1875,355.5 L294.1875,356.5 L291.1875,356.5 Z M299.1875,355.5 L299.1875,355.5 L302.1875,355.5 L302.1875,356.5 L299.1875,356.5 Z M307.1875,355.5 L307.1875,355.5 L310.1875,355.5 L310.1875,356.5 L307.1875,356.5 Z M315.1875,355.5 L315.1875,355.5 L318.1875,355.5 L318.1875,356.5 L315.1875,356.5 Z M323.1875,355.5 L323.1875,355.5 L326.1875,355.5 L326.1875,356.5 L323.1875,356.5 Z M331.1875,355.5 L331.1875,355.5 L334.1875,355.5 L334.1875,356.5 L331.1875,356.5 Z M339.1875,355.5 L339.1875,355.5 L342.1875,355.5 L342.1875,356.5 L339.1875,356.5 Z M347.1875,355.5 L347.1875,355.5 L350.1875,355.5 L350.1875,356.5 L347.1875,356.5 Z M355.1875,355.5 L355.1875,355.5 L358.1875,355.5 L358.1875,356.5 L355.1875,356.5 Z M363.1875,355.5 L363.1875,355.5 L366.1875,355.5 L366.1875,356.5 L363.1875,356.5 Z M371.1875,355.5 L371.1875,355.5 L374.1875,355.5 L374.1875,356.5 L371.1875,356.5 Z M379.1875,355.5 L379.1875,355.5 L382.1875,355.5 L382.1875,356.5 L379.1875,356.5 Z M387.1875,355.5 L387.1875,355.5 L390.1875,355.5 L390.1875,356.5 L387.1875,356.5 Z M395.1875,355.5 L395.1875,355.5 L398.1875,355.5 L398.1875,356.5 L395.1875,356.5 Z M403.1875,355.5 L403.1875,355.5 L406.1875,355.5 L406.1875,356.5 L403.1875,356.5 Z M411.1875,355.5 L411.1875,355.5 L414.1875,355.5 L414.1875,356.5 L411.1875,356.5 Z M419.1875,355.5 L419.1875,355.5 L422.1875,355.5 L422.1875,356.5 L419.1875,356.5 Z M427.1875,355.5 L427.1875,355.5 L430.1875,355.5 L430.1875,356.5 L427.1875,356.5 Z M435.1875,355.5 L435.1875,355.5 L438.1875,355.5 L438.1875,356.5 L435.1875,356.5 Z M443.1875,355.5 L443.1875,355.5 L446.1875,355.5 L446.1875,356.5 L443.1875,356.5 Z M451.1875,355.5 L451.1875,355.5 L454.1875,355.5 L454.1875,356.5 L451.1875,356.5 Z M459.1875,355.5 L459.1875,355.5 L462.1875,355.5 L462.1875,356.5 L459.1875,356.5 Z M467.1875,355.5 L467.1875,355.5 L470.1875,355.5 L470.1875,356.5 L467.1875,356.5 Z M475.1875,355.5 L475.1875,355.5 L478.1875,355.5 L478.1875,356.5 L475.1875,356.5 Z M483.1875,355.5 L483.1875,355.5 L486.1875,355.5 L486.1875,356.5 L483.1875,356.5 Z M491.1875,355.5 L491.1875,355.5 L494.1875,355.5 L494.1875,356.5 L491.1875,356.5 Z M499.1875,355.5 L499.1875,355.5 L502.1875,355.5 L502.1875,356.5 L499.1875,356.5 Z M507.1875,355.5 L507.1875,355.5 L510.1875,355.5 L510.1875,356.5 L507.1875,356.5 Z M515.1875,355.5 L515.1875,355.5 L518.1875,355.5 L518.1875,356.5 L515.1875,356.5 Z M523.1875,355.5 L523.1875,355.5 L526.1875,355.5 L526.1875,356.5 L523.1875,356.5 Z M531.1875,355.5 L531.1875,355.5 L534.1875,355.5 L534.1875,356.5 L531.1875,356.5 Z M539.1875,355.5 L539.1875,355.5 L542.1875,355.5 L542.1875,356.5 L539.1875,356.5 Z M547.1875,355.5 L547.1875,355.5 L550.1875,355.5 L550.1875,356.5 L547.1875,356.5 Z M555.1875,355.5 L555.1875,355.5 L558.1875,355.5 L558.1875,356.5 L555.1875,356.5 Z M563.1875,355.5 L563.1875,355.5 L566.1875,355.5 L566.1875,356.5 L563.1875,356.5 Z M571.1875,355.5 L571.1875,355.5 L574.1875,355.5 L574.1875,356.5 L571.1875,356.5 Z M579.1875,355.5 L579.1875,355.5 L582.1875,355.5 L582.1875,356.5 L579.1875,356.5 Z M587.1875,355.5 L587.1875,355.5 L590.0,355.5 L590.0,356.5 L587.1875,356.5 Z M27.1875,355.5 L27.1875,355.5 L30.1875,355.5 L30.1875,356.5 L27.1875,356.5 Z" style="fill:rgb(210,210,210);stroke:none;"/>
    <path d="M35.1875,315.25 L35.1875,315.25 L38.1875,315.25 L38.1875,316.25 L35.1875,316.25 Z M43.1875,315.25 L43.1875,315.25 L46.1875,315.25 L46.1875,316.25 L43.1875,316.25 Z M51.1875,315.25 L51.1875,315.25 L54.1875,315.25 L54.1875,316.25 L51.1875,316.25 Z M59.1875,315.25 L59.1875,315.25 L62.1875,315.25 L62.1875,316.25 L59.1875,316.25 Z M67.1875,315.25 L67.1875,315.25 L70.1875,315.25 L70.1875,316.25 L67.1875,316.25 Z M75.1875,315.25 L75.1875,315.25 L78.1875,315.25 L78.1875,316.25 L75.1875,316.25 Z M83.1875,315.25 L83.1875,315.25 L86.1875,315.25 L86.1875,316.25 L83.1875,316.25 Z M91.1875,315.25 L91.1875,315.25 L94.1875,315.25 L94.1875,316.25 L91.1875,316.25 Z M99.1875,315.25 L99.1875,315.25 L102.1875,315.25 L102.1875,316.25 L99.1875,316.25 Z M107.1875,315.25 L107.1875,315.25 L110.1875,315.25 L110.1875,316.25 L107.1875,316.25 Z M115.1875,315.25 L115.1875,315.25 L118.1875,315.25 L118.1875,316.25 L115.1875,316.25 Z M123.1875,315.25 L123.1875,315.25 L126.1875,315.25 L126.1875,316.25 L123.1875,316.25 Z M131.1875,315.25 L131.1875,315.25 L134.1875,315.25 L134.1875,316.25 L131.1875,316.25 Z M139.1875,315.25 L139.1875,315.25 L142.1875,315.25 L142.1875,316.25 L139.1875,316.25 Z M147.1875,315.25 L147.1875,315.25 L150.1875,315.25 L150.1875,316.25 L147.1875,316.25 Z M155.1875,315.25 L155.1875,315.25 L158.1875,315.25 L158.1875,316.25 L155.1875,316.25 Z M163.1875,315.25 L163.1875,315.25 L166.1875,315.25 L166.1875,316.25 L163.1875,316.25 Z M171.1875,315.25 L171.1875,315.25 L174.1875,315.25 L174.1875,316.25 L171.1875,316.25 Z M179.1875,315.25 L179.1875,315.25 L182.1875,315.25 L182.1875,316.25 L179.1875,316.25 Z M187.1875,315.25 L187.1875,315.25 L190.1875,315.25 L190.1875,316.25 L187.1875,316.25 Z M195.1875,315.25 L195.1875,315.25 L198.1875,315.25 L198.1875,316.25 L195.1875,316.25 Z M203.1875,315.25 L203.1875,315.25 L206.1875,315.25 L206.1875,316.25 L203.1875,316.25 Z M211.1875,315.25 L211.1875,315.25 L214.1875,315.25 L214.1875,316.25 L211.1875,316.25 Z M219.1875,315.25 L219.1875,315.25 L222.1875,315.25 L222.1875,316.25 L219.1875,316.25 Z M227.1875,315.25 L227.1875,315.25 L230.1875,315.25 L230.1875,316.25 L227.1875,316.25 Z M235.1875,315.25 L235.1875,315.25 L238.1875,315.25 L238.1875,316.25 L235.1875,316.25 Z M243.1875,315.25 L243.1875,315.25 L246.1875,315.25 L246.1875,316.25 L243.1875,316.25 Z M251.1875,315.25 L251.1875,315.25 L254.1875,315.25 L254.1875,316.25 L251.1875,316.25 Z M259.1875,315.25 L259.1875,315.25 L262.1875,315.25 L262.1875,316.25 L259.1875,316.25 Z M267.1875,315.25 L267.1875,315.25 L270.1875,315.25 L270.1875,316.25 L267.1875,316.25 Z M275.1875,315.25 L275.1875,315.25 L278.1875,315.25 L278.1875,316.25 L275.1875,316.25 Z M283.1875,315.25 L283.1875,315.25 L286.1875,315.25 L286.1875,316.25 L283.1875,316.25 Z M291.1875,315.25 L291.1875,315.25 L294.1875,315.25 L294.1875,316.25 L291.1875,316.25 Z M299.1875,315.25 L299.1875,315.25 L302.1875,315.25 L302.1875,316.25 L299.1875,316.25 Z M307.1875,315.25 L307.1875,315.25 L310.1875,315.25 L310.1875,316.25 L307.1875,316.25 Z M315.1875,315.25 L315.1875,315.25 L318.1875,315.25 L318.1875,316.25 L315.1875,316.25 Z M323.1875,315.25 L323.1875,315.25 L326.1875,315.25 L326.1875,316.25 L323.1875,316.25 Z M331.1875,315.25 L331.1875,315.25 L334.1875,315.25 L334.1875,316.25 L331.1875,316.25 Z M339.1875,315.25 L339.1875,315.25 L342.1875,315.25 L342.1875,316.25 L339.1875,316.25 Z M347.1875,315.25 L347.1875,315.25 L350.1875,315.25 L350.1875,316.25 L347.1875,316.25 Z M355.1875,315.25 L355.1875,315.25 L358.1875,315.25 L358.1875,316.25 L355.1875,316.25 Z M363.1875,315.25 L363.1875,315.25 L366.1875,315.25 L366.1875,316.25 L363.1875,316.25 Z M371.1875,315.25 L371.1875,315.25 L374.1875,315.25 L374.1875,316.25 L371.1875,316.25 Z M379.1875,315.25 L379.1875,315.25 L382.1875,315.25 L382.1875,316.25 L379.1875,316.25 Z M387.1875,315.25 L387.1875,315.25 L390.1875,315.25 L390.1875,316.25 L387.1875,316.25 Z M395.1875,315.25 L395.1875,315.25 L398.1875,315.25 L398.1875,316.25 L395.1875,316.25 Z M403.1875,315.25 L403.1875,315.25 L406.1875,315.25 L406.1875,316.25 L403.1875,316.25 Z M411.1875,315.25 L411.1875,315.25 L414.1875,315.25 L414.1875,316.25 L411.1875,316.25 Z M419.1875,315.25 L419.1875,315.25 L422.1875,315.25 L422.1875,316.25 L419.1875,316.25 Z M427.1875,315.25 L427.1875,315.25 L430.1875,315.25 L430.1875,316.25 L427.1875,316.25 Z M435.1875,315.25 L435.1875,315.25 L438.1875,315.25 L438.1875,316.25 L435.1875,316.25 Z M443.1875,315.25 L443.1875,315.25 L446.1875,315.25 L446.1875,316.25 L443.1875,316.25 Z M451.1875,315.25 L451.1875,315.25 L454.1875,315.25 L454.1875,316.25 L451.1875,316.25 Z M459.1875,315.25 L459.1875,315.25 L462.1875,315.25 L462.1875,316.25 L459.1875,316.25 Z M467.1875,315.25 L467.1875,315.25 L470.1875,315.25 L470.1875,316.25 L467.1875,316.25 Z M475.1875,315.25 L475.1875,315.25 L478.1875,315.25 L478.1875,316.25 L475.1875,316.25 Z M483.1875,315.25 L483.1875,315.25 L486.1875,315.25 L486.1875,316.25 L483.1875,316.25 Z M491.1875,315.25 L491.1875,315.25 L494.1875,315.25 L494.1875,316.25 L491.1875,316.25 Z M499.1875,315.25 L499.1875,315.25 L502.1875,315.25 L502.1875,316.25 L499.1875,316.25 Z M507.1875,315.25 L507.1875,315.25 L510.1875,315.25 L510.1875,316.25 L507.1875,316.25 Z M515.1875,315.25 L515.1875,315.25 L518.1875,315.25 L518.1875,316.25 L515.1875,316.25 Z M523.1875,315.25 L523.1875,315.25 L526.1875,315.25 L526.1875,316.25 L523.1875,316.25 Z M531.1875,315.25 L531.1875,315.25 L534.1875,315.25 L534.1875,316.25 L531.1875,316.25 Z M539.1875,315.25 L539.1875,315.25 L542.1875,315.25 L542.1875,316.25 L539.1875,316.25 Z M547.1875,315.25 L547.1875,315.25 L550.1875,315.25 L550.1875,316.25 L547.1875,316.25 Z M555.1875,315.25 L555.1875,315.25 L558.1875,315.25 L558.1875,316.25 L555.1875,316.25 Z M563.1875,315.25 L563.1875,315.25 L566.1875,315.25 L566.1875,316.25 L563.1875,316.25 Z M571.1875,315.25 L571.1875,315.25 L574.1875,315.25 L574.1875,316.25 L571.1875,316.25 Z M579.1875,315.25 L579.1875,315.25 L582.1875,315.25 L582.1875,316.25 L579.1875,316.25 Z M587.1875,315.25 L587.1875,315.25 L590.0,315.25 L590.0,316.25 L587.1875,316.25 Z M27.1875,315.25 L27.1875,315.25 L30.1875,315.25 L30.1875,316.25 L27.1875,316.25 Z" style="fill:rgb(210,210,210);stroke:none;"/>
    <path d="M35.1875,275 L35.1875,275 L38.1875,275 L38.1875,276 L35.1875,276 Z M43.1875,275 L43.1875,275 L46.1875,275 L46.1875,276 L43.1875,276 Z M51.1875,275 L51.1875,275 L54.1875,275 L54.1875,276 L51.1875,276 Z M59.1875,275 L59.1875,275 L62.1875,275 L62.1875,276 L59.1875,276 Z M67.1875,275 L67.1875,275 L70.1875,275 L70.1875,276 L67.1875,276 Z M75.1875,275 L75.1875,275 L78.1875,275 L78.1875,276 L75.1875,276 Z M83.1875,275 L83.1875,275 L86.1875,275 L86.1875,276 L83.1875,276 Z M91.1875,275 L91.1875,275 L94.1875,275 L94.1875,276 L91.1875,276 Z M99.1875,275 L99.1875,275 L102.1875,275 L102.1875,276 L99.1875,276 Z M107.1875,275 L107.1875,275 L110.1875,275 L110.1875,276 L107.1875,276 Z M115.1875,275 L115.1875,275 L118.1875,275 L118.1875,276 L115.1875,276 Z M123.1875,275 L123.1875,275 L126.1875,275 L126.1875,276 L123.1875,276 Z M131.1875,275 L131.1875,275 L134.1875,275 L134.1875,276 L131.1875,276 Z M139.1875,275 L139.1875,275 L142.1875,275 L142.1875,276 L139.1875,276 Z M147.1875,275 L147.1875,275 L150.1875,275 L150.1875,276 L147.1875,276 Z M155.1875,275 L155.1875,275 L158.1875,275 L158.1875,276 L155.1875,276 Z M163.1875,275 L163.1875,275 L166.1875,275 L166.1875,276 L163.1875,276 Z M171.1875,275 L171.1875,275 L174.1875,275 L174.1875,276 L171.1875,276 Z M179.1875,275 L179.1875,275 L182.1875,275 L182.1875,276 L179.1875,276 Z M187.1875,275 L187.1875,275 L190.1875,275 L190.1875,276 L187.1875,276 Z M195.1875,275 L195.1875,275 L198.1875,275 L198.1875,276 L195.1875,276 Z M203.1875,275 L203.1875,275 L206.1875,275 L206.1875,276 L203.1875,276 Z M211.1875,275 L211.1875,275 L214.1875,275 L214.1875,276 L211.1875,276 Z M219.1875,275 L219.1875,275 L222.1875,275 L222.1875,276 L219.1875,276 Z M227.1875,275 L227.1875,275 L230.1875,275 L230.1875,276 L227.1875,276 Z M235.1875,275 L235.1875,275 L238.1875,275 L238.1875,276 L235.1875,276 Z M243.1875,275 L243.1875,275 L246.1875,275 L246.1875,276 L243.1875,276 Z M251.1875,275 L251.1875,275 L254.1875,275 L254.1875,276 L251.1875,276 Z M259.1875,275 L259.1875,275 L262.1875,275 L262.1875,276 L259.1875,276 Z M267.1875,275 L267.1875,275 L270.1875,275 L270.1875,276 L267.1875,276 Z M275.1875,275 L275.1875,275 L278.1875,275 L278.1875,276 L275.1875,276 Z M283.1875,275 L283.1875,275 L286.1875,275 L286.1875,276 L283.1875,276 Z M291.1875,275 L291.1875,275 L294.1875,275 L294.1875,276 L291.1875,276 Z M299.1875,275 L299.1875,275 L302.1875,275 L302.1875,276 L299.1875,276 Z M307.1875,275 L307.1875,275 L310.1875,275 L310.1875,276 L307.1875,276 Z M315.1875,275 L315.1875,275 L318.1875,275 L318.1875,276 L315.1875,276 Z M323.1875,275 L323.1875,275 L326.1875,275 L326.1875,276 L323.1875,276 Z M331.1875,275 L331.1875,275 L334.1875,275 L334.1875,276 L331.1875,276 Z M339.1875,275 L339.1875,275 L342.1875,275 L342.1875,276 L339.1875,276 Z M347.1875,275 L347.1875,275 L350.1875,275 L350.1875,276 L347.1875,276 Z M355.1875,275 L355.1875,275 L358.1875,275 L358.1875,276 L355.1875,276 Z M363.1875,275 L363.1875,275 L366.1875,275 L366.1875,276 L363.1875,276 Z M371.1875,275 L371.1875,275 L374.1875,275 L374.1875,276 L371.1875,276 Z M379.1875,275 L379.1875,275 L382.1875,275 L382.1875,276 L379.1875,276 Z M387.1875,275 L387.1875,275 L390.1875,275 L390.1875,276 L387.1875,276 Z M395.1875,275 L395.1875,275 L398.1875,275 L398.1875,276 L395.1875,276 Z M403.1875,275 L403.1875,275 L406.1875,275 L406.1875,276 L403.1875,276 Z M411.1875,275 L411.1875,275 L414.1875,275 L414.1875,276 L411.1875,276 Z M419.1875,275 L419.1875,275 L422.1875,275 L422.1875,276 L419.1875,276 Z M427.1875,275 L427.1875,275 L430.1875,275 L430.1875,276 L427.1875,276 Z M435.1875,275 L435.1875,275 L438.1875,275 L438.1875,276 L435.1875,276 Z M443.1875,275 L443.1875,275 L446.1875,275 L446.1875,276 L443.1875,276 Z M451.1875,275 L451.1875,275 L454.1875,275 L454.1875,276 L451.1875,276 Z M459.1875,275 L459.1875,275 L462.1875,275 L462.1875,276 L459.1875,276 Z M467.1875,275 L467.1875,275 L470.1875,275 L470.1875,276 L467.1875,276 Z M475.1875,275 L475.1875,275 L478.1875,275 L478.1875,276 L475.1875,276 Z M483.1875,275 L483.1875,275 L486.1875,275 L486.1875,276 L483.1875,276 Z M491.1875,275 L491.1875,275 L494.1875,275 L494.1875,276 L491.1875,276 Z M499.1875,275 L499.1875,275 L502.1875,275 L502.1875,276 L499.1875,276 Z M507.1875,275 L507.1875,275 L510.1875,275 L510.1875,276 L507.1875,276 Z M515.1875,275 L515.1875,275 L518.1875,275 L518.1875,276 L515.1875,276 Z M523.1875,275 L523.1875,275 L526.1875,275 L526.1875,276 L523.1875,276 Z M531.1875,275 L531.1875,275 L534.1875,275 L534.1875,276 L531.1875,276 Z M539.1875,275 L539.1875,275 L542.1875,275 L542.1875,276 L539.1875,276 Z M547.1875,275 L547.1875,275 L550.1875,275 L550.1875,276 L547.1875,276 Z M555.1875,275 L555.1875,275 L558.1875,275 L558.1875,276 L555.1875,276 Z M563.1875,275 L563.1875,275 L566.1875,275 L566.1875,276 L563.1875,276 Z M571.1875,275 L571.1875,275 L574.1875,275 L574.1875,276 L571.1875,276 Z M579.1875,275 L579.1875,275 L582.1875,275 L582.1875,276 L579.1875,276 Z M587.1875,275 L587.1875,275 L590.0,275 L590.0,276 L587.1875,276 Z M27.1875,275 L27.1875,275 L30.1875,275 L30.1875,276 L27.1875,276 Z" style="fill:rgb(210,210,210);stroke:none;"/>
    <path d="M35.1875,234.75 L35.1875,234.75 L38.1875,234.75 L38.1875,235.75 L35.1875,235.75 Z M43.1875,234.75 L43.1875,234.75 L46.1875,234.75 L46.1875,235.75 L43.1875,235.75 Z M51.1875,234.75 L51.1875,234.75 L54.1875,234.75 L54.1875,235.75 L51.1875,235.75 Z M59.1875,234.75 L59.1875,234.75 L62.1875,234.75 L62.1875,235.75 L59.1875,235.75 Z M67.1875,234.75 L67.1875,234.75 L70.1875,234.75 L70.1875,235.75 L67.1875,235.75 Z M75.1875,234.75 L75.1875,234.75 L78.1875,234.75 L78.1875,235.75 L75.1875,235.75 Z M83.1875,234.75 L83.1875,234.75 L86.1875,234.75 L86.1875,235.75 L83.1875,235.75 Z M91.1875,234.75 L91.1875,234.75 L94.1875,234.75 L94.1875,235.75 L91.1875,235.75 Z M99.1875,234.75 L99.1875,234.75 L102.1875,234.75 L102.1875,235.75 L99.1875,235.75 Z M107.1875,234.75 L107.1875,234.75 L110.1875,234.75 L110.1875,235.75 L107.1875,235.75 Z M115.1875,234.75 L115.1875,234.75 L118.1875,234.75 L118.1875,235.75 L115.1875,235.75 Z M123.1875,234.75 L123.1875,234.75 L126.1875,234.75 L126.1875,235.75 L123.1875,235.75 Z M131.1875,234.75 L131.1875,234.75 L134.1875,234.75 L134.1875,235.75 L131.1875,235.75 Z M139.1875,234.75 L139.1875,234.75 L142.1875,234.75 L142.1875,235.75 L139.1875,235.75 Z M147.1875,234.75 L147.1875,234.75 L150.1875,234.75 L150.1875,235.75 L147.1875,235.75 Z M155.1875,234.75 L155.1875,234.75 L158.1875,234.75 L158.1875,235.75 L155.1875,235.75 Z M163.1875,234.75 L163.1875,234.75 L166.1875,234.75 L166.1875,235.75 L163.1875,235.75 Z M171.1875,234.75 L171.1875,234.75 L174.1875,234.75 L174.1875,235.75 L171.1875,235.75 Z M179.1875,234.75 L179.1875,234.75 L182.1875,234.75 L182.1875,235.75 L179.1875,235.75 Z M187.1875,234.75 L187.1875,234.75 L190.1875,234.75 L190.1875,235.75 L187.1875,235.75 Z M195.1875,234.75 L195.1875,234.75 L198.1875,234.75 L198.1875,235.75 L195.1875,235.75 Z M203.1875,234.75 L203.1875,234.75 L206.1875,234.75 L206.1875,235.75 L203.1875,235.75 Z M211.1875,234.75 L211.1875,234.75 L214.1875,234.75 L214.1875,235.75 L211.1875,235.75 Z M219.1875,234.75 L219.1875,234.75 L222.1875,234.75 L222.1875,235.75 L219.1875,235.75 Z M227.1875,234.75 L227.1875,234.75 L230.1875,234.75 L230.1875,235.75 L227.1875,235.75 Z M235.1875,234.75 L235.1875,234.75 L238.1875,234.75 L238.1875,235.75 L235.1875,235.75 Z M243.1875,234.75 L243.1875,234.75 L246.1875,234.75 L246.1875,235.75 L243.1875,235.75 Z M251.1875,234.75 L251.1875,234.75 L254.1875,234.75 L254.1875,235.75 L251.1875,235.75 Z M259.1875,234.75 L259.1875,234.75 L262.1875,234.75 L262.1875,235.75 L259.1875,235.75 Z M267.1875,234.75 L267.1875,234.75 L270.1875,234.75 L270.1875,235.75 L267.1875,235.75 Z M275.1875,234.75 L275.1875,234.75 L278.1875,234.75 L278.1875,235.75 L275.1875,235.75 Z M283.1875,234.75 L283.1875,234.75 L286.1875,234.75 L286.1875,235.75 L283.1875,235.75 Z M291.1875,234.75 L291.1875,234.75 L294.1875,234.75 L294.1875,235.75 L291.1875,235.75 Z M299.1875,234.75 L299.1875,234.75 L302.1875,234.75 L302.1875,235.75 L299.1875,235.75 Z M307.1875,234.75 L307.1875,234.75 L310.1875,234.75 L310.1875,235.75 L307.1875,235.75 Z M315.1875,234.75 L315.1875,234.75 L318.1875,234.75 L318.1875,235.75 L315.1875,235.75 Z M323.1875,234.75 L323.1875,234.75 L326.1875,234.75 L326.1875,235.75 L323.1875,235.75 Z M331.1875,234.75 L331.1875,234.75 L334.1875,234.75 L334.1875,235.75 L331.1875,235.75 Z M339.1875,234.75 L339.1875,234.75 L342.1875,234.75 L342.1875,235.75 L339.1875,235.75 Z M347.1875,234.75 L347.1875,234.75 L350.1875,234.75 L350.1875,235.75 L347.1875,235.75 Z M355.1875,234.75 L355.1875,234.75 L358.1875,234.75 L358.1875,235.75 L355.1875,235.75 Z M363.1875,234.75 L363.1875,234.75 L366.1875,234.75 L366.1875,235.75 L363.1875,235.75 Z M371.1875,234.75 L371.1875,234.75 L374.1875,234.75 L374.1875,235.75 L371.1875,235.75 Z M379.1875,234.75 L379.1875,234.75 L382.1875,234.75 L382.1875,235.75 L379.1875,235.75 Z M387.1875,234.75 L387.1875,234.75 L390.1875,234.75 L390.1875,235.75 L387.1875,235.75 Z M395.1875,234.75 L395.1875,234.75 L398.1875,234.75 L398.1875,235.75 L395.1875,235.75 Z M403.1875,234.75 L403.1875,234.75 L406.1875,234.75 L406.1875,235.75 L403.1875,235.75 Z M411.1875,234.75 L411.1875,234.75 L414.1875,234.75 L414.1875,235.75 L411.1875,235.75 Z M419.1875,234.75 L419.1875,234.75 L422.1875,234.75 L422.1875,235.75 L419.1875,235.75 Z M427.1875,234.75 L427.1875,234.75 L430.1875,234.75 L430.1875,235.75 L427.1875,235.75 Z M435.1875,234.75 L435.1875,234.75 L438.1875,234.75 L438.1875,235.75 L435.1875,235.75 Z M443.1875,234.75 L443.1875,234.75 L446.1875,234.75 L446.1875,235.75 L443.1875,235.75 Z M451.1875,234.75 L451.1875,234.75 L454.1875,234.75 L454.1875,235.75 L451.1875,235.75 Z M459.1875,234.75 L459.1875,234.75 L462.1875,234.75 L462.1875,235.75 L459.1875,235.75 Z M467.1875,234.75 L467.1875,234.75 L470.1875,234.75 L470.1875,235.75 L467.1875,235.75 Z M475.1875,234.75 L475.1875,234.75 L478.1875,234.75 L478.1875,235.75 L475.1875,235.75 Z M483.1875,234.75 L483.1875,234.75 L486.1875,234.75 L486.1875,235.75 L483.1875,235.75 Z M491.1875,234.75 L491.1875,234.75 L494.1875,234.75 L494.1875,235.75 L491.1875,235.75 Z M499.1875,234.75 L499.1875,234.75 L502.1875,234.75 L502.1875,235.75 L499.1875,235.75 Z M507.1875,234.75 L507.1875,234.75 L510.1875,234.75 L510.1875,235.75 L507.1875,235.75 Z M515.1875,234.75 L515.1875,234.75 L518.1875,234.75 L518.1875,235.75 L515.1875,235.75 Z M523.1875,234.75 L523.1875,234.75 L526.1875,234.75 L526.1875,235.75 L523.1875,235.75 Z M531.1875,234.75 L531.1875,234.75 L534.1875,234.75 L534.1875,235.75 L531.1875,235.75 Z M539.1875,234.75 L539.1875,234.75 L542.1875,234.75 L542.1875,235.75 L539.1875,235.75 Z M547.1875,234.75 L547.1875,234.75 L550.1875,234.75 L550.1875,235.75 L547.1875,235.75 Z M555.1875,234.75 L555.1875,234.75 L558.1875,234.75 L558.1875,235.75 L555.1875,235.75 Z M563.1875,234.75 L563.1875,234.75 L566.1875,234.75 L566.1875,235.75 L563.1875,235.75 Z M571.1875,234.75 L571.1875,234.75 L574.1875,234.75 L574.1875,235.75 L571.1875,235.75 Z M579.1875,234.75 L579.1875,234.75 L582.1875,234.75 L582.1875,235.75 L579.1875,235.75 Z M587.1875,234.75 L587.1875,234.75 L590.0,234.75 L590.0,235.75 L587.1875,235.75 Z M27.1875,234.75 L27.1875,234.75 L30.1875,234.75 L30.1875,235.75 L27.1875,235.75 Z" style="fill:rgb(210,210,210);stroke:none;"/>
    <path d="M35.1875,194.5 L35.1875,194.5 L38.1875,194.5 L38.1875,195.5 L35.1875,195.5 Z M43.1875,194.5 L43.1875,194.5 L46.1875,194.5 L46.1875,195.5 L43.1875,195.5 Z M51.1875,194.5 L51.1875,194.5 L54.1875,194.5 L54.1875,195.5 L51.1875,195.5 Z M59.1875,194.5 L59.1875,194.5 L62.1875,194.5 L62.1875,195.5 L59.1875,195.5 Z M67.1875,194.5 L67.1875,194.5 L70.1875,194.5 L70.1875,195.5 L67.1875,195.5 Z M75.1875,194.5 L75.1875,194.5 L78.1875,194.5 L78.1875,195.5 L75.1875,195.5 Z M83.1875,194.5 L83.1875,194.5 L86.1875,194.5 L86.1875,195.5 L83.1875,195.5 Z M91.1875,194.5 L91.1875,194.5 L94.1875,194.5 L94.1875,195.5 L91.1875,195.5 Z M99.1875,194.5 L99.1875,194.5 L102.1875,194.5 L102.1875,195.5 L99.1875,195.5 Z M107.1875,194.5 L107.1875,194.5 L110.1875,194.5 L110.1875,195.5 L107.1875,195.5 Z M115.1875,194.5 L115.1875,194.5 L118.1875,194.5 L118.1875,195.5 L115.1875,195.5 Z M123.1875,194.5 L123.1875,194.5 L126.1875,194.5 L126.1875,195.5 L123.1875,195.5 Z M131.1875,194.5 L131.1875,194.5 L134.1875,194.5 L134.1875,195.5 L131.1875,195.5 Z M139.1875,194.5 L139.1875,194.5 L142.1875,194.5 L142.1875,195.5 L139.1875,195.5 Z M147.1875,194.5 L147.1875,194.5 L150.1875,194.5 L150.1875,195.5 L147.1875,195.5 Z M155.1875,194.5 L155.1875,194.5 L158.1875,194.5 L158.1875,195.5 L155.1875,195.5 Z M163.1875,194.5 L163.1875,194.5 L166.1875,194.5 L166.1875,195.5 L163.1875,195.5 Z M171.1875,194.5 L171.1875,194.5 L174.1875,194.5 L174.1875,195.5 L171.1875,195.5 Z M179.1875,194.5 L179.1875,194.5 L182.1875,194.5 L182.1875,195.5 L179.1875,195.5 Z M187.1875,194.5 L187.1875,194.5 L190.1875,194.5 L190.1875,195.5 L187.1875,195.5 Z M195.1875,194.5 L195.1875,194.5 L198.1875,194.5 L198.1875,195.5 L195.1875,195.5 Z M203.1875,194.5 L203.1875,194.5 L206.1875,194.5 L206.1875,195.5 L203.1875,195.5 Z M211.1875,194.5 L211.1875,194.5 L214.1875,194.5 L214.1875,195.5 L211.1875,195.5 Z M219.1875,194.5 L219.1875,194.5 L222.1875,194.5 L222.1875,195.5 L219.1875,195.5 Z M227.1875,194.5 L227.1875,194.5 L230.1875,194.5 L230.1875,195.5 L227.1875,195.5 Z M235.1875,194.5 L235.1875,194.5 L238.1875,194.5 L238.1875,195.5 L235.1875,195.5 Z M243.1875,194.5 L243.1875,194.5 L246.1875,194.5 L246.1875,195.5 L243.1875,195.5 Z M251.1875,194.5 L251.1875,194.5 L254.1875,194.5 L254.1875,195.5 L251.1875,195.5 Z M259.1875,194.5 L259.1875,194.5 L262.1875,194.5 L262.1875,195.5 L259.1875,195.5 Z M267.1875,194.5 L267.1875,194.5 L270.1875,194.5 L270.1875,195.5 L267.1875,195.5 Z M275.1875,194.5 L275.1875,194.5 L278.1875,194.5 L278.1875,195.5 L275.1875,195.5 Z M283.1875,194.5 L283.1875,194.5 L286.1875,194.5 L286.1875,195.5 L283.1875,195.5 Z M291.1875,194.5 L291.1875,194.5 L294.1875,194.5 L294.1875,195.5 L291.1875,195.5 Z M299.1875,194.5 L299.1875,194.5 L302.1875,194.5 L302.1875,195.5 L299.1875,195.5 Z M307.1875,194.5 L307.1875,194.5 L310.1875,194.5 L310.1875,195.5 L307.1875,195.5 Z M315.1875,194.5 L315.1875,194.5 L318.1875,194.5 L318.1875,195.5 L315.1875,195.5 Z M323.1875,194.5 L323.1875,194.5 L326.1875,194.5 L326.1875,195.5 L323.1875,195.5 Z M331.1875,194.5 L331.1875,194.5 L334.1875,194.5 L334.1875,195.5 L331.1875,195.5 Z M339.1875,194.5 L339.1875,194.5 L342.1875,194.5 L342.1875,195.5 L339.1875,195.5 Z M347.1875,194.5 L347.1875,194.5 L350.1875,194.5 L350.1875,195.5 L347.1875,195.5 Z M355.1875,194.5 L355.1875,194.5 L358.1875,194.5 L358.1875,195.5 L355.1875,195.5 Z M363.1875,194.5 L363.1875,194.5 L366.1875,194.5 L366.1875,195.5 L363.1875,195.5 Z M371.1875,194.5 L371.1875,194.5 L374.1875,194.5 L374.1875,195.5 L371.1875,195.5 Z M379.1875,194.5 L379.1875,194.5 L382.1875,194.5 L382.1875,195.5 L379.1875,195.5 Z M387.1875,194.5 L387.1875,194.5 L390.1875,194.5 L390.1875,195.5 L387.1875,195.5 Z M395.1875,194.5 L395.1875,194.5 L398.1875,194.5 L398.1875,195.5 L395.1875,195.5 Z M403.1875,194.5 L403.1875,194.5 L406.1875,194.5 L406.1875,195.5 L403.1875,195.5 Z M411.1875,194.5 L411.1875,194.5 L414.1875,194.5 L414.1875,195.5 L411.1875,195.5 Z M419.1875,194.5 L419.1875,194.5 L422.1875,194.5 L422.1875,195.5 L419.1875,195.5 Z M427.1875,194.5 L427.1875,194.5 L430.1875,194.5 L430.1875,195.5 L427.1875,195.5 Z M435.1875,194.5 L435.1875,194.5 L438.1875,194.5 L438.1875,195.5 L435.1875,195.5 Z M443.1875,194.5 L443.1875,194.5 L446.1875,194.5 L446.1875,195.5 L443.1875,195.5 Z M451.1875,194.5 L451.1875,194.5 L454.1875,194.5 L454.1875,195.5 L451.1875,195.5 Z M459.1875,194.5 L459.1875,194.5 L462.1875,194.5 L462.1875,195.5 L459.1875,195.5 Z M467.1875,194.5 L467.1875,194.5 L470.1875,194.5 L470.1875,195.5 L467.1875,195.5 Z M475.1875,194.5 L475.1875,194.5 L478.1875,194.5 L478.1875,195.5 L475.1875,195.5 Z M483.1875,194.5 L483.1875,194.5 L486.1875,194.5 L486.1875,195.5 L483.1875,195.5 Z M491.1875,194.5 L491.1875,194.5 L494.1875,194.5 L494.1875,195.5 L491.1875,195.5 Z M499.1875,194.5 L499.1875,194.5 L502.1875,194.5 L502.1875,195.5 L499.1875,195.5 Z M507.1875,194.5 L507.1875,194.5 L510.1875,194.5 L510.1875,195.5 L507.1875,195.5 Z M515.1875,194.5 L515.1875,194.5 L518.1875,194.5 L518.1875,195.5 L515.1875,195.5 Z M523.1875,194.5 L523.1875,194.5 L526.1875,194.5 L526.1875,195.5 L523.1875,195.5 Z M531.1875,194.5 L531.1875,194.5 L534.1875,194.5 L534.1875,195.5 L531.1875,195.5 Z M539.1875,194.5 L539.1875,194.5 L542.1875,194.5 L542.1875,195.5 L539.1875,195.5 Z M547.1875,194.5 L547.1875,194.5 L550.1875,194.5 L550.1875,195.5 L547.1875,195.5 Z M555.1875,194.5 L555.1875,194.5 L558.1875,194.5 L558.1875,195.5 L555.1875,195.5 Z M563.1875,194.5 L563.1875,194.5 L566.1875,194.5 L566.1875,195.5 L563.1875,195.5 Z M571.1875,194.5 L571.1875,194.5 L574.1875,194.5 L574.1875,195.5 L571.1875,195.5 Z M579.1875,194.5 L579.1875,194.5 L582.1875,194.5 L582.1875,195.5 L579.1875,195.5 Z M587.1875,194.5 L587.1875,194.5 L590.0,194.5 L590.0,195.5 L587.1875,195.5 Z M27.1875,194.5 L27.1875,194.5 L30.1875,194.5 L30.1875,195.5 L27.1875,195.5 Z" style="fill:rgb(210,210,210);stroke:none;"/>
    <path d="M35.1875,154.25 L35.1875,154.25 L38.1875,154.25 L38.1875,155.25 L35.1875,155.25 Z M43.1875,154.25 L43.1875,154.25 L46.1875,154.25 L46.1875,155.25 L43.1875,155.25 Z M51.1875,154.25 L51.1875,154.25 L54.1875,154.25 L54.1875,155.25 L51.1875,155.25 Z M59.1875,154.25 L59.1875,154.25 L62.1875,154.25 L62.1875,155.25 L59.1875,155.25 Z M67.1875,154.25 L67.1875,154.25 L70.1875,154.25 L70.1875,155.25 L67.1875,155.25 Z M75.1875,154.25 L75.1875,154.25 L78.1875,154.25 L78.1875,155.25 L75.1875,155.25 Z M83.1875,154.25 L83.1875,154.25 L86.1875,154.25 L86.1875,155.25 L83.1875,155.25 Z M91.1875,154.25 L91.1875,154.25 L94.1875,154.25 L94.1875,155.25 L91.1875,155.25 Z M99.1875,154.25 L99.1875,154.25 L102.1875,154.25 L102.1875,155.25 L99.1875,155.25 Z M107.1875,154.25 L107.1875,154.25 L110.1875,154.25 L110.1875,155.25 L107.1875,155.25 Z M115.1875,154.25 L115.1875,154.25 L118.1875,154.25 L118.1875,155.25 L115.1875,155.25 Z M123.1875,154.25 L123.1875,154.25 L126.1875,154.25 L126.1875,155.25 L123.1875,155.25 Z M131.1875,154.25 L131.1875,154.25 L134.1875,154.25 L134.1875,155.25 L131.1875,155.25 Z M139.1875,154.25 L139.1875,154.25 L142.1875,154.25 L142.1875,155.25 L139.1875,155.25 Z M147.1875,154.25 L147.1875,154.25 L150.1875,154.25 L150.1875,155.25 L147.1875,155.25 Z M155.1875,154.25 L155.1875,154.25 L158.1875,154.25 L158.1875,155.25 L155.1875,155.25 Z M163.1875,154.25 L163.1875,154.25 L166.1875,154.25 L166.1875,155.25 L163.1875,155.25 Z M171.1875,154.25 L171.1875,154.25 L174.1875,154.25 L174.1875,155.25 L171.1875,155.25 Z M179.1875,154.25 L179.1875,154.25 L182.1875,154.25 L182.1875,155.25 L179.1875,155.25 Z M187.1875,154.25 L187.1875,154.25 L190.1875,154.25 L190.1875,155.25 L187.1875,155.25 Z M195.1875,154.25 L195.1875,154.25 L198.1875,154.25 L198.1875,155.25 L195.1875,155.25 Z M203.1875,154.25 L203.1875,154.25 L206.1875,154.25 L206.1875,155.25 L203.1875,155.25 Z M211.1875,154.25 L211.1875,154.25 L214.1875,154.25 L214.1875,155.25 L211.1875,155.25 Z M219.1875,154.25 L219.1875,154.25 L222.1875,154.25 L222.1875,155.25 L219.1875,155.25 Z M227.1875,154.25 L227.1875,154.25 L230.1875,154.25 L230.1875,155.25 L227.1875,155.25 Z M235.1875,154.25 L235.1875,154.25 L238.1875,154.25 L238.1875,155.25 L235.1875,155.25 Z M243.1875,154.25 L243.1875,154.25 L246.1875,154.25 L246.1875,155.25 L243.1875,155.25 Z M251.1875,154.25 L251.1875,154.25 L254.1875,154.25 L254.1875,155.25 L251.1875,155.25 Z M259.1875,154.25 L259.1875,154.25 L262.1875,154.25 L262.1875,155.25 L259.1875,155.25 Z M267.1875,154.25 L267.1875,154.25 L270.1875,154.25 L270.1875,155.25 L267.1875,155.25 Z M275.1875,154.25 L275.1875,154.25 L278.1875,154.25 L278.1875,155.25 L275.1875,155.25 Z M283.1875,154.25 L283.1875,154.25 L286.1875,154.25 L286.1875,155.25 L283.1875,155.25 Z M291.1875,154.25 L291.1875,154.25 L294.1875,154.25 L294.1875,155.25 L291.1875,155.25 Z M299.1875,154.25 L299.1875,154.25 L302.1875,154.25 L302.1875,155.25 L299.1875,155.25 Z M307.1875,154.25 L307.1875,154.25 L310.1875,154.25 L310.1875,155.25 L307.1875,155.25 Z M315.1875,154.25 L315.1875,154.25 L318.1875,154.25 L318.1875,155.25 L315.1875,155.25 Z M323.1875,154.25 L323.1875,154.25 L326.1875,154.25 L326.1875,155.25 L323.1875,155.25 Z M331.1875,154.25 L331.1875,154.25 L334.1875,154.25 L334.1875,155.25 L331.1875,155.25 Z M339.1875,154.25 L339.1875,154.25 L342.1875,154.25 L342.1875,155.25 L339.1875,155.25 Z M347.1875,154.25 L347.1875,154.25 L350.1875,154.25 L350.1875,155.25 L347.1875,155.25 Z M355.1875,154.25 L355.1875,154.25 L358.1875,154.25 L358.1875,155.25 L355.1875,155.25 Z M363.1875,154.25 L363.1875,154.25 L366.1875,154.25 L366.1875,155.25 L363.1875,155.25 Z M371.1875,154.25 L371.1875,154.25 L374.1875,154.25 L374.1875,155.25 L371.1875,155.25 Z M379.1875,154.25 L379.1875,154.25 L382.1875,154.25 L382.1875,155.25 L379.1875,155.25 Z M387.1875,154.25 L387.1875,154.25 L390.1875,154.25 L390.1875,155.25 L387.1875,155.25 Z M395.1875,154.25 L395.1875,154.25 L398.1875,154.25 L398.1875,155.25 L395.1875,155.25 Z M403.1875,154.25 L403.1875,154.25 L406.1875,154.25 L406.1875,155.25 L403.1875,155.25 Z M411.1875,154.25 L411.1875,154.25 L414.1875,154.25 L414.1875,155.25 L411.1875,155.25 Z M419.1875,154.25 L419.1875,154.25 L422.1875,154.25 L422.1875,155.25 L419.1875,155.25 Z M427.1875,154.25 L427.1875,154.25 L430.1875,154.25 L430.1875,155.25 L427.1875,155.25 Z M435.1875,154.25 L435.1875,154.25 L438.1875,154.25 L438.1875,155.25 L435.1875,155.25 Z M443.1875,154.25 L443.1875,154.25 L446.1875,154.25 L446.1875,155.25 L443.1875,155.25 Z M451.1875,154.25 L451.1875,154.25 L454.1875,154.25 L454.1875,155.25 L451.1875,155.25 Z M459.1875,154.25 L459.1875,154.25 L462.1875,154.25 L462.1875,155.25 L459.1875,155.25 Z M467.1875,154.25 L467.1875,154.25 L470.1875,154.25 L470.1875,155.25 L467.1875,155.25 Z M475.1875,154.25 L475.1875,154.25 L478.1875,154.25 L478.1875,155.25 L475.1875,155.25 Z M483.1875,154.25 L483.1875,154.25 L486.1875,154.25 L486.1875,155.25 L483.1875,155.25 Z M491.1875,154.25 L491.1875,154.25 L494.1875,154.25 L494.1875,155.25 L491.1875,155.25 Z M499.1875,154.25 L499.1875,154.25 L502.1875,154.25 L502.1875,155.25 L499.1875,155.25 Z M507.1875,154.25 L507.1875,154.25 L510.1875,154.25 L510.1875,155.25 L507.1875,155.25 Z M515.1875,154.25 L515.1875,154.25 L518.1875,154.25 L518.1875,155.25 L515.1875,155.25 Z M523.1875,154.25 L523.1875,154.25 L526.1875,154.25 L526.1875,155.25 L523.1875,155.25 Z M531.1875,154.25 L531.1875,154.25 L534.1875,154.25 L534.1875,155.25 L531.1875,155.25 Z M539.1875,154.25 L539.1875,154.25 L542.1875,154.25 L542.1875,155.25 L539.1875,155.25 Z M547.1875,154.25 L547.1875,154.25 L550.1875,154.25 L550.1875,155.25 L547.1875,155.25 Z M555.1875,154.25 L555.1875,154.25 L558.1875,154.25 L558.1875,155.25 L555.1875,155.25 Z M563.1875,154.25 L563.1875,154.25 L566.1875,154.25 L566.1875,155.25 L563.1875,155.25 Z M571.1875,154.25 L571.1875,154.25 L574.1875,154.25 L574.1875,155.25 L571.1875,155.25 Z M579.1875,154.25 L579.1875,154.25 L582.1875,154.25 L582.1875,155.25 L579.1875,155.25 Z M587.1875,154.25 L587.1875,154.25 L590.0,154.25 L590.0,155.25 L587.1875,155.25 Z M27.1875,154.25 L27.1875,154.25 L30.1875,154.25 L30.1875,155.25 L27.1875,155.25 Z" style="fill:rgb(210,210,210);stroke:none;"/>
    <path d="M35.1875,114 L35.1875,114 L38.1875,114 L38.1875,115 L35.1875,115 Z M43.1875,114 L43.1875,114 L46.1875,114 L46.1875,115 L43.1875,115 Z M51.1875,114 L51.1875,114 L54.1875,114 L54.1875,115 L51.1875,115 Z M59.1875,114 L59.1875,114 L62.1875,114 L62.1875,115 L59.1875,115 Z M67.1875,114 L67.1875,114 L70.1875,114 L70.1875,115 L67.1875,115 Z M75.1875,114 L75.1875,114 L78.1875,114 L78.1875,115 L75.1875,115 Z M83.1875,114 L83.1875,114 L86.1875,114 L86.1875,115 L83.1875,115 Z M91.1875,114 L91.1875,114 L94.1875,114 L94.1875,115 L91.1875,115 Z M99.1875,114 L99.1875,114 L102.1875,114 L102.1875,115 L99.1875,115 Z M107.1875,114 L107.1875,114 L110.1875,114 L110.1875,115 L107.1875,115 Z M115.1875,114 L115.1875,114 L118.1875,114 L118.1875,115 L115.1875,115 Z M123.1875,114 L123.1875,114 L126.1875,114 L126.1875,115 L123.1875,115 Z M131.1875,114 L131.1875,114 L134.1875,114 L134.1875,115 L131.1875,115 Z M139.1875,114 L139.1875,114 L142.1875,114 L142.1875,115 L139.1875,115 Z M147.1875,114 L147.1875,114 L150.1875,114 L150.1875,115 L147.1875,115 Z M155.1875,114 L155.1875,114 L158.1875,114 L158.1875,115 L155.1875,115 Z M163.1875,114 L163.1875,114 L166.1875,114 L166.1875,115 L163.1875,115 Z M171.1875,114 L171.1875,114 L174.1875,114 L174.1875,115 L171.1875,115 Z M179.1875,114 L179.1875,114 L182.1875,114 L182.1875,115 L179.1875,115 Z M187.1875,114 L187.1875,114 L190.1875,114 L190.1875,115 L187.1875,115 Z M195.1875,114 L195.1875,114 L198.1875,114 L198.1875,115 L195.1875,115 Z M203.1875,114 L203.1875,114 L206.1875,114 L206.1875,115 L203.1875,115 Z M211.1875,114 L211.1875,114 L214.1875,114 L214.1875,115 L211.1875,115 Z M219.1875,114 L219.1875,114 L222.1875,114 L222.1875,115 L219.1875,115 Z M227.1875,114 L227.1875,114 L230.1875,114 L230.1875,115 L227.1875,115 Z M235.1875,114 L235.1875,114 L238.1875,114 L238.1875,115 L235.1875,115 Z M243.1875,114 L243.1875,114 L246.1875,114 L246.1875,115 L243.1875,115 Z M251.1875,114 L251.1875,114 L254.1875,114 L254.1875,115 L251.1875,115 Z M259.1875,114 L259.1875,114 L262.1875,114 L262.1875,115 L259.1875,115 Z M267.1875,114 L267.1875,114 L270.1875,114 L270.1875,115 L267.1875,115 Z M275.1875,114 L275.1875,114 L278.1875,114 L278.1875,115 L275.1875,115 Z M283.1875,114 L283.1875,114 L286.1875,114 L286.1875,115 L283.1875,115 Z M291.1875,114 L291.1875,114 L294.1875,114 L294.1875,115 L291.1875,115 Z M299.1875,114 L299.1875,114 L302.1875,114 L302.1875,115 L299.1875,115 Z M307.1875,114 L307.1875,114 L310.1875,114 L310.1875,115 L307.1875,115 Z M315.1875,114 L315.1875,114 L318.1875,114 L318.1875,115 L315.1875,115 Z M323.1875,114 L323.1875,114 L326.1875,114 L326.1875,115 L323.1875,115 Z M331.1875,114 L331.1875,114 L334.1875,114 L334.1875,115 L331.1875,115 Z M339.1875,114 L339.1875,114 L342.1875,114 L342.1875,115 L339.1875,115 Z M347.1875,114 L347.1875,114 L350.1875,114 L350.1875,115 L347.1875,115 Z M355.1875,114 L355.1875,114 L358.1875,114 L358.1875,115 L355.1875,115 Z M363.1875,114 L363.1875,114 L366.1875,114 L366.1875,115 L363.1875,115 Z M371.1875,114 L371.1875,114 L374.1875,114 L374.1875,115 L371.1875,115 Z M379.1875,114 L379.1875,114 L382.1875,114 L382.1875,115 L379.1875,115 Z M387.1875,114 L387.1875,114 L390.1875,114 L390.1875,115 L387.1875,115 Z M395.1875,114 L395.1875,114 L398.1875,114 L398.1875,115 L395.1875,115 Z M403.1875,114 L403.1875,114 L406.1875,114 L406.1875,115 L403.1875,115 Z M411.1875,114 L411.1875,114 L414.1875,114 L414.1875,115 L411.1875,115 Z M419.1875,114 L419.1875,114 L422.1875,114 L422.1875,115 L419.1875,115 Z M427.1875,114 L427.1875,114 L430.1875,114 L430.1875,115 L427.1875,115 Z M435.1875,114 L435.1875,114 L438.1875,114 L438.1875,115 L435.1875,115 Z M443.1875,114 L443.1875,114 L446.1875,114 L446.1875,115 L443.1875,115 Z M451.1875,114 L451.1875,114 L454.1875,114 L454.1875,115 L451.1875,115 Z M459.1875,114 L459.1875,114 L462.1875,114 L462.1875,115 L459.1875,115 Z M467.1875,114 L467.1875,114 L470.1875,114 L470.1875,115 L467.1875,115 Z M475.1875,114 L475.1875,114 L478.1875,114 L478.1875,115 L475.1875,115 Z M483.1875,114 L483.1875,114 L486.1875,114 L486.1875,115 L483.1875,115 Z M491.1875,114 L491.1875,114 L494.1875,114 L494.1875,115 L491.1875,115 Z M499.1875,114 L499.1875,114 L502.1875,114 L502.1875,115 L499.1875,115 Z M507.1875,114 L507.1875,114 L510.1875,114 L510.1875,115 L507.1875,115 Z M515.1875,114 L515.1875,114 L518.1875,114 L518.1875,115 L515.1875,115 Z M523.1875,114 L523.1875,114 L526.1875,114 L526.1875,115 L523.1875,115 Z M531.1875,114 L531.1875,114 L534.1875,114 L534.1875,115 L531.1875,115 Z M539.1875,114 L539.1875,114 L542.1875,114 L542.1875,115 L539.1875,115 Z M547.1875,114 L547.1875,114 L550.1875,114 L550.1875,115 L547.1875,115 Z M555.1875,114 L555.1875,114 L558.1875,114 L558.1875,115 L555.1875,115 Z M563.1875,114 L563.1875,114 L566.1875,114 L566.1875,115 L563.1875,115 Z M571.1875,114 L571.1875,114 L574.1875,114 L574.1875,115 L571.1875,115 Z M579.1875,114 L579.1875,114 L582.1875,114 L582.1875,115 L579.1875,115 Z M587.1875,114 L587.1875,114 L590.0,114 L590.0,115 L587.1875,115 Z M27.1875,114 L27.1875,114 L30.1875,114 L30.1875,115 L27.1875,115 Z" style="fill:rgb(210,210,210);stroke:none;"/>
    <path d="M35.1875,73.75 L35.1875,73.75 L38.1875,73.75 L38.1875,74.75 L35.1875,74.75 Z M43.1875,73.75 L43.1875,73.75 L46.1875,73.75 L46.1875,74.75 L43.1875,74.75 Z M51.1875,73.75 L51.1875,73.75 L54.1875,73.75 L54.1875,74.75 L51.1875,74.75 Z M59.1875,73.75 L59.1875,73.75 L62.1875,73.75 L62.1875,74.75 L59.1875,74.75 Z M67.1875,73.75 L67.1875,73.75 L70.1875,73.75 L70.1875,74.75 L67.1875,74.75 Z M75.1875,73.75 L75.1875,73.75 L78.1875,73.75 L78.1875,74.75 L75.1875,74.75 Z M83.1875,73.75 L83.1875,73.75 L86.1875,73.75 L86.1875,74.75 L83.1875,74.75 Z M91.1875,73.75 L91.1875,73.75 L94.1875,73.75 L94.1875,74.75 L91.1875,74.75 Z M99.1875,73.75 L99.1875,73.75 L102.1875,73.75 L102.1875,74.75 L99.1875,74.75 Z M107.1875,73.75 L107.1875,73.75 L110.1875,73.75 L110.1875,74.75 L107.1875,74.75 Z M115.1875,73.75 L115.1875,73.75 L118.1875,73.75 L118.1875,74.75 L115.1875,74.75 Z M123.1875,73.75 L123.1875,73.75 L126.1875,73.75 L126.1875,74.75 L123.1875,74.75 Z M131.1875,73.75 L131.1875,73.75 L134.1875,73.75 L134.1875,74.75 L131.1875,74.75 Z M139.1875,73.75 L139.1875,73.75 L142.1875,73.75 L142.1875,74.75 L139.1875,74.75 Z M147.1875,73.75 L147.1875,73.75 L150.1875,73.75 L150.1875,74.75 L147.1875,74.75 Z M155.1875,73.75 L155.1875,73.75 L158.1875,73.75 L158.1875,74.75 L155.1875,74.75 Z M163.1875,73.75 L163.1875,73.75 L166.1875,73.75 L166.1875,74.75 L163.1875,74.75 Z M171.1875,73.75 L171.1875,73.75 L174.1875,73.75 L174.1875,74.75 L171.1875,74.75 Z M179.1875,73.75 L179.1875,73.75 L182.1875,73.75 L182.1875,74.75 L179.1875,74.75 Z M187.1875,73.75 L187.1875,73.75 L190.1875,73.75 L190.1875,74.75 L187.1875,74.75 Z M195.1875,73.75 L195.1875,73.75 L198.1875,73.75 L198.1875,74.75 L195.1875,74.75 Z M203.1875,73.75 L203.1875,73.75 L206.1875,73.75 L206.1875,74.75 L203.1875,74.75 Z M211.1875,73.75 L211.1875,73.75 L214.1875,73.75 L214.1875,74.75 L211.1875,74.75 Z M219.1875,73.75 L219.1875,73.75 L222.1875,73.75 L222.1875,74.75 L219.1875,74.75 Z M227.1875,73.75 L227.1875,73.75 L230.1875,73.75 L230.1875,74.75 L227.1875,74.75 Z M235.1875,73.75 L235.1875,73.75 L238.1875,73.75 L238.1875,74.75 L235.1875,74.75 Z M243.1875,73.75 L243.1875,73.75 L246.1875,73.75 L246.1875,74.75 L243.1875,74.75 Z M251.1875,73.75 L251.1875,73.75 L254.1875,73.75 L254.1875,74.75 L251.1875,74.75 Z M259.1875,73.75 L259.1875,73.75 L262.1875,73.75 L262.1875,74.75 L259.1875,74.75 Z M267.1875,73.75 L267.1875,73.75 L270.1875,73.75 L270.1875,74.75 L267.1875,74.75 Z M275.1875,73.75 L275.1875,73.75 L278.1875,73.75 L278.1875,74.75 L275.1875,74.75 Z M283.1875,73.75 L283.1875,73.75 L286.1875,73.75 L286.1875,74.75 L283.1875,74.75 Z M291.1875,73.75 L291.1875,73.75 L294.1875,73.75 L294.1875,74.75 L291.1875,74.75 Z M299.1875,73.75 L299.1875,73.75 L302.1875,73.75 L302.1875,74.75 L299.1875,74.75 Z M307.1875,73.75 L307.1875,73.75 L310.1875,73.75 L310.1875,74.75 L307.1875,74.75 Z M315.1875,73.75 L315.1875,73.75 L318.1875,73.75 L318.1875,74.75 L315.1875,74.75 Z M323.1875,73.75 L323.1875,73.75 L326.1875,73.75 L326.1875,74.75 L323.1875,74.75 Z M331.1875,73.75 L331.1875,73.75 L334.1875,73.75 L334.1875,74.75 L331.1875,74.75 Z M339.1875,73.75 L339.1875,73.75 L342.1875,73.75 L342.1875,74.75 L339.1875,74.75 Z M347.1875,73.75 L347.1875,73.75 L350.1875,73.75 L350.1875,74.75 L347.1875,74.75 Z M355.1875,73.75 L355.1875,73.75 L358.1875,73.75 L358.1875,74.75 L355.1875,74.75 Z M363.1875,73.75 L363.1875,73.75 L366.1875,73.75 L366.1875,74.75 L363.1875,74.75 Z M371.1875,73.75 L371.1875,73.75 L374.1875,73.75 L374.1875,74.75 L371.1875,74.75 Z M379.1875,73.75 L379.1875,73.75 L382.1875,73.75 L382.1875,74.75 L379.1875,74.75 Z M387.1875,73.75 L387.1875,73.75 L390.1875,73.75 L390.1875,74.75 L387.1875,74.75 Z M395.1875,73.75 L395.1875,73.75 L398.1875,73.75 L398.1875,74.75 L395.1875,74.75 Z M403.1875,73.75 L403.1875,73.75 L406.1875,73.75 L406.1875,74.75 L403.1875,74.75 Z M411.1875,73.75 L411.1875,73.75 L414.1875,73.75 L414.1875,74.75 L411.1875,74.75 Z M419.1875,73.75 L419.1875,73.75 L422.1875,73.75 L422.1875,74.75 L419.1875,74.75 Z M427.1875,73.75 L427.1875,73.75 L430.1875,73.75 L430.1875,74.75 L427.1875,74.75 Z M435.1875,73.75 L435.1875,73.75 L438.1875,73.75 L438.1875,74.75 L435.1875,74.75 Z M443.1875,73.75 L443.1875,73.75 L446.1875,73.75 L446.1875,74.75 L443.1875,74.75 Z M451.1875,73.75 L451.1875,73.75 L454.1875,73.75 L454.1875,74.75 L451.1875,74.75 Z M459.1875,73.75 L459.1875,73.75 L462.1875,73.75 L462.1875,74.75 L459.1875,74.75 Z M467.1875,73.75 L467.1875,73.75 L470.1875,73.75 L470.1875,74.75 L467.1875,74.75 Z M475.1875,73.75 L475.1875,73.75 L478.1875,73.75 L478.1875,74.75 L475.1875,74.75 Z M483.1875,73.75 L483.1875,73.75 L486.1875,73.75 L486.1875,74.75 L483.1875,74.75 Z M491.1875,73.75 L491.1875,73.75 L494.1875,73.75 L494.1875,74.75 L491.1875,74.75 Z M499.1875,73.75 L499.1875,73.75 L502.1875,73.75 L502.1875,74.75 L499.1875,74.75 Z M507.1875,73.75 L507.1875,73.75 L510.1875,73.75 L510.1875,74.75 L507.1875,74.75 Z M515.1875,73.75 L515.1875,73.75 L518.1875,73.75 L518.1875,74.75 L515.1875,74.75 Z M523.1875,73.75 L523.1875,73.75 L526.1875,73.75 L526.1875,74.75 L523.1875,74.75 Z M531.1875,73.75 L531.1875,73.75 L534.1875,73.75 L534.1875,74.75 L531.1875,74.75 Z M539.1875,73.75 L539.1875,73.75 L542.1875,73.75 L542.1875,74.75 L539.1875,74.75 Z M547.1875,73.75 L547.1875,73.75 L550.1875,73.75 L550.1875,74.75 L547.1875,74.75 Z M555.1875,73.75 L555.1875,73.75 L558.1875,73.75 L558.1875,74.75 L555.1875,74.75 Z M563.1875,73.75 L563.1875,73.75 L566.1875,73.75 L566.1875,74.75 L563.1875,74.75 Z M571.1875,73.75 L571.1875,73.75 L574.1875,73.75 L574.1875,74.75 L571.1875,74.75 Z M579.1875,73.75 L579.1875,73.75 L582.1875,73.75 L582.1875,74.75 L579.1875,74.75 Z M587.1875,73.75 L587.1875,73.75 L590.0,73.75 L590.0,74.75 L587.1875,74.75 Z M27.1875,73.75 L27.1875,73.75 L30.1875,73.75 L30.1875,74.75 L27.1875,74.75 Z" style="fill:rgb(210,210,210);stroke:none;"/>
    <path d="M35.1875,33.5 L35.1875,33.5 L38.1875,33.5 L38.1875,34.5 L35.1875,34.5 Z M43.1875,33.5 L43.1875,33.5 L46.1875,33.5 L46.1875,34.5 L43.1875,34.5 Z M51.1875,33.5 L51.1875,33.5 L54.1875,33.5 L54.1875,34.5 L51.1875,34.5 Z M59.1875,33.5 L59.1875,33.5 L62.1875,33.5 L62.1875,34.5 L59.1875,34.5 Z M67.1875,33.5 L67.1875,33.5 L70.1875,33.5 L70.1875,34.5 L67.1875,34.5 Z M75.1875,33.5 L75.1875,33.5 L78.1875,33.5 L78.1875,34.5 L75.1875,34.5 Z M83.1875,33.5 L83.1875,33.5 L86.1875,33.5 L86.1875,34.5 L83.1875,34.5 Z M91.1875,33.5 L91.1875,33.5 L94.1875,33.5 L94.1875,34.5 L91.1875,34.5 Z M99.1875,33.5 L99.1875,33.5 L102.1875,33.5 L102.1875,34.5 L99.1875,34.5 Z M107.1875,33.5 L107.1875,33.5 L110.1875,33.5 L110.1875,34.5 L107.1875,34.5 Z M115.1875,33.5 L115.1875,33.5 L118.1875,33.5 L118.1875,34.5 L115.1875,34.5 Z M123.1875,33.5 L123.1875,33.5 L126.1875,33.5 L126.1875,34.5 L123.1875,34.5 Z M131.1875,33.5 L131.1875,33.5 L134.1875,33.5 L134.1875,34.5 L131.1875,34.5 Z M139.1875,33.5 L139.1875,33.5 L142.1875,33.5 L142.1875,34.5 L139.1875,34.5 Z M147.1875,33.5 L147.1875,33.5 L150.1875,33.5 L150.1875,34.5 L147.1875,34.5 Z M155.1875,33.5 L155.1875,33.5 L158.1875,33.5 L158.1875,34.5 L155.1875,34.5 Z M163.1875,33.5 L163.1875,33.5 L166.1875,33.5 L166.1875,34.5 L163.1875,34.5 Z M171.1875,33.5 L171.1875,33.5 L174.1875,33.5 L174.1875,34.5 L171.1875,34.5 Z M179.1875,33.5 L179.1875,33.5 L182.1875,33.5 L182.1875,34.5 L179.1875,34.5 Z M187.1875,33.5 L187.1875,33.5 L190.1875,33.5 L190.1875,34.5 L187.1875,34.5 Z M195.1875,33.5 L195.1875,33.5 L198.1875,33.5 L198.1875,34.5 L195.1875,34.5 Z M203.1875,33.5 L203.1875,33.5 L206.1875,33.5 L206.1875,34.5 L203.1875,34.5 Z M211.1875,33.5 L211.1875,33.5 L214.1875,33.5 L214.1875,34.5 L211.1875,34.5 Z M219.1875,33.5 L219.1875,33.5 L222.1875,33.5 L222.1875,34.5 L219.1875,34.5 Z M227.1875,33.5 L227.1875,33.5 L230.1875,33.5 L230.1875,34.5 L227.1875,34.5 Z M235.1875,33.5 L235.1875,33.5 L238.1875,33.5 L238.1875,34.5 L235.1875,34.5 Z M243.1875,33.5 L243.1875,33.5 L246.1875,33.5 L246.1875,34.5 L243.1875,34.5 Z M251.1875,33.5 L251.1875,33.5 L254.1875,33.5 L254.1875,34.5 L251.1875,34.5 Z M259.1875,33.5 L259.1875,33.5 L262.1875,33.5 L262.1875,34.5 L259.1875,34.5 Z M267.1875,33.5 L267.1875,33.5 L270.1875,33.5 L270.1875,34.5 L267.1875,34.5 Z M275.1875,33.5 L275.1875,33.5 L278.1875,33.5 L278.1875,34.5 L275.1875,34.5 Z M283.1875,33.5 L283.1875,33.5 L286.1875,33.5 L286.1875,34.5 L283.1875,34.5 Z M291.1875,33.5 L291.1875,33.5 L294.1875,33.5 L294.1875,34.5 L291.1875,34.5 Z M299.1875,33.5 L299.1875,33.5 L302.1875,33.5 L302.1875,34.5 L299.1875,34.5 Z M307.1875,33.5 L307.1875,33.5 L310.1875,33.5 L310.1875,34.5 L307.1875,34.5 Z M315.1875,33.5 L315.1875,33.5 L318.1875,33.5 L318.1875,34.5 L315.1875,34.5 Z M323.1875,33.5 L323.1875,33.5 L326.1875,33.5 L326.1875,34.5 L323.1875,34.5 Z M331.1875,33.5 L331.1875,33.5 L334.1875,33.5 L334.1875,34.5 L331.1875,34.5 Z M339.1875,33.5 L339.1875,33.5 L342.1875,33.5 L342.1875,34.5 L339.1875,34.5 Z M347.1875,33.5 L347.1875,33.5 L350.1875,33.5 L350.1875,34.5 L347.1875,34.5 Z M355.1875,33.5 L355.1875,33.5 L358.1875,33.5 L358.1875,34.5 L355.1875,34.5 Z M363.1875,33.5 L363.1875,33.5 L366.1875,33.5 L366.1875,34.5 L363.1875,34.5 Z M371.1875,33.5 L371.1875,33.5 L374.1875,33.5 L374.1875,34.5 L371.1875,34.5 Z M379.1875,33.5 L379.1875,33.5 L382.1875,33.5 L382.1875,34.5 L379.1875,34.5 Z M387.1875,33.5 L387.1875,33.5 L390.1875,33.5 L390.1875,34.5 L387.1875,34.5 Z M395.1875,33.5 L395.1875,33.5 L398.1875,33.5 L398.1875,34.5 L395.1875,34.5 Z M403.1875,33.5 L403.1875,33.5 L406.1875,33.5 L406.1875,34.5 L403.1875,34.5 Z M411.1875,33.5 L411.1875,33.5 L414.1875,33.5 L414.1875,34.5 L411.1875,34.5 Z M419.1875,33.5 L419.1875,33.5 L422.1875,33.5 L422.1875,34.5 L419.1875,34.5 Z M427.1875,33.5 L427.1875,33.5 L430.1875,33.5 L430.1875,34.5 L427.1875,34.5 Z M435.1875,33.5 L435.1875,33.5 L438.1875,33.5 L438.1875,34.5 L435.1875,34.5 Z M443.1875,33.5 L443.1875,33.5 L446.1875,33.5 L446.1875,34.5 L443.1875,34.5 Z M451.1875,33.5 L451.1875,33.5 L454.1875,33.5 L454.1875,34.5 L451.1875,34.5 Z M459.1875,33.5 L459.1875,33.5 L462.1875,33.5 L462.1875,34.5 L459.1875,34.5 Z M467.1875,33.5 L467.1875,33.5 L470.1875,33.5 L470.1875,34.5 L467.1875,34.5 Z M475.1875,33.5 L475.1875,33.5 L478.1875,33.5 L478.1875,34.5 L475.1875,34.5 Z M483.1875,33.5 L483.1875,33.5 L486.1875,33.5 L486.1875,34.5 L483.1875,34.5 Z M491.1875,33.5 L491.1875,33.5 L494.1875,33.5 L494.1875,34.5 L491.1875,34.5 Z M499.1875,33.5 L499.1875,33.5 L502.1875,33.5 L502.1875,34.5 L499.1875,34.5 Z M507.1875,33.5 L507.1875,33.5 L510.1875,33.5 L510.1875,34.5 L507.1875,34.5 Z M515.1875,33.5 L515.1875,33.5 L518.1875,33.5 L518.1875,34.5 L515.1875,34.5 Z M523.1875,33.5 L523.1875,33.5 L526.1875,33.5 L526.1875,34.5 L523.1875,34.5 Z M531.1875,33.5 L531.1875,33.5 L534.1875,33.5 L534.1875,34.5 L531.1875,34.5 Z M539.1875,33.5 L539.1875,33.5 L542.1875,33.5 L542.1875,34.5 L539.1875,34.5 Z M547.1875,33.5 L547.1875,33.5 L550.1875,33.5 L550.1875,34.5 L547.1875,34.5 Z M555.1875,33.5 L555.1875,33.5 L558.1875,33.5 L558.1875,34.5 L555.1875,34.5 Z M563.1875,33.5 L563.1875,33.5 L566.1875,33.5 L566.1875,34.5 L563.1875,34.5 Z M571.1875,33.5 L571.1875,33.5 L574.1875,33.5 L574.1875,34.5 L571.1875,34.5 Z M579.1875,33.5 L579.1875,33.5 L582.1875,33.5 L582.1875,34.5 L579.1875,34.5 Z M587.1875,33.5 L587.1875,33.5 L590.0,33.5 L590.0,34.5 L587.1875,34.5 Z M27.1875,33.5 L27.1875,33.5 L30.1875,33.5 L30.1875,34.5 L27.1875,34.5 Z" style="fill:rgb(210,210,210);stroke:none;"/>
    <path d="M50.19999999999999,28 L50.19999999999999,28 L50.19999999999999,31 L49.19999999999999,31 L49.19999999999999,28 Z M50.19999999999999,36 L50.19999999999999,36 L50.19999999999999,39 L49.19999999999999,39 L49.19999999999999,36 Z M50.19999999999999,44 L50.19999999999999,44 L50.19999999999999,47 L49.19999999999999,47 L49.19999999999999,44 Z M50.19999999999999,52 L50.19999999999999,52 L50.19999999999999,55 L49.19999999999999,55 L49.19999999999999,52 Z M50.19999999999999,60 L50.19999999999999,60 L50.19999999999999,63 L49.19999999999999,63 L49.19999999999999,60 Z M50.19999999999999,68 L50.19999999999999,68 L50.19999999999999,71 L49.19999999999999,71 L49.19999999999999,68 Z M50.19999999999999,76 L50.19999999999999,76 L50.19999999999999,79 L49.19999999999999,79 L49.19999999999999,76 Z M50.19999999999999,84 L50.19999999999999,84 L50.19999999999999,87 L49.19999999999999,87 L49.19999999999999,84 Z M50.19999999999999,92 L50.19999999999999,92 L50.19999999999999,95 L49.19999999999999,95 L49.19999999999999,92 Z M50.19999999999999,100 L50.19999999999999,100 L50.19999999999999,103 L49.19999999999999,103 L49.19999999999999,100 Z M50.19999999999999,108 L50.19999999999999,108 L50.19999999999999,111 L49.19999999999999,111 L49.19999999999999,108 Z M50.19999999999999,116 L50.19999999999999,116 L50.19999999999999,119 L49.19999999999999,119 L49.19999999999999,116 Z M50.19999999999999,124 L50.19999999999999,124 L50.19999999999999,127 L49.19999999999999,127 L49.19999999999999,124 Z M50.19999999999999,132 L50.19999999999999,132 L50.19999999999999,135 L49.19999999999999,135 L49.19999999999999,132 Z M50.19999999999999,140 L50.19999999999999,140 L50.19999999999999,143 L49.19999999999999,143 L49.19999999999999,140 Z M50.19999999999999,148 L50.19999999999999,148 L50.19999999999999,151 L49.19999999999999,151 L49.19999999999999,148 Z M50.19999999999999,156 L50.19999999999999,156 L50.19999999999999,159 L49.19999999999999,159 L49.19999999999999,156 Z M50.19999999999999,164 L50.19999999999999,164 L50.19999999999999,167 L49.19999999999999,167 L49.19999999999999,164 Z M50.19999999999999,172 L50.19999999999999,172 L50.19999999999999,175 L49.19999999999999,175 L49.19999999999999,172 Z M50.19999999999999,180 L50.19999999999999,180 L50.19999999999999,183 L49.19999999999999,183 L49.19999999999999,180 Z M50.19999999999999,188 L50.19999999999999,188 L50.19999999999999,191 L49.19999999999999,191 L49.19999999999999,188 Z M50.19999999999999,196 L50.19999999999999,196 L50.19999999999999,199 L49.19999999999999,199 L49.19999999999999,196 Z M50.19999999999999,204 L50.19999999999999,204 L50.19999999999999,207 L49.19999999999999,207 L49.19999999999999,204 Z M50.19999999999999,212 L50.19999999999999,212 L50.19999999999999,215 L49.19999999999999,215 L49.19999999999999,212 Z M50.19999999999999,220 L50.19999999999999,220 L50.19999999999999,223 L49.19999999999999,223 L49.19999999999999,220 Z M50.19999999999999,228 L50.19999999999999,228 L50.19999999999999,231 L49.19999999999999,231 L49.19999999999999,228 Z M50.19999999999999,236 L50.19999999999999,236 L50.19999999999999,239 L49.19999999999999,239 L49.19999999999999,236 Z M50.19999999999999,244 L50.19999999999999,244 L50.19999999999999,247 L49.19999999999999,247 L49.19999999999999,244 Z M50.19999999999999,252 L50.19999999999999,252 L50.19999999999999,255 L49.19999999999999,255 L49.19999999999999,252 Z M50.19999999999999,260 L50.19999999999999,260 L50.19999999999999,263 L49.19999999999999,263 L49.19999999999999,260 Z M50.19999999999999,268 L50.19999999999999,268 L50.19999999999999,271 L49.19999999999999,271 L49.19999999999999,268 Z M50.19999999999999,276 L50.19999999999999,276 L50.19999999999999,279 L49.19999999999999,279 L49.19999999999999,276 Z M50.19999999999999,284 L50.19999999999999,284 L50.19999999999999,287 L49.19999999999999,287 L49.19999999999999,284 Z M50.19999999999999,292 L50.19999999999999,292 L50.19999999999999,295 L49.19999999999999,295 L49.19999999999999,292 Z M50.19999999999999,300 L50.19999999999999,300 L50.19999999999999,303 L49.19999999999999,303 L49.19999999999999,300 Z M50.19999999999999,308 L50.19999999999999,308 L50.19999999999999,311 L49.19999999999999,311 L49.19999999999999,308 Z M50.19999999999999,316 L50.19999999999999,316 L50.19999999999999,319 L49.19999999999999,319 L49.19999999999999,316 Z M50.19999999999999,324 L50.19999999999999,324 L50.19999999999999,327 L49.19999999999999,327 L49.19999999999999,324 Z M50.19999999999999,332 L50.19999999999999,332 L50.19999999999999,335 L49.19999999999999,335 L49.19999999999999,332 Z M50.19999999999999,340 L50.19999999999999,340 L50.19999999999999,343 L49.19999999999999,343 L49.19999999999999,340 Z M50.19999999999999,348 L50.19999999999999,348 L50.19999999999999,351 L49.19999999999999,351 L49.19999999999999,348 Z M50.19999999999999,356 L50.19999999999999,356 L50.19999999999999,359 L49.19999999999999,359 L49.19999999999999,356 Z M50.19999999999999,364 L50.19999999999999,364 L50.19999999999999,367 L49.19999999999999,367 L49.19999999999999,364 Z M50.19999999999999,20 L50.19999999999999,20 L50.19999999999999,23 L49.19999999999999,23 L49.19999999999999,20 Z" style="fill:rgb(210,210,210);stroke:none;"/>
    <path d="M309.09375,28 L309.09375,28 L309.09375,31 L308.09375,31 L308.09375,28 Z M309.09375,36 L309.09375,36 L309.09375,39 L308.09375,39 L308.09375,36 Z M309.09375,44 L309.09375,44 L309.09375,47 L308.09375,47 L308.09375,44 Z M309.09375,52 L309.09375,52 L309.09375,55 L308.09375,55 L308.09375,52 Z M309.09375,60 L309.09375,60 L309.09375,63 L308.09375,63 L308.09375,60 Z M309.09375,68 L309.09375,68 L309.09375,71 L308.09375,71 L308.09375,68 Z M309.09375,76 L309.09375,76 L309.09375,79 L308.09375,79 L308.09375,76 Z M309.09375,84 L309.09375,84 L309.09375,87 L308.09375,87 L308.09375,84 Z M309.09375,92 L309.09375,92 L309.09375,95 L308.09375,95 L308.09375,92 Z M309.09375,100 L309.09375,100 L309.09375,103 L308.09375,103 L308.09375,100 Z M309.09375,108 L309.09375,108 L309.09375,111 L308.09375,111 L308.09375,108 Z M309.09375,116 L309.09375,116 L309.09375,119 L308.09375,119 L308.09375,116 Z M309.09375,124 L309.09375,124 L309.09375,127 L308.09375,127 L308.09375,124 Z M309.09375,132 L309.09375,132 L309.09375,135 L308.09375,135 L308.09375,132 Z M309.09375,140 L309.09375,140 L309.09375,143 L308.09375,143 L308.09375,140 Z M309.09375,148 L309.09375,148 L309.09375,151 L308.09375,151 L308.09375,148 Z M309.09375,156 L309.09375,156 L309.09375,159 L308.09375,159 L308.09375,156 Z M309.09375,164 L309.09375,164 L309.09375,167 L308.09375,167 L308.09375,164 Z M309.09375,172 L309.09375,172 L309.09375,175 L308.09375,175 L308.09375,172 Z M309.09375,180 L309.09375,180 L309.09375,183 L308.09375,183 L308.09375,180 Z M309.09375,188 L309.09375,188 L309.09375,191 L308.09375,191 L308.09375,188 Z M309.09375,196 L309.09375,196 L309.09375,199 L308.09375,199 L308.09375,196 Z M309.09375,204 L309.09375,204 L309.09375,207 L308.09375,207 L308.09375,204 Z M309.09375,212 L309.09375,212 L309.09375,215 L308.09375,215 L308.09375,212 Z M309.09375,220 L309.09375,220 L309.09375,223 L308.09375,223 L308.09375,220 Z M309.09375,228 L309.09375,228 L309.09375,231 L308.09375,231 L308.09375,228 Z M309.09375,236 L309.09375,236 L309.09375,239 L308.09375,239 L308.09375,236 Z M309.09375,244 L309.09375,244 L309.09375,247 L308.09375,247 L308.09375,244 Z M309.09375,252 L309.09375,252 L309.09375,255 L308.09375,255 L308.09375,252 Z M309.09375,260 L309.09375,260 L309.09375,263 L308.09375,263 L308.09375,260 Z M309.09375,268 L309.09375,268 L309.09375,271 L308.09375,271 L308.09375,268 Z M309.09375,276 L309.09375,276 L309.09375,279 L308.09375,279 L308.09375,276 Z M309.09375,284 L309.09375,284 L309.09375,287 L308.09375,287 L308.09375,284 Z M309.09375,292 L309.09375,292 L309.09375,295 L308.09375,295 L308.09375,292 Z M309.09375,300 L309.09375,300 L309.09375,303 L308.09375,303 L308.09375,300 Z M309.09375,308 L309.09375,308 L309.09375,311 L308.09375,311 L308.09375,308 Z M309.09375,316 L309.09375,316 L309.09375,319 L308.09375,319 L308.09375,316 Z M309.09375,324 L309.09375,324 L309.09375,327 L308.09375,327 L308.09375,324 Z M309.09375,332 L309.09375,332 L309.09375,335 L308.09375,335 L308.09375,332 Z M309.09375,340 L309.09375,340 L309.09375,343 L308.09375,343 L308.09375,340 Z M309.09375,348 L309.09375,348 L309.09375,351 L308.09375,351 L308.09375,348 Z M309.09375,356 L309.09375,356 L309.09375,359 L308.09375,359 L308.09375,356 Z M309.09375,364 L309.09375,364 L309.09375,367 L308.09375,367 L308.09375,364 Z M309.09375,20 L309.09375,20 L309.09375,23 L308.09375,23 L308.09375,20 Z" style="fill:rgb(210,210,210);stroke:none;"/>
    <path d="M567.9875,28 L567.9875,28 L567.9875,31 L566.9875,31 L566.9875,28 Z M567.9875,36 L567.9875,36 L567.9875,39 L566.9875,39 L566.9875,36 Z M567.9875,44 L567.9875,44 L567.9875,47 L566.9875,47 L566.9875,44 Z M567.9875,52 L567.9875,52 L567.9875,55 L566.9875,55 L566.9875,52 Z M567.9875,60 L567.9875,60 L567.9875,63 L566.9875,63 L566.9875,60 Z M567.9875,68 L567.9875,68 L567.9875,71 L566.9875,71 L566.9875,68 Z M567.9875,76 L567.9875,76 L567.9875,79 L566.9875,79 L566.9875,76 Z M567.9875,84 L567.9875,84 L567.9875,87 L566.9875,87 L566.9875,84 Z M567.9875,92 L567.9875,92 L567.9875,95 L566.9875,95 L566.9875,92 Z M567.9875,100 L567.9875,100 L567.9875,103 L566.9875,103 L566.9875,100 Z M567.9875,108 L567.9875,108 L567.9875,111 L566.9875,111 L566.9875,108 Z M567.9875,116 L567.9875,116 L567.9875,119 L566.9875,119 L566.9875,116 Z M567.9875,124 L567.9875,124 L567.9875,127 L566.9875,127 L566.9875,124 Z M567.9875,132 L567.9875,132 L567.9875,135 L566.9875,135 L566.9875,132 Z M567.9875,140 L567.9875,140 L567.9875,143 L566.9875,143 L566.9875,140 Z M567.9875,148 L567.9875,148 L567.9875,151 L566.9875,151 L566.9875,148 Z M567.9875,156 L567.9875,156 L567.9875,159 L566.9875,159 L566.9875,156 Z M567.9875,164 L567.9875,164 L567.9875,167 L566.9875,167 L566.9875,164 Z M567.9875,172 L567.9875,172 L567.9875,175 L566.9875,175 L566.9875,172 Z M567.9875,180 L567.9875,180 L567.9875,183 L566.9875,183 L566.9875,180 Z M567.9875,188 L567.9875,188 L567.9875,191 L566.9875,191 L566.9875,188 Z M567.9875,196 L567.9875,196 L567.9875,199 L566.9875,199 L566.9875,196 Z M567.9875,204 L567.9875,204 L567.9875,207 L566.9875,207 L566.9875,204 Z M567.9875,212 L567.9875,212 L567.9875,215 L566.9875,215 L566.9875,212 Z M567.9875,220 L567.9875,220 L567.9875,223 L566.9875,223 L566.9875,220 Z M567.9875,228 L567.9875,228 L567.9875,231 L566.9875,231 L566.9875,228 Z M567.9875,236 L567.9875,236 L567.9875,239 L566.9875,239 L566.9875,236 Z M567.9875,244 L567.9875,244 L567.9875,247 L566.9875,247 L566.9875,244 Z M567.9875,252 L567.9875,252 L567.9875,255 L566.9875,255 L566.9875,252 Z M567.9875,260 L567.9875,260 L567.9875,263 L566.9875,263 L566.9875,260 Z M567.9875,268 L567.9875,268 L567.9875,271 L566.9875,271 L566.9875,268 Z M567.9875,276 L567.9875,276 L567.9875,279 L566.9875,279 L566.9875,276 Z M567.9875,284 L567.9875,284 L567.9875,287 L566.9875,287 L566.9875,284 Z M567.9875,292 L567.9875,292 L567.9875,295 L566.9875,295 L566.9875,292 Z M567.9875,300 L567.9875,300 L567.9875,303 L566.9875,303 L566.9875,300 Z M567.9875,308 L567.9875,308 L567.9875,311 L566.9875,311 L566.9875,308 Z M567.9875,316 L567.9875,316 L567.9875,319 L566.9875,319 L566.9875,316 Z M567.9875,324 L567.9875,324 L567.9875,327 L566.9875,327 L566.9875,324 Z M567.9875,332 L567.9875,332 L567.9875,335 L566.9875,335 L566.9875,332 Z M567.9875,340 L567.9875,340 L567.9875,343 L566.9875,343 L566.9875,340 Z M567.9875,348 L567.9875,348 L567.9875,351 L566.9875,351 L566.9875,348 Z M567.9875,356 L567.9875,356 L567.9875,359 L566.9875,359 L566.9875,356 Z M567.9875,364 L567.9875,364 L567.9875,367 L566.9875,367 L566.9875,364 Z M567.9875,20 L567.9875,20 L567.9875,23 L566.9875,23 L566.9875,20 Z" style="fill:rgb(210,210,210);stroke:none;"/>
    <rect height="350" style="fill:none;stroke:rgb(130,130,130);stroke-miterlimit:10;stroke-linejoin:bevel;stroke-dasharray:3,0;" width="562.8125" x="27.1875" y="20"/>
  </g>
  <g clip-path="url(#clip858232704)">
    <line style="fill:none;stroke:rgb(0,55,255);stroke-opacity:0.705882352941177;stroke-width:2;stroke-miterlimit:10;stroke-linecap:round;" x1="49.29374999999999" x2="308.1875" y1="356" y2="235.25"/>
    <line style="fill:none;stroke:rgb(0,55,255);stroke-opacity:0.705882352941177;stroke-width:2;stroke-miterlimit:10;stroke-linecap:round;" x1="308.1875" x2="567.08125" y1="235.25" y2="34"/>
  </g>
  <g transform="translate(308.59375 15)">
    <path d="" style="fill:rgb(0,0,0);stroke:none;"/>
  </g>
</svg>
