<?xml version="1.0" encoding="UTF-8" standalone="no"?>
<!DOCTYPE svg PUBLIC "-//W3C//DTD SVG 1.1//EN" "http://www.w3.org/Graphics/SVG/1.1/DTD/svg11.dtd">
<svg xmlns:xlink="http://www.w3.org/1999/xlink" height="400px" version="1.1" viewBox="0 0 600 400" width="600px" x="0px" y="0px" xmlns="http://www.w3.org/2000/svg">
  <defs>
    <clipPath id="clip813264128">
      <rect height="360" width="491.4375" x="27.1875" y="10"/>
    </clipPath>
  </defs>
  <rect height="400" style="fill:rgb(210,210,210);stroke:none;" width="600" x="0" y="0"/>
  <g transform="translate(10 84.60000000000002)">
    <path d="M1.921875,-4.640625 Q1.28125,-4.90625 0.984375,-5.375 Q0.703125,-5.84375 0.703125,-6.40625 Q0.703125,-7.375 1.375,-8 Q2.046875,-8.625 3.28125,-8.625 Q4.5,-8.625 5.171875,-8 Q5.859375,-7.375 5.859375,-6.40625 Q5.859375,-5.8125 5.546875,-5.34375 Q5.234375,-4.875 4.671875,-4.640625 Q5.390625,-4.34375 5.765625,-3.796875 Q6.140625,-3.25 6.140625,-2.53125 Q6.140625,-1.34375 5.375,-0.59375 Q4.625,0.15625 3.359375,0.15625 Q2.1875,0.15625 1.40625,-0.46875 Q0.484375,-1.1875 0.484375,-2.453125 Q0.484375,-3.15625 0.828125,-3.734375 Q1.171875,-4.3125 1.921875,-4.640625 Z M2.265625,-6.296875 Q2.265625,-5.796875 2.53125,-5.515625 Q2.8125,-5.25 3.28125,-5.25 Q3.75,-5.25 4.03125,-5.53125 Q4.3125,-5.8125 4.3125,-6.296875 Q4.3125,-6.765625 4.03125,-7.03125 Q3.75,-7.3125 3.296875,-7.3125 Q2.828125,-7.3125 2.546875,-7.03125 Q2.265625,-6.75 2.265625,-6.296875 Z M2.109375,-2.609375 Q2.109375,-1.9375 2.453125,-1.546875 Q2.8125,-1.171875 3.328125,-1.171875 Q3.84375,-1.171875 4.171875,-1.53125 Q4.5,-1.90625 4.5,-2.59375 Q4.5,-3.203125 4.15625,-3.5625 Q3.828125,-3.9375 3.3125,-3.9375 Q2.703125,-3.9375 2.40625,-3.515625 Q2.109375,-3.09375 2.109375,-2.609375 Z" style="fill:rgb(0,0,0);stroke:none;"/>
  </g>
  <g transform="translate(10 195)">
    <path d="M6.09375,-6.484375 L4.5,-6.3125 Q4.4375,-6.796875 4.1875,-7.03125 Q3.9375,-7.265625 3.546875,-7.265625 Q3.03125,-7.265625 2.671875,-6.796875 Q2.3125,-6.328125 2.21875,-4.859375 Q2.828125,-5.578125 3.75,-5.578125 Q4.78125,-5.578125 5.515625,-4.796875 Q6.25,-4.015625 6.25,-2.765625 Q6.25,-1.453125 5.46875,-0.65625 Q4.703125,0.140625 3.484375,0.140625 Q2.1875,0.140625 1.34375,-0.859375 Q0.515625,-1.875 0.515625,-4.171875 Q0.515625,-6.546875 1.375,-7.578125 Q2.25,-8.625 3.65625,-8.625 Q4.625,-8.625 5.265625,-8.078125 Q5.90625,-7.53125 6.09375,-6.484375 Z M2.359375,-2.890625 Q2.359375,-2.09375 2.71875,-1.65625 Q3.09375,-1.21875 3.5625,-1.21875 Q4.03125,-1.21875 4.328125,-1.578125 Q4.640625,-1.9375 4.640625,-2.75 Q4.640625,-3.59375 4.3125,-3.96875 Q3.984375,-4.359375 3.484375,-4.359375 Q3.015625,-4.359375 2.6875,-3.984375 Q2.359375,-3.625 2.359375,-2.890625 Z" style="fill:rgb(0,0,0);stroke:none;"/>
  </g>
  <g transform="translate(10 304.9)">
    <path d="M3.734375,-0 L3.734375,-1.734375 L0.21875,-1.734375 L0.21875,-3.171875 L3.953125,-8.625 L5.328125,-8.625 L5.328125,-3.171875 L6.40625,-3.171875 L6.40625,-1.734375 L5.328125,-1.734375 L5.328125,-0 L3.734375,-0 Z M3.734375,-3.171875 L3.734375,-6.109375 L1.765625,-3.171875 L3.734375,-3.171875 Z" style="fill:rgb(0,0,0);stroke:none;"/>
  </g>
  <g transform="translate(10 139.3)">
    <path d="M0.515625,-6.9375 L0.515625,-8.46875 L6.140625,-8.46875 L6.140625,-7.28125 Q5.4375,-6.59375 4.71875,-5.3125 Q4,-4.03125 3.625,-2.578125 Q3.25,-1.140625 3.25,-0 L1.671875,-0 Q1.703125,-1.78125 2.390625,-3.625 Q3.09375,-5.484375 4.25,-6.9375 L0.515625,-6.9375 Z" style="fill:rgb(0,0,0);stroke:none;"/>
  </g>
  <g transform="translate(10 360.6)">
    <path d="M0.453125,-2.28125 L2.046875,-2.46875 Q2.125,-1.859375 2.453125,-1.53125 Q2.796875,-1.21875 3.265625,-1.21875 Q3.78125,-1.21875 4.125,-1.609375 Q4.46875,-2 4.46875,-2.65625 Q4.46875,-3.265625 4.125,-3.625 Q3.796875,-4 3.328125,-4 Q3,-4 2.5625,-3.875 L2.75,-5.21875 Q3.421875,-5.203125 3.765625,-5.5 Q4.125,-5.8125 4.125,-6.328125 Q4.125,-6.75 3.859375,-7 Q3.609375,-7.265625 3.171875,-7.265625 Q2.75,-7.265625 2.453125,-6.96875 Q2.15625,-6.6875 2.09375,-6.125 L0.578125,-6.375 Q0.734375,-7.15625 1.046875,-7.625 Q1.375,-8.09375 1.9375,-8.359375 Q2.515625,-8.625 3.21875,-8.625 Q4.4375,-8.625 5.171875,-7.859375 Q5.765625,-7.21875 5.765625,-6.421875 Q5.765625,-5.296875 4.53125,-4.625 Q5.28125,-4.453125 5.71875,-3.90625 Q6.15625,-3.359375 6.15625,-2.578125 Q6.15625,-1.453125 5.328125,-0.65625 Q4.5,0.140625 3.28125,0.140625 Q2.109375,0.140625 1.34375,-0.53125 Q0.578125,-1.203125 0.453125,-2.28125 Z" style="fill:rgb(0,0,0);stroke:none;"/>
  </g>
  <g transform="translate(10 250.2)">
    <path d="M0.53125,-2.203125 L2.171875,-2.375 Q2.25,-1.828125 2.59375,-1.5 Q2.9375,-1.171875 3.390625,-1.171875 Q3.90625,-1.171875 4.265625,-1.59375 Q4.625,-2.015625 4.625,-2.859375 Q4.625,-3.640625 4.265625,-4.03125 Q3.90625,-4.4375 3.34375,-4.4375 Q2.625,-4.4375 2.0625,-3.8125 L0.734375,-4 L1.578125,-8.46875 L5.9375,-8.46875 L5.9375,-6.9375 L2.828125,-6.9375 L2.5625,-5.46875 Q3.125,-5.75 3.6875,-5.75 Q4.78125,-5.75 5.546875,-4.953125 Q6.3125,-4.15625 6.3125,-2.890625 Q6.3125,-1.828125 5.703125,-0.984375 Q4.859375,0.140625 3.375,0.140625 Q2.1875,0.140625 1.4375,-0.484375 Q0.6875,-1.125 0.53125,-2.203125 Z" style="fill:rgb(0,0,0);stroke:none;"/>
  </g>
  <g transform="translate(10 29.399999999999977)">
    <path d="M0.546875,-1.984375 L2.140625,-2.15625 Q2.203125,-1.671875 2.4375,-1.4375 Q2.6875,-1.203125 3.09375,-1.203125 Q3.609375,-1.203125 3.953125,-1.671875 Q4.3125,-2.140625 4.421875,-3.625 Q3.796875,-2.90625 2.859375,-2.90625 Q1.859375,-2.90625 1.109375,-3.6875 Q0.375,-4.46875 0.375,-5.71875 Q0.375,-7.03125 1.15625,-7.828125 Q1.9375,-8.625 3.140625,-8.625 Q4.4375,-8.625 5.28125,-7.609375 Q6.125,-6.609375 6.125,-4.296875 Q6.125,-1.9375 5.25,-0.890625 Q4.375,0.15625 2.96875,0.15625 Q1.96875,0.15625 1.34375,-0.375 Q0.71875,-0.921875 0.546875,-1.984375 Z M4.265625,-5.578125 Q4.265625,-6.375 3.90625,-6.8125 Q3.546875,-7.265625 3.0625,-7.265625 Q2.609375,-7.265625 2.296875,-6.90625 Q2,-6.546875 2,-5.71875 Q2,-4.890625 2.328125,-4.5 Q2.65625,-4.109375 3.140625,-4.109375 Q3.625,-4.109375 3.9375,-4.484375 Q4.265625,-4.859375 4.265625,-5.578125 Z" style="fill:rgb(0,0,0);stroke:none;"/>
  </g>
  <g>
    <line style="fill:none;stroke:rgb(130,130,130);stroke-miterlimit:10;stroke-linecap:square;" x1="20.1875" x2="23.1875" y1="355.6" y2="355.6"/>
    <line style="fill:none;stroke:rgb(130,130,130);stroke-miterlimit:10;stroke-linecap:square;" x1="20.1875" x2="23.1875" y1="300.4" y2="300.4"/>
    <line style="fill:none;stroke:rgb(130,130,130);stroke-miterlimit:10;stroke-linecap:square;" x1="20.1875" x2="23.1875" y1="245.2" y2="245.2"/>
    <line style="fill:none;stroke:rgb(130,130,130);stroke-miterlimit:10;stroke-linecap:square;" x1="20.1875" x2="23.1875" y1="190" y2="190"/>
    <line style="fill:none;stroke:rgb(130,130,130);stroke-miterlimit:10;stroke-linecap:square;" x1="20.1875" x2="23.1875" y1="134.8" y2="134.8"/>
    <line style="fill:none;stroke:rgb(130,130,130);stroke-miterlimit:10;stroke-linecap:square;" x1="20.1875" x2="23.1875" y1="79.60000000000002" y2="79.60000000000002"/>
    <line style="fill:none;stroke:rgb(130,130,130);stroke-miterlimit:10;stroke-linecap:square;" x1="20.1875" x2="23.1875" y1="24.399999999999977" y2="24.399999999999977"/>
    <line style="fill:none;stroke:rgb(130,130,130);stroke-miterlimit:10;stroke-linecap:square;" x1="23.1875" x2="23.1875" y1="10" y2="370"/>
  </g>
  <g transform="translate(44.9621875 390)">
    <path d="M4.71875,-0 L3.078125,-0 L3.078125,-6.203125 Q2.171875,-5.359375 0.953125,-4.953125 L0.953125,-6.453125 Q1.59375,-6.65625 2.34375,-7.25 Q3.109375,-7.84375 3.390625,-8.625 L4.71875,-8.625 L4.71875,-0 Z" style="fill:rgb(0,0,0);stroke:none;"/>
  </g>
  <g transform="translate(270.015625 390)">
    <path d="M6.078125,-1.53125 L6.078125,-0 L0.296875,-0 Q0.390625,-0.875 0.859375,-1.640625 Q1.328125,-2.421875 2.71875,-3.703125 Q3.828125,-4.734375 4.078125,-5.109375 Q4.421875,-5.625 4.421875,-6.125 Q4.421875,-6.671875 4.125,-6.96875 Q3.828125,-7.265625 3.3125,-7.265625 Q2.796875,-7.265625 2.484375,-6.953125 Q2.1875,-6.640625 2.140625,-5.921875 L0.5,-6.078125 Q0.640625,-7.4375 1.40625,-8.03125 Q2.1875,-8.625 3.34375,-8.625 Q4.625,-8.625 5.34375,-7.9375 Q6.078125,-7.25 6.078125,-6.234375 Q6.078125,-5.65625 5.859375,-5.125 Q5.65625,-4.609375 5.203125,-4.03125 Q4.90625,-3.65625 4.125,-2.9375 Q3.34375,-2.21875 3.140625,-1.984375 Q2.9375,-1.75 2.796875,-1.53125 L6.078125,-1.53125 Z" style="fill:rgb(0,0,0);stroke:none;"/>
  </g>
  <g transform="translate(496.1159375 389.859375)">
    <path d="M0.453125,-2.28125 L2.046875,-2.46875 Q2.125,-1.859375 2.453125,-1.53125 Q2.796875,-1.21875 3.265625,-1.21875 Q3.78125,-1.21875 4.125,-1.609375 Q4.46875,-2 4.46875,-2.65625 Q4.46875,-3.265625 4.125,-3.625 Q3.796875,-4 3.328125,-4 Q3,-4 2.5625,-3.875 L2.75,-5.21875 Q3.421875,-5.203125 3.765625,-5.5 Q4.125,-5.8125 4.125,-6.328125 Q4.125,-6.75 3.859375,-7 Q3.609375,-7.265625 3.171875,-7.265625 Q2.75,-7.265625 2.453125,-6.96875 Q2.15625,-6.6875 2.09375,-6.125 L0.578125,-6.375 Q0.734375,-7.15625 1.046875,-7.625 Q1.375,-8.09375 1.9375,-8.359375 Q2.515625,-8.625 3.21875,-8.625 Q4.4375,-8.625 5.171875,-7.859375 Q5.765625,-7.21875 5.765625,-6.421875 Q5.765625,-5.296875 4.53125,-4.625 Q5.28125,-4.453125 5.71875,-3.90625 Q6.15625,-3.359375 6.15625,-2.578125 Q6.15625,-1.453125 5.328125,-0.65625 Q4.5,0.140625 3.28125,0.140625 Q2.109375,0.140625 1.34375,-0.53125 Q0.578125,-1.203125 0.453125,-2.28125 Z" style="fill:rgb(0,0,0);stroke:none;"/>
  </g>
  <g>
    <line style="fill:none;stroke:rgb(130,130,130);stroke-miterlimit:10;stroke-linecap:square;" x1="46.845" x2="46.845" y1="377.234375" y2="374.234375"/>
    <line style="fill:none;stroke:rgb(130,130,130);stroke-miterlimit:10;stroke-linecap:square;" x1="272.90625" x2="272.90625" y1="377.234375" y2="374.234375"/>
    <line style="fill:none;stroke:rgb(130,130,130);stroke-miterlimit:10;stroke-linecap:square;" x1="498.9675" x2="498.9675" y1="377.234375" y2="374.234375"/>
    <line style="fill:none;stroke:rgb(130,130,130);stroke-miterlimit:10;stroke-linecap:square;" x1="27" x2="518" y1="374" y2="374"/>
    <rect height="360" style="fill:rgb(255,255,255);stroke:none;" width="491.4375" x="27.1875" y="10"/>
    <path d="M35.1875,355.1 L35.1875,355.1 L38.1875,355.1 L38.1875,356.1 L35.1875,356.1 Z M43.1875,355.1 L43.1875,355.1 L46.1875,355.1 L46.1875,356.1 L43.1875,356.1 Z M51.1875,355.1 L51.1875,355.1 L54.1875,355.1 L54.1875,356.1 L51.1875,356.1 Z M59.1875,355.1 L59.1875,355.1 L62.1875,355.1 L62.1875,356.1 L59.1875,356.1 Z M67.1875,355.1 L67.1875,355.1 L70.1875,355.1 L70.1875,356.1 L67.1875,356.1 Z M75.1875,355.1 L75.1875,355.1 L78.1875,355.1 L78.1875,356.1 L75.1875,356.1 Z M83.1875,355.1 L83.1875,355.1 L86.1875,355.1 L86.1875,356.1 L83.1875,356.1 Z M91.1875,355.1 L91.1875,355.1 L94.1875,355.1 L94.1875,356.1 L91.1875,356.1 Z M99.1875,355.1 L99.1875,355.1 L102.1875,355.1 L102.1875,356.1 L99.1875,356.1 Z M107.1875,355.1 L107.1875,355.1 L110.1875,355.1 L110.1875,356.1 L107.1875,356.1 Z M115.1875,355.1 L115.1875,355.1 L118.1875,355.1 L118.1875,356.1 L115.1875,356.1 Z M123.1875,355.1 L123.1875,355.1 L126.1875,355.1 L126.1875,356.1 L123.1875,356.1 Z M131.1875,355.1 L131.1875,355.1 L134.1875,355.1 L134.1875,356.1 L131.1875,356.1 Z M139.1875,355.1 L139.1875,355.1 L142.1875,355.1 L142.1875,356.1 L139.1875,356.1 Z M147.1875,355.1 L147.1875,355.1 L150.1875,355.1 L150.1875,356.1 L147.1875,356.1 Z M155.1875,355.1 L155.1875,355.1 L158.1875,355.1 L158.1875,356.1 L155.1875,356.1 Z M163.1875,355.1 L163.1875,355.1 L166.1875,355.1 L166.1875,356.1 L163.1875,356.1 Z M171.1875,355.1 L171.1875,355.1 L174.1875,355.1 L174.1875,356.1 L171.1875,356.1 Z M179.1875,355.1 L179.1875,355.1 L182.1875,355.1 L182.1875,356.1 L179.1875,356.1 Z M187.1875,355.1 L187.1875,355.1 L190.1875,355.1 L190.1875,356.1 L187.1875,356.1 Z M195.1875,355.1 L195.1875,355.1 L198.1875,355.1 L198.1875,356.1 L195.1875,356.1 Z M203.1875,355.1 L203.1875,355.1 L206.1875,355.1 L206.1875,356.1 L203.1875,356.1 Z M211.1875,355.1 L211.1875,355.1 L214.1875,355.1 L214.1875,356.1 L211.1875,356.1 Z M219.1875,355.1 L219.1875,355.1 L222.1875,355.1 L222.1875,356.1 L219.1875,356.1 Z M227.1875,355.1 L227.1875,355.1 L230.1875,355.1 L230.1875,356.1 L227.1875,356.1 Z M235.1875,355.1 L235.1875,355.1 L238.1875,355.1 L238.1875,356.1 L235.1875,356.1 Z M243.1875,355.1 L243.1875,355.1 L246.1875,355.1 L246.1875,356.1 L243.1875,356.1 Z M251.1875,355.1 L251.1875,355.1 L254.1875,355.1 L254.1875,356.1 L251.1875,356.1 Z M259.1875,355.1 L259.1875,355.1 L262.1875,355.1 L262.1875,356.1 L259.1875,356.1 Z M267.1875,355.1 L267.1875,355.1 L270.1875,355.1 L270.1875,356.1 L267.1875,356.1 Z M275.1875,355.1 L275.1875,355.1 L278.1875,355.1 L278.1875,356.1 L275.1875,356.1 Z M283.1875,355.1 L283.1875,355.1 L286.1875,355.1 L286.1875,356.1 L283.1875,356.1 Z M291.1875,355.1 L291.1875,355.1 L294.1875,355.1 L294.1875,356.1 L291.1875,356.1 Z M299.1875,355.1 L299.1875,355.1 L302.1875,355.1 L302.1875,356.1 L299.1875,356.1 Z M307.1875,355.1 L307.1875,355.1 L310.1875,355.1 L310.1875,356.1 L307.1875,356.1 Z M315.1875,355.1 L315.1875,355.1 L318.1875,355.1 L318.1875,356.1 L315.1875,356.1 Z M323.1875,355.1 L323.1875,355.1 L326.1875,355.1 L326.1875,356.1 L323.1875,356.1 Z M331.1875,355.1 L331.1875,355.1 L334.1875,355.1 L334.1875,356.1 L331.1875,356.1 Z M339.1875,355.1 L339.1875,355.1 L342.1875,355.1 L342.1875,356.1 L339.1875,356.1 Z M347.1875,355.1 L347.1875,355.1 L350.1875,355.1 L350.1875,356.1 L347.1875,356.1 Z M355.1875,355.1 L355.1875,355.1 L358.1875,355.1 L358.1875,356.1 L355.1875,356.1 Z M363.1875,355.1 L363.1875,355.1 L366.1875,355.1 L366.1875,356.1 L363.1875,356.1 Z M371.1875,355.1 L371.1875,355.1 L374.1875,355.1 L374.1875,356.1 L371.1875,356.1 Z M379.1875,355.1 L379.1875,355.1 L382.1875,355.1 L382.1875,356.1 L379.1875,356.1 Z M387.1875,355.1 L387.1875,355.1 L390.1875,355.1 L390.1875,356.1 L387.1875,356.1 Z M395.1875,355.1 L395.1875,355.1 L398.1875,355.1 L398.1875,356.1 L395.1875,356.1 Z M403.1875,355.1 L403.1875,355.1 L406.1875,355.1 L406.1875,356.1 L403.1875,356.1 Z M411.1875,355.1 L411.1875,355.1 L414.1875,355.1 L414.1875,356.1 L411.1875,356.1 Z M419.1875,355.1 L419.1875,355.1 L422.1875,355.1 L422.1875,356.1 L419.1875,356.1 Z M427.1875,355.1 L427.1875,355.1 L430.1875,355.1 L430.1875,356.1 L427.1875,356.1 Z M435.1875,355.1 L435.1875,355.1 L438.1875,355.1 L438.1875,356.1 L435.1875,356.1 Z M443.1875,355.1 L443.1875,355.1 L446.1875,355.1 L446.1875,356.1 L443.1875,356.1 Z M451.1875,355.1 L451.1875,355.1 L454.1875,355.1 L454.1875,356.1 L451.1875,356.1 Z M459.1875,355.1 L459.1875,355.1 L462.1875,355.1 L462.1875,356.1 L459.1875,356.1 Z M467.1875,355.1 L467.1875,355.1 L470.1875,355.1 L470.1875,356.1 L467.1875,356.1 Z M475.1875,355.1 L475.1875,355.1 L478.1875,355.1 L478.1875,356.1 L475.1875,356.1 Z M483.1875,355.1 L483.1875,355.1 L486.1875,355.1 L486.1875,356.1 L483.1875,356.1 Z M491.1875,355.1 L491.1875,355.1 L494.1875,355.1 L494.1875,356.1 L491.1875,356.1 Z M499.1875,355.1 L499.1875,355.1 L502.1875,355.1 L502.1875,356.1 L499.1875,356.1 Z M507.1875,355.1 L507.1875,355.1 L510.1875,355.1 L510.1875,356.1 L507.1875,356.1 Z M515.1875,355.1 L515.1875,355.1 L518.1875,355.1 L518.1875,356.1 L515.1875,356.1 Z M27.1875,355.1 L27.1875,355.1 L30.1875,355.1 L30.1875,356.1 L27.1875,356.1 Z" style="fill:none;stroke:rgb(210,210,210);stroke-miterlimit:10;stroke-linejoin:bevel;stroke-dasharray:3,5;"/>
    <path d="M35.1875,299.9 L35.1875,299.9 L38.1875,299.9 L38.1875,300.9 L35.1875,300.9 Z M43.1875,299.9 L43.1875,299.9 L46.1875,299.9 L46.1875,300.9 L43.1875,300.9 Z M51.1875,299.9 L51.1875,299.9 L54.1875,299.9 L54.1875,300.9 L51.1875,300.9 Z M59.1875,299.9 L59.1875,299.9 L62.1875,299.9 L62.1875,300.9 L59.1875,300.9 Z M67.1875,299.9 L67.1875,299.9 L70.1875,299.9 L70.1875,300.9 L67.1875,300.9 Z M75.1875,299.9 L75.1875,299.9 L78.1875,299.9 L78.1875,300.9 L75.1875,300.9 Z M83.1875,299.9 L83.1875,299.9 L86.1875,299.9 L86.1875,300.9 L83.1875,300.9 Z M91.1875,299.9 L91.1875,299.9 L94.1875,299.9 L94.1875,300.9 L91.1875,300.9 Z M99.1875,299.9 L99.1875,299.9 L102.1875,299.9 L102.1875,300.9 L99.1875,300.9 Z M107.1875,299.9 L107.1875,299.9 L110.1875,299.9 L110.1875,300.9 L107.1875,300.9 Z M115.1875,299.9 L115.1875,299.9 L118.1875,299.9 L118.1875,300.9 L115.1875,300.9 Z M123.1875,299.9 L123.1875,299.9 L126.1875,299.9 L126.1875,300.9 L123.1875,300.9 Z M131.1875,299.9 L131.1875,299.9 L134.1875,299.9 L134.1875,300.9 L131.1875,300.9 Z M139.1875,299.9 L139.1875,299.9 L142.1875,299.9 L142.1875,300.9 L139.1875,300.9 Z M147.1875,299.9 L147.1875,299.9 L150.1875,299.9 L150.1875,300.9 L147.1875,300.9 Z M155.1875,299.9 L155.1875,299.9 L158.1875,299.9 L158.1875,300.9 L155.1875,300.9 Z M163.1875,299.9 L163.1875,299.9 L166.1875,299.9 L166.1875,300.9 L163.1875,300.9 Z M171.1875,299.9 L171.1875,299.9 L174.1875,299.9 L174.1875,300.9 L171.1875,300.9 Z M179.1875,299.9 L179.1875,299.9 L182.1875,299.9 L182.1875,300.9 L179.1875,300.9 Z M187.1875,299.9 L187.1875,299.9 L190.1875,299.9 L190.1875,300.9 L187.1875,300.9 Z M195.1875,299.9 L195.1875,299.9 L198.1875,299.9 L198.1875,300.9 L195.1875,300.9 Z M203.1875,299.9 L203.1875,299.9 L206.1875,299.9 L206.1875,300.9 L203.1875,300.9 Z M211.1875,299.9 L211.1875,299.9 L214.1875,299.9 L214.1875,300.9 L211.1875,300.9 Z M219.1875,299.9 L219.1875,299.9 L222.1875,299.9 L222.1875,300.9 L219.1875,300.9 Z M227.1875,299.9 L227.1875,299.9 L230.1875,299.9 L230.1875,300.9 L227.1875,300.9 Z M235.1875,299.9 L235.1875,299.9 L238.1875,299.9 L238.1875,300.9 L235.1875,300.9 Z M243.1875,299.9 L243.1875,299.9 L246.1875,299.9 L246.1875,300.9 L243.1875,300.9 Z M251.1875,299.9 L251.1875,299.9 L254.1875,299.9 L254.1875,300.9 L251.1875,300.9 Z M259.1875,299.9 L259.1875,299.9 L262.1875,299.9 L262.1875,300.9 L259.1875,300.9 Z M267.1875,299.9 L267.1875,299.9 L270.1875,299.9 L270.1875,300.9 L267.1875,300.9 Z M275.1875,299.9 L275.1875,299.9 L278.1875,299.9 L278.1875,300.9 L275.1875,300.9 Z M283.1875,299.9 L283.1875,299.9 L286.1875,299.9 L286.1875,300.9 L283.1875,300.9 Z M291.1875,299.9 L291.1875,299.9 L294.1875,299.9 L294.1875,300.9 L291.1875,300.9 Z M299.1875,299.9 L299.1875,299.9 L302.1875,299.9 L302.1875,300.9 L299.1875,300.9 Z M307.1875,299.9 L307.1875,299.9 L310.1875,299.9 L310.1875,300.9 L307.1875,300.9 Z M315.1875,299.9 L315.1875,299.9 L318.1875,299.9 L318.1875,300.9 L315.1875,300.9 Z M323.1875,299.9 L323.1875,299.9 L326.1875,299.9 L326.1875,300.9 L323.1875,300.9 Z M331.1875,299.9 L331.1875,299.9 L334.1875,299.9 L334.1875,300.9 L331.1875,300.9 Z M339.1875,299.9 L339.1875,299.9 L342.1875,299.9 L342.1875,300.9 L339.1875,300.9 Z M347.1875,299.9 L347.1875,299.9 L350.1875,299.9 L350.1875,300.9 L347.1875,300.9 Z M355.1875,299.9 L355.1875,299.9 L358.1875,299.9 L358.1875,300.9 L355.1875,300.9 Z M363.1875,299.9 L363.1875,299.9 L366.1875,299.9 L366.1875,300.9 L363.1875,300.9 Z M371.1875,299.9 L371.1875,299.9 L374.1875,299.9 L374.1875,300.9 L371.1875,300.9 Z M379.1875,299.9 L379.1875,299.9 L382.1875,299.9 L382.1875,300.9 L379.1875,300.9 Z M387.1875,299.9 L387.1875,299.9 L390.1875,299.9 L390.1875,300.9 L387.1875,300.9 Z M395.1875,299.9 L395.1875,299.9 L398.1875,299.9 L398.1875,300.9 L395.1875,300.9 Z M403.1875,299.9 L403.1875,299.9 L406.1875,299.9 L406.1875,300.9 L403.1875,300.9 Z M411.1875,299.9 L411.1875,299.9 L414.1875,299.9 L414.1875,300.9 L411.1875,300.9 Z M419.1875,299.9 L419.1875,299.9 L422.1875,299.9 L422.1875,300.9 L419.1875,300.9 Z M427.1875,299.9 L427.1875,299.9 L430.1875,299.9 L430.1875,300.9 L427.1875,300.9 Z M435.1875,299.9 L435.1875,299.9 L438.1875,299.9 L438.1875,300.9 L435.1875,300.9 Z M443.1875,299.9 L443.1875,299.9 L446.1875,299.9 L446.1875,300.9 L443.1875,300.9 Z M451.1875,299.9 L451.1875,299.9 L454.1875,299.9 L454.1875,300.9 L451.1875,300.9 Z M459.1875,299.9 L459.1875,299.9 L462.1875,299.9 L462.1875,300.9 L459.1875,300.9 Z M467.1875,299.9 L467.1875,299.9 L470.1875,299.9 L470.1875,300.9 L467.1875,300.9 Z M475.1875,299.9 L475.1875,299.9 L478.1875,299.9 L478.1875,300.9 L475.1875,300.9 Z M483.1875,299.9 L483.1875,299.9 L486.1875,299.9 L486.1875,300.9 L483.1875,300.9 Z M491.1875,299.9 L491.1875,299.9 L494.1875,299.9 L494.1875,300.9 L491.1875,300.9 Z M499.1875,299.9 L499.1875,299.9 L502.1875,299.9 L502.1875,300.9 L499.1875,300.9 Z M507.1875,299.9 L507.1875,299.9 L510.1875,299.9 L510.1875,300.9 L507.1875,300.9 Z M515.1875,299.9 L515.1875,299.9 L518.1875,299.9 L518.1875,300.9 L515.1875,300.9 Z M27.1875,299.9 L27.1875,299.9 L30.1875,299.9 L30.1875,300.9 L27.1875,300.9 Z" style="fill:none;stroke:rgb(210,210,210);stroke-miterlimit:10;stroke-linejoin:bevel;stroke-dasharray:3,5;"/>
    <path d="M35.1875,244.7 L35.1875,244.7 L38.1875,244.7 L38.1875,245.7 L35.1875,245.7 Z M43.1875,244.7 L43.1875,244.7 L46.1875,244.7 L46.1875,245.7 L43.1875,245.7 Z M51.1875,244.7 L51.1875,244.7 L54.1875,244.7 L54.1875,245.7 L51.1875,245.7 Z M59.1875,244.7 L59.1875,244.7 L62.1875,244.7 L62.1875,245.7 L59.1875,245.7 Z M67.1875,244.7 L67.1875,244.7 L70.1875,244.7 L70.1875,245.7 L67.1875,245.7 Z M75.1875,244.7 L75.1875,244.7 L78.1875,244.7 L78.1875,245.7 L75.1875,245.7 Z M83.1875,244.7 L83.1875,244.7 L86.1875,244.7 L86.1875,245.7 L83.1875,245.7 Z M91.1875,244.7 L91.1875,244.7 L94.1875,244.7 L94.1875,245.7 L91.1875,245.7 Z M99.1875,244.7 L99.1875,244.7 L102.1875,244.7 L102.1875,245.7 L99.1875,245.7 Z M107.1875,244.7 L107.1875,244.7 L110.1875,244.7 L110.1875,245.7 L107.1875,245.7 Z M115.1875,244.7 L115.1875,244.7 L118.1875,244.7 L118.1875,245.7 L115.1875,245.7 Z M123.1875,244.7 L123.1875,244.7 L126.1875,244.7 L126.1875,245.7 L123.1875,245.7 Z M131.1875,244.7 L131.1875,244.7 L134.1875,244.7 L134.1875,245.7 L131.1875,245.7 Z M139.1875,244.7 L139.1875,244.7 L142.1875,244.7 L142.1875,245.7 L139.1875,245.7 Z M147.1875,244.7 L147.1875,244.7 L150.1875,244.7 L150.1875,245.7 L147.1875,245.7 Z M155.1875,244.7 L155.1875,244.7 L158.1875,244.7 L158.1875,245.7 L155.1875,245.7 Z M163.1875,244.7 L163.1875,244.7 L166.1875,244.7 L166.1875,245.7 L163.1875,245.7 Z M171.1875,244.7 L171.1875,244.7 L174.1875,244.7 L174.1875,245.7 L171.1875,245.7 Z M179.1875,244.7 L179.1875,244.7 L182.1875,244.7 L182.1875,245.7 L179.1875,245.7 Z M187.1875,244.7 L187.1875,244.7 L190.1875,244.7 L190.1875,245.7 L187.1875,245.7 Z M195.1875,244.7 L195.1875,244.7 L198.1875,244.7 L198.1875,245.7 L195.1875,245.7 Z M203.1875,244.7 L203.1875,244.7 L206.1875,244.7 L206.1875,245.7 L203.1875,245.7 Z M211.1875,244.7 L211.1875,244.7 L214.1875,244.7 L214.1875,245.7 L211.1875,245.7 Z M219.1875,244.7 L219.1875,244.7 L222.1875,244.7 L222.1875,245.7 L219.1875,245.7 Z M227.1875,244.7 L227.1875,244.7 L230.1875,244.7 L230.1875,245.7 L227.1875,245.7 Z M235.1875,244.7 L235.1875,244.7 L238.1875,244.7 L238.1875,245.7 L235.1875,245.7 Z M243.1875,244.7 L243.1875,244.7 L246.1875,244.7 L246.1875,245.7 L243.1875,245.7 Z M251.1875,244.7 L251.1875,244.7 L254.1875,244.7 L254.1875,245.7 L251.1875,245.7 Z M259.1875,244.7 L259.1875,244.7 L262.1875,244.7 L262.1875,245.7 L259.1875,245.7 Z M267.1875,244.7 L267.1875,244.7 L270.1875,244.7 L270.1875,245.7 L267.1875,245.7 Z M275.1875,244.7 L275.1875,244.7 L278.1875,244.7 L278.1875,245.7 L275.1875,245.7 Z M283.1875,244.7 L283.1875,244.7 L286.1875,244.7 L286.1875,245.7 L283.1875,245.7 Z M291.1875,244.7 L291.1875,244.7 L294.1875,244.7 L294.1875,245.7 L291.1875,245.7 Z M299.1875,244.7 L299.1875,244.7 L302.1875,244.7 L302.1875,245.7 L299.1875,245.7 Z M307.1875,244.7 L307.1875,244.7 L310.1875,244.7 L310.1875,245.7 L307.1875,245.7 Z M315.1875,244.7 L315.1875,244.7 L318.1875,244.7 L318.1875,245.7 L315.1875,245.7 Z M323.1875,244.7 L323.1875,244.7 L326.1875,244.7 L326.1875,245.7 L323.1875,245.7 Z M331.1875,244.7 L331.1875,244.7 L334.1875,244.7 L334.1875,245.7 L331.1875,245.7 Z M339.1875,244.7 L339.1875,244.7 L342.1875,244.7 L342.1875,245.7 L339.1875,245.7 Z M347.1875,244.7 L347.1875,244.7 L350.1875,244.7 L350.1875,245.7 L347.1875,245.7 Z M355.1875,244.7 L355.1875,244.7 L358.1875,244.7 L358.1875,245.7 L355.1875,245.7 Z M363.1875,244.7 L363.1875,244.7 L366.1875,244.7 L366.1875,245.7 L363.1875,245.7 Z M371.1875,244.7 L371.1875,244.7 L374.1875,244.7 L374.1875,245.7 L371.1875,245.7 Z M379.1875,244.7 L379.1875,244.7 L382.1875,244.7 L382.1875,245.7 L379.1875,245.7 Z M387.1875,244.7 L387.1875,244.7 L390.1875,244.7 L390.1875,245.7 L387.1875,245.7 Z M395.1875,244.7 L395.1875,244.7 L398.1875,244.7 L398.1875,245.7 L395.1875,245.7 Z M403.1875,244.7 L403.1875,244.7 L406.1875,244.7 L406.1875,245.7 L403.1875,245.7 Z M411.1875,244.7 L411.1875,244.7 L414.1875,244.7 L414.1875,245.7 L411.1875,245.7 Z M419.1875,244.7 L419.1875,244.7 L422.1875,244.7 L422.1875,245.7 L419.1875,245.7 Z M427.1875,244.7 L427.1875,244.7 L430.1875,244.7 L430.1875,245.7 L427.1875,245.7 Z M435.1875,244.7 L435.1875,244.7 L438.1875,244.7 L438.1875,245.7 L435.1875,245.7 Z M443.1875,244.7 L443.1875,244.7 L446.1875,244.7 L446.1875,245.7 L443.1875,245.7 Z M451.1875,244.7 L451.1875,244.7 L454.1875,244.7 L454.1875,245.7 L451.1875,245.7 Z M459.1875,244.7 L459.1875,244.7 L462.1875,244.7 L462.1875,245.7 L459.1875,245.7 Z M467.1875,244.7 L467.1875,244.7 L470.1875,244.7 L470.1875,245.7 L467.1875,245.7 Z M475.1875,244.7 L475.1875,244.7 L478.1875,244.7 L478.1875,245.7 L475.1875,245.7 Z M483.1875,244.7 L483.1875,244.7 L486.1875,244.7 L486.1875,245.7 L483.1875,245.7 Z M491.1875,244.7 L491.1875,244.7 L494.1875,244.7 L494.1875,245.7 L491.1875,245.7 Z M499.1875,244.7 L499.1875,244.7 L502.1875,244.7 L502.1875,245.7 L499.1875,245.7 Z M507.1875,244.7 L507.1875,244.7 L510.1875,244.7 L510.1875,245.7 L507.1875,245.7 Z M515.1875,244.7 L515.1875,244.7 L518.1875,244.7 L518.1875,245.7 L515.1875,245.7 Z M27.1875,244.7 L27.1875,244.7 L30.1875,244.7 L30.1875,245.7 L27.1875,245.7 Z" style="fill:none;stroke:rgb(210,210,210);stroke-miterlimit:10;stroke-linejoin:bevel;stroke-dasharray:3,5;"/>
    <path d="M35.1875,189.5 L35.1875,189.5 L38.1875,189.5 L38.1875,190.5 L35.1875,190.5 Z M43.1875,189.5 L43.1875,189.5 L46.1875,189.5 L46.1875,190.5 L43.1875,190.5 Z M51.1875,189.5 L51.1875,189.5 L54.1875,189.5 L54.1875,190.5 L51.1875,190.5 Z M59.1875,189.5 L59.1875,189.5 L62.1875,189.5 L62.1875,190.5 L59.1875,190.5 Z M67.1875,189.5 L67.1875,189.5 L70.1875,189.5 L70.1875,190.5 L67.1875,190.5 Z M75.1875,189.5 L75.1875,189.5 L78.1875,189.5 L78.1875,190.5 L75.1875,190.5 Z M83.1875,189.5 L83.1875,189.5 L86.1875,189.5 L86.1875,190.5 L83.1875,190.5 Z M91.1875,189.5 L91.1875,189.5 L94.1875,189.5 L94.1875,190.5 L91.1875,190.5 Z M99.1875,189.5 L99.1875,189.5 L102.1875,189.5 L102.1875,190.5 L99.1875,190.5 Z M107.1875,189.5 L107.1875,189.5 L110.1875,189.5 L110.1875,190.5 L107.1875,190.5 Z M115.1875,189.5 L115.1875,189.5 L118.1875,189.5 L118.1875,190.5 L115.1875,190.5 Z M123.1875,189.5 L123.1875,189.5 L126.1875,189.5 L126.1875,190.5 L123.1875,190.5 Z M131.1875,189.5 L131.1875,189.5 L134.1875,189.5 L134.1875,190.5 L131.1875,190.5 Z M139.1875,189.5 L139.1875,189.5 L142.1875,189.5 L142.1875,190.5 L139.1875,190.5 Z M147.1875,189.5 L147.1875,189.5 L150.1875,189.5 L150.1875,190.5 L147.1875,190.5 Z M155.1875,189.5 L155.1875,189.5 L158.1875,189.5 L158.1875,190.5 L155.1875,190.5 Z M163.1875,189.5 L163.1875,189.5 L166.1875,189.5 L166.1875,190.5 L163.1875,190.5 Z M171.1875,189.5 L171.1875,189.5 L174.1875,189.5 L174.1875,190.5 L171.1875,190.5 Z M179.1875,189.5 L179.1875,189.5 L182.1875,189.5 L182.1875,190.5 L179.1875,190.5 Z M187.1875,189.5 L187.1875,189.5 L190.1875,189.5 L190.1875,190.5 L187.1875,190.5 Z M195.1875,189.5 L195.1875,189.5 L198.1875,189.5 L198.1875,190.5 L195.1875,190.5 Z M203.1875,189.5 L203.1875,189.5 L206.1875,189.5 L206.1875,190.5 L203.1875,190.5 Z M211.1875,189.5 L211.1875,189.5 L214.1875,189.5 L214.1875,190.5 L211.1875,190.5 Z M219.1875,189.5 L219.1875,189.5 L222.1875,189.5 L222.1875,190.5 L219.1875,190.5 Z M227.1875,189.5 L227.1875,189.5 L230.1875,189.5 L230.1875,190.5 L227.1875,190.5 Z M235.1875,189.5 L235.1875,189.5 L238.1875,189.5 L238.1875,190.5 L235.1875,190.5 Z M243.1875,189.5 L243.1875,189.5 L246.1875,189.5 L246.1875,190.5 L243.1875,190.5 Z M251.1875,189.5 L251.1875,189.5 L254.1875,189.5 L254.1875,190.5 L251.1875,190.5 Z M259.1875,189.5 L259.1875,189.5 L262.1875,189.5 L262.1875,190.5 L259.1875,190.5 Z M267.1875,189.5 L267.1875,189.5 L270.1875,189.5 L270.1875,190.5 L267.1875,190.5 Z M275.1875,189.5 L275.1875,189.5 L278.1875,189.5 L278.1875,190.5 L275.1875,190.5 Z M283.1875,189.5 L283.1875,189.5 L286.1875,189.5 L286.1875,190.5 L283.1875,190.5 Z M291.1875,189.5 L291.1875,189.5 L294.1875,189.5 L294.1875,190.5 L291.1875,190.5 Z M299.1875,189.5 L299.1875,189.5 L302.1875,189.5 L302.1875,190.5 L299.1875,190.5 Z M307.1875,189.5 L307.1875,189.5 L310.1875,189.5 L310.1875,190.5 L307.1875,190.5 Z M315.1875,189.5 L315.1875,189.5 L318.1875,189.5 L318.1875,190.5 L315.1875,190.5 Z M323.1875,189.5 L323.1875,189.5 L326.1875,189.5 L326.1875,190.5 L323.1875,190.5 Z M331.1875,189.5 L331.1875,189.5 L334.1875,189.5 L334.1875,190.5 L331.1875,190.5 Z M339.1875,189.5 L339.1875,189.5 L342.1875,189.5 L342.1875,190.5 L339.1875,190.5 Z M347.1875,189.5 L347.1875,189.5 L350.1875,189.5 L350.1875,190.5 L347.1875,190.5 Z M355.1875,189.5 L355.1875,189.5 L358.1875,189.5 L358.1875,190.5 L355.1875,190.5 Z M363.1875,189.5 L363.1875,189.5 L366.1875,189.5 L366.1875,190.5 L363.1875,190.5 Z M371.1875,189.5 L371.1875,189.5 L374.1875,189.5 L374.1875,190.5 L371.1875,190.5 Z M379.1875,189.5 L379.1875,189.5 L382.1875,189.5 L382.1875,190.5 L379.1875,190.5 Z M387.1875,189.5 L387.1875,189.5 L390.1875,189.5 L390.1875,190.5 L387.1875,190.5 Z M395.1875,189.5 L395.1875,189.5 L398.1875,189.5 L398.1875,190.5 L395.1875,190.5 Z M403.1875,189.5 L403.1875,189.5 L406.1875,189.5 L406.1875,190.5 L403.1875,190.5 Z M411.1875,189.5 L411.1875,189.5 L414.1875,189.5 L414.1875,190.5 L411.1875,190.5 Z M419.1875,189.5 L419.1875,189.5 L422.1875,189.5 L422.1875,190.5 L419.1875,190.5 Z M427.1875,189.5 L427.1875,189.5 L430.1875,189.5 L430.1875,190.5 L427.1875,190.5 Z M435.1875,189.5 L435.1875,189.5 L438.1875,189.5 L438.1875,190.5 L435.1875,190.5 Z M443.1875,189.5 L443.1875,189.5 L446.1875,189.5 L446.1875,190.5 L443.1875,190.5 Z M451.1875,189.5 L451.1875,189.5 L454.1875,189.5 L454.1875,190.5 L451.1875,190.5 Z M459.1875,189.5 L459.1875,189.5 L462.1875,189.5 L462.1875,190.5 L459.1875,190.5 Z M467.1875,189.5 L467.1875,189.5 L470.1875,189.5 L470.1875,190.5 L467.1875,190.5 Z M475.1875,189.5 L475.1875,189.5 L478.1875,189.5 L478.1875,190.5 L475.1875,190.5 Z M483.1875,189.5 L483.1875,189.5 L486.1875,189.5 L486.1875,190.5 L483.1875,190.5 Z M491.1875,189.5 L491.1875,189.5 L494.1875,189.5 L494.1875,190.5 L491.1875,190.5 Z M499.1875,189.5 L499.1875,189.5 L502.1875,189.5 L502.1875,190.5 L499.1875,190.5 Z M507.1875,189.5 L507.1875,189.5 L510.1875,189.5 L510.1875,190.5 L507.1875,190.5 Z M515.1875,189.5 L515.1875,189.5 L518.1875,189.5 L518.1875,190.5 L515.1875,190.5 Z M27.1875,189.5 L27.1875,189.5 L30.1875,189.5 L30.1875,190.5 L27.1875,190.5 Z" style="fill:none;stroke:rgb(210,210,210);stroke-miterlimit:10;stroke-linejoin:bevel;stroke-dasharray:3,5;"/>
    <path d="M35.1875,134.3 L35.1875,134.3 L38.1875,134.3 L38.1875,135.3 L35.1875,135.3 Z M43.1875,134.3 L43.1875,134.3 L46.1875,134.3 L46.1875,135.3 L43.1875,135.3 Z M51.1875,134.3 L51.1875,134.3 L54.1875,134.3 L54.1875,135.3 L51.1875,135.3 Z M59.1875,134.3 L59.1875,134.3 L62.1875,134.3 L62.1875,135.3 L59.1875,135.3 Z M67.1875,134.3 L67.1875,134.3 L70.1875,134.3 L70.1875,135.3 L67.1875,135.3 Z M75.1875,134.3 L75.1875,134.3 L78.1875,134.3 L78.1875,135.3 L75.1875,135.3 Z M83.1875,134.3 L83.1875,134.3 L86.1875,134.3 L86.1875,135.3 L83.1875,135.3 Z M91.1875,134.3 L91.1875,134.3 L94.1875,134.3 L94.1875,135.3 L91.1875,135.3 Z M99.1875,134.3 L99.1875,134.3 L102.1875,134.3 L102.1875,135.3 L99.1875,135.3 Z M107.1875,134.3 L107.1875,134.3 L110.1875,134.3 L110.1875,135.3 L107.1875,135.3 Z M115.1875,134.3 L115.1875,134.3 L118.1875,134.3 L118.1875,135.3 L115.1875,135.3 Z M123.1875,134.3 L123.1875,134.3 L126.1875,134.3 L126.1875,135.3 L123.1875,135.3 Z M131.1875,134.3 L131.1875,134.3 L134.1875,134.3 L134.1875,135.3 L131.1875,135.3 Z M139.1875,134.3 L139.1875,134.3 L142.1875,134.3 L142.1875,135.3 L139.1875,135.3 Z M147.1875,134.3 L147.1875,134.3 L150.1875,134.3 L150.1875,135.3 L147.1875,135.3 Z M155.1875,134.3 L155.1875,134.3 L158.1875,134.3 L158.1875,135.3 L155.1875,135.3 Z M163.1875,134.3 L163.1875,134.3 L166.1875,134.3 L166.1875,135.3 L163.1875,135.3 Z M171.1875,134.3 L171.1875,134.3 L174.1875,134.3 L174.1875,135.3 L171.1875,135.3 Z M179.1875,134.3 L179.1875,134.3 L182.1875,134.3 L182.1875,135.3 L179.1875,135.3 Z M187.1875,134.3 L187.1875,134.3 L190.1875,134.3 L190.1875,135.3 L187.1875,135.3 Z M195.1875,134.3 L195.1875,134.3 L198.1875,134.3 L198.1875,135.3 L195.1875,135.3 Z M203.1875,134.3 L203.1875,134.3 L206.1875,134.3 L206.1875,135.3 L203.1875,135.3 Z M211.1875,134.3 L211.1875,134.3 L214.1875,134.3 L214.1875,135.3 L211.1875,135.3 Z M219.1875,134.3 L219.1875,134.3 L222.1875,134.3 L222.1875,135.3 L219.1875,135.3 Z M227.1875,134.3 L227.1875,134.3 L230.1875,134.3 L230.1875,135.3 L227.1875,135.3 Z M235.1875,134.3 L235.1875,134.3 L238.1875,134.3 L238.1875,135.3 L235.1875,135.3 Z M243.1875,134.3 L243.1875,134.3 L246.1875,134.3 L246.1875,135.3 L243.1875,135.3 Z M251.1875,134.3 L251.1875,134.3 L254.1875,134.3 L254.1875,135.3 L251.1875,135.3 Z M259.1875,134.3 L259.1875,134.3 L262.1875,134.3 L262.1875,135.3 L259.1875,135.3 Z M267.1875,134.3 L267.1875,134.3 L270.1875,134.3 L270.1875,135.3 L267.1875,135.3 Z M275.1875,134.3 L275.1875,134.3 L278.1875,134.3 L278.1875,135.3 L275.1875,135.3 Z M283.1875,134.3 L283.1875,134.3 L286.1875,134.3 L286.1875,135.3 L283.1875,135.3 Z M291.1875,134.3 L291.1875,134.3 L294.1875,134.3 L294.1875,135.3 L291.1875,135.3 Z M299.1875,134.3 L299.1875,134.3 L302.1875,134.3 L302.1875,135.3 L299.1875,135.3 Z M307.1875,134.3 L307.1875,134.3 L310.1875,134.3 L310.1875,135.3 L307.1875,135.3 Z M315.1875,134.3 L315.1875,134.3 L318.1875,134.3 L318.1875,135.3 L315.1875,135.3 Z M323.1875,134.3 L323.1875,134.3 L326.1875,134.3 L326.1875,135.3 L323.1875,135.3 Z M331.1875,134.3 L331.1875,134.3 L334.1875,134.3 L334.1875,135.3 L331.1875,135.3 Z M339.1875,134.3 L339.1875,134.3 L342.1875,134.3 L342.1875,135.3 L339.1875,135.3 Z M347.1875,134.3 L347.1875,134.3 L350.1875,134.3 L350.1875,135.3 L347.1875,135.3 Z M355.1875,134.3 L355.1875,134.3 L358.1875,134.3 L358.1875,135.3 L355.1875,135.3 Z M363.1875,134.3 L363.1875,134.3 L366.1875,134.3 L366.1875,135.3 L363.1875,135.3 Z M371.1875,134.3 L371.1875,134.3 L374.1875,134.3 L374.1875,135.3 L371.1875,135.3 Z M379.1875,134.3 L379.1875,134.3 L382.1875,134.3 L382.1875,135.3 L379.1875,135.3 Z M387.1875,134.3 L387.1875,134.3 L390.1875,134.3 L390.1875,135.3 L387.1875,135.3 Z M395.1875,134.3 L395.1875,134.3 L398.1875,134.3 L398.1875,135.3 L395.1875,135.3 Z M403.1875,134.3 L403.1875,134.3 L406.1875,134.3 L406.1875,135.3 L403.1875,135.3 Z M411.1875,134.3 L411.1875,134.3 L414.1875,134.3 L414.1875,135.3 L411.1875,135.3 Z M419.1875,134.3 L419.1875,134.3 L422.1875,134.3 L422.1875,135.3 L419.1875,135.3 Z M427.1875,134.3 L427.1875,134.3 L430.1875,134.3 L430.1875,135.3 L427.1875,135.3 Z M435.1875,134.3 L435.1875,134.3 L438.1875,134.3 L438.1875,135.3 L435.1875,135.3 Z M443.1875,134.3 L443.1875,134.3 L446.1875,134.3 L446.1875,135.3 L443.1875,135.3 Z M451.1875,134.3 L451.1875,134.3 L454.1875,134.3 L454.1875,135.3 L451.1875,135.3 Z M459.1875,134.3 L459.1875,134.3 L462.1875,134.3 L462.1875,135.3 L459.1875,135.3 Z M467.1875,134.3 L467.1875,134.3 L470.1875,134.3 L470.1875,135.3 L467.1875,135.3 Z M475.1875,134.3 L475.1875,134.3 L478.1875,134.3 L478.1875,135.3 L475.1875,135.3 Z M483.1875,134.3 L483.1875,134.3 L486.1875,134.3 L486.1875,135.3 L483.1875,135.3 Z M491.1875,134.3 L491.1875,134.3 L494.1875,134.3 L494.1875,135.3 L491.1875,135.3 Z M499.1875,134.3 L499.1875,134.3 L502.1875,134.3 L502.1875,135.3 L499.1875,135.3 Z M507.1875,134.3 L507.1875,134.3 L510.1875,134.3 L510.1875,135.3 L507.1875,135.3 Z M515.1875,134.3 L515.1875,134.3 L518.1875,134.3 L518.1875,135.3 L515.1875,135.3 Z M27.1875,134.3 L27.1875,134.3 L30.1875,134.3 L30.1875,135.3 L27.1875,135.3 Z" style="fill:none;stroke:rgb(210,210,210);stroke-miterlimit:10;stroke-linejoin:bevel;stroke-dasharray:3,5;"/>
    <path d="M35.1875,79.10000000000002 L35.1875,79.10000000000002 L38.1875,79.10000000000002 L38.1875,80.10000000000002 L35.1875,80.10000000000002 Z M43.1875,79.10000000000002 L43.1875,79.10000000000002 L46.1875,79.10000000000002 L46.1875,80.10000000000002 L43.1875,80.10000000000002 Z M51.1875,79.10000000000002 L51.1875,79.10000000000002 L54.1875,79.10000000000002 L54.1875,80.10000000000002 L51.1875,80.10000000000002 Z M59.1875,79.10000000000002 L59.1875,79.10000000000002 L62.1875,79.10000000000002 L62.1875,80.10000000000002 L59.1875,80.10000000000002 Z M67.1875,79.10000000000002 L67.1875,79.10000000000002 L70.1875,79.10000000000002 L70.1875,80.10000000000002 L67.1875,80.10000000000002 Z M75.1875,79.10000000000002 L75.1875,79.10000000000002 L78.1875,79.10000000000002 L78.1875,80.10000000000002 L75.1875,80.10000000000002 Z M83.1875,79.10000000000002 L83.1875,79.10000000000002 L86.1875,79.10000000000002 L86.1875,80.10000000000002 L83.1875,80.10000000000002 Z M91.1875,79.10000000000002 L91.1875,79.10000000000002 L94.1875,79.10000000000002 L94.1875,80.10000000000002 L91.1875,80.10000000000002 Z M99.1875,79.10000000000002 L99.1875,79.10000000000002 L102.1875,79.10000000000002 L102.1875,80.10000000000002 L99.1875,80.10000000000002 Z M107.1875,79.10000000000002 L107.1875,79.10000000000002 L110.1875,79.10000000000002 L110.1875,80.10000000000002 L107.1875,80.10000000000002 Z M115.1875,79.10000000000002 L115.1875,79.10000000000002 L118.1875,79.10000000000002 L118.1875,80.10000000000002 L115.1875,80.10000000000002 Z M123.1875,79.10000000000002 L123.1875,79.10000000000002 L126.1875,79.10000000000002 L126.1875,80.10000000000002 L123.1875,80.10000000000002 Z M131.1875,79.10000000000002 L131.1875,79.10000000000002 L134.1875,79.10000000000002 L134.1875,80.10000000000002 L131.1875,80.10000000000002 Z M139.1875,79.10000000000002 L139.1875,79.10000000000002 L142.1875,79.10000000000002 L142.1875,80.10000000000002 L139.1875,80.10000000000002 Z M147.1875,79.10000000000002 L147.1875,79.10000000000002 L150.1875,79.10000000000002 L150.1875,80.10000000000002 L147.1875,80.10000000000002 Z M155.1875,79.10000000000002 L155.1875,79.10000000000002 L158.1875,79.10000000000002 L158.1875,80.10000000000002 L155.1875,80.10000000000002 Z M163.1875,79.10000000000002 L163.1875,79.10000000000002 L166.1875,79.10000000000002 L166.1875,80.10000000000002 L163.1875,80.10000000000002 Z M171.1875,79.10000000000002 L171.1875,79.10000000000002 L174.1875,79.10000000000002 L174.1875,80.10000000000002 L171.1875,80.10000000000002 Z M179.1875,79.10000000000002 L179.1875,79.10000000000002 L182.1875,79.10000000000002 L182.1875,80.10000000000002 L179.1875,80.10000000000002 Z M187.1875,79.10000000000002 L187.1875,79.10000000000002 L190.1875,79.10000000000002 L190.1875,80.10000000000002 L187.1875,80.10000000000002 Z M195.1875,79.10000000000002 L195.1875,79.10000000000002 L198.1875,79.10000000000002 L198.1875,80.10000000000002 L195.1875,80.10000000000002 Z M203.1875,79.10000000000002 L203.1875,79.10000000000002 L206.1875,79.10000000000002 L206.1875,80.10000000000002 L203.1875,80.10000000000002 Z M211.1875,79.10000000000002 L211.1875,79.10000000000002 L214.1875,79.10000000000002 L214.1875,80.10000000000002 L211.1875,80.10000000000002 Z M219.1875,79.10000000000002 L219.1875,79.10000000000002 L222.1875,79.10000000000002 L222.1875,80.10000000000002 L219.1875,80.10000000000002 Z M227.1875,79.10000000000002 L227.1875,79.10000000000002 L230.1875,79.10000000000002 L230.1875,80.10000000000002 L227.1875,80.10000000000002 Z M235.1875,79.10000000000002 L235.1875,79.10000000000002 L238.1875,79.10000000000002 L238.1875,80.10000000000002 L235.1875,80.10000000000002 Z M243.1875,79.10000000000002 L243.1875,79.10000000000002 L246.1875,79.10000000000002 L246.1875,80.10000000000002 L243.1875,80.10000000000002 Z M251.1875,79.10000000000002 L251.1875,79.10000000000002 L254.1875,79.10000000000002 L254.1875,80.10000000000002 L251.1875,80.10000000000002 Z M259.1875,79.10000000000002 L259.1875,79.10000000000002 L262.1875,79.10000000000002 L262.1875,80.10000000000002 L259.1875,80.10000000000002 Z M267.1875,79.10000000000002 L267.1875,79.10000000000002 L270.1875,79.10000000000002 L270.1875,80.10000000000002 L267.1875,80.10000000000002 Z M275.1875,79.10000000000002 L275.1875,79.10000000000002 L278.1875,79.10000000000002 L278.1875,80.10000000000002 L275.1875,80.10000000000002 Z M283.1875,79.10000000000002 L283.1875,79.10000000000002 L286.1875,79.10000000000002 L286.1875,80.10000000000002 L283.1875,80.10000000000002 Z M291.1875,79.10000000000002 L291.1875,79.10000000000002 L294.1875,79.10000000000002 L294.1875,80.10000000000002 L291.1875,80.10000000000002 Z M299.1875,79.10000000000002 L299.1875,79.10000000000002 L302.1875,79.10000000000002 L302.1875,80.10000000000002 L299.1875,80.10000000000002 Z M307.1875,79.10000000000002 L307.1875,79.10000000000002 L310.1875,79.10000000000002 L310.1875,80.10000000000002 L307.1875,80.10000000000002 Z M315.1875,79.10000000000002 L315.1875,79.10000000000002 L318.1875,79.10000000000002 L318.1875,80.10000000000002 L315.1875,80.10000000000002 Z M323.1875,79.10000000000002 L323.1875,79.10000000000002 L326.1875,79.10000000000002 L326.1875,80.10000000000002 L323.1875,80.10000000000002 Z M331.1875,79.10000000000002 L331.1875,79.10000000000002 L334.1875,79.10000000000002 L334.1875,80.10000000000002 L331.1875,80.10000000000002 Z M339.1875,79.10000000000002 L339.1875,79.10000000000002 L342.1875,79.10000000000002 L342.1875,80.10000000000002 L339.1875,80.10000000000002 Z M347.1875,79.10000000000002 L347.1875,79.10000000000002 L350.1875,79.10000000000002 L350.1875,80.10000000000002 L347.1875,80.10000000000002 Z M355.1875,79.10000000000002 L355.1875,79.10000000000002 L358.1875,79.10000000000002 L358.1875,80.10000000000002 L355.1875,80.10000000000002 Z M363.1875,79.10000000000002 L363.1875,79.10000000000002 L366.1875,79.10000000000002 L366.1875,80.10000000000002 L363.1875,80.10000000000002 Z M371.1875,79.10000000000002 L371.1875,79.10000000000002 L374.1875,79.10000000000002 L374.1875,80.10000000000002 L371.1875,80.10000000000002 Z M379.1875,79.10000000000002 L379.1875,79.10000000000002 L382.1875,79.10000000000002 L382.1875,80.10000000000002 L379.1875,80.10000000000002 Z M387.1875,79.10000000000002 L387.1875,79.10000000000002 L390.1875,79.10000000000002 L390.1875,80.10000000000002 L387.1875,80.10000000000002 Z M395.1875,79.10000000000002 L395.1875,79.10000000000002 L398.1875,79.10000000000002 L398.1875,80.10000000000002 L395.1875,80.10000000000002 Z M403.1875,79.10000000000002 L403.1875,79.10000000000002 L406.1875,79.10000000000002 L406.1875,80.10000000000002 L403.1875,80.10000000000002 Z M411.1875,79.10000000000002 L411.1875,79.10000000000002 L414.1875,79.10000000000002 L414.1875,80.10000000000002 L411.1875,80.10000000000002 Z M419.1875,79.10000000000002 L419.1875,79.10000000000002 L422.1875,79.10000000000002 L422.1875,80.10000000000002 L419.1875,80.10000000000002 Z M427.1875,79.10000000000002 L427.1875,79.10000000000002 L430.1875,79.10000000000002 L430.1875,80.10000000000002 L427.1875,80.10000000000002 Z M435.1875,79.10000000000002 L435.1875,79.10000000000002 L438.1875,79.10000000000002 L438.1875,80.10000000000002 L435.1875,80.10000000000002 Z M443.1875,79.10000000000002 L443.1875,79.10000000000002 L446.1875,79.10000000000002 L446.1875,80.10000000000002 L443.1875,80.10000000000002 Z M451.1875,79.10000000000002 L451.1875,79.10000000000002 L454.1875,79.10000000000002 L454.1875,80.10000000000002 L451.1875,80.10000000000002 Z M459.1875,79.10000000000002 L459.1875,79.10000000000002 L462.1875,79.10000000000002 L462.1875,80.10000000000002 L459.1875,80.10000000000002 Z M467.1875,79.10000000000002 L467.1875,79.10000000000002 L470.1875,79.10000000000002 L470.1875,80.10000000000002 L467.1875,80.10000000000002 Z M475.1875,79.10000000000002 L475.1875,79.10000000000002 L478.1875,79.10000000000002 L478.1875,80.10000000000002 L475.1875,80.10000000000002 Z M483.1875,79.10000000000002 L483.1875,79.10000000000002 L486.1875,79.10000000000002 L486.1875,80.10000000000002 L483.1875,80.10000000000002 Z M491.1875,79.10000000000002 L491.1875,79.10000000000002 L494.1875,79.10000000000002 L494.1875,80.10000000000002 L491.1875,80.10000000000002 Z M499.1875,79.10000000000002 L499.1875,79.10000000000002 L502.1875,79.10000000000002 L502.1875,80.10000000000002 L499.1875,80.10000000000002 Z M507.1875,79.10000000000002 L507.1875,79.10000000000002 L510.1875,79.10000000000002 L510.1875,80.10000000000002 L507.1875,80.10000000000002 Z M515.1875,79.10000000000002 L515.1875,79.10000000000002 L518.1875,79.10000000000002 L518.1875,80.10000000000002 L515.1875,80.10000000000002 Z M27.1875,79.10000000000002 L27.1875,79.10000000000002 L30.1875,79.10000000000002 L30.1875,80.10000000000002 L27.1875,80.10000000000002 Z" style="fill:none;stroke:rgb(210,210,210);stroke-miterlimit:10;stroke-linejoin:bevel;stroke-dasharray:3,5;"/>
    <path d="M35.1875,23.899999999999977 L35.1875,23.899999999999977 L38.1875,23.899999999999977 L38.1875,24.899999999999977 L35.1875,24.899999999999977 Z M43.1875,23.899999999999977 L43.1875,23.899999999999977 L46.1875,23.899999999999977 L46.1875,24.899999999999977 L43.1875,24.899999999999977 Z M51.1875,23.899999999999977 L51.1875,23.899999999999977 L54.1875,23.899999999999977 L54.1875,24.899999999999977 L51.1875,24.899999999999977 Z M59.1875,23.899999999999977 L59.1875,23.899999999999977 L62.1875,23.899999999999977 L62.1875,24.899999999999977 L59.1875,24.899999999999977 Z M67.1875,23.899999999999977 L67.1875,23.899999999999977 L70.1875,23.899999999999977 L70.1875,24.899999999999977 L67.1875,24.899999999999977 Z M75.1875,23.899999999999977 L75.1875,23.899999999999977 L78.1875,23.899999999999977 L78.1875,24.899999999999977 L75.1875,24.899999999999977 Z M83.1875,23.899999999999977 L83.1875,23.899999999999977 L86.1875,23.899999999999977 L86.1875,24.899999999999977 L83.1875,24.899999999999977 Z M91.1875,23.899999999999977 L91.1875,23.899999999999977 L94.1875,23.899999999999977 L94.1875,24.899999999999977 L91.1875,24.899999999999977 Z M99.1875,23.899999999999977 L99.1875,23.899999999999977 L102.1875,23.899999999999977 L102.1875,24.899999999999977 L99.1875,24.899999999999977 Z M107.1875,23.899999999999977 L107.1875,23.899999999999977 L110.1875,23.899999999999977 L110.1875,24.899999999999977 L107.1875,24.899999999999977 Z M115.1875,23.899999999999977 L115.1875,23.899999999999977 L118.1875,23.899999999999977 L118.1875,24.899999999999977 L115.1875,24.899999999999977 Z M123.1875,23.899999999999977 L123.1875,23.899999999999977 L126.1875,23.899999999999977 L126.1875,24.899999999999977 L123.1875,24.899999999999977 Z M131.1875,23.899999999999977 L131.1875,23.899999999999977 L134.1875,23.899999999999977 L134.1875,24.899999999999977 L131.1875,24.899999999999977 Z M139.1875,23.899999999999977 L139.1875,23.899999999999977 L142.1875,23.899999999999977 L142.1875,24.899999999999977 L139.1875,24.899999999999977 Z M147.1875,23.899999999999977 L147.1875,23.899999999999977 L150.1875,23.899999999999977 L150.1875,24.899999999999977 L147.1875,24.899999999999977 Z M155.1875,23.899999999999977 L155.1875,23.899999999999977 L158.1875,23.899999999999977 L158.1875,24.899999999999977 L155.1875,24.899999999999977 Z M163.1875,23.899999999999977 L163.1875,23.899999999999977 L166.1875,23.899999999999977 L166.1875,24.899999999999977 L163.1875,24.899999999999977 Z M171.1875,23.899999999999977 L171.1875,23.899999999999977 L174.1875,23.899999999999977 L174.1875,24.899999999999977 L171.1875,24.899999999999977 Z M179.1875,23.899999999999977 L179.1875,23.899999999999977 L182.1875,23.899999999999977 L182.1875,24.899999999999977 L179.1875,24.899999999999977 Z M187.1875,23.899999999999977 L187.1875,23.899999999999977 L190.1875,23.899999999999977 L190.1875,24.899999999999977 L187.1875,24.899999999999977 Z M195.1875,23.899999999999977 L195.1875,23.899999999999977 L198.1875,23.899999999999977 L198.1875,24.899999999999977 L195.1875,24.899999999999977 Z M203.1875,23.899999999999977 L203.1875,23.899999999999977 L206.1875,23.899999999999977 L206.1875,24.899999999999977 L203.1875,24.899999999999977 Z M211.1875,23.899999999999977 L211.1875,23.899999999999977 L214.1875,23.899999999999977 L214.1875,24.899999999999977 L211.1875,24.899999999999977 Z M219.1875,23.899999999999977 L219.1875,23.899999999999977 L222.1875,23.899999999999977 L222.1875,24.899999999999977 L219.1875,24.899999999999977 Z M227.1875,23.899999999999977 L227.1875,23.899999999999977 L230.1875,23.899999999999977 L230.1875,24.899999999999977 L227.1875,24.899999999999977 Z M235.1875,23.899999999999977 L235.1875,23.899999999999977 L238.1875,23.899999999999977 L238.1875,24.899999999999977 L235.1875,24.899999999999977 Z M243.1875,23.899999999999977 L243.1875,23.899999999999977 L246.1875,23.899999999999977 L246.1875,24.899999999999977 L243.1875,24.899999999999977 Z M251.1875,23.899999999999977 L251.1875,23.899999999999977 L254.1875,23.899999999999977 L254.1875,24.899999999999977 L251.1875,24.899999999999977 Z M259.1875,23.899999999999977 L259.1875,23.899999999999977 L262.1875,23.899999999999977 L262.1875,24.899999999999977 L259.1875,24.899999999999977 Z M267.1875,23.899999999999977 L267.1875,23.899999999999977 L270.1875,23.899999999999977 L270.1875,24.899999999999977 L267.1875,24.899999999999977 Z M275.1875,23.899999999999977 L275.1875,23.899999999999977 L278.1875,23.899999999999977 L278.1875,24.899999999999977 L275.1875,24.899999999999977 Z M283.1875,23.899999999999977 L283.1875,23.899999999999977 L286.1875,23.899999999999977 L286.1875,24.899999999999977 L283.1875,24.899999999999977 Z M291.1875,23.899999999999977 L291.1875,23.899999999999977 L294.1875,23.899999999999977 L294.1875,24.899999999999977 L291.1875,24.899999999999977 Z M299.1875,23.899999999999977 L299.1875,23.899999999999977 L302.1875,23.899999999999977 L302.1875,24.899999999999977 L299.1875,24.899999999999977 Z M307.1875,23.899999999999977 L307.1875,23.899999999999977 L310.1875,23.899999999999977 L310.1875,24.899999999999977 L307.1875,24.899999999999977 Z M315.1875,23.899999999999977 L315.1875,23.899999999999977 L318.1875,23.899999999999977 L318.1875,24.899999999999977 L315.1875,24.899999999999977 Z M323.1875,23.899999999999977 L323.1875,23.899999999999977 L326.1875,23.899999999999977 L326.1875,24.899999999999977 L323.1875,24.899999999999977 Z M331.1875,23.899999999999977 L331.1875,23.899999999999977 L334.1875,23.899999999999977 L334.1875,24.899999999999977 L331.1875,24.899999999999977 Z M339.1875,23.899999999999977 L339.1875,23.899999999999977 L342.1875,23.899999999999977 L342.1875,24.899999999999977 L339.1875,24.899999999999977 Z M347.1875,23.899999999999977 L347.1875,23.899999999999977 L350.1875,23.899999999999977 L350.1875,24.899999999999977 L347.1875,24.899999999999977 Z M355.1875,23.899999999999977 L355.1875,23.899999999999977 L358.1875,23.899999999999977 L358.1875,24.899999999999977 L355.1875,24.899999999999977 Z M363.1875,23.899999999999977 L363.1875,23.899999999999977 L366.1875,23.899999999999977 L366.1875,24.899999999999977 L363.1875,24.899999999999977 Z M371.1875,23.899999999999977 L371.1875,23.899999999999977 L374.1875,23.899999999999977 L374.1875,24.899999999999977 L371.1875,24.899999999999977 Z M379.1875,23.899999999999977 L379.1875,23.899999999999977 L382.1875,23.899999999999977 L382.1875,24.899999999999977 L379.1875,24.899999999999977 Z M387.1875,23.899999999999977 L387.1875,23.899999999999977 L390.1875,23.899999999999977 L390.1875,24.899999999999977 L387.1875,24.899999999999977 Z M395.1875,23.899999999999977 L395.1875,23.899999999999977 L398.1875,23.899999999999977 L398.1875,24.899999999999977 L395.1875,24.899999999999977 Z M403.1875,23.899999999999977 L403.1875,23.899999999999977 L406.1875,23.899999999999977 L406.1875,24.899999999999977 L403.1875,24.899999999999977 Z M411.1875,23.899999999999977 L411.1875,23.899999999999977 L414.1875,23.899999999999977 L414.1875,24.899999999999977 L411.1875,24.899999999999977 Z M419.1875,23.899999999999977 L419.1875,23.899999999999977 L422.1875,23.899999999999977 L422.1875,24.899999999999977 L419.1875,24.899999999999977 Z M427.1875,23.899999999999977 L427.1875,23.899999999999977 L430.1875,23.899999999999977 L430.1875,24.899999999999977 L427.1875,24.899999999999977 Z M435.1875,23.899999999999977 L435.1875,23.899999999999977 L438.1875,23.899999999999977 L438.1875,24.899999999999977 L435.1875,24.899999999999977 Z M443.1875,23.899999999999977 L443.1875,23.899999999999977 L446.1875,23.899999999999977 L446.1875,24.899999999999977 L443.1875,24.899999999999977 Z M451.1875,23.899999999999977 L451.1875,23.899999999999977 L454.1875,23.899999999999977 L454.1875,24.899999999999977 L451.1875,24.899999999999977 Z M459.1875,23.899999999999977 L459.1875,23.899999999999977 L462.1875,23.899999999999977 L462.1875,24.899999999999977 L459.1875,24.899999999999977 Z M467.1875,23.899999999999977 L467.1875,23.899999999999977 L470.1875,23.899999999999977 L470.1875,24.899999999999977 L467.1875,24.899999999999977 Z M475.1875,23.899999999999977 L475.1875,23.899999999999977 L478.1875,23.899999999999977 L478.1875,24.899999999999977 L475.1875,24.899999999999977 Z M483.1875,23.899999999999977 L483.1875,23.899999999999977 L486.1875,23.899999999999977 L486.1875,24.899999999999977 L483.1875,24.899999999999977 Z M491.1875,23.899999999999977 L491.1875,23.899999999999977 L494.1875,23.899999999999977 L494.1875,24.899999999999977 L491.1875,24.899999999999977 Z M499.1875,23.899999999999977 L499.1875,23.899999999999977 L502.1875,23.899999999999977 L502.1875,24.899999999999977 L499.1875,24.899999999999977 Z M507.1875,23.899999999999977 L507.1875,23.899999999999977 L510.1875,23.899999999999977 L510.1875,24.899999999999977 L507.1875,24.899999999999977 Z M515.1875,23.899999999999977 L515.1875,23.899999999999977 L518.1875,23.899999999999977 L518.1875,24.899999999999977 L515.1875,24.899999999999977 Z M27.1875,23.899999999999977 L27.1875,23.899999999999977 L30.1875,23.899999999999977 L30.1875,24.899999999999977 L27.1875,24.899999999999977 Z" style="fill:none;stroke:rgb(210,210,210);stroke-miterlimit:10;stroke-linejoin:bevel;stroke-dasharray:3,5;"/>
    <path d="M47.345,18 L47.345,18 L47.345,21 L46.345,21 L46.345,18 Z M47.345,26 L47.345,26 L47.345,29 L46.345,29 L46.345,26 Z M47.345,34 L47.345,34 L47.345,37 L46.345,37 L46.345,34 Z M47.345,42 L47.345,42 L47.345,45 L46.345,45 L46.345,42 Z M47.345,50 L47.345,50 L47.345,53 L46.345,53 L46.345,50 Z M47.345,58 L47.345,58 L47.345,61 L46.345,61 L46.345,58 Z M47.345,66 L47.345,66 L47.345,69 L46.345,69 L46.345,66 Z M47.345,74 L47.345,74 L47.345,77 L46.345,77 L46.345,74 Z M47.345,82 L47.345,82 L47.345,85 L46.345,85 L46.345,82 Z M47.345,90 L47.345,90 L47.345,93 L46.345,93 L46.345,90 Z M47.345,98 L47.345,98 L47.345,101 L46.345,101 L46.345,98 Z M47.345,106 L47.345,106 L47.345,109 L46.345,109 L46.345,106 Z M47.345,114 L47.345,114 L47.345,117 L46.345,117 L46.345,114 Z M47.345,122 L47.345,122 L47.345,125 L46.345,125 L46.345,122 Z M47.345,130 L47.345,130 L47.345,133 L46.345,133 L46.345,130 Z M47.345,138 L47.345,138 L47.345,141 L46.345,141 L46.345,138 Z M47.345,146 L47.345,146 L47.345,149 L46.345,149 L46.345,146 Z M47.345,154 L47.345,154 L47.345,157 L46.345,157 L46.345,154 Z M47.345,162 L47.345,162 L47.345,165 L46.345,165 L46.345,162 Z M47.345,170 L47.345,170 L47.345,173 L46.345,173 L46.345,170 Z M47.345,178 L47.345,178 L47.345,181 L46.345,181 L46.345,178 Z M47.345,186 L47.345,186 L47.345,189 L46.345,189 L46.345,186 Z M47.345,194 L47.345,194 L47.345,197 L46.345,197 L46.345,194 Z M47.345,202 L47.345,202 L47.345,205 L46.345,205 L46.345,202 Z M47.345,210 L47.345,210 L47.345,213 L46.345,213 L46.345,210 Z M47.345,218 L47.345,218 L47.345,221 L46.345,221 L46.345,218 Z M47.345,226 L47.345,226 L47.345,229 L46.345,229 L46.345,226 Z M47.345,234 L47.345,234 L47.345,237 L46.345,237 L46.345,234 Z M47.345,242 L47.345,242 L47.345,245 L46.345,245 L46.345,242 Z M47.345,250 L47.345,250 L47.345,253 L46.345,253 L46.345,250 Z M47.345,258 L47.345,258 L47.345,261 L46.345,261 L46.345,258 Z M47.345,266 L47.345,266 L47.345,269 L46.345,269 L46.345,266 Z M47.345,274 L47.345,274 L47.345,277 L46.345,277 L46.345,274 Z M47.345,282 L47.345,282 L47.345,285 L46.345,285 L46.345,282 Z M47.345,290 L47.345,290 L47.345,293 L46.345,293 L46.345,290 Z M47.345,298 L47.345,298 L47.345,301 L46.345,301 L46.345,298 Z M47.345,306 L47.345,306 L47.345,309 L46.345,309 L46.345,306 Z M47.345,314 L47.345,314 L47.345,317 L46.345,317 L46.345,314 Z M47.345,322 L47.345,322 L47.345,325 L46.345,325 L46.345,322 Z M47.345,330 L47.345,330 L47.345,333 L46.345,333 L46.345,330 Z M47.345,338 L47.345,338 L47.345,341 L46.345,341 L46.345,338 Z M47.345,346 L47.345,346 L47.345,349 L46.345,349 L46.345,346 Z M47.345,354 L47.345,354 L47.345,357 L46.345,357 L46.345,354 Z M47.345,362 L47.345,362 L47.345,365 L46.345,365 L46.345,362 Z M47.345,10 L47.345,10 L47.345,13 L46.345,13 L46.345,10 Z" style="fill:none;stroke:rgb(210,210,210);stroke-miterlimit:10;stroke-linejoin:bevel;stroke-dasharray:3,5;"/>
    <path d="M273.40625,18 L273.40625,18 L273.40625,21 L272.40625,21 L272.40625,18 Z M273.40625,26 L273.40625,26 L273.40625,29 L272.40625,29 L272.40625,26 Z M273.40625,34 L273.40625,34 L273.40625,37 L272.40625,37 L272.40625,34 Z M273.40625,42 L273.40625,42 L273.40625,45 L272.40625,45 L272.40625,42 Z M273.40625,50 L273.40625,50 L273.40625,53 L272.40625,53 L272.40625,50 Z M273.40625,58 L273.40625,58 L273.40625,61 L272.40625,61 L272.40625,58 Z M273.40625,66 L273.40625,66 L273.40625,69 L272.40625,69 L272.40625,66 Z M273.40625,74 L273.40625,74 L273.40625,77 L272.40625,77 L272.40625,74 Z M273.40625,82 L273.40625,82 L273.40625,85 L272.40625,85 L272.40625,82 Z M273.40625,90 L273.40625,90 L273.40625,93 L272.40625,93 L272.40625,90 Z M273.40625,98 L273.40625,98 L273.40625,101 L272.40625,101 L272.40625,98 Z M273.40625,106 L273.40625,106 L273.40625,109 L272.40625,109 L272.40625,106 Z M273.40625,114 L273.40625,114 L273.40625,117 L272.40625,117 L272.40625,114 Z M273.40625,122 L273.40625,122 L273.40625,125 L272.40625,125 L272.40625,122 Z M273.40625,130 L273.40625,130 L273.40625,133 L272.40625,133 L272.40625,130 Z M273.40625,138 L273.40625,138 L273.40625,141 L272.40625,141 L272.40625,138 Z M273.40625,146 L273.40625,146 L273.40625,149 L272.40625,149 L272.40625,146 Z M273.40625,154 L273.40625,154 L273.40625,157 L272.40625,157 L272.40625,154 Z M273.40625,162 L273.40625,162 L273.40625,165 L272.40625,165 L272.40625,162 Z M273.40625,170 L273.40625,170 L273.40625,173 L272.40625,173 L272.40625,170 Z M273.40625,178 L273.40625,178 L273.40625,181 L272.40625,181 L272.40625,178 Z M273.40625,186 L273.40625,186 L273.40625,189 L272.40625,189 L272.40625,186 Z M273.40625,194 L273.40625,194 L273.40625,197 L272.40625,197 L272.40625,194 Z M273.40625,202 L273.40625,202 L273.40625,205 L272.40625,205 L272.40625,202 Z M273.40625,210 L273.40625,210 L273.40625,213 L272.40625,213 L272.40625,210 Z M273.40625,218 L273.40625,218 L273.40625,221 L272.40625,221 L272.40625,218 Z M273.40625,226 L273.40625,226 L273.40625,229 L272.40625,229 L272.40625,226 Z M273.40625,234 L273.40625,234 L273.40625,237 L272.40625,237 L272.40625,234 Z M273.40625,242 L273.40625,242 L273.40625,245 L272.40625,245 L272.40625,242 Z M273.40625,250 L273.40625,250 L273.40625,253 L272.40625,253 L272.40625,250 Z M273.40625,258 L273.40625,258 L273.40625,261 L272.40625,261 L272.40625,258 Z M273.40625,266 L273.40625,266 L273.40625,269 L272.40625,269 L272.40625,266 Z M273.40625,274 L273.40625,274 L273.40625,277 L272.40625,277 L272.40625,274 Z M273.40625,282 L273.40625,282 L273.40625,285 L272.40625,285 L272.40625,282 Z M273.40625,290 L273.40625,290 L273.40625,293 L272.40625,293 L272.40625,290 Z M273.40625,298 L273.40625,298 L273.40625,301 L272.40625,301 L272.40625,298 Z M273.40625,306 L273.40625,306 L273.40625,309 L272.40625,309 L272.40625,306 Z M273.40625,314 L273.40625,314 L273.40625,317 L272.40625,317 L272.40625,314 Z M273.40625,322 L273.40625,322 L273.40625,325 L272.40625,325 L272.40625,322 Z M273.40625,330 L273.40625,330 L273.40625,333 L272.40625,333 L272.40625,330 Z M273.40625,338 L273.40625,338 L273.40625,341 L272.40625,341 L272.40625,338 Z M273.40625,346 L273.40625,346 L273.40625,349 L272.40625,349 L272.40625,346 Z M273.40625,354 L273.40625,354 L273.40625,357 L272.40625,357 L272.40625,354 Z M273.40625,362 L273.40625,362 L273.40625,365 L272.40625,365 L272.40625,362 Z M273.40625,10 L273.40625,10 L273.40625,13 L272.40625,13 L272.40625,10 Z" style="fill:none;stroke:rgb(210,210,210);stroke-miterlimit:10;stroke-linejoin:bevel;stroke-dasharray:3,5;"/>
    <path d="M499.4675,18 L499.4675,18 L499.4675,21 L498.4675,21 L498.4675,18 Z M499.4675,26 L499.4675,26 L499.4675,29 L498.4675,29 L498.4675,26 Z M499.4675,34 L499.4675,34 L499.4675,37 L498.4675,37 L498.4675,34 Z M499.4675,42 L499.4675,42 L499.4675,45 L498.4675,45 L498.4675,42 Z M499.4675,50 L499.4675,50 L499.4675,53 L498.4675,53 L498.4675,50 Z M499.4675,58 L499.4675,58 L499.4675,61 L498.4675,61 L498.4675,58 Z M499.4675,66 L499.4675,66 L499.4675,69 L498.4675,69 L498.4675,66 Z M499.4675,74 L499.4675,74 L499.4675,77 L498.4675,77 L498.4675,74 Z M499.4675,82 L499.4675,82 L499.4675,85 L498.4675,85 L498.4675,82 Z M499.4675,90 L499.4675,90 L499.4675,93 L498.4675,93 L498.4675,90 Z M499.4675,98 L499.4675,98 L499.4675,101 L498.4675,101 L498.4675,98 Z M499.4675,106 L499.4675,106 L499.4675,109 L498.4675,109 L498.4675,106 Z M499.4675,114 L499.4675,114 L499.4675,117 L498.4675,117 L498.4675,114 Z M499.4675,122 L499.4675,122 L499.4675,125 L498.4675,125 L498.4675,122 Z M499.4675,130 L499.4675,130 L499.4675,133 L498.4675,133 L498.4675,130 Z M499.4675,138 L499.4675,138 L499.4675,141 L498.4675,141 L498.4675,138 Z M499.4675,146 L499.4675,146 L499.4675,149 L498.4675,149 L498.4675,146 Z M499.4675,154 L499.4675,154 L499.4675,157 L498.4675,157 L498.4675,154 Z M499.4675,162 L499.4675,162 L499.4675,165 L498.4675,165 L498.4675,162 Z M499.4675,170 L499.4675,170 L499.4675,173 L498.4675,173 L498.4675,170 Z M499.4675,178 L499.4675,178 L499.4675,181 L498.4675,181 L498.4675,178 Z M499.4675,186 L499.4675,186 L499.4675,189 L498.4675,189 L498.4675,186 Z M499.4675,194 L499.4675,194 L499.4675,197 L498.4675,197 L498.4675,194 Z M499.4675,202 L499.4675,202 L499.4675,205 L498.4675,205 L498.4675,202 Z M499.4675,210 L499.4675,210 L499.4675,213 L498.4675,213 L498.4675,210 Z M499.4675,218 L499.4675,218 L499.4675,221 L498.4675,221 L498.4675,218 Z M499.4675,226 L499.4675,226 L499.4675,229 L498.4675,229 L498.4675,226 Z M499.4675,234 L499.4675,234 L499.4675,237 L498.4675,237 L498.4675,234 Z M499.4675,242 L499.4675,242 L499.4675,245 L498.4675,245 L498.4675,242 Z M499.4675,250 L499.4675,250 L499.4675,253 L498.4675,253 L498.4675,250 Z M499.4675,258 L499.4675,258 L499.4675,261 L498.4675,261 L498.4675,258 Z M499.4675,266 L499.4675,266 L499.4675,269 L498.4675,269 L498.4675,266 Z M499.4675,274 L499.4675,274 L499.4675,277 L498.4675,277 L498.4675,274 Z M499.4675,282 L499.4675,282 L499.4675,285 L498.4675,285 L498.4675,282 Z M499.4675,290 L499.4675,290 L499.4675,293 L498.4675,293 L498.4675,290 Z M499.4675,298 L499.4675,298 L499.4675,301 L498.4675,301 L498.4675,298 Z M499.4675,306 L499.4675,306 L499.4675,309 L498.4675,309 L498.4675,306 Z M499.4675,314 L499.4675,314 L499.4675,317 L498.4675,317 L498.4675,314 Z M499.4675,322 L499.4675,322 L499.4675,325 L498.4675,325 L498.4675,322 Z M499.4675,330 L499.4675,330 L499.4675,333 L498.4675,333 L498.4675,330 Z M499.4675,338 L499.4675,338 L499.4675,341 L498.4675,341 L498.4675,338 Z M499.4675,346 L499.4675,346 L499.4675,349 L498.4675,349 L498.4675,346 Z M499.4675,354 L499.4675,354 L499.4675,357 L498.4675,357 L498.4675,354 Z M499.4675,362 L499.4675,362 L499.4675,365 L498.4675,365 L498.4675,362 Z M499.4675,10 L499.4675,10 L499.4675,13 L498.4675,13 L498.4675,10 Z" style="fill:none;stroke:rgb(210,210,210);stroke-miterlimit:10;stroke-linejoin:bevel;stroke-dasharray:3,5;"/>
    <rect height="360" style="fill:none;stroke:rgb(130,130,130);stroke-miterlimit:10;stroke-linejoin:bevel;stroke-dasharray:3,0;" width="491.4375" x="27.1875" y="10"/>
  </g>
  <g clip-path="url(#clip813264128)">
    <ellipse cx="46.62625" cy="355.6" rx="5" ry="5" style="fill:rgb(0,55,255);fill-opacity:0.705882352941177;stroke:none;"/>
    <line style="fill:none;stroke:rgb(0,55,255);stroke-opacity:0.705882352941177;stroke-width:2;stroke-miterlimit:10;stroke-linecap:round;" x1="46.62625" x2="272.6875" y1="355.6" y2="300.4"/>
    <ellipse cx="272.6875" cy="300.4" rx="5" ry="5" style="fill:rgb(0,55,255);fill-opacity:0.705882352941177;stroke:none;"/>
    <line style="fill:none;stroke:rgb(0,55,255);stroke-opacity:0.705882352941177;stroke-width:2;stroke-miterlimit:10;stroke-linecap:round;" x1="272.6875" x2="498.74875" y1="300.4" y2="245.2"/>
    <ellipse cx="498.74875" cy="245.2" rx="5" ry="5" style="fill:rgb(0,55,255);fill-opacity:0.705882352941177;stroke:none;"/>
    <path d="M40.12625,355.6 L46.62625,349.1 L53.12625,355.6 L46.62625,362.1 Z" style="fill:rgb(255,172,0);fill-opacity:0.705882352941177;stroke:none;"/>
    <line style="fill:none;stroke:rgb(255,172,0);stroke-opacity:0.705882352941177;stroke-width:2;stroke-miterlimit:10;stroke-linecap:round;" x1="46.62625" x2="272.6875" y1="355.6" y2="24.399999999999977"/>
    <path d="M266.1875,24.399999999999977 L272.6875,17.899999999999977 L279.1875,24.399999999999977 L272.6875,30.899999999999977 Z" style="fill:rgb(255,172,0);fill-opacity:0.705882352941177;stroke:none;"/>
    <line style="fill:none;stroke:rgb(255,172,0);stroke-opacity:0.705882352941177;stroke-width:2;stroke-miterlimit:10;stroke-linecap:round;" x1="272.6875" x2="498.74875" y1="24.399999999999977" y2="134.8"/>
    <path d="M492.24875,134.8 L498.74875,128.3 L505.24875,134.8 L498.74875,141.3 Z" style="fill:rgb(255,172,0);fill-opacity:0.705882352941177;stroke:none;"/>
  </g>
  <g>
    <rect height="50" style="fill:rgb(255,255,255);stroke:none;" width="61.375" x="532.625" y="165"/>
    <rect height="50" style="fill:none;stroke:rgb(130,130,130);stroke-miterlimit:10;stroke-linejoin:bevel;stroke-dasharray:3,0;" width="61.375" x="532.625" y="165"/>
    <line style="fill:none;stroke:rgb(0,55,255);stroke-opacity:0.705882352941177;stroke-width:2;stroke-miterlimit:10;stroke-linecap:round;" x1="542.625" x2="566.625" y1="180" y2="180"/>
    <ellipse cx="554.625" cy="180" rx="5" ry="5" style="fill:rgb(0,55,255);fill-opacity:0.705882352941177;stroke:none;"/>
  </g>
  <g transform="translate(576.625 183.9375)">
    <path d="M-0.015625,-0 L3.015625,-7.875 L4.125,-7.875 L7.359375,-0 L6.171875,-0 L5.25,-2.390625 L1.953125,-2.390625 L1.09375,-0 L-0.015625,-0 Z M2.25,-3.234375 L4.921875,-3.234375 L4.109375,-5.421875 Q3.734375,-6.40625 3.546875,-7.046875 Q3.390625,-6.296875 3.125,-5.546875 L2.25,-3.234375 Z" style="fill:rgb(0,0,0);stroke:none;"/>
  </g>
  <g>
    <line style="fill:none;stroke:rgb(255,172,0);stroke-opacity:0.705882352941177;stroke-width:2;stroke-miterlimit:10;stroke-linecap:round;" x1="542.625" x2="566.625" y1="200" y2="200"/>
    <path d="M548.125,200 L554.625,193.5 L561.125,200 L554.625,206.5 Z" style="fill:rgb(255,172,0);fill-opacity:0.705882352941177;stroke:none;"/>
  </g>
  <g transform="translate(576.625 203.9375)">
    <path d="M0.8125,-0 L0.8125,-7.875 L3.765625,-7.875 Q4.65625,-7.875 5.203125,-7.625 Q5.75,-7.390625 6.0625,-6.890625 Q6.375,-6.40625 6.375,-5.859375 Q6.375,-5.359375 6.09375,-4.90625 Q5.828125,-4.46875 5.265625,-4.1875 Q5.984375,-3.984375 6.359375,-3.46875 Q6.75,-2.96875 6.75,-2.28125 Q6.75,-1.734375 6.515625,-1.25 Q6.28125,-0.78125 5.9375,-0.515625 Q5.59375,-0.265625 5.078125,-0.125 Q4.5625,-0 3.8125,-0 L0.8125,-0 Z M1.84375,-4.5625 L3.546875,-4.5625 Q4.25,-4.5625 4.546875,-4.65625 Q4.9375,-4.78125 5.140625,-5.046875 Q5.34375,-5.328125 5.34375,-5.734375 Q5.34375,-6.125 5.15625,-6.421875 Q4.96875,-6.71875 4.609375,-6.828125 Q4.265625,-6.9375 3.421875,-6.9375 L1.84375,-6.9375 L1.84375,-4.5625 Z M1.84375,-0.921875 L3.8125,-0.921875 Q4.3125,-0.921875 4.515625,-0.96875 Q4.875,-1.03125 5.109375,-1.171875 Q5.359375,-1.328125 5.515625,-1.609375 Q5.671875,-1.90625 5.671875,-2.28125 Q5.671875,-2.71875 5.4375,-3.046875 Q5.21875,-3.375 4.8125,-3.5 Q4.421875,-3.640625 3.671875,-3.640625 L1.84375,-3.640625 L1.84375,-0.921875 Z" style="fill:rgb(0,0,0);stroke:none;"/>
  </g>
</svg>
