<?xml version="1.0" encoding="UTF-8" standalone="no"?>
<!DOCTYPE svg PUBLIC "-//W3C//DTD SVG 1.1//EN" "http://www.w3.org/Graphics/SVG/1.1/DTD/svg11.dtd">
<svg xmlns:xlink="http://www.w3.org/1999/xlink" height="400px" version="1.1" viewBox="0 0 600 400" width="600px" x="0px" y="0px" xmlns="http://www.w3.org/2000/svg">
  <defs>
    <clipPath id="clip878619584">
      <rect height="359.640625" width="508.625" x="10" y="30.359375"/>
    </clipPath>
    <clipPath id="clip1020568470">
      <rect height="359.640625" width="508.625" x="-134.31809082935467" y="-149.34192296927216"/>
    </clipPath>
    <clipPath id="clip-629789914">
      <rect height="359.640625" width="508.625" x="-345.2756591706453" y="-217.84557703072784"/>
    </clipPath>
  </defs>
  <rect height="400" style="fill:rgb(210,210,210);stroke:none;" width="600" x="0" y="0"/>
  <rect height="359.640625" style="fill:rgb(255,255,255);stroke:none;" width="508.625" x="10" y="30.359375"/>
  <rect height="359.640625" style="fill:none;stroke:rgb(130,130,130);stroke-miterlimit:10;" width="508.625" x="10" y="30.359375"/>
  <g clip-path="url(#clip878619584)">
    <path d="M264.3125,44.745000000000005 C192.6418487881523,44.745000000000005 129.122211654253,90.89471774124641 106.97476243187262,159.0575576033913 C84.82731320949225,227.22039746553622 109.08965564158183,301.8922093420869 167.07243046988603,344.01916114660867 L264.3125,210.1796875 Z" style="fill:rgb(0,55,255);fill-opacity:0.705882352941177;stroke:none;"/>
    <path d="M264.3125,44.745000000000005 C192.6418487881523,44.745000000000005 129.122211654253,90.89471774124641 106.97476243187262,159.0575576033913 C84.82731320949225,227.22039746553622 109.08965564158183,301.8922093420869 167.07243046988603,344.01916114660867 L264.3125,210.1796875 Z" style="fill:none;stroke:rgb(255,255,255);stroke-miterlimit:10;"/>
    <path d="M167.07243046988603,344.01916114660867 C225.05520529819023,386.1461129511304 303.5697947018097,386.1461129511305 361.55256953011394,344.01916114660867 C419.5353443584181,301.89220934208697 443.7976867905078,227.22039746553628 421.6502375681274,159.05755760339136 C399.50278834574704,90.89471774124644 335.98315121184777,44.74500000000003 264.31250000000006,44.745000000000005 L264.3125,210.1796875 Z" style="fill:rgb(255,172,0);fill-opacity:0.705882352941177;stroke:none;"/>
    <path d="M167.07243046988603,344.01916114660867 C225.05520529819023,386.1461129511304 303.5697947018097,386.1461129511305 361.55256953011394,344.01916114660867 C419.5353443584181,301.89220934208697 443.7976867905078,227.22039746553628 421.6502375681274,159.05755760339136 C399.50278834574704,90.89471774124644 335.98315121184777,44.74500000000003 264.31250000000006,44.745000000000005 L264.3125,210.1796875 Z" style="fill:none;stroke:rgb(255,255,255);stroke-miterlimit:10;"/>
  </g>
  <g clip-path="url(#clip1020568470)" transform="translate(144.31809082935467 179.70129796927216)">
    <path d="M3.234375,-0 L3.234375,-1.71875 L0.125,-1.71875 L0.125,-2.515625 L3.390625,-7.15625 L4.109375,-7.15625 L4.109375,-2.515625 L5.078125,-2.515625 L5.078125,-1.71875 L4.109375,-1.71875 L4.109375,-0 L3.234375,-0 Z M3.234375,-2.515625 L3.234375,-5.75 L0.984375,-2.515625 L3.234375,-2.515625 Z M6.421875,-3.53125 Q6.421875,-4.796875 6.671875,-5.5625 Q6.9375,-6.34375 7.453125,-6.765625 Q7.96875,-7.1875 8.75,-7.1875 Q9.328125,-7.1875 9.75,-6.953125 Q10.1875,-6.71875 10.46875,-6.28125 Q10.765625,-5.84375 10.921875,-5.21875 Q11.078125,-4.59375 11.078125,-3.53125 Q11.078125,-2.265625 10.8125,-1.484375 Q10.5625,-0.71875 10.046875,-0.296875 Q9.53125,0.125 8.75,0.125 Q7.71875,0.125 7.125,-0.625 Q6.421875,-1.515625 6.421875,-3.53125 Z M7.3125,-3.53125 Q7.3125,-1.765625 7.71875,-1.171875 Q8.140625,-0.59375 8.75,-0.59375 Q9.359375,-0.59375 9.765625,-1.171875 Q10.1875,-1.765625 10.1875,-3.53125 Q10.1875,-5.296875 9.765625,-5.875 Q9.359375,-6.453125 8.734375,-6.453125 Q8.140625,-6.453125 7.765625,-5.953125 Q7.3125,-5.296875 7.3125,-3.53125 Z M12.90625,0 L12.90625,-1 L13.90625,-1 L13.90625,0 L12.90625,0 Z M15.421875,-3.53125 Q15.421875,-4.796875 15.671875,-5.5625 Q15.9375,-6.34375 16.453125,-6.765625 Q16.96875,-7.1875 17.75,-7.1875 Q18.328125,-7.1875 18.75,-6.953125 Q19.1875,-6.71875 19.46875,-6.28125 Q19.765625,-5.84375 19.921875,-5.21875 Q20.078125,-4.59375 20.078125,-3.53125 Q20.078125,-2.265625 19.8125,-1.484375 Q19.5625,-0.71875 19.046875,-0.296875 Q18.53125,0.125 17.75,0.125 Q16.71875,0.125 16.125,-0.625 Q15.421875,-1.515625 15.421875,-3.53125 Z M16.3125,-3.53125 Q16.3125,-1.765625 16.71875,-1.171875 Q17.140625,-0.59375 17.75,-0.59375 Q18.359375,-0.59375 18.765625,-1.171875 Q19.1875,-1.765625 19.1875,-3.53125 Q19.1875,-5.296875 18.765625,-5.875 Q18.359375,-6.453125 17.734375,-6.453125 Q17.140625,-6.453125 16.765625,-5.953125 Q16.3125,-5.296875 16.3125,-3.53125 Z M21.578125,-5.4375 Q21.578125,-6.203125 21.96875,-6.734375 Q22.359375,-7.28125 23.078125,-7.28125 Q23.765625,-7.28125 24.203125,-6.796875 Q24.640625,-6.3125 24.640625,-5.390625 Q24.640625,-4.484375 24.1875,-3.984375 Q23.75,-3.5 23.09375,-3.5 Q22.453125,-3.5 22.015625,-3.984375 Q21.578125,-4.46875 21.578125,-5.4375 Z M23.109375,-6.671875 Q22.78125,-6.671875 22.5625,-6.390625 Q22.34375,-6.109375 22.34375,-5.359375 Q22.34375,-4.65625 22.5625,-4.375 Q22.78125,-4.109375 23.109375,-4.109375 Q23.4375,-4.109375 23.65625,-4.390625 Q23.875,-4.671875 23.875,-5.421875 Q23.875,-6.109375 23.65625,-6.390625 Q23.4375,-6.671875 23.109375,-6.671875 Z M23.109375,0.265625 L27.03125,-7.28125 L27.75,-7.28125 L23.84375,0.265625 L23.109375,0.265625 Z M26.203125,-1.6875 Q26.203125,-2.453125 26.59375,-2.984375 Q26.984375,-3.515625 27.71875,-3.515625 Q28.390625,-3.515625 28.828125,-3.03125 Q29.28125,-2.5625 29.28125,-1.625 Q29.28125,-0.71875 28.828125,-0.21875 Q28.390625,0.265625 27.71875,0.265625 Q27.078125,0.265625 26.640625,-0.21875 Q26.203125,-0.703125 26.203125,-1.6875 Z M27.75,-2.921875 Q27.40625,-2.921875 27.1875,-2.625 Q26.984375,-2.34375 26.984375,-1.59375 Q26.984375,-0.90625 27.203125,-0.625 Q27.421875,-0.34375 27.734375,-0.34375 Q28.078125,-0.34375 28.296875,-0.625 Q28.515625,-0.90625 28.515625,-1.65625 Q28.515625,-2.359375 28.296875,-2.640625 Q28.078125,-2.921875 27.75,-2.921875 Z" style="fill:rgb(255,255,255);stroke:none;"/>
  </g>
  <g clip-path="url(#clip-629789914)" transform="translate(355.2756591706453 248.20495203072784)">
    <path d="M4.96875,-5.40625 L4.109375,-5.34375 Q3.984375,-5.859375 3.765625,-6.09375 Q3.40625,-6.46875 2.890625,-6.46875 Q2.46875,-6.46875 2.15625,-6.234375 Q1.734375,-5.921875 1.5,-5.34375 Q1.265625,-4.765625 1.25,-3.6875 Q1.5625,-4.171875 2.015625,-4.40625 Q2.484375,-4.640625 2.984375,-4.640625 Q3.875,-4.640625 4.484375,-3.984375 Q5.109375,-3.34375 5.109375,-2.328125 Q5.109375,-1.65625 4.8125,-1.078125 Q4.515625,-0.5 4,-0.1875 Q3.5,0.125 2.859375,0.125 Q1.765625,0.125 1.0625,-0.6875 Q0.375,-1.5 0.375,-3.34375 Q0.375,-5.421875 1.140625,-6.375 Q1.8125,-7.1875 2.9375,-7.1875 Q3.796875,-7.1875 4.328125,-6.703125 Q4.875,-6.234375 4.96875,-5.40625 Z M1.390625,-2.3125 Q1.390625,-1.859375 1.578125,-1.4375 Q1.765625,-1.03125 2.109375,-0.8125 Q2.46875,-0.59375 2.84375,-0.59375 Q3.40625,-0.59375 3.796875,-1.046875 Q4.203125,-1.5 4.203125,-2.265625 Q4.203125,-3.015625 3.796875,-3.4375 Q3.40625,-3.875 2.8125,-3.875 Q2.21875,-3.875 1.796875,-3.4375 Q1.390625,-3.015625 1.390625,-2.3125 Z M6.421875,-3.53125 Q6.421875,-4.796875 6.671875,-5.5625 Q6.9375,-6.34375 7.453125,-6.765625 Q7.96875,-7.1875 8.75,-7.1875 Q9.328125,-7.1875 9.75,-6.953125 Q10.1875,-6.71875 10.46875,-6.28125 Q10.765625,-5.84375 10.921875,-5.21875 Q11.078125,-4.59375 11.078125,-3.53125 Q11.078125,-2.265625 10.8125,-1.484375 Q10.5625,-0.71875 10.046875,-0.296875 Q9.53125,0.125 8.75,0.125 Q7.71875,0.125 7.125,-0.625 Q6.421875,-1.515625 6.421875,-3.53125 Z M7.3125,-3.53125 Q7.3125,-1.765625 7.71875,-1.171875 Q8.140625,-0.59375 8.75,-0.59375 Q9.359375,-0.59375 9.765625,-1.171875 Q10.1875,-1.765625 10.1875,-3.53125 Q10.1875,-5.296875 9.765625,-5.875 Q9.359375,-6.453125 8.734375,-6.453125 Q8.140625,-6.453125 7.765625,-5.953125 Q7.3125,-5.296875 7.3125,-3.53125 Z M12.90625,0 L12.90625,-1 L13.90625,-1 L13.90625,0 L12.90625,0 Z M15.421875,-3.53125 Q15.421875,-4.796875 15.671875,-5.5625 Q15.9375,-6.34375 16.453125,-6.765625 Q16.96875,-7.1875 17.75,-7.1875 Q18.328125,-7.1875 18.75,-6.953125 Q19.1875,-6.71875 19.46875,-6.28125 Q19.765625,-5.84375 19.921875,-5.21875 Q20.078125,-4.59375 20.078125,-3.53125 Q20.078125,-2.265625 19.8125,-1.484375 Q19.5625,-0.71875 19.046875,-0.296875 Q18.53125,0.125 17.75,0.125 Q16.71875,0.125 16.125,-0.625 Q15.421875,-1.515625 15.421875,-3.53125 Z M16.3125,-3.53125 Q16.3125,-1.765625 16.71875,-1.171875 Q17.140625,-0.59375 17.75,-0.59375 Q18.359375,-0.59375 18.765625,-1.171875 Q19.1875,-1.765625 19.1875,-3.53125 Q19.1875,-5.296875 18.765625,-5.875 Q18.359375,-6.453125 17.734375,-6.453125 Q17.140625,-6.453125 16.765625,-5.953125 Q16.3125,-5.296875 16.3125,-3.53125 Z M21.578125,-5.4375 Q21.578125,-6.203125 21.96875,-6.734375 Q22.359375,-7.28125 23.078125,-7.28125 Q23.765625,-7.28125 24.203125,-6.796875 Q24.640625,-6.3125 24.640625,-5.390625 Q24.640625,-4.484375 24.1875,-3.984375 Q23.75,-3.5 23.09375,-3.5 Q22.453125,-3.5 22.015625,-3.984375 Q21.578125,-4.46875 21.578125,-5.4375 Z M23.109375,-6.671875 Q22.78125,-6.671875 22.5625,-6.390625 Q22.34375,-6.109375 22.34375,-5.359375 Q22.34375,-4.65625 22.5625,-4.375 Q22.78125,-4.109375 23.109375,-4.109375 Q23.4375,-4.109375 23.65625,-4.390625 Q23.875,-4.671875 23.875,-5.421875 Q23.875,-6.109375 23.65625,-6.390625 Q23.4375,-6.671875 23.109375,-6.671875 Z M23.109375,0.265625 L27.03125,-7.28125 L27.75,-7.28125 L23.84375,0.265625 L23.109375,0.265625 Z M26.203125,-1.6875 Q26.203125,-2.453125 26.59375,-2.984375 Q26.984375,-3.515625 27.71875,-3.515625 Q28.390625,-3.515625 28.828125,-3.03125 Q29.28125,-2.5625 29.28125,-1.625 Q29.28125,-0.71875 28.828125,-0.21875 Q28.390625,0.265625 27.71875,0.265625 Q27.078125,0.265625 26.640625,-0.21875 Q26.203125,-0.703125 26.203125,-1.6875 Z M27.75,-2.921875 Q27.40625,-2.921875 27.1875,-2.625 Q26.984375,-2.34375 26.984375,-1.59375 Q26.984375,-0.90625 27.203125,-0.625 Q27.421875,-0.34375 27.734375,-0.34375 Q28.078125,-0.34375 28.296875,-0.625 Q28.515625,-0.90625 28.515625,-1.65625 Q28.515625,-2.359375 28.296875,-2.640625 Q28.078125,-2.921875 27.75,-2.921875 Z" style="fill:rgb(0,0,0);stroke:none;"/>
  </g>
  <g transform="translate(215.12744140625 25.359375)">
    <path d="M1.03125,-0 L1.03125,-10.015625 L3.046875,-10.015625 L3.046875,-6.078125 L7.015625,-6.078125 L7.015625,-10.015625 L9.03125,-10.015625 L9.03125,-0 L7.015625,-0 L7.015625,-4.375 L3.046875,-4.375 L3.046875,-0 L1.03125,-0 Z M15.3134765625,-2.3125 L17.2353515625,-1.984375 Q16.8603515625,-0.9375 16.0634765625,-0.375 Q15.2666015625,0.171875 14.0791015625,0.171875 Q12.1884765625,0.171875 11.2666015625,-1.078125 Q10.5478515625,-2.0625 10.5478515625,-3.578125 Q10.5478515625,-5.375 11.4853515625,-6.390625 Q12.4384765625,-7.421875 13.8916015625,-7.421875 Q15.5009765625,-7.421875 16.4384765625,-6.34375 Q17.3759765625,-5.28125 17.3291015625,-3.078125 L12.5166015625,-3.078125 Q12.5478515625,-2.21875 12.9853515625,-1.734375 Q13.4384765625,-1.265625 14.0947265625,-1.265625 Q14.5478515625,-1.265625 14.8447265625,-1.515625 Q15.1572265625,-1.765625 15.3134765625,-2.3125 Z M15.4228515625,-4.25 Q15.4072265625,-5.09375 15.0009765625,-5.515625 Q14.5947265625,-5.953125 14.0009765625,-5.953125 Q13.3759765625,-5.953125 12.9541015625,-5.5 Q12.5478515625,-5.03125 12.5634765625,-4.25 L15.4228515625,-4.25 Z M18.896484375,0 L18.896484375,-10.015625 L20.818359375,-10.015625 L20.818359375,0 L18.896484375,0 Z M22.7861328125,0 L22.7861328125,-10.015625 L24.7080078125,-10.015625 L24.7080078125,0 L22.7861328125,0 Z M26.23828125,-3.734375 Q26.23828125,-4.6875 26.70703125,-5.578125 Q27.17578125,-6.484375 28.03515625,-6.953125 Q28.91015625,-7.421875 29.97265625,-7.421875 Q31.62890625,-7.421875 32.67578125,-6.34375 Q33.72265625,-5.28125 33.72265625,-3.65625 Q33.72265625,-2 32.66015625,-0.90625 Q31.59765625,0.171875 29.98828125,0.171875 Q28.98828125,0.171875 28.08203125,-0.28125 Q27.17578125,-0.734375 26.70703125,-1.609375 Q26.23828125,-2.484375 26.23828125,-3.734375 Z M28.20703125,-3.625 Q28.20703125,-2.546875 28.72265625,-1.96875 Q29.23828125,-1.40625 29.98828125,-1.40625 Q30.73828125,-1.40625 31.23828125,-1.96875 Q31.75390625,-2.546875 31.75390625,-3.640625 Q31.75390625,-4.703125 31.23828125,-5.28125 Q30.73828125,-5.859375 29.98828125,-5.859375 Q29.23828125,-5.859375 28.72265625,-5.28125 Q28.20703125,-4.703125 28.20703125,-3.625 Z M39.1328125,0 L39.1328125,-10.015625 L42.3828125,-10.015625 Q44.2265625,-10.015625 44.7890625,-9.875 Q45.6484375,-9.640625 46.2265625,-8.890625 Q46.8203125,-8.140625 46.8203125,-6.9375 Q46.8203125,-6.015625 46.4765625,-5.390625 Q46.1484375,-4.765625 45.6328125,-4.40625 Q45.1171875,-4.046875 44.5703125,-3.921875 Q43.8515625,-3.78125 42.4765625,-3.78125 L41.1640625,-3.78125 L41.1640625,0 L39.1328125,0 Z M41.1640625,-8.328125 L41.1640625,-5.484375 L42.2734375,-5.484375 Q43.4609375,-5.484375 43.8671875,-5.640625 Q44.2734375,-5.796875 44.4921875,-6.125 Q44.7265625,-6.46875 44.7265625,-6.90625 Q44.7265625,-7.453125 44.3984375,-7.8125 Q44.0859375,-8.171875 43.5859375,-8.265625 Q43.2265625,-8.328125 42.1328125,-8.328125 L41.1640625,-8.328125 Z M48.455078125,-8.25 L48.455078125,-10.015625 L50.376953125,-10.015625 L50.376953125,-8.25 L48.455078125,-8.25 Z M48.455078125,0 L48.455078125,-7.265625 L50.376953125,-7.265625 L50.376953125,0 L48.455078125,0 Z M56.5478515625,-2.3125 L58.4697265625,-1.984375 Q58.0947265625,-0.9375 57.2978515625,-0.375 Q56.5009765625,0.171875 55.3134765625,0.171875 Q53.4228515625,0.171875 52.5009765625,-1.078125 Q51.7822265625,-2.0625 51.7822265625,-3.578125 Q51.7822265625,-5.375 52.7197265625,-6.390625 Q53.6728515625,-7.421875 55.1259765625,-7.421875 Q56.7353515625,-7.421875 57.6728515625,-6.34375 Q58.6103515625,-5.28125 58.5634765625,-3.078125 L53.7509765625,-3.078125 Q53.7822265625,-2.21875 54.2197265625,-1.734375 Q54.6728515625,-1.265625 55.3291015625,-1.265625 Q55.7822265625,-1.265625 56.0791015625,-1.515625 Q56.3916015625,-1.765625 56.5478515625,-2.3125 Z M56.6572265625,-4.25 Q56.6416015625,-5.09375 56.2353515625,-5.515625 Q55.8291015625,-5.953125 55.2353515625,-5.953125 Q54.6103515625,-5.953125 54.1884765625,-5.5 Q53.7822265625,-5.03125 53.7978515625,-4.25 L56.6572265625,-4.25 Z M70.4580078125,-3.6875 L72.4111328125,-3.0625 Q71.9580078125,-1.421875 70.9111328125,-0.625 Q69.8642578125,0.171875 68.2548828125,0.171875 Q66.2548828125,0.171875 64.9580078125,-1.1875 Q63.6767578125,-2.5625 63.6767578125,-4.921875 Q63.6767578125,-7.421875 64.9736328125,-8.796875 Q66.2705078125,-10.1875 68.3798828125,-10.1875 Q70.2080078125,-10.1875 71.3642578125,-9.109375 Q72.0517578125,-8.46875 72.3798828125,-7.265625 L70.3798828125,-6.78125 Q70.2080078125,-7.5625 69.6455078125,-8.015625 Q69.0830078125,-8.46875 68.2705078125,-8.46875 Q67.1611328125,-8.46875 66.4580078125,-7.65625 Q65.7705078125,-6.859375 65.7705078125,-5.078125 Q65.7705078125,-3.171875 66.4423828125,-2.359375 Q67.1298828125,-1.5625 68.2236328125,-1.5625 Q69.0361328125,-1.5625 69.6142578125,-2.0625 Q70.1923828125,-2.578125 70.4580078125,-3.6875 Z M76.052734375,-10.015625 L76.052734375,-6.34375 Q76.974609375,-7.421875 78.271484375,-7.421875 Q78.927734375,-7.421875 79.458984375,-7.171875 Q80.005859375,-6.9375 80.271484375,-6.546875 Q80.537109375,-6.171875 80.630859375,-5.703125 Q80.740234375,-5.234375 80.740234375,-4.265625 L80.740234375,0 L78.818359375,0 L78.818359375,-3.828125 Q78.818359375,-4.984375 78.708984375,-5.28125 Q78.599609375,-5.59375 78.318359375,-5.765625 Q78.052734375,-5.953125 77.630859375,-5.953125 Q77.146484375,-5.953125 76.771484375,-5.71875 Q76.396484375,-5.484375 76.224609375,-5.015625 Q76.052734375,-4.546875 76.052734375,-3.640625 L76.052734375,0 L74.130859375,0 L74.130859375,-10.015625 L76.052734375,-10.015625 Z M84.1201171875,-5.046875 L82.3857421875,-5.359375 Q82.6669921875,-6.40625 83.3857421875,-6.90625 Q84.1044921875,-7.421875 85.5263671875,-7.421875 Q86.8076171875,-7.421875 87.4326171875,-7.109375 Q88.0732421875,-6.8125 88.3232421875,-6.34375 Q88.5732421875,-5.875 88.5732421875,-4.625 L88.5576171875,-2.390625 Q88.5576171875,-1.421875 88.6513671875,-0.96875 Q88.7451171875,-0.515625 88.9951171875,0 L87.1044921875,0 Q87.0263671875,-0.1875 86.9169921875,-0.5625 Q86.8701171875,-0.734375 86.8388671875,-0.796875 Q86.3544921875,-0.3125 85.7919921875,-0.0625 Q85.2294921875,0.171875 84.5888671875,0.171875 Q83.4794921875,0.171875 82.8232421875,-0.4375 Q82.1826171875,-1.046875 82.1826171875,-1.984375 Q82.1826171875,-2.59375 82.4794921875,-3.078125 Q82.7763671875,-3.5625 83.2919921875,-3.8125 Q83.8232421875,-4.078125 84.8232421875,-4.265625 Q86.1669921875,-4.515625 86.6982421875,-4.734375 L86.6982421875,-4.921875 Q86.6982421875,-5.484375 86.4169921875,-5.71875 Q86.1513671875,-5.953125 85.3857421875,-5.953125 Q84.8701171875,-5.953125 84.5888671875,-5.75 Q84.3076171875,-5.546875 84.1201171875,-5.046875 Z M86.6982421875,-3.484375 Q86.3232421875,-3.359375 85.5263671875,-3.1875 Q84.7294921875,-3.015625 84.4794921875,-2.859375 Q84.1044921875,-2.59375 84.1044921875,-2.1875 Q84.1044921875,-1.78125 84.4013671875,-1.484375 Q84.6982421875,-1.1875 85.1669921875,-1.1875 Q85.6826171875,-1.1875 86.1669921875,-1.53125 Q86.5107421875,-1.796875 86.6201171875,-2.171875 Q86.6982421875,-2.40625 86.6982421875,-3.109375 L86.6982421875,-3.484375 Z M92.3125,0 L90.390625,0 L90.390625,-7.265625 L92.171875,-7.265625 L92.171875,-6.234375 Q92.640625,-6.953125 93,-7.1875 Q93.359375,-7.421875 93.828125,-7.421875 Q94.484375,-7.421875 95.09375,-7.0625 L94.5,-5.390625 Q94.015625,-5.703125 93.59375,-5.703125 Q93.1875,-5.703125 92.90625,-5.46875 Q92.640625,-5.25 92.46875,-4.671875 Q92.3125,-4.09375 92.3125,-2.25 L92.3125,0 Z M99.2451171875,-7.265625 L99.2451171875,-5.734375 L97.9326171875,-5.734375 L97.9326171875,-2.796875 Q97.9326171875,-1.921875 97.9638671875,-1.765625 Q98.0107421875,-1.625 98.1357421875,-1.515625 Q98.2763671875,-1.421875 98.4794921875,-1.421875 Q98.7451171875,-1.421875 99.2451171875,-1.609375 L99.4013671875,-0.125 Q98.7451171875,0.171875 97.8857421875,0.171875 Q97.3701171875,0.171875 96.9482421875,0 Q96.5419921875,-0.1875 96.3388671875,-0.453125 Q96.1513671875,-0.734375 96.0732421875,-1.203125 Q96.0107421875,-1.546875 96.0107421875,-2.5625 L96.0107421875,-5.734375 L95.1357421875,-5.734375 L95.1357421875,-7.265625 L96.0107421875,-7.265625 L96.0107421875,-8.703125 L97.9326171875,-9.828125 L97.9326171875,-7.265625 L99.2451171875,-7.265625 Z" style="fill:rgb(0,0,0);stroke:none;"/>
  </g>
  <g>
    <rect height="70" style="fill:rgb(255,255,255);stroke:none;" width="61.375" x="532.625" y="175.1796875"/>
    <rect height="70" style="fill:none;stroke:rgb(130,130,130);stroke-miterlimit:10;stroke-linejoin:bevel;stroke-dasharray:3,0;" width="61.375" x="532.625" y="175.1796875"/>
    <rect height="20" style="fill:rgb(0,55,255);fill-opacity:0.705882352941177;stroke:none;" width="20" x="542.625" y="185.1796875"/>
  </g>
  <g transform="translate(572.625 199.1171875)">
    <path d="M-0.015625,-0 L3.015625,-7.875 L4.125,-7.875 L7.359375,-0 L6.171875,-0 L5.25,-2.390625 L1.953125,-2.390625 L1.09375,-0 L-0.015625,-0 Z M2.25,-3.234375 L4.921875,-3.234375 L4.109375,-5.421875 Q3.734375,-6.40625 3.546875,-7.046875 Q3.390625,-6.296875 3.125,-5.546875 L2.25,-3.234375 Z" style="fill:rgb(0,0,0);stroke:none;"/>
  </g>
  <g>
    <rect height="20" style="fill:rgb(255,172,0);fill-opacity:0.705882352941177;stroke:none;" width="20" x="542.625" y="215.1796875"/>
  </g>
  <g transform="translate(572.625 229.1171875)">
    <path d="M0.8125,-0 L0.8125,-7.875 L3.765625,-7.875 Q4.65625,-7.875 5.203125,-7.625 Q5.75,-7.390625 6.0625,-6.890625 Q6.375,-6.40625 6.375,-5.859375 Q6.375,-5.359375 6.09375,-4.90625 Q5.828125,-4.46875 5.265625,-4.1875 Q5.984375,-3.984375 6.359375,-3.46875 Q6.75,-2.96875 6.75,-2.28125 Q6.75,-1.734375 6.515625,-1.25 Q6.28125,-0.78125 5.9375,-0.515625 Q5.59375,-0.265625 5.078125,-0.125 Q4.5625,-0 3.8125,-0 L0.8125,-0 Z M1.84375,-4.5625 L3.546875,-4.5625 Q4.25,-4.5625 4.546875,-4.65625 Q4.9375,-4.78125 5.140625,-5.046875 Q5.34375,-5.328125 5.34375,-5.734375 Q5.34375,-6.125 5.15625,-6.421875 Q4.96875,-6.71875 4.609375,-6.828125 Q4.265625,-6.9375 3.421875,-6.9375 L1.84375,-6.9375 L1.84375,-4.5625 Z M1.84375,-0.921875 L3.8125,-0.921875 Q4.3125,-0.921875 4.515625,-0.96875 Q4.875,-1.03125 5.109375,-1.171875 Q5.359375,-1.328125 5.515625,-1.609375 Q5.671875,-1.90625 5.671875,-2.28125 Q5.671875,-2.71875 5.4375,-3.046875 Q5.21875,-3.375 4.8125,-3.5 Q4.421875,-3.640625 3.671875,-3.640625 L1.84375,-3.640625 L1.84375,-0.921875 Z" style="fill:rgb(0,0,0);stroke:none;"/>
  </g>
</svg>
